G04 #@! TF.GenerationSoftware,KiCad,Pcbnew,9.0.7*
G04 #@! TF.CreationDate,2026-02-25T10:02:27-05:00*
G04 #@! TF.ProjectId,remigochi-pcb,72656d69-676f-4636-9869-2d7063622e6b,rev?*
G04 #@! TF.SameCoordinates,Original*
G04 #@! TF.FileFunction,Copper,L2,Bot*
G04 #@! TF.FilePolarity,Positive*
%FSLAX46Y46*%
G04 Gerber Fmt 4.6, Leading zero omitted, Abs format (unit mm)*
G04 Created by KiCad (PCBNEW 9.0.7) date 2026-02-25 10:02:27*
%MOMM*%
%LPD*%
G01*
G04 APERTURE LIST*
G04 Aperture macros list*
%AMRoundRect*
0 Rectangle with rounded corners*
0 $1 Rounding radius*
0 $2 $3 $4 $5 $6 $7 $8 $9 X,Y pos of 4 corners*
0 Add a 4 corners polygon primitive as box body*
4,1,4,$2,$3,$4,$5,$6,$7,$8,$9,$2,$3,0*
0 Add four circle primitives for the rounded corners*
1,1,$1+$1,$2,$3*
1,1,$1+$1,$4,$5*
1,1,$1+$1,$6,$7*
1,1,$1+$1,$8,$9*
0 Add four rect primitives between the rounded corners*
20,1,$1+$1,$2,$3,$4,$5,0*
20,1,$1+$1,$4,$5,$6,$7,0*
20,1,$1+$1,$6,$7,$8,$9,0*
20,1,$1+$1,$8,$9,$2,$3,0*%
G04 Aperture macros list end*
G04 #@! TA.AperFunction,HeatsinkPad*
%ADD10O,2.100000X1.000000*%
G04 #@! TD*
G04 #@! TA.AperFunction,HeatsinkPad*
%ADD11O,1.800000X1.000000*%
G04 #@! TD*
G04 #@! TA.AperFunction,ComponentPad*
%ADD12R,1.700000X1.700000*%
G04 #@! TD*
G04 #@! TA.AperFunction,ComponentPad*
%ADD13C,1.700000*%
G04 #@! TD*
G04 #@! TA.AperFunction,HeatsinkPad*
%ADD14C,0.600000*%
G04 #@! TD*
G04 #@! TA.AperFunction,ComponentPad*
%ADD15RoundRect,0.750000X-0.750000X0.750000X-0.750000X-0.750000X0.750000X-0.750000X0.750000X0.750000X0*%
G04 #@! TD*
G04 #@! TA.AperFunction,ComponentPad*
%ADD16C,3.000000*%
G04 #@! TD*
G04 #@! TA.AperFunction,ViaPad*
%ADD17C,0.500000*%
G04 #@! TD*
G04 #@! TA.AperFunction,ViaPad*
%ADD18C,0.600000*%
G04 #@! TD*
G04 #@! TA.AperFunction,Conductor*
%ADD19C,0.600000*%
G04 #@! TD*
G04 #@! TA.AperFunction,Conductor*
%ADD20C,0.200000*%
G04 #@! TD*
G04 APERTURE END LIST*
D10*
X118520000Y-98040000D03*
D11*
X114320000Y-98040000D03*
D10*
X118520000Y-106680000D03*
D11*
X114320000Y-106680000D03*
D12*
X163500000Y-64490000D03*
D13*
X163500000Y-67030000D03*
X163500000Y-69570000D03*
X163500000Y-72110000D03*
X163500000Y-74650000D03*
X163500000Y-77190000D03*
X163500000Y-79730000D03*
X163500000Y-82270000D03*
X163500000Y-84810000D03*
X163500000Y-87350000D03*
X163500000Y-89890000D03*
X163500000Y-92430000D03*
X163500000Y-94970000D03*
X163500000Y-97510000D03*
D12*
X122710000Y-136500000D03*
D13*
X125250000Y-136500000D03*
X127790000Y-136500000D03*
D12*
X187000000Y-94720000D03*
D13*
X187000000Y-97260000D03*
X187000000Y-99800000D03*
X187000000Y-102340000D03*
X187000000Y-104880000D03*
X187000000Y-107420000D03*
X187000000Y-109960000D03*
X187000000Y-112500000D03*
X187000000Y-115040000D03*
X187000000Y-117580000D03*
X187000000Y-120120000D03*
X187000000Y-122660000D03*
X187000000Y-125200000D03*
X187000000Y-127740000D03*
D12*
X133000000Y-64500000D03*
D13*
X133000000Y-67040000D03*
X133000000Y-69580000D03*
X133000000Y-72120000D03*
X133000000Y-74660000D03*
X133000000Y-77200000D03*
X133000000Y-79740000D03*
X133000000Y-82280000D03*
X133000000Y-84820000D03*
X133000000Y-87360000D03*
X133000000Y-89900000D03*
X133000000Y-92440000D03*
X133000000Y-94980000D03*
X133000000Y-97520000D03*
D12*
X133840000Y-102000000D03*
D13*
X136380000Y-102000000D03*
X138920000Y-102000000D03*
X141460000Y-102000000D03*
X144000000Y-102000000D03*
X146540000Y-102000000D03*
X149080000Y-102000000D03*
X151620000Y-102000000D03*
X154160000Y-102000000D03*
X156700000Y-102000000D03*
X159240000Y-102000000D03*
X161780000Y-102000000D03*
D14*
X145350000Y-71050000D03*
X145350000Y-72450000D03*
X146050000Y-70350000D03*
X146050000Y-71750000D03*
X146050000Y-73150000D03*
X146750000Y-71050000D03*
X146750000Y-72450000D03*
X147450000Y-70350000D03*
X147450000Y-71750000D03*
X147450000Y-73150000D03*
X148150000Y-71050000D03*
X148150000Y-72450000D03*
D15*
X115750000Y-115000000D03*
D16*
X115750000Y-120000000D03*
D12*
X141510000Y-137750000D03*
D13*
X144050000Y-137750000D03*
X146590000Y-137750000D03*
X149130000Y-137750000D03*
X151670000Y-137750000D03*
X154210000Y-137750000D03*
X156750000Y-137750000D03*
X159290000Y-137750000D03*
D17*
X171300000Y-111000000D03*
X171300000Y-123100000D03*
X120500000Y-90500000D03*
X131500000Y-112750000D03*
X175250000Y-71250000D03*
X148700000Y-114617500D03*
X176750000Y-88500000D03*
D18*
X128300000Y-65400000D03*
D17*
X179000000Y-122750000D03*
X182750000Y-88250000D03*
X182750000Y-72250000D03*
X187000000Y-88500000D03*
X140750000Y-64000000D03*
X135250000Y-108250000D03*
X123000000Y-115250000D03*
X113000000Y-86000000D03*
D18*
X168100000Y-110400000D03*
X168300000Y-111800000D03*
D17*
X127000000Y-119750000D03*
X174750000Y-74750000D03*
X175750000Y-83250000D03*
X184750000Y-70750000D03*
D18*
X166600000Y-110300000D03*
D17*
X127000000Y-113500000D03*
X173750000Y-73000000D03*
X124000000Y-72250000D03*
X155750000Y-64000000D03*
X125500000Y-110750000D03*
X121250000Y-117250000D03*
X186750000Y-71750000D03*
X176500000Y-73000000D03*
D18*
X121900000Y-64000000D03*
X166500000Y-111800000D03*
D17*
X185000000Y-89500000D03*
X134250000Y-108750000D03*
X117250000Y-73750000D03*
X118250000Y-72250000D03*
D18*
X177400000Y-106400000D03*
X177100000Y-104200000D03*
D17*
X157000000Y-127000000D03*
D18*
X176500000Y-101900000D03*
X152500000Y-106300000D03*
D17*
X159750000Y-127500000D03*
D18*
X150800000Y-108600000D03*
D17*
X128750000Y-131000000D03*
X128760000Y-125250000D03*
X122000000Y-123000000D03*
X118500000Y-127500000D03*
X124000000Y-118500000D03*
X125500000Y-131250000D03*
X125800000Y-125250000D03*
X157821659Y-120800000D03*
X157800000Y-123600000D03*
X167500000Y-81000000D03*
X158500000Y-119250000D03*
D18*
X134675737Y-104924266D03*
D17*
X128000000Y-82200000D03*
X126000000Y-83500000D03*
X125750000Y-103000000D03*
X161500000Y-99500000D03*
X156250000Y-88500000D03*
X163800000Y-105500000D03*
D18*
X143040460Y-106159540D03*
X144700000Y-116700000D03*
X142500000Y-104000000D03*
X145000000Y-99600000D03*
D17*
X146250000Y-105250000D03*
X150750000Y-105250000D03*
X143000000Y-105250000D03*
X157500000Y-118250000D03*
D18*
X160200000Y-125200000D03*
X155100000Y-124100000D03*
X134700000Y-104100000D03*
D19*
X171300000Y-123100000D02*
X171300000Y-111000000D01*
X177100000Y-104200000D02*
X177400000Y-104500000D01*
X177400000Y-104500000D02*
X177400000Y-106400000D01*
D20*
X150900000Y-108600000D02*
X152500000Y-107000000D01*
X152500000Y-107000000D02*
X152500000Y-106300000D01*
X150800000Y-108600000D02*
X150900000Y-108600000D01*
X157000000Y-127000000D02*
X159250000Y-127000000D01*
X159250000Y-127000000D02*
X159750000Y-127500000D01*
D19*
X177100000Y-102500000D02*
X176500000Y-101900000D01*
X177100000Y-104200000D02*
X177100000Y-102500000D01*
D20*
X128750000Y-125260000D02*
X128760000Y-125250000D01*
X128750000Y-131000000D02*
X128750000Y-125260000D01*
X118500000Y-127500000D02*
X118500000Y-126500000D01*
X122000000Y-120500000D02*
X124000000Y-118500000D01*
X122000000Y-123000000D02*
X122000000Y-120500000D01*
X118500000Y-126500000D02*
X122000000Y-123000000D01*
X125500000Y-131250000D02*
X125500000Y-125550000D01*
X125500000Y-125550000D02*
X125800000Y-125250000D01*
X157851000Y-90459000D02*
X163500000Y-84810000D01*
X159081000Y-118070468D02*
X157851000Y-116840468D01*
X159081000Y-119490659D02*
X159081000Y-118070468D01*
X157821659Y-120800000D02*
X157821659Y-120750000D01*
X157821659Y-120750000D02*
X159081000Y-119490659D01*
X157851000Y-116840468D02*
X157851000Y-90459000D01*
X160391000Y-121009000D02*
X160391000Y-90459000D01*
X167500000Y-81000000D02*
X167500000Y-83350000D01*
X167500000Y-83350000D02*
X163500000Y-87350000D01*
X157800000Y-123600000D02*
X160391000Y-121009000D01*
X160391000Y-90459000D02*
X163500000Y-87350000D01*
X155500000Y-115000000D02*
X158500000Y-118000000D01*
X156230000Y-89520000D02*
X155500000Y-90250000D01*
X163500000Y-82270000D02*
X156250000Y-89520000D01*
X155500000Y-90250000D02*
X155500000Y-115000000D01*
X158500000Y-118000000D02*
X158500000Y-119250000D01*
X156250000Y-89520000D02*
X156230000Y-89520000D01*
X133951734Y-104924266D02*
X134675737Y-104924266D01*
X131488000Y-102460532D02*
X133951734Y-104924266D01*
X133000000Y-82280000D02*
X131488000Y-83792000D01*
X131488000Y-83792000D02*
X131488000Y-102460532D01*
X127300000Y-82200000D02*
X126000000Y-83500000D01*
X128000000Y-82200000D02*
X127300000Y-82200000D01*
X125750000Y-103000000D02*
X125750000Y-102250000D01*
X127900000Y-100100000D02*
X127900000Y-84840000D01*
X125750000Y-102250000D02*
X127900000Y-100100000D01*
X127900000Y-84840000D02*
X133000000Y-79740000D01*
X155800000Y-88100000D02*
X155060000Y-87360000D01*
X163800000Y-105500000D02*
X163800000Y-100800000D01*
X155060000Y-87360000D02*
X133000000Y-87360000D01*
X155850000Y-88100000D02*
X155800000Y-88100000D01*
X163800000Y-100800000D02*
X162500000Y-99500000D01*
X162500000Y-99500000D02*
X161500000Y-99500000D01*
X156250000Y-88500000D02*
X155850000Y-88100000D01*
X134991000Y-102238760D02*
X134991000Y-91891000D01*
X138911780Y-106159540D02*
X134991000Y-102238760D01*
X143040460Y-106159540D02*
X138911780Y-106159540D01*
X134991000Y-91891000D02*
X133000000Y-89900000D01*
X142571659Y-104000000D02*
X142500000Y-104000000D01*
X145000000Y-99600000D02*
X149220000Y-99600000D01*
X144700000Y-116700000D02*
X144700000Y-106128341D01*
X149220000Y-99600000D02*
X151620000Y-102000000D01*
X144700000Y-106128341D02*
X142571659Y-104000000D01*
X146250000Y-105250000D02*
X150750000Y-105250000D01*
X139630000Y-105250000D02*
X143000000Y-105250000D01*
X136380000Y-102000000D02*
X139630000Y-105250000D01*
X157000000Y-117540000D02*
X141460000Y-102000000D01*
X157000000Y-117750000D02*
X157500000Y-118250000D01*
X157000000Y-117750000D02*
X157000000Y-117540000D01*
X160200000Y-125200000D02*
X156200000Y-125200000D01*
X133638000Y-104100000D02*
X131849000Y-102311000D01*
X134700000Y-104100000D02*
X133638000Y-104100000D01*
X131849000Y-102311000D02*
X131849000Y-85971000D01*
X156200000Y-125200000D02*
X155100000Y-124100000D01*
X131849000Y-85971000D02*
X133000000Y-84820000D01*
G04 #@! TA.AperFunction,Conductor*
G36*
X131877770Y-63020185D02*
G01*
X131923525Y-63072989D01*
X131933469Y-63142147D01*
X131904444Y-63205703D01*
X131885042Y-63223766D01*
X131792812Y-63292809D01*
X131792809Y-63292812D01*
X131706649Y-63407906D01*
X131706645Y-63407913D01*
X131656403Y-63542620D01*
X131656401Y-63542627D01*
X131650000Y-63602155D01*
X131650000Y-64250000D01*
X132566988Y-64250000D01*
X132534075Y-64307007D01*
X132500000Y-64434174D01*
X132500000Y-64565826D01*
X132534075Y-64692993D01*
X132566988Y-64750000D01*
X131650000Y-64750000D01*
X131650000Y-65397844D01*
X131656401Y-65457372D01*
X131656403Y-65457379D01*
X131706645Y-65592086D01*
X131706649Y-65592093D01*
X131792809Y-65707187D01*
X131792812Y-65707190D01*
X131907906Y-65793350D01*
X131907913Y-65793354D01*
X132039470Y-65842422D01*
X132095404Y-65884293D01*
X132119821Y-65949758D01*
X132104969Y-66018031D01*
X132083819Y-66046285D01*
X131969889Y-66160215D01*
X131844951Y-66332179D01*
X131748444Y-66521585D01*
X131682753Y-66723760D01*
X131649500Y-66933713D01*
X131649500Y-67146286D01*
X131681169Y-67346239D01*
X131682754Y-67356243D01*
X131745194Y-67548414D01*
X131748444Y-67558414D01*
X131844951Y-67747820D01*
X131969890Y-67919786D01*
X132120213Y-68070109D01*
X132292182Y-68195050D01*
X132300946Y-68199516D01*
X132351742Y-68247491D01*
X132368536Y-68315312D01*
X132345998Y-68381447D01*
X132300946Y-68420484D01*
X132292182Y-68424949D01*
X132120213Y-68549890D01*
X131969890Y-68700213D01*
X131844951Y-68872179D01*
X131748444Y-69061585D01*
X131682753Y-69263760D01*
X131649500Y-69473713D01*
X131649500Y-69686286D01*
X131681169Y-69886239D01*
X131682754Y-69896243D01*
X131745194Y-70088414D01*
X131748444Y-70098414D01*
X131844951Y-70287820D01*
X131969890Y-70459786D01*
X132120213Y-70610109D01*
X132292182Y-70735050D01*
X132300946Y-70739516D01*
X132351742Y-70787491D01*
X132368536Y-70855312D01*
X132345998Y-70921447D01*
X132300946Y-70960484D01*
X132292182Y-70964949D01*
X132120213Y-71089890D01*
X131969890Y-71240213D01*
X131844951Y-71412179D01*
X131748444Y-71601585D01*
X131682753Y-71803760D01*
X131649500Y-72013713D01*
X131649500Y-72226286D01*
X131681169Y-72426239D01*
X131682754Y-72436243D01*
X131745194Y-72628414D01*
X131748444Y-72638414D01*
X131844951Y-72827820D01*
X131969890Y-72999786D01*
X132120213Y-73150109D01*
X132292182Y-73275050D01*
X132300946Y-73279516D01*
X132351742Y-73327491D01*
X132368536Y-73395312D01*
X132345998Y-73461447D01*
X132300946Y-73500484D01*
X132292182Y-73504949D01*
X132120213Y-73629890D01*
X131969890Y-73780213D01*
X131844951Y-73952179D01*
X131748444Y-74141585D01*
X131682753Y-74343760D01*
X131649500Y-74553713D01*
X131649500Y-74766286D01*
X131681169Y-74966239D01*
X131682754Y-74976243D01*
X131745194Y-75168414D01*
X131748444Y-75178414D01*
X131844951Y-75367820D01*
X131969890Y-75539786D01*
X132120213Y-75690109D01*
X132292182Y-75815050D01*
X132300946Y-75819516D01*
X132351742Y-75867491D01*
X132368536Y-75935312D01*
X132345998Y-76001447D01*
X132300946Y-76040484D01*
X132292182Y-76044949D01*
X132120213Y-76169890D01*
X131969890Y-76320213D01*
X131844951Y-76492179D01*
X131748444Y-76681585D01*
X131682753Y-76883760D01*
X131649500Y-77093713D01*
X131649500Y-77306286D01*
X131681229Y-77506618D01*
X131682754Y-77516243D01*
X131745194Y-77708414D01*
X131748444Y-77718414D01*
X131844951Y-77907820D01*
X131969890Y-78079786D01*
X132120213Y-78230109D01*
X132292182Y-78355050D01*
X132300946Y-78359516D01*
X132351742Y-78407491D01*
X132368536Y-78475312D01*
X132345998Y-78541447D01*
X132300946Y-78580484D01*
X132292182Y-78584949D01*
X132120213Y-78709890D01*
X131969890Y-78860213D01*
X131844951Y-79032179D01*
X131748444Y-79221585D01*
X131682753Y-79423760D01*
X131649500Y-79633713D01*
X131649500Y-79846286D01*
X131682754Y-80056244D01*
X131682754Y-80056247D01*
X131696491Y-80098523D01*
X131698486Y-80168364D01*
X131666241Y-80224522D01*
X127531286Y-84359478D01*
X127419481Y-84471282D01*
X127419479Y-84471285D01*
X127403862Y-84498334D01*
X127388245Y-84525385D01*
X127340423Y-84608215D01*
X127299499Y-84760943D01*
X127299499Y-84760945D01*
X127299499Y-84929046D01*
X127299500Y-84929059D01*
X127299500Y-99799902D01*
X127279815Y-99866941D01*
X127263181Y-99887583D01*
X125269481Y-101881282D01*
X125269479Y-101881285D01*
X125219361Y-101968094D01*
X125219359Y-101968096D01*
X125190425Y-102018209D01*
X125190424Y-102018210D01*
X125190423Y-102018215D01*
X125149499Y-102170943D01*
X125149499Y-102170945D01*
X125149499Y-102339046D01*
X125149500Y-102339059D01*
X125149500Y-102510232D01*
X125129815Y-102577271D01*
X125128603Y-102579122D01*
X125084914Y-102644508D01*
X125028343Y-102781082D01*
X125028340Y-102781092D01*
X124999500Y-102926079D01*
X124999500Y-102926082D01*
X124999500Y-103073918D01*
X124999500Y-103073920D01*
X124999499Y-103073920D01*
X125028340Y-103218907D01*
X125028343Y-103218917D01*
X125084912Y-103355488D01*
X125084919Y-103355501D01*
X125167048Y-103478415D01*
X125167051Y-103478419D01*
X125271580Y-103582948D01*
X125271584Y-103582951D01*
X125394498Y-103665080D01*
X125394511Y-103665087D01*
X125529066Y-103720821D01*
X125531087Y-103721658D01*
X125531091Y-103721658D01*
X125531092Y-103721659D01*
X125676079Y-103750500D01*
X125676082Y-103750500D01*
X125823920Y-103750500D01*
X125952368Y-103724949D01*
X125968913Y-103721658D01*
X126105495Y-103665084D01*
X126228416Y-103582951D01*
X126332951Y-103478416D01*
X126415084Y-103355495D01*
X126471658Y-103218913D01*
X126500500Y-103073918D01*
X126500500Y-102926082D01*
X126500500Y-102926079D01*
X126471659Y-102781092D01*
X126471658Y-102781091D01*
X126471658Y-102781087D01*
X126441310Y-102707820D01*
X126415086Y-102644508D01*
X126387364Y-102603019D01*
X126366487Y-102536342D01*
X126384972Y-102468962D01*
X126402782Y-102446452D01*
X128258506Y-100590727D01*
X128258511Y-100590724D01*
X128268714Y-100580520D01*
X128268716Y-100580520D01*
X128380520Y-100468716D01*
X128437665Y-100369737D01*
X128459577Y-100331785D01*
X128500500Y-100179057D01*
X128500500Y-100020943D01*
X128500500Y-85140096D01*
X128520185Y-85073057D01*
X128536814Y-85052420D01*
X131437819Y-82151414D01*
X131499142Y-82117930D01*
X131568834Y-82122914D01*
X131624767Y-82164786D01*
X131649184Y-82230250D01*
X131649500Y-82239096D01*
X131649500Y-82386287D01*
X131654668Y-82418917D01*
X131682754Y-82596244D01*
X131682754Y-82596247D01*
X131696491Y-82638523D01*
X131698486Y-82708364D01*
X131666241Y-82764522D01*
X131119286Y-83311478D01*
X131007481Y-83423282D01*
X131007479Y-83423284D01*
X130979288Y-83472114D01*
X130967372Y-83492754D01*
X130928423Y-83560215D01*
X130887499Y-83712943D01*
X130887499Y-83712945D01*
X130887499Y-83881046D01*
X130887500Y-83881059D01*
X130887500Y-102373862D01*
X130887499Y-102373880D01*
X130887499Y-102539586D01*
X130887498Y-102539586D01*
X130928424Y-102692321D01*
X130928425Y-102692322D01*
X130950478Y-102730518D01*
X130950479Y-102730519D01*
X131007477Y-102829244D01*
X131007481Y-102829249D01*
X131126349Y-102948117D01*
X131126355Y-102948122D01*
X133466873Y-105288640D01*
X133466883Y-105288651D01*
X133471213Y-105292981D01*
X133471214Y-105292982D01*
X133583018Y-105404786D01*
X133643568Y-105439744D01*
X133719949Y-105483843D01*
X133872677Y-105524767D01*
X133872680Y-105524767D01*
X134038387Y-105524767D01*
X134038403Y-105524766D01*
X134095971Y-105524766D01*
X134163010Y-105544451D01*
X134164862Y-105545664D01*
X134296551Y-105633656D01*
X134296564Y-105633663D01*
X134442235Y-105694001D01*
X134442240Y-105694003D01*
X134587263Y-105722850D01*
X134596890Y-105724765D01*
X134596893Y-105724766D01*
X134596895Y-105724766D01*
X134754581Y-105724766D01*
X134754582Y-105724765D01*
X134909234Y-105694003D01*
X135054916Y-105633660D01*
X135186026Y-105546055D01*
X135297526Y-105434555D01*
X135385131Y-105303445D01*
X135445474Y-105157763D01*
X135476237Y-105003108D01*
X135476237Y-104845424D01*
X135476237Y-104845421D01*
X135476236Y-104845419D01*
X135450039Y-104713719D01*
X135445474Y-104690769D01*
X135402785Y-104587709D01*
X135395317Y-104518243D01*
X135407997Y-104481790D01*
X135409384Y-104479193D01*
X135409394Y-104479179D01*
X135469737Y-104333497D01*
X135500500Y-104178842D01*
X135500500Y-104021158D01*
X135500500Y-104021155D01*
X135475051Y-103893217D01*
X135481278Y-103823625D01*
X135524141Y-103768448D01*
X135590031Y-103745203D01*
X135658028Y-103761271D01*
X135684349Y-103781344D01*
X138426919Y-106523914D01*
X138426929Y-106523925D01*
X138431259Y-106528255D01*
X138431260Y-106528256D01*
X138543064Y-106640060D01*
X138543066Y-106640061D01*
X138543070Y-106640064D01*
X138610816Y-106679177D01*
X138610820Y-106679178D01*
X138610821Y-106679179D01*
X138645408Y-106699148D01*
X138679992Y-106719116D01*
X138679994Y-106719116D01*
X138679995Y-106719117D01*
X138832722Y-106760040D01*
X138832723Y-106760040D01*
X142460694Y-106760040D01*
X142527733Y-106779725D01*
X142529585Y-106780938D01*
X142661274Y-106868930D01*
X142661287Y-106868937D01*
X142806958Y-106929275D01*
X142806963Y-106929277D01*
X142959185Y-106959556D01*
X142961613Y-106960039D01*
X142961616Y-106960040D01*
X142961618Y-106960040D01*
X143119304Y-106960040D01*
X143119305Y-106960039D01*
X143273957Y-106929277D01*
X143388643Y-106881773D01*
X143419632Y-106868937D01*
X143419632Y-106868936D01*
X143419639Y-106868934D01*
X143550749Y-106781329D01*
X143662249Y-106669829D01*
X143749854Y-106538719D01*
X143810197Y-106393037D01*
X143815585Y-106365948D01*
X143820294Y-106356944D01*
X143821020Y-106346806D01*
X143836215Y-106326508D01*
X143847968Y-106304039D01*
X143856801Y-106299008D01*
X143862892Y-106290873D01*
X143886646Y-106282012D01*
X143908683Y-106269464D01*
X143918832Y-106270007D01*
X143928356Y-106266456D01*
X143953133Y-106271846D01*
X143978453Y-106273203D01*
X143988514Y-106279542D01*
X143996629Y-106281308D01*
X144024883Y-106302459D01*
X144063181Y-106340757D01*
X144096666Y-106402080D01*
X144099500Y-106428438D01*
X144099500Y-116120234D01*
X144079815Y-116187273D01*
X144078602Y-116189125D01*
X143990609Y-116320814D01*
X143990602Y-116320827D01*
X143930264Y-116466498D01*
X143930261Y-116466510D01*
X143899500Y-116621153D01*
X143899500Y-116778846D01*
X143930261Y-116933489D01*
X143930264Y-116933501D01*
X143990602Y-117079172D01*
X143990609Y-117079185D01*
X144078210Y-117210288D01*
X144078213Y-117210292D01*
X144189707Y-117321786D01*
X144189711Y-117321789D01*
X144320814Y-117409390D01*
X144320827Y-117409397D01*
X144466498Y-117469735D01*
X144466503Y-117469737D01*
X144621153Y-117500499D01*
X144621156Y-117500500D01*
X144621158Y-117500500D01*
X144778844Y-117500500D01*
X144778845Y-117500499D01*
X144933497Y-117469737D01*
X145079179Y-117409394D01*
X145210289Y-117321789D01*
X145321789Y-117210289D01*
X145409394Y-117079179D01*
X145469737Y-116933497D01*
X145500500Y-116778842D01*
X145500500Y-116621158D01*
X145500500Y-116621155D01*
X145500499Y-116621153D01*
X145487208Y-116554335D01*
X145469737Y-116466503D01*
X145450676Y-116420486D01*
X145409397Y-116320827D01*
X145409390Y-116320814D01*
X145321398Y-116189125D01*
X145300520Y-116122447D01*
X145300500Y-116120234D01*
X145300500Y-106989097D01*
X145320185Y-106922058D01*
X145372989Y-106876303D01*
X145442147Y-106866359D01*
X145505703Y-106895384D01*
X145512181Y-106901416D01*
X156363621Y-117752856D01*
X156394556Y-117804396D01*
X156399499Y-117820619D01*
X156399499Y-117829057D01*
X156440423Y-117981785D01*
X156450651Y-117999500D01*
X156457743Y-118011784D01*
X156457744Y-118011786D01*
X156519477Y-118118712D01*
X156519481Y-118118717D01*
X156729064Y-118328300D01*
X156762549Y-118389623D01*
X156763000Y-118391789D01*
X156778340Y-118468907D01*
X156778343Y-118468917D01*
X156834912Y-118605488D01*
X156834919Y-118605501D01*
X156917048Y-118728415D01*
X156917051Y-118728419D01*
X157021580Y-118832948D01*
X157021584Y-118832951D01*
X157144498Y-118915080D01*
X157144511Y-118915087D01*
X157254115Y-118960486D01*
X157281087Y-118971658D01*
X157281091Y-118971658D01*
X157281092Y-118971659D01*
X157426079Y-119000500D01*
X157426082Y-119000500D01*
X157573918Y-119000500D01*
X157611083Y-118993107D01*
X157680673Y-118999333D01*
X157735851Y-119042195D01*
X157759097Y-119108084D01*
X157756893Y-119138914D01*
X157749500Y-119176082D01*
X157749500Y-119323918D01*
X157749500Y-119323920D01*
X157749499Y-119323920D01*
X157778340Y-119468907D01*
X157778343Y-119468917D01*
X157834912Y-119605488D01*
X157834922Y-119605506D01*
X157891336Y-119689936D01*
X157912214Y-119756613D01*
X157893729Y-119823993D01*
X157875915Y-119846507D01*
X157680942Y-120041480D01*
X157619619Y-120074965D01*
X157617457Y-120075415D01*
X157602749Y-120078341D01*
X157602741Y-120078343D01*
X157466170Y-120134912D01*
X157466157Y-120134919D01*
X157343243Y-120217048D01*
X157343241Y-120217050D01*
X157238710Y-120321580D01*
X157238707Y-120321584D01*
X157156578Y-120444498D01*
X157156571Y-120444511D01*
X157100002Y-120581082D01*
X157099999Y-120581092D01*
X157071159Y-120726079D01*
X157071159Y-120726082D01*
X157071159Y-120873918D01*
X157071159Y-120873920D01*
X157071158Y-120873920D01*
X157099999Y-121018907D01*
X157100002Y-121018917D01*
X157156571Y-121155488D01*
X157156578Y-121155501D01*
X157238707Y-121278415D01*
X157238710Y-121278419D01*
X157343239Y-121382948D01*
X157343243Y-121382951D01*
X157466157Y-121465080D01*
X157466170Y-121465087D01*
X157568039Y-121507282D01*
X157602746Y-121521658D01*
X157602750Y-121521658D01*
X157602751Y-121521659D01*
X157747738Y-121550500D01*
X157747741Y-121550500D01*
X157895579Y-121550500D01*
X157993121Y-121531096D01*
X158040572Y-121521658D01*
X158177154Y-121465084D01*
X158300075Y-121382951D01*
X158404610Y-121278416D01*
X158486743Y-121155495D01*
X158543317Y-121018913D01*
X158571074Y-120879373D01*
X158603459Y-120817462D01*
X158604956Y-120815937D01*
X159449713Y-119971180D01*
X159449716Y-119971179D01*
X159561520Y-119859375D01*
X159566806Y-119850217D01*
X159577524Y-119839177D01*
X159595077Y-119829250D01*
X159609668Y-119815335D01*
X159624866Y-119812403D01*
X159638342Y-119804783D01*
X159658475Y-119805922D01*
X159678273Y-119802104D01*
X159692644Y-119807855D01*
X159708100Y-119808730D01*
X159724421Y-119820573D01*
X159743141Y-119828065D01*
X159752120Y-119840672D01*
X159764650Y-119849764D01*
X159771977Y-119868550D01*
X159783676Y-119884975D01*
X159787689Y-119908833D01*
X159790039Y-119914858D01*
X159789309Y-119918468D01*
X159790500Y-119925544D01*
X159790500Y-120708902D01*
X159770815Y-120775941D01*
X159754181Y-120796583D01*
X157721699Y-122829064D01*
X157660376Y-122862549D01*
X157658210Y-122863000D01*
X157581092Y-122878340D01*
X157581084Y-122878342D01*
X157444511Y-122934912D01*
X157444498Y-122934919D01*
X157321584Y-123017048D01*
X157321580Y-123017051D01*
X157217051Y-123121580D01*
X157217048Y-123121584D01*
X157134919Y-123244498D01*
X157134912Y-123244511D01*
X157078343Y-123381082D01*
X157078340Y-123381092D01*
X157049500Y-123526079D01*
X157049500Y-123526082D01*
X157049500Y-123673918D01*
X157049500Y-123673920D01*
X157049499Y-123673920D01*
X157078340Y-123818907D01*
X157078343Y-123818917D01*
X157134912Y-123955488D01*
X157134919Y-123955501D01*
X157217048Y-124078415D01*
X157217051Y-124078419D01*
X157321580Y-124182948D01*
X157321584Y-124182951D01*
X157444498Y-124265080D01*
X157444511Y-124265087D01*
X157577586Y-124320208D01*
X157581087Y-124321658D01*
X157581091Y-124321658D01*
X157581092Y-124321659D01*
X157726079Y-124350500D01*
X157726082Y-124350500D01*
X157873920Y-124350500D01*
X157971462Y-124331096D01*
X158018913Y-124321658D01*
X158155495Y-124265084D01*
X158278416Y-124182951D01*
X158382951Y-124078416D01*
X158465084Y-123955495D01*
X158521658Y-123818913D01*
X158536999Y-123741786D01*
X158569381Y-123679879D01*
X158570876Y-123678357D01*
X160749506Y-121499728D01*
X160749511Y-121499724D01*
X160759714Y-121489520D01*
X160759716Y-121489520D01*
X160871520Y-121377716D01*
X160950577Y-121240784D01*
X160991500Y-121088057D01*
X160991500Y-110921153D01*
X170499500Y-110921153D01*
X170499500Y-123178846D01*
X170530261Y-123333489D01*
X170530264Y-123333501D01*
X170590602Y-123479172D01*
X170590609Y-123479185D01*
X170678210Y-123610288D01*
X170678213Y-123610292D01*
X170789707Y-123721786D01*
X170789711Y-123721789D01*
X170920814Y-123809390D01*
X170920827Y-123809397D01*
X171066498Y-123869735D01*
X171066503Y-123869737D01*
X171221153Y-123900499D01*
X171221156Y-123900500D01*
X171221158Y-123900500D01*
X171378844Y-123900500D01*
X171378845Y-123900499D01*
X171533497Y-123869737D01*
X171679179Y-123809394D01*
X171810289Y-123721789D01*
X171921789Y-123610289D01*
X172009394Y-123479179D01*
X172009711Y-123478415D01*
X172023067Y-123446166D01*
X172069737Y-123333497D01*
X172100500Y-123178842D01*
X172100500Y-110921158D01*
X172100500Y-110921155D01*
X172100499Y-110921153D01*
X172069738Y-110766510D01*
X172069737Y-110766503D01*
X172069735Y-110766498D01*
X172009397Y-110620827D01*
X172009390Y-110620814D01*
X171921789Y-110489711D01*
X171921786Y-110489707D01*
X171810292Y-110378213D01*
X171810288Y-110378210D01*
X171679185Y-110290609D01*
X171679172Y-110290602D01*
X171533501Y-110230264D01*
X171533489Y-110230261D01*
X171378845Y-110199500D01*
X171378842Y-110199500D01*
X171221158Y-110199500D01*
X171221155Y-110199500D01*
X171066510Y-110230261D01*
X171066498Y-110230264D01*
X170920827Y-110290602D01*
X170920814Y-110290609D01*
X170789711Y-110378210D01*
X170789707Y-110378213D01*
X170678213Y-110489707D01*
X170678210Y-110489711D01*
X170590609Y-110620814D01*
X170590602Y-110620827D01*
X170530264Y-110766498D01*
X170530261Y-110766510D01*
X170499500Y-110921153D01*
X160991500Y-110921153D01*
X160991500Y-103316290D01*
X161011185Y-103249251D01*
X161063989Y-103203496D01*
X161133147Y-103193552D01*
X161171793Y-103205804D01*
X161261588Y-103251557D01*
X161463757Y-103317246D01*
X161673713Y-103350500D01*
X161673714Y-103350500D01*
X161886286Y-103350500D01*
X161886287Y-103350500D01*
X162096243Y-103317246D01*
X162298412Y-103251557D01*
X162487816Y-103155051D01*
X162568500Y-103096431D01*
X162659786Y-103030109D01*
X162659788Y-103030106D01*
X162659792Y-103030104D01*
X162810104Y-102879792D01*
X162810106Y-102879788D01*
X162810109Y-102879786D01*
X162935048Y-102707820D01*
X162935047Y-102707820D01*
X162935051Y-102707816D01*
X162965015Y-102649007D01*
X163012990Y-102598212D01*
X163080810Y-102581417D01*
X163146945Y-102603954D01*
X163190397Y-102658669D01*
X163199500Y-102705303D01*
X163199500Y-105010232D01*
X163179815Y-105077271D01*
X163178603Y-105079122D01*
X163134914Y-105144508D01*
X163078343Y-105281082D01*
X163078340Y-105281092D01*
X163049500Y-105426079D01*
X163049500Y-105426082D01*
X163049500Y-105573918D01*
X163049500Y-105573920D01*
X163049499Y-105573920D01*
X163078340Y-105718907D01*
X163078343Y-105718917D01*
X163134912Y-105855488D01*
X163134919Y-105855501D01*
X163217048Y-105978415D01*
X163217051Y-105978419D01*
X163321580Y-106082948D01*
X163321584Y-106082951D01*
X163444498Y-106165080D01*
X163444511Y-106165087D01*
X163581082Y-106221656D01*
X163581087Y-106221658D01*
X163581091Y-106221658D01*
X163581092Y-106221659D01*
X163726079Y-106250500D01*
X163726082Y-106250500D01*
X163873920Y-106250500D01*
X163971462Y-106231096D01*
X164018913Y-106221658D01*
X164155495Y-106165084D01*
X164278416Y-106082951D01*
X164382951Y-105978416D01*
X164465084Y-105855495D01*
X164521658Y-105718913D01*
X164544220Y-105605488D01*
X164550500Y-105573920D01*
X164550500Y-105426079D01*
X164521659Y-105281092D01*
X164521658Y-105281091D01*
X164521658Y-105281087D01*
X164465084Y-105144505D01*
X164421396Y-105079121D01*
X164400520Y-105012444D01*
X164400500Y-105010232D01*
X164400500Y-101821153D01*
X175699500Y-101821153D01*
X175699500Y-101978846D01*
X175730261Y-102133489D01*
X175730264Y-102133501D01*
X175790602Y-102279172D01*
X175790609Y-102279185D01*
X175878210Y-102410288D01*
X175878213Y-102410292D01*
X176263181Y-102795259D01*
X176296666Y-102856582D01*
X176299500Y-102882940D01*
X176299500Y-104278846D01*
X176330261Y-104433489D01*
X176330264Y-104433501D01*
X176390602Y-104579172D01*
X176390609Y-104579185D01*
X176478209Y-104710287D01*
X176478210Y-104710288D01*
X176478211Y-104710289D01*
X176563182Y-104795260D01*
X176596666Y-104856581D01*
X176599500Y-104882940D01*
X176599500Y-106478846D01*
X176630261Y-106633489D01*
X176630264Y-106633501D01*
X176690602Y-106779172D01*
X176690609Y-106779185D01*
X176778210Y-106910288D01*
X176778213Y-106910292D01*
X176889707Y-107021786D01*
X176889711Y-107021789D01*
X177020814Y-107109390D01*
X177020827Y-107109397D01*
X177127747Y-107153684D01*
X177166503Y-107169737D01*
X177321153Y-107200499D01*
X177321156Y-107200500D01*
X177321158Y-107200500D01*
X177478844Y-107200500D01*
X177478845Y-107200499D01*
X177633497Y-107169737D01*
X177779179Y-107109394D01*
X177910289Y-107021789D01*
X178021789Y-106910289D01*
X178109394Y-106779179D01*
X178169737Y-106633497D01*
X178200500Y-106478842D01*
X178200500Y-104421158D01*
X178200500Y-104421155D01*
X178200499Y-104421153D01*
X178188650Y-104361585D01*
X178169737Y-104266503D01*
X178109534Y-104121158D01*
X178109397Y-104120827D01*
X178109390Y-104120814D01*
X178021789Y-103989711D01*
X178021786Y-103989707D01*
X177936819Y-103904740D01*
X177903334Y-103843417D01*
X177900500Y-103817059D01*
X177900500Y-102421155D01*
X177900499Y-102421153D01*
X177898338Y-102410288D01*
X177869737Y-102266503D01*
X177830155Y-102170943D01*
X177809397Y-102120827D01*
X177809390Y-102120814D01*
X177721790Y-101989712D01*
X177700172Y-101968094D01*
X177610289Y-101878211D01*
X177364257Y-101632179D01*
X177010292Y-101278213D01*
X177010288Y-101278210D01*
X176879185Y-101190609D01*
X176879172Y-101190602D01*
X176733501Y-101130264D01*
X176733489Y-101130261D01*
X176578845Y-101099500D01*
X176578842Y-101099500D01*
X176421158Y-101099500D01*
X176421155Y-101099500D01*
X176266510Y-101130261D01*
X176266498Y-101130264D01*
X176120827Y-101190602D01*
X176120814Y-101190609D01*
X175989711Y-101278210D01*
X175989707Y-101278213D01*
X175878213Y-101389707D01*
X175878210Y-101389711D01*
X175790609Y-101520814D01*
X175790602Y-101520827D01*
X175730264Y-101666498D01*
X175730261Y-101666510D01*
X175699500Y-101821153D01*
X164400500Y-101821153D01*
X164400500Y-100889060D01*
X164400501Y-100889047D01*
X164400501Y-100720944D01*
X164397819Y-100710935D01*
X164359577Y-100568216D01*
X164324708Y-100507820D01*
X164280524Y-100431290D01*
X164280518Y-100431282D01*
X162987590Y-99138355D01*
X162987588Y-99138352D01*
X162868717Y-99019481D01*
X162868716Y-99019480D01*
X162781904Y-98969360D01*
X162781904Y-98969359D01*
X162781900Y-98969358D01*
X162731785Y-98940423D01*
X162579057Y-98899499D01*
X162420943Y-98899499D01*
X162413347Y-98899499D01*
X162413331Y-98899500D01*
X161989767Y-98899500D01*
X161922728Y-98879815D01*
X161920876Y-98878602D01*
X161855501Y-98834919D01*
X161855488Y-98834912D01*
X161718917Y-98778343D01*
X161718907Y-98778340D01*
X161573920Y-98749500D01*
X161573918Y-98749500D01*
X161426082Y-98749500D01*
X161426080Y-98749500D01*
X161281092Y-98778340D01*
X161281082Y-98778343D01*
X161162952Y-98827274D01*
X161093483Y-98834743D01*
X161031004Y-98803467D01*
X160995352Y-98743378D01*
X160991500Y-98712713D01*
X160991500Y-90759096D01*
X161011185Y-90692057D01*
X161027814Y-90671419D01*
X161937819Y-89761414D01*
X161999142Y-89727930D01*
X162068834Y-89732914D01*
X162124767Y-89774786D01*
X162149184Y-89840250D01*
X162149500Y-89849096D01*
X162149500Y-89996287D01*
X162182754Y-90206243D01*
X162239193Y-90379945D01*
X162248444Y-90408414D01*
X162344951Y-90597820D01*
X162469890Y-90769786D01*
X162620213Y-90920109D01*
X162792182Y-91045050D01*
X162800946Y-91049516D01*
X162851742Y-91097491D01*
X162868536Y-91165312D01*
X162845998Y-91231447D01*
X162800946Y-91270484D01*
X162792182Y-91274949D01*
X162620213Y-91399890D01*
X162469890Y-91550213D01*
X162344951Y-91722179D01*
X162248444Y-91911585D01*
X162182753Y-92113760D01*
X162181170Y-92123757D01*
X162149500Y-92323713D01*
X162149500Y-92536287D01*
X162182754Y-92746243D01*
X162186003Y-92756243D01*
X162248444Y-92948414D01*
X162344951Y-93137820D01*
X162469890Y-93309786D01*
X162620213Y-93460109D01*
X162792182Y-93585050D01*
X162800946Y-93589516D01*
X162851742Y-93637491D01*
X162868536Y-93705312D01*
X162845998Y-93771447D01*
X162800946Y-93810484D01*
X162792182Y-93814949D01*
X162620213Y-93939890D01*
X162469890Y-94090213D01*
X162344951Y-94262179D01*
X162248444Y-94451585D01*
X162182753Y-94653760D01*
X162181170Y-94663757D01*
X162149500Y-94863713D01*
X162149500Y-95076287D01*
X162182754Y-95286243D01*
X162186003Y-95296243D01*
X162248444Y-95488414D01*
X162344951Y-95677820D01*
X162469890Y-95849786D01*
X162620213Y-96000109D01*
X162792182Y-96125050D01*
X162800946Y-96129516D01*
X162851742Y-96177491D01*
X162868536Y-96245312D01*
X162845998Y-96311447D01*
X162800946Y-96350484D01*
X162792182Y-96354949D01*
X162620213Y-96479890D01*
X162469890Y-96630213D01*
X162344951Y-96802179D01*
X162248444Y-96991585D01*
X162182753Y-97193760D01*
X162149500Y-97403713D01*
X162149500Y-97616286D01*
X162178316Y-97798226D01*
X162182754Y-97826243D01*
X162228755Y-97967820D01*
X162248444Y-98028414D01*
X162344951Y-98217820D01*
X162469890Y-98389786D01*
X162620213Y-98540109D01*
X162792179Y-98665048D01*
X162792181Y-98665049D01*
X162792184Y-98665051D01*
X162981588Y-98761557D01*
X163183757Y-98827246D01*
X163393713Y-98860500D01*
X163393714Y-98860500D01*
X163606286Y-98860500D01*
X163606287Y-98860500D01*
X163816243Y-98827246D01*
X164018412Y-98761557D01*
X164207816Y-98665051D01*
X164229789Y-98649086D01*
X164379786Y-98540109D01*
X164379788Y-98540106D01*
X164379792Y-98540104D01*
X164530104Y-98389792D01*
X164530106Y-98389788D01*
X164530109Y-98389786D01*
X164639086Y-98239789D01*
X164655051Y-98217816D01*
X164751557Y-98028412D01*
X164817246Y-97826243D01*
X164850500Y-97616287D01*
X164850500Y-97403713D01*
X164817246Y-97193757D01*
X164751557Y-96991588D01*
X164655051Y-96802184D01*
X164655049Y-96802181D01*
X164655048Y-96802179D01*
X164530109Y-96630213D01*
X164379786Y-96479890D01*
X164207820Y-96354951D01*
X164207115Y-96354591D01*
X164199054Y-96350485D01*
X164148259Y-96302512D01*
X164131463Y-96234692D01*
X164153999Y-96168556D01*
X164199054Y-96129515D01*
X164207816Y-96125051D01*
X164235853Y-96104681D01*
X164379786Y-96000109D01*
X164379788Y-96000106D01*
X164379792Y-96000104D01*
X164530104Y-95849792D01*
X164530106Y-95849788D01*
X164530109Y-95849786D01*
X164639086Y-95699789D01*
X164655051Y-95677816D01*
X164751557Y-95488412D01*
X164817246Y-95286243D01*
X164850500Y-95076287D01*
X164850500Y-94863713D01*
X164817246Y-94653757D01*
X164751557Y-94451588D01*
X164655051Y-94262184D01*
X164655049Y-94262181D01*
X164655048Y-94262179D01*
X164530109Y-94090213D01*
X164379786Y-93939890D01*
X164207820Y-93814951D01*
X164207115Y-93814591D01*
X164199054Y-93810485D01*
X164148259Y-93762512D01*
X164131463Y-93694692D01*
X164153999Y-93628556D01*
X164199054Y-93589515D01*
X164207816Y-93585051D01*
X164307741Y-93512452D01*
X164379786Y-93460109D01*
X164379788Y-93460106D01*
X164379792Y-93460104D01*
X164530104Y-93309792D01*
X164530106Y-93309788D01*
X164530109Y-93309786D01*
X164639086Y-93159789D01*
X164655051Y-93137816D01*
X164751557Y-92948412D01*
X164817246Y-92746243D01*
X164850500Y-92536287D01*
X164850500Y-92323713D01*
X164817246Y-92113757D01*
X164751557Y-91911588D01*
X164655051Y-91722184D01*
X164655049Y-91722181D01*
X164655048Y-91722179D01*
X164530109Y-91550213D01*
X164379786Y-91399890D01*
X164207820Y-91274951D01*
X164207115Y-91274591D01*
X164199054Y-91270485D01*
X164148259Y-91222512D01*
X164131463Y-91154692D01*
X164153999Y-91088556D01*
X164199054Y-91049515D01*
X164207816Y-91045051D01*
X164229789Y-91029086D01*
X164379786Y-90920109D01*
X164379788Y-90920106D01*
X164379792Y-90920104D01*
X164530104Y-90769792D01*
X164530106Y-90769788D01*
X164530109Y-90769786D01*
X164655048Y-90597820D01*
X164655047Y-90597820D01*
X164655051Y-90597816D01*
X164751557Y-90408412D01*
X164817246Y-90206243D01*
X164850500Y-89996287D01*
X164850500Y-89783713D01*
X164817246Y-89573757D01*
X164751557Y-89371588D01*
X164655051Y-89182184D01*
X164655049Y-89182181D01*
X164655048Y-89182179D01*
X164530109Y-89010213D01*
X164379786Y-88859890D01*
X164207820Y-88734951D01*
X164207115Y-88734591D01*
X164199054Y-88730485D01*
X164148259Y-88682512D01*
X164131463Y-88614692D01*
X164153999Y-88548556D01*
X164199054Y-88509515D01*
X164207816Y-88505051D01*
X164257831Y-88468713D01*
X164379786Y-88380109D01*
X164379788Y-88380106D01*
X164379792Y-88380104D01*
X164530104Y-88229792D01*
X164530106Y-88229788D01*
X164530109Y-88229786D01*
X164655048Y-88057820D01*
X164655047Y-88057820D01*
X164655051Y-88057816D01*
X164751557Y-87868412D01*
X164817246Y-87666243D01*
X164850500Y-87456287D01*
X164850500Y-87243713D01*
X164817246Y-87033757D01*
X164803506Y-86991473D01*
X164801512Y-86921635D01*
X164833755Y-86865478D01*
X166621514Y-85077720D01*
X184280100Y-85077720D01*
X184308941Y-85222706D01*
X184308944Y-85222716D01*
X184365513Y-85359287D01*
X184365520Y-85359300D01*
X184447649Y-85482214D01*
X184447652Y-85482218D01*
X184552181Y-85586747D01*
X184552185Y-85586750D01*
X184675099Y-85668879D01*
X184675112Y-85668886D01*
X184811683Y-85725455D01*
X184811688Y-85725457D01*
X184811692Y-85725457D01*
X184811693Y-85725458D01*
X184956679Y-85754299D01*
X184956682Y-85754299D01*
X185104520Y-85754299D01*
X185202061Y-85734895D01*
X185249512Y-85725457D01*
X185386094Y-85668883D01*
X185509015Y-85586750D01*
X185613550Y-85482215D01*
X185695683Y-85359294D01*
X185752257Y-85222712D01*
X185771446Y-85126244D01*
X185781099Y-85077720D01*
X185781099Y-84929879D01*
X185752258Y-84784893D01*
X185752257Y-84784892D01*
X185752257Y-84784888D01*
X185731245Y-84734161D01*
X185695686Y-84648312D01*
X185695679Y-84648299D01*
X185613550Y-84525384D01*
X185509018Y-84420852D01*
X185509014Y-84420849D01*
X185386100Y-84338720D01*
X185386087Y-84338713D01*
X185249516Y-84282144D01*
X185249506Y-84282141D01*
X185104520Y-84253301D01*
X185104518Y-84253301D01*
X184956682Y-84253301D01*
X184956680Y-84253301D01*
X184811693Y-84282141D01*
X184811683Y-84282144D01*
X184675112Y-84338713D01*
X184675099Y-84338720D01*
X184552185Y-84420849D01*
X184552181Y-84420852D01*
X184447652Y-84525381D01*
X184447650Y-84525384D01*
X184365520Y-84648299D01*
X184365513Y-84648312D01*
X184308944Y-84784883D01*
X184308941Y-84784893D01*
X184280101Y-84929879D01*
X184280101Y-84929882D01*
X184280101Y-85077718D01*
X184280101Y-85077720D01*
X184280100Y-85077720D01*
X166621514Y-85077720D01*
X167858506Y-83840728D01*
X167858511Y-83840724D01*
X167868714Y-83830520D01*
X167868716Y-83830520D01*
X167980520Y-83718716D01*
X168056424Y-83587246D01*
X168059577Y-83581785D01*
X168100500Y-83429058D01*
X168100500Y-83270943D01*
X168100500Y-81489767D01*
X168120185Y-81422728D01*
X168121398Y-81420876D01*
X168165080Y-81355501D01*
X168165080Y-81355500D01*
X168165084Y-81355495D01*
X168221658Y-81218913D01*
X168243226Y-81110486D01*
X168250500Y-81073920D01*
X168250500Y-80926079D01*
X168221659Y-80781092D01*
X168221658Y-80781091D01*
X168221658Y-80781087D01*
X168212967Y-80760104D01*
X168165087Y-80644511D01*
X168165080Y-80644498D01*
X168082951Y-80521584D01*
X168082948Y-80521580D01*
X167978419Y-80417051D01*
X167978415Y-80417048D01*
X167855501Y-80334919D01*
X167855488Y-80334912D01*
X167718917Y-80278343D01*
X167718907Y-80278340D01*
X167573920Y-80249500D01*
X167573918Y-80249500D01*
X167426082Y-80249500D01*
X167426080Y-80249500D01*
X167281092Y-80278340D01*
X167281082Y-80278343D01*
X167144511Y-80334912D01*
X167144498Y-80334919D01*
X167021584Y-80417048D01*
X167021580Y-80417051D01*
X166917051Y-80521580D01*
X166917048Y-80521584D01*
X166834919Y-80644498D01*
X166834912Y-80644511D01*
X166778343Y-80781082D01*
X166778340Y-80781092D01*
X166749500Y-80926079D01*
X166749500Y-80926082D01*
X166749500Y-81073918D01*
X166749500Y-81073920D01*
X166749499Y-81073920D01*
X166778340Y-81218907D01*
X166778343Y-81218917D01*
X166834912Y-81355488D01*
X166834919Y-81355501D01*
X166878602Y-81420876D01*
X166899480Y-81487553D01*
X166899500Y-81489767D01*
X166899500Y-83049902D01*
X166879815Y-83116941D01*
X166863181Y-83137583D01*
X165062181Y-84938583D01*
X165000858Y-84972068D01*
X164931166Y-84967084D01*
X164875233Y-84925212D01*
X164850816Y-84859748D01*
X164850500Y-84850902D01*
X164850500Y-84703713D01*
X164835374Y-84608213D01*
X164817246Y-84493757D01*
X164751557Y-84291588D01*
X164655051Y-84102184D01*
X164655049Y-84102181D01*
X164655048Y-84102179D01*
X164530109Y-83930213D01*
X164379786Y-83779890D01*
X164207820Y-83654951D01*
X164207115Y-83654591D01*
X164199054Y-83650485D01*
X164148259Y-83602512D01*
X164131463Y-83534692D01*
X164153999Y-83468556D01*
X164199054Y-83429515D01*
X164207816Y-83425051D01*
X164229789Y-83409086D01*
X164379786Y-83300109D01*
X164379788Y-83300106D01*
X164379792Y-83300104D01*
X164530104Y-83149792D01*
X164530106Y-83149788D01*
X164530109Y-83149786D01*
X164655048Y-82977820D01*
X164655047Y-82977820D01*
X164655051Y-82977816D01*
X164751557Y-82788412D01*
X164817246Y-82586243D01*
X164850500Y-82376287D01*
X164850500Y-82163713D01*
X164817246Y-81953757D01*
X164751557Y-81751588D01*
X164655051Y-81562184D01*
X164655049Y-81562181D01*
X164655048Y-81562179D01*
X164530109Y-81390213D01*
X164379786Y-81239890D01*
X164207820Y-81114951D01*
X164207115Y-81114591D01*
X164199054Y-81110485D01*
X164148259Y-81062512D01*
X164131463Y-80994692D01*
X164153999Y-80928556D01*
X164199054Y-80889515D01*
X164207816Y-80885051D01*
X164229789Y-80869086D01*
X164379786Y-80760109D01*
X164379788Y-80760106D01*
X164379792Y-80760104D01*
X164530104Y-80609792D01*
X164530106Y-80609788D01*
X164530109Y-80609786D01*
X164655048Y-80437820D01*
X164655047Y-80437820D01*
X164655051Y-80437816D01*
X164751557Y-80248412D01*
X164817246Y-80046243D01*
X164850500Y-79836287D01*
X164850500Y-79623713D01*
X164817246Y-79413757D01*
X164751557Y-79211588D01*
X164655051Y-79022184D01*
X164655049Y-79022181D01*
X164655048Y-79022179D01*
X164530109Y-78850213D01*
X164379786Y-78699890D01*
X164207820Y-78574951D01*
X164207115Y-78574591D01*
X164199054Y-78570485D01*
X164148259Y-78522512D01*
X164131463Y-78454692D01*
X164153999Y-78388556D01*
X164199054Y-78349515D01*
X164207816Y-78345051D01*
X164229789Y-78329086D01*
X164379786Y-78220109D01*
X164379788Y-78220106D01*
X164379792Y-78220104D01*
X164530104Y-78069792D01*
X164530106Y-78069788D01*
X164530109Y-78069786D01*
X164655048Y-77897820D01*
X164655047Y-77897820D01*
X164655051Y-77897816D01*
X164751557Y-77708412D01*
X164817246Y-77506243D01*
X164850500Y-77296287D01*
X164850500Y-77102120D01*
X184280100Y-77102120D01*
X184308941Y-77247106D01*
X184308944Y-77247116D01*
X184365513Y-77383687D01*
X184365520Y-77383700D01*
X184447649Y-77506614D01*
X184447652Y-77506618D01*
X184552181Y-77611147D01*
X184552185Y-77611150D01*
X184675099Y-77693279D01*
X184675112Y-77693286D01*
X184811683Y-77749855D01*
X184811688Y-77749857D01*
X184811692Y-77749857D01*
X184811693Y-77749858D01*
X184956679Y-77778699D01*
X184956682Y-77778699D01*
X185104520Y-77778699D01*
X185202061Y-77759295D01*
X185249512Y-77749857D01*
X185386094Y-77693283D01*
X185509015Y-77611150D01*
X185613550Y-77506615D01*
X185695683Y-77383694D01*
X185752257Y-77247112D01*
X185781099Y-77102118D01*
X185781099Y-76954282D01*
X185781099Y-76954279D01*
X185752258Y-76809293D01*
X185752257Y-76809292D01*
X185752257Y-76809288D01*
X185752255Y-76809283D01*
X185695686Y-76672712D01*
X185695679Y-76672699D01*
X185613550Y-76549785D01*
X185613547Y-76549781D01*
X185509018Y-76445252D01*
X185509014Y-76445249D01*
X185386100Y-76363120D01*
X185386087Y-76363113D01*
X185249516Y-76306544D01*
X185249506Y-76306541D01*
X185104520Y-76277701D01*
X185104518Y-76277701D01*
X184956682Y-76277701D01*
X184956680Y-76277701D01*
X184811693Y-76306541D01*
X184811683Y-76306544D01*
X184675112Y-76363113D01*
X184675099Y-76363120D01*
X184552185Y-76445249D01*
X184552181Y-76445252D01*
X184447652Y-76549781D01*
X184447649Y-76549785D01*
X184365520Y-76672699D01*
X184365513Y-76672712D01*
X184308944Y-76809283D01*
X184308941Y-76809293D01*
X184280101Y-76954279D01*
X184280101Y-76954282D01*
X184280101Y-77102118D01*
X184280101Y-77102120D01*
X184280100Y-77102120D01*
X164850500Y-77102120D01*
X164850500Y-77083713D01*
X164825206Y-76924016D01*
X164817247Y-76873761D01*
X164817246Y-76873760D01*
X164817246Y-76873757D01*
X164751557Y-76671588D01*
X164655051Y-76482184D01*
X164655049Y-76482181D01*
X164655048Y-76482179D01*
X164530109Y-76310213D01*
X164379786Y-76159890D01*
X164207820Y-76034951D01*
X164207115Y-76034591D01*
X164199054Y-76030485D01*
X164148259Y-75982512D01*
X164131463Y-75914692D01*
X164153999Y-75848556D01*
X164199054Y-75809515D01*
X164207816Y-75805051D01*
X164229789Y-75789086D01*
X164379786Y-75680109D01*
X164379788Y-75680106D01*
X164379792Y-75680104D01*
X164530104Y-75529792D01*
X164530106Y-75529788D01*
X164530109Y-75529786D01*
X164655048Y-75357820D01*
X164655047Y-75357820D01*
X164655051Y-75357816D01*
X164751557Y-75168412D01*
X164817246Y-74966243D01*
X164850500Y-74756287D01*
X164850500Y-74543713D01*
X164817246Y-74333757D01*
X164751557Y-74131588D01*
X164655051Y-73942184D01*
X164655049Y-73942181D01*
X164655048Y-73942179D01*
X164530109Y-73770213D01*
X164379786Y-73619890D01*
X164207820Y-73494951D01*
X164207115Y-73494591D01*
X164199054Y-73490485D01*
X164148259Y-73442512D01*
X164131463Y-73374692D01*
X164153999Y-73308556D01*
X164199054Y-73269515D01*
X164207816Y-73265051D01*
X164229789Y-73249086D01*
X164379786Y-73140109D01*
X164379788Y-73140106D01*
X164379792Y-73140104D01*
X164530104Y-72989792D01*
X164530106Y-72989788D01*
X164530109Y-72989786D01*
X164655048Y-72817820D01*
X164655047Y-72817820D01*
X164655051Y-72817816D01*
X164751557Y-72628412D01*
X164817246Y-72426243D01*
X164850500Y-72216287D01*
X164850500Y-72003713D01*
X164817246Y-71793757D01*
X164751557Y-71591588D01*
X164655051Y-71402184D01*
X164655049Y-71402181D01*
X164655048Y-71402179D01*
X164530109Y-71230213D01*
X164379786Y-71079890D01*
X164207820Y-70954951D01*
X164207115Y-70954591D01*
X164199054Y-70950485D01*
X164148259Y-70902512D01*
X164131463Y-70834692D01*
X164153999Y-70768556D01*
X164199054Y-70729515D01*
X164207816Y-70725051D01*
X164229789Y-70709086D01*
X164379786Y-70600109D01*
X164379788Y-70600106D01*
X164379792Y-70600104D01*
X164530104Y-70449792D01*
X164530106Y-70449788D01*
X164530109Y-70449786D01*
X164655048Y-70277820D01*
X164655047Y-70277820D01*
X164655051Y-70277816D01*
X164751557Y-70088412D01*
X164817246Y-69886243D01*
X164850500Y-69676287D01*
X164850500Y-69463713D01*
X164817246Y-69253757D01*
X164751557Y-69051588D01*
X164655051Y-68862184D01*
X164655049Y-68862181D01*
X164655048Y-68862179D01*
X164530109Y-68690213D01*
X164379786Y-68539890D01*
X164207820Y-68414951D01*
X164207115Y-68414591D01*
X164199054Y-68410485D01*
X164148259Y-68362512D01*
X164131463Y-68294692D01*
X164153999Y-68228556D01*
X164199054Y-68189515D01*
X164207816Y-68185051D01*
X164229789Y-68169086D01*
X164379786Y-68060109D01*
X164379788Y-68060106D01*
X164379792Y-68060104D01*
X164530104Y-67909792D01*
X164530106Y-67909788D01*
X164530109Y-67909786D01*
X164655048Y-67737820D01*
X164655047Y-67737820D01*
X164655051Y-67737816D01*
X164751557Y-67548412D01*
X164817246Y-67346243D01*
X164850500Y-67136287D01*
X164850500Y-66923713D01*
X164817246Y-66713757D01*
X164751557Y-66511588D01*
X164655051Y-66322184D01*
X164655049Y-66322181D01*
X164655048Y-66322179D01*
X164530109Y-66150213D01*
X164416181Y-66036285D01*
X164382696Y-65974962D01*
X164387680Y-65905270D01*
X164429552Y-65849337D01*
X164460529Y-65832422D01*
X164592086Y-65783354D01*
X164592093Y-65783350D01*
X164707187Y-65697190D01*
X164707190Y-65697187D01*
X164793350Y-65582093D01*
X164793354Y-65582086D01*
X164843596Y-65447379D01*
X164843598Y-65447372D01*
X164849999Y-65387844D01*
X164850000Y-65387827D01*
X164850000Y-64740000D01*
X163933012Y-64740000D01*
X163965925Y-64682993D01*
X164000000Y-64555826D01*
X164000000Y-64424174D01*
X163965925Y-64297007D01*
X163933012Y-64240000D01*
X164850000Y-64240000D01*
X164850000Y-63592172D01*
X164849999Y-63592155D01*
X164843598Y-63532627D01*
X164843596Y-63532620D01*
X164793354Y-63397913D01*
X164793350Y-63397906D01*
X164707190Y-63282812D01*
X164707187Y-63282809D01*
X164628316Y-63223766D01*
X164586445Y-63167833D01*
X164581461Y-63098141D01*
X164614947Y-63036818D01*
X164676270Y-63003334D01*
X164702627Y-63000500D01*
X188375500Y-63000500D01*
X188442539Y-63020185D01*
X188488294Y-63072989D01*
X188499500Y-63124500D01*
X188499500Y-93529897D01*
X188479815Y-93596936D01*
X188427011Y-93642691D01*
X188357853Y-93652635D01*
X188294297Y-93623610D01*
X188276234Y-93604208D01*
X188207547Y-93512455D01*
X188207544Y-93512452D01*
X188092335Y-93426206D01*
X188092328Y-93426202D01*
X187957482Y-93375908D01*
X187957483Y-93375908D01*
X187897883Y-93369501D01*
X187897881Y-93369500D01*
X187897873Y-93369500D01*
X187897864Y-93369500D01*
X186102129Y-93369500D01*
X186102123Y-93369501D01*
X186042516Y-93375908D01*
X185907671Y-93426202D01*
X185907664Y-93426206D01*
X185792455Y-93512452D01*
X185792452Y-93512455D01*
X185706206Y-93627664D01*
X185706202Y-93627671D01*
X185655908Y-93762517D01*
X185649501Y-93822116D01*
X185649500Y-93822135D01*
X185649500Y-95617870D01*
X185649501Y-95617876D01*
X185655908Y-95677483D01*
X185706202Y-95812328D01*
X185706206Y-95812335D01*
X185792452Y-95927544D01*
X185792455Y-95927547D01*
X185907664Y-96013793D01*
X185907671Y-96013797D01*
X186039082Y-96062810D01*
X186095016Y-96104681D01*
X186119433Y-96170145D01*
X186104582Y-96238418D01*
X186083431Y-96266673D01*
X185969889Y-96380215D01*
X185844951Y-96552179D01*
X185748444Y-96741585D01*
X185682753Y-96943760D01*
X185675178Y-96991588D01*
X185649500Y-97153713D01*
X185649500Y-97366287D01*
X185655428Y-97403713D01*
X185681183Y-97566328D01*
X185682754Y-97576243D01*
X185738661Y-97748307D01*
X185748444Y-97778414D01*
X185844951Y-97967820D01*
X185969890Y-98139786D01*
X186120213Y-98290109D01*
X186292182Y-98415050D01*
X186300946Y-98419516D01*
X186351742Y-98467491D01*
X186368536Y-98535312D01*
X186345998Y-98601447D01*
X186300946Y-98640484D01*
X186292182Y-98644949D01*
X186120213Y-98769890D01*
X185969890Y-98920213D01*
X185844951Y-99092179D01*
X185748444Y-99281585D01*
X185682753Y-99483760D01*
X185649500Y-99693713D01*
X185649500Y-99906286D01*
X185681810Y-100110288D01*
X185682754Y-100116243D01*
X185734075Y-100274193D01*
X185748444Y-100318414D01*
X185844951Y-100507820D01*
X185969890Y-100679786D01*
X186120213Y-100830109D01*
X186292182Y-100955050D01*
X186300946Y-100959516D01*
X186351742Y-101007491D01*
X186368536Y-101075312D01*
X186345998Y-101141447D01*
X186300946Y-101180484D01*
X186292182Y-101184949D01*
X186120213Y-101309890D01*
X185969890Y-101460213D01*
X185844951Y-101632179D01*
X185748444Y-101821585D01*
X185682753Y-102023760D01*
X185649500Y-102233713D01*
X185649500Y-102446286D01*
X185682398Y-102653999D01*
X185682754Y-102656243D01*
X185747848Y-102856582D01*
X185748444Y-102858414D01*
X185844951Y-103047820D01*
X185969890Y-103219786D01*
X186120213Y-103370109D01*
X186292182Y-103495050D01*
X186300946Y-103499516D01*
X186351742Y-103547491D01*
X186368536Y-103615312D01*
X186345998Y-103681447D01*
X186300946Y-103720484D01*
X186292182Y-103724949D01*
X186120213Y-103849890D01*
X185969890Y-104000213D01*
X185844951Y-104172179D01*
X185748444Y-104361585D01*
X185682753Y-104563760D01*
X185665214Y-104674500D01*
X185649500Y-104773713D01*
X185649500Y-104986287D01*
X185656869Y-105032812D01*
X185679560Y-105176082D01*
X185682754Y-105196243D01*
X185734075Y-105354193D01*
X185748444Y-105398414D01*
X185844951Y-105587820D01*
X185969890Y-105759786D01*
X186120213Y-105910109D01*
X186292182Y-106035050D01*
X186300946Y-106039516D01*
X186351742Y-106087491D01*
X186368536Y-106155312D01*
X186345998Y-106221447D01*
X186300946Y-106260484D01*
X186292182Y-106264949D01*
X186120213Y-106389890D01*
X185969890Y-106540213D01*
X185844951Y-106712179D01*
X185748444Y-106901585D01*
X185682753Y-107103760D01*
X185667431Y-107200499D01*
X185649500Y-107313713D01*
X185649500Y-107526287D01*
X185682754Y-107736243D01*
X185734075Y-107894193D01*
X185748444Y-107938414D01*
X185844951Y-108127820D01*
X185969890Y-108299786D01*
X186120213Y-108450109D01*
X186292182Y-108575050D01*
X186300946Y-108579516D01*
X186351742Y-108627491D01*
X186368536Y-108695312D01*
X186345998Y-108761447D01*
X186300946Y-108800484D01*
X186292182Y-108804949D01*
X186120213Y-108929890D01*
X185969890Y-109080213D01*
X185844951Y-109252179D01*
X185748444Y-109441585D01*
X185682753Y-109643760D01*
X185649500Y-109853713D01*
X185649500Y-110066286D01*
X185675471Y-110230264D01*
X185682754Y-110276243D01*
X185734075Y-110434193D01*
X185748444Y-110478414D01*
X185844951Y-110667820D01*
X185969890Y-110839786D01*
X186120213Y-110990109D01*
X186292182Y-111115050D01*
X186300946Y-111119516D01*
X186351742Y-111167491D01*
X186368536Y-111235312D01*
X186345998Y-111301447D01*
X186300946Y-111340484D01*
X186292182Y-111344949D01*
X186120213Y-111469890D01*
X185969890Y-111620213D01*
X185844951Y-111792179D01*
X185748444Y-111981585D01*
X185682753Y-112183760D01*
X185649500Y-112393713D01*
X185649500Y-112606287D01*
X185682754Y-112816243D01*
X185734075Y-112974193D01*
X185748444Y-113018414D01*
X185844951Y-113207820D01*
X185969890Y-113379786D01*
X186120213Y-113530109D01*
X186292182Y-113655050D01*
X186300946Y-113659516D01*
X186351742Y-113707491D01*
X186368536Y-113775312D01*
X186345998Y-113841447D01*
X186300946Y-113880484D01*
X186292182Y-113884949D01*
X186120213Y-114009890D01*
X185969890Y-114160213D01*
X185844951Y-114332179D01*
X185748444Y-114521585D01*
X185682753Y-114723760D01*
X185649500Y-114933713D01*
X185649500Y-115146286D01*
X185667909Y-115262520D01*
X185682754Y-115356243D01*
X185734075Y-115514193D01*
X185748444Y-115558414D01*
X185844951Y-115747820D01*
X185969890Y-115919786D01*
X186120213Y-116070109D01*
X186292182Y-116195050D01*
X186300946Y-116199516D01*
X186351742Y-116247491D01*
X186368536Y-116315312D01*
X186345998Y-116381447D01*
X186300946Y-116420484D01*
X186292182Y-116424949D01*
X186120213Y-116549890D01*
X185969890Y-116700213D01*
X185844951Y-116872179D01*
X185748444Y-117061585D01*
X185682753Y-117263760D01*
X185659688Y-117409390D01*
X185649500Y-117473713D01*
X185649500Y-117686287D01*
X185652087Y-117702621D01*
X185673040Y-117834916D01*
X185682754Y-117896243D01*
X185734075Y-118054193D01*
X185748444Y-118098414D01*
X185844951Y-118287820D01*
X185969890Y-118459786D01*
X186120213Y-118610109D01*
X186292182Y-118735050D01*
X186300946Y-118739516D01*
X186351742Y-118787491D01*
X186368536Y-118855312D01*
X186345998Y-118921447D01*
X186300946Y-118960484D01*
X186292182Y-118964949D01*
X186120213Y-119089890D01*
X185969890Y-119240213D01*
X185844951Y-119412179D01*
X185748444Y-119601585D01*
X185682753Y-119803760D01*
X185649500Y-120013713D01*
X185649500Y-120226286D01*
X185680330Y-120420943D01*
X185682754Y-120436243D01*
X185734075Y-120594193D01*
X185748444Y-120638414D01*
X185844951Y-120827820D01*
X185969890Y-120999786D01*
X186120213Y-121150109D01*
X186292182Y-121275050D01*
X186300946Y-121279516D01*
X186351742Y-121327491D01*
X186368536Y-121395312D01*
X186345998Y-121461447D01*
X186300946Y-121500484D01*
X186292182Y-121504949D01*
X186120213Y-121629890D01*
X185969890Y-121780213D01*
X185844951Y-121952179D01*
X185748444Y-122141585D01*
X185682753Y-122343760D01*
X185649500Y-122553713D01*
X185649500Y-122766286D01*
X185667247Y-122878340D01*
X185682754Y-122976243D01*
X185734075Y-123134193D01*
X185748444Y-123178414D01*
X185844951Y-123367820D01*
X185969890Y-123539786D01*
X186120213Y-123690109D01*
X186292182Y-123815050D01*
X186300946Y-123819516D01*
X186351742Y-123867491D01*
X186368536Y-123935312D01*
X186345998Y-124001447D01*
X186300946Y-124040484D01*
X186292182Y-124044949D01*
X186120213Y-124169890D01*
X185969890Y-124320213D01*
X185844951Y-124492179D01*
X185748444Y-124681585D01*
X185682753Y-124883760D01*
X185659419Y-125031087D01*
X185649500Y-125093713D01*
X185649500Y-125306287D01*
X185652293Y-125323920D01*
X185675257Y-125468913D01*
X185682754Y-125516243D01*
X185745803Y-125710288D01*
X185748444Y-125718414D01*
X185844951Y-125907820D01*
X185969890Y-126079786D01*
X186120213Y-126230109D01*
X186292182Y-126355050D01*
X186300946Y-126359516D01*
X186351742Y-126407491D01*
X186368536Y-126475312D01*
X186345998Y-126541447D01*
X186300946Y-126580484D01*
X186292182Y-126584949D01*
X186120213Y-126709890D01*
X185969890Y-126860213D01*
X185844951Y-127032179D01*
X185748444Y-127221585D01*
X185682753Y-127423760D01*
X185649500Y-127633713D01*
X185649500Y-127846287D01*
X185682754Y-128056243D01*
X185745872Y-128250500D01*
X185748444Y-128258414D01*
X185844951Y-128447820D01*
X185969890Y-128619786D01*
X186120213Y-128770109D01*
X186292179Y-128895048D01*
X186292181Y-128895049D01*
X186292184Y-128895051D01*
X186481588Y-128991557D01*
X186683757Y-129057246D01*
X186893713Y-129090500D01*
X186893714Y-129090500D01*
X187106286Y-129090500D01*
X187106287Y-129090500D01*
X187316243Y-129057246D01*
X187518412Y-128991557D01*
X187707816Y-128895051D01*
X187729789Y-128879086D01*
X187879786Y-128770109D01*
X187879788Y-128770106D01*
X187879792Y-128770104D01*
X188030104Y-128619792D01*
X188030106Y-128619788D01*
X188030109Y-128619786D01*
X188155048Y-128447820D01*
X188155047Y-128447820D01*
X188155051Y-128447816D01*
X188251557Y-128258412D01*
X188257569Y-128239907D01*
X188297006Y-128182232D01*
X188361365Y-128155034D01*
X188430211Y-128166949D01*
X188481687Y-128214193D01*
X188499500Y-128278226D01*
X188499500Y-139625500D01*
X188479815Y-139692539D01*
X188427011Y-139738294D01*
X188375500Y-139749500D01*
X111624500Y-139749500D01*
X111557461Y-139729815D01*
X111511706Y-139677011D01*
X111500500Y-139625500D01*
X111500500Y-135602135D01*
X121359500Y-135602135D01*
X121359500Y-137397870D01*
X121359501Y-137397876D01*
X121365908Y-137457483D01*
X121416202Y-137592328D01*
X121416206Y-137592335D01*
X121502452Y-137707544D01*
X121502455Y-137707547D01*
X121617664Y-137793793D01*
X121617671Y-137793797D01*
X121752517Y-137844091D01*
X121752516Y-137844091D01*
X121759444Y-137844835D01*
X121812127Y-137850500D01*
X123607872Y-137850499D01*
X123667483Y-137844091D01*
X123802331Y-137793796D01*
X123917546Y-137707546D01*
X124003796Y-137592331D01*
X124052810Y-137460916D01*
X124094681Y-137404984D01*
X124160145Y-137380566D01*
X124228418Y-137395417D01*
X124256673Y-137416569D01*
X124370213Y-137530109D01*
X124542179Y-137655048D01*
X124542181Y-137655049D01*
X124542184Y-137655051D01*
X124731588Y-137751557D01*
X124933757Y-137817246D01*
X125143713Y-137850500D01*
X125143714Y-137850500D01*
X125356286Y-137850500D01*
X125356287Y-137850500D01*
X125566243Y-137817246D01*
X125768412Y-137751557D01*
X125957816Y-137655051D01*
X126044138Y-137592335D01*
X126129786Y-137530109D01*
X126129788Y-137530106D01*
X126129792Y-137530104D01*
X126280104Y-137379792D01*
X126280106Y-137379788D01*
X126280109Y-137379786D01*
X126405048Y-137207820D01*
X126405047Y-137207820D01*
X126405051Y-137207816D01*
X126409514Y-137199054D01*
X126457488Y-137148259D01*
X126525308Y-137131463D01*
X126591444Y-137153999D01*
X126630486Y-137199056D01*
X126634951Y-137207820D01*
X126759890Y-137379786D01*
X126910213Y-137530109D01*
X127082179Y-137655048D01*
X127082181Y-137655049D01*
X127082184Y-137655051D01*
X127271588Y-137751557D01*
X127473757Y-137817246D01*
X127683713Y-137850500D01*
X127683714Y-137850500D01*
X127896286Y-137850500D01*
X127896287Y-137850500D01*
X128106243Y-137817246D01*
X128308412Y-137751557D01*
X128497816Y-137655051D01*
X128584138Y-137592335D01*
X128669786Y-137530109D01*
X128669788Y-137530106D01*
X128669792Y-137530104D01*
X128820104Y-137379792D01*
X128820106Y-137379788D01*
X128820109Y-137379786D01*
X128945048Y-137207820D01*
X128945047Y-137207820D01*
X128945051Y-137207816D01*
X129041557Y-137018412D01*
X129095584Y-136852135D01*
X140159500Y-136852135D01*
X140159500Y-138647870D01*
X140159501Y-138647876D01*
X140165908Y-138707483D01*
X140216202Y-138842328D01*
X140216206Y-138842335D01*
X140302452Y-138957544D01*
X140302455Y-138957547D01*
X140417664Y-139043793D01*
X140417671Y-139043797D01*
X140552517Y-139094091D01*
X140552516Y-139094091D01*
X140559444Y-139094835D01*
X140612127Y-139100500D01*
X142407872Y-139100499D01*
X142467483Y-139094091D01*
X142602331Y-139043796D01*
X142717546Y-138957546D01*
X142803796Y-138842331D01*
X142852810Y-138710916D01*
X142894681Y-138654984D01*
X142960145Y-138630566D01*
X143028418Y-138645417D01*
X143056673Y-138666569D01*
X143170213Y-138780109D01*
X143342179Y-138905048D01*
X143342181Y-138905049D01*
X143342184Y-138905051D01*
X143531588Y-139001557D01*
X143733757Y-139067246D01*
X143943713Y-139100500D01*
X143943714Y-139100500D01*
X144156286Y-139100500D01*
X144156287Y-139100500D01*
X144366243Y-139067246D01*
X144568412Y-139001557D01*
X144757816Y-138905051D01*
X144844138Y-138842335D01*
X144929786Y-138780109D01*
X144929788Y-138780106D01*
X144929792Y-138780104D01*
X145080104Y-138629792D01*
X145080106Y-138629788D01*
X145080109Y-138629786D01*
X145165890Y-138511717D01*
X145205051Y-138457816D01*
X145209793Y-138448508D01*
X145257763Y-138397711D01*
X145325583Y-138380911D01*
X145391719Y-138403445D01*
X145430763Y-138448500D01*
X145435373Y-138457547D01*
X145474728Y-138511716D01*
X146107037Y-137879408D01*
X146124075Y-137942993D01*
X146189901Y-138057007D01*
X146282993Y-138150099D01*
X146397007Y-138215925D01*
X146460590Y-138232962D01*
X145828282Y-138865269D01*
X145828282Y-138865270D01*
X145882449Y-138904624D01*
X146071782Y-139001095D01*
X146273870Y-139066757D01*
X146483754Y-139100000D01*
X146696246Y-139100000D01*
X146906127Y-139066757D01*
X146906130Y-139066757D01*
X147108217Y-139001095D01*
X147297554Y-138904622D01*
X147351716Y-138865270D01*
X147351717Y-138865270D01*
X146719408Y-138232962D01*
X146782993Y-138215925D01*
X146897007Y-138150099D01*
X146990099Y-138057007D01*
X147055925Y-137942993D01*
X147072962Y-137879408D01*
X147705270Y-138511717D01*
X147705270Y-138511716D01*
X147744622Y-138457555D01*
X147749232Y-138448507D01*
X147797205Y-138397709D01*
X147865025Y-138380912D01*
X147931161Y-138403447D01*
X147970204Y-138448504D01*
X147974949Y-138457817D01*
X148099890Y-138629786D01*
X148250213Y-138780109D01*
X148422179Y-138905048D01*
X148422181Y-138905049D01*
X148422184Y-138905051D01*
X148611588Y-139001557D01*
X148813757Y-139067246D01*
X149023713Y-139100500D01*
X149023714Y-139100500D01*
X149236286Y-139100500D01*
X149236287Y-139100500D01*
X149446243Y-139067246D01*
X149648412Y-139001557D01*
X149837816Y-138905051D01*
X149924138Y-138842335D01*
X150009786Y-138780109D01*
X150009788Y-138780106D01*
X150009792Y-138780104D01*
X150160104Y-138629792D01*
X150160106Y-138629788D01*
X150160109Y-138629786D01*
X150285048Y-138457820D01*
X150285047Y-138457820D01*
X150285051Y-138457816D01*
X150289514Y-138449054D01*
X150337488Y-138398259D01*
X150405308Y-138381463D01*
X150471444Y-138403999D01*
X150510486Y-138449056D01*
X150514951Y-138457820D01*
X150639890Y-138629786D01*
X150790213Y-138780109D01*
X150962179Y-138905048D01*
X150962181Y-138905049D01*
X150962184Y-138905051D01*
X151151588Y-139001557D01*
X151353757Y-139067246D01*
X151563713Y-139100500D01*
X151563714Y-139100500D01*
X151776286Y-139100500D01*
X151776287Y-139100500D01*
X151986243Y-139067246D01*
X152188412Y-139001557D01*
X152377816Y-138905051D01*
X152464138Y-138842335D01*
X152549786Y-138780109D01*
X152549788Y-138780106D01*
X152549792Y-138780104D01*
X152700104Y-138629792D01*
X152700106Y-138629788D01*
X152700109Y-138629786D01*
X152825048Y-138457820D01*
X152825047Y-138457820D01*
X152825051Y-138457816D01*
X152829514Y-138449054D01*
X152877488Y-138398259D01*
X152945308Y-138381463D01*
X153011444Y-138403999D01*
X153050486Y-138449056D01*
X153054951Y-138457820D01*
X153179890Y-138629786D01*
X153330213Y-138780109D01*
X153502179Y-138905048D01*
X153502181Y-138905049D01*
X153502184Y-138905051D01*
X153691588Y-139001557D01*
X153893757Y-139067246D01*
X154103713Y-139100500D01*
X154103714Y-139100500D01*
X154316286Y-139100500D01*
X154316287Y-139100500D01*
X154526243Y-139067246D01*
X154728412Y-139001557D01*
X154917816Y-138905051D01*
X155004138Y-138842335D01*
X155089786Y-138780109D01*
X155089788Y-138780106D01*
X155089792Y-138780104D01*
X155240104Y-138629792D01*
X155240106Y-138629788D01*
X155240109Y-138629786D01*
X155365048Y-138457820D01*
X155365047Y-138457820D01*
X155365051Y-138457816D01*
X155369514Y-138449054D01*
X155417488Y-138398259D01*
X155485308Y-138381463D01*
X155551444Y-138403999D01*
X155590486Y-138449056D01*
X155594951Y-138457820D01*
X155719890Y-138629786D01*
X155870213Y-138780109D01*
X156042179Y-138905048D01*
X156042181Y-138905049D01*
X156042184Y-138905051D01*
X156231588Y-139001557D01*
X156433757Y-139067246D01*
X156643713Y-139100500D01*
X156643714Y-139100500D01*
X156856286Y-139100500D01*
X156856287Y-139100500D01*
X157066243Y-139067246D01*
X157268412Y-139001557D01*
X157457816Y-138905051D01*
X157544138Y-138842335D01*
X157629786Y-138780109D01*
X157629788Y-138780106D01*
X157629792Y-138780104D01*
X157780104Y-138629792D01*
X157780106Y-138629788D01*
X157780109Y-138629786D01*
X157905048Y-138457820D01*
X157905047Y-138457820D01*
X157905051Y-138457816D01*
X157909514Y-138449054D01*
X157957488Y-138398259D01*
X158025308Y-138381463D01*
X158091444Y-138403999D01*
X158130486Y-138449056D01*
X158134951Y-138457820D01*
X158259890Y-138629786D01*
X158410213Y-138780109D01*
X158582179Y-138905048D01*
X158582181Y-138905049D01*
X158582184Y-138905051D01*
X158771588Y-139001557D01*
X158973757Y-139067246D01*
X159183713Y-139100500D01*
X159183714Y-139100500D01*
X159396286Y-139100500D01*
X159396287Y-139100500D01*
X159606243Y-139067246D01*
X159808412Y-139001557D01*
X159997816Y-138905051D01*
X160084138Y-138842335D01*
X160169786Y-138780109D01*
X160169788Y-138780106D01*
X160169792Y-138780104D01*
X160320104Y-138629792D01*
X160320106Y-138629788D01*
X160320109Y-138629786D01*
X160445048Y-138457820D01*
X160445047Y-138457820D01*
X160445051Y-138457816D01*
X160541557Y-138268412D01*
X160607246Y-138066243D01*
X160640500Y-137856287D01*
X160640500Y-137643713D01*
X160607246Y-137433757D01*
X160541557Y-137231588D01*
X160445051Y-137042184D01*
X160445049Y-137042181D01*
X160445048Y-137042179D01*
X160320109Y-136870213D01*
X160169786Y-136719890D01*
X159997820Y-136594951D01*
X159808414Y-136498444D01*
X159808413Y-136498443D01*
X159808412Y-136498443D01*
X159606243Y-136432754D01*
X159606241Y-136432753D01*
X159606240Y-136432753D01*
X159444957Y-136407208D01*
X159396287Y-136399500D01*
X159183713Y-136399500D01*
X159135042Y-136407208D01*
X158973760Y-136432753D01*
X158771585Y-136498444D01*
X158582179Y-136594951D01*
X158410213Y-136719890D01*
X158259890Y-136870213D01*
X158134949Y-137042182D01*
X158130484Y-137050946D01*
X158082509Y-137101742D01*
X158014688Y-137118536D01*
X157948553Y-137095998D01*
X157909516Y-137050946D01*
X157905050Y-137042182D01*
X157780109Y-136870213D01*
X157629786Y-136719890D01*
X157457820Y-136594951D01*
X157268414Y-136498444D01*
X157268413Y-136498443D01*
X157268412Y-136498443D01*
X157066243Y-136432754D01*
X157066241Y-136432753D01*
X157066240Y-136432753D01*
X156904957Y-136407208D01*
X156856287Y-136399500D01*
X156643713Y-136399500D01*
X156595042Y-136407208D01*
X156433760Y-136432753D01*
X156231585Y-136498444D01*
X156042179Y-136594951D01*
X155870213Y-136719890D01*
X155719890Y-136870213D01*
X155594949Y-137042182D01*
X155590484Y-137050946D01*
X155542509Y-137101742D01*
X155474688Y-137118536D01*
X155408553Y-137095998D01*
X155369516Y-137050946D01*
X155365050Y-137042182D01*
X155240109Y-136870213D01*
X155089786Y-136719890D01*
X154917820Y-136594951D01*
X154728414Y-136498444D01*
X154728413Y-136498443D01*
X154728412Y-136498443D01*
X154526243Y-136432754D01*
X154526241Y-136432753D01*
X154526240Y-136432753D01*
X154364957Y-136407208D01*
X154316287Y-136399500D01*
X154103713Y-136399500D01*
X154055042Y-136407208D01*
X153893760Y-136432753D01*
X153691585Y-136498444D01*
X153502179Y-136594951D01*
X153330213Y-136719890D01*
X153179890Y-136870213D01*
X153054949Y-137042182D01*
X153050484Y-137050946D01*
X153002509Y-137101742D01*
X152934688Y-137118536D01*
X152868553Y-137095998D01*
X152829516Y-137050946D01*
X152825050Y-137042182D01*
X152700109Y-136870213D01*
X152549786Y-136719890D01*
X152377820Y-136594951D01*
X152188414Y-136498444D01*
X152188413Y-136498443D01*
X152188412Y-136498443D01*
X151986243Y-136432754D01*
X151986241Y-136432753D01*
X151986240Y-136432753D01*
X151824957Y-136407208D01*
X151776287Y-136399500D01*
X151563713Y-136399500D01*
X151515042Y-136407208D01*
X151353760Y-136432753D01*
X151151585Y-136498444D01*
X150962179Y-136594951D01*
X150790213Y-136719890D01*
X150639890Y-136870213D01*
X150514949Y-137042182D01*
X150510484Y-137050946D01*
X150462509Y-137101742D01*
X150394688Y-137118536D01*
X150328553Y-137095998D01*
X150289516Y-137050946D01*
X150285050Y-137042182D01*
X150160109Y-136870213D01*
X150009786Y-136719890D01*
X149837820Y-136594951D01*
X149648414Y-136498444D01*
X149648413Y-136498443D01*
X149648412Y-136498443D01*
X149446243Y-136432754D01*
X149446241Y-136432753D01*
X149446240Y-136432753D01*
X149284957Y-136407208D01*
X149236287Y-136399500D01*
X149023713Y-136399500D01*
X148975042Y-136407208D01*
X148813760Y-136432753D01*
X148611585Y-136498444D01*
X148422179Y-136594951D01*
X148250213Y-136719890D01*
X148099890Y-136870213D01*
X147974949Y-137042182D01*
X147970202Y-137051499D01*
X147922227Y-137102293D01*
X147854405Y-137119087D01*
X147788271Y-137096548D01*
X147749234Y-137051495D01*
X147744626Y-137042452D01*
X147705270Y-136988282D01*
X147705269Y-136988282D01*
X147072962Y-137620590D01*
X147055925Y-137557007D01*
X146990099Y-137442993D01*
X146897007Y-137349901D01*
X146782993Y-137284075D01*
X146719409Y-137267037D01*
X147351716Y-136634728D01*
X147297550Y-136595375D01*
X147108217Y-136498904D01*
X146906129Y-136433242D01*
X146696246Y-136400000D01*
X146483754Y-136400000D01*
X146273872Y-136433242D01*
X146273869Y-136433242D01*
X146071782Y-136498904D01*
X145882439Y-136595380D01*
X145828282Y-136634727D01*
X145828282Y-136634728D01*
X146460591Y-137267037D01*
X146397007Y-137284075D01*
X146282993Y-137349901D01*
X146189901Y-137442993D01*
X146124075Y-137557007D01*
X146107037Y-137620591D01*
X145474728Y-136988282D01*
X145474727Y-136988282D01*
X145435380Y-137042440D01*
X145435376Y-137042446D01*
X145430760Y-137051505D01*
X145382781Y-137102297D01*
X145314959Y-137119087D01*
X145248826Y-137096543D01*
X145209794Y-137051493D01*
X145205051Y-137042184D01*
X145205049Y-137042181D01*
X145205048Y-137042179D01*
X145080109Y-136870213D01*
X144929786Y-136719890D01*
X144757820Y-136594951D01*
X144568414Y-136498444D01*
X144568413Y-136498443D01*
X144568412Y-136498443D01*
X144366243Y-136432754D01*
X144366241Y-136432753D01*
X144366240Y-136432753D01*
X144204957Y-136407208D01*
X144156287Y-136399500D01*
X143943713Y-136399500D01*
X143895042Y-136407208D01*
X143733760Y-136432753D01*
X143531585Y-136498444D01*
X143342179Y-136594951D01*
X143170215Y-136719889D01*
X143056673Y-136833431D01*
X142995350Y-136866915D01*
X142925658Y-136861931D01*
X142869725Y-136820059D01*
X142852810Y-136789082D01*
X142803797Y-136657671D01*
X142803793Y-136657664D01*
X142717547Y-136542455D01*
X142717544Y-136542452D01*
X142602335Y-136456206D01*
X142602328Y-136456202D01*
X142467482Y-136405908D01*
X142467483Y-136405908D01*
X142407883Y-136399501D01*
X142407881Y-136399500D01*
X142407873Y-136399500D01*
X142407864Y-136399500D01*
X140612129Y-136399500D01*
X140612123Y-136399501D01*
X140552516Y-136405908D01*
X140417671Y-136456202D01*
X140417664Y-136456206D01*
X140302455Y-136542452D01*
X140302452Y-136542455D01*
X140216206Y-136657664D01*
X140216202Y-136657671D01*
X140165908Y-136792517D01*
X140159501Y-136852116D01*
X140159500Y-136852135D01*
X129095584Y-136852135D01*
X129107246Y-136816243D01*
X129140500Y-136606287D01*
X129140500Y-136393713D01*
X129107246Y-136183757D01*
X129041557Y-135981588D01*
X128945051Y-135792184D01*
X128945049Y-135792181D01*
X128945048Y-135792179D01*
X128820109Y-135620213D01*
X128669786Y-135469890D01*
X128497820Y-135344951D01*
X128308414Y-135248444D01*
X128308413Y-135248443D01*
X128308412Y-135248443D01*
X128106243Y-135182754D01*
X128106241Y-135182753D01*
X128106240Y-135182753D01*
X127944957Y-135157208D01*
X127896287Y-135149500D01*
X127683713Y-135149500D01*
X127635042Y-135157208D01*
X127473760Y-135182753D01*
X127271585Y-135248444D01*
X127082179Y-135344951D01*
X126910213Y-135469890D01*
X126759890Y-135620213D01*
X126634949Y-135792182D01*
X126630484Y-135800946D01*
X126582509Y-135851742D01*
X126514688Y-135868536D01*
X126448553Y-135845998D01*
X126409516Y-135800946D01*
X126405050Y-135792182D01*
X126280109Y-135620213D01*
X126129786Y-135469890D01*
X125957820Y-135344951D01*
X125768414Y-135248444D01*
X125768413Y-135248443D01*
X125768412Y-135248443D01*
X125566243Y-135182754D01*
X125566241Y-135182753D01*
X125566240Y-135182753D01*
X125404957Y-135157208D01*
X125356287Y-135149500D01*
X125143713Y-135149500D01*
X125095042Y-135157208D01*
X124933760Y-135182753D01*
X124731585Y-135248444D01*
X124542179Y-135344951D01*
X124370215Y-135469889D01*
X124256673Y-135583431D01*
X124195350Y-135616915D01*
X124125658Y-135611931D01*
X124069725Y-135570059D01*
X124052810Y-135539082D01*
X124003797Y-135407671D01*
X124003793Y-135407664D01*
X123917547Y-135292455D01*
X123917544Y-135292452D01*
X123802335Y-135206206D01*
X123802328Y-135206202D01*
X123667482Y-135155908D01*
X123667483Y-135155908D01*
X123607883Y-135149501D01*
X123607881Y-135149500D01*
X123607873Y-135149500D01*
X123607864Y-135149500D01*
X121812129Y-135149500D01*
X121812123Y-135149501D01*
X121752516Y-135155908D01*
X121617671Y-135206202D01*
X121617664Y-135206206D01*
X121502455Y-135292452D01*
X121502452Y-135292455D01*
X121416206Y-135407664D01*
X121416202Y-135407671D01*
X121365908Y-135542517D01*
X121359501Y-135602116D01*
X121359500Y-135602135D01*
X111500500Y-135602135D01*
X111500500Y-131323920D01*
X124749499Y-131323920D01*
X124778340Y-131468907D01*
X124778343Y-131468917D01*
X124834912Y-131605488D01*
X124834919Y-131605501D01*
X124917048Y-131728415D01*
X124917051Y-131728419D01*
X125021580Y-131832948D01*
X125021584Y-131832951D01*
X125144498Y-131915080D01*
X125144511Y-131915087D01*
X125281082Y-131971656D01*
X125281087Y-131971658D01*
X125281091Y-131971658D01*
X125281092Y-131971659D01*
X125426079Y-132000500D01*
X125426082Y-132000500D01*
X125573920Y-132000500D01*
X125671462Y-131981096D01*
X125718913Y-131971658D01*
X125855495Y-131915084D01*
X125978416Y-131832951D01*
X126082951Y-131728416D01*
X126165084Y-131605495D01*
X126221658Y-131468913D01*
X126250500Y-131323918D01*
X126250500Y-131176082D01*
X126250500Y-131176079D01*
X126230178Y-131073920D01*
X127999499Y-131073920D01*
X128028340Y-131218907D01*
X128028343Y-131218917D01*
X128084912Y-131355488D01*
X128084919Y-131355501D01*
X128167048Y-131478415D01*
X128167051Y-131478419D01*
X128271580Y-131582948D01*
X128271584Y-131582951D01*
X128394498Y-131665080D01*
X128394511Y-131665087D01*
X128531082Y-131721656D01*
X128531087Y-131721658D01*
X128531091Y-131721658D01*
X128531092Y-131721659D01*
X128676079Y-131750500D01*
X128676082Y-131750500D01*
X128823920Y-131750500D01*
X128934944Y-131728415D01*
X128968913Y-131721658D01*
X129105495Y-131665084D01*
X129228416Y-131582951D01*
X129332951Y-131478416D01*
X129415084Y-131355495D01*
X129471658Y-131218913D01*
X129500500Y-131073918D01*
X129500500Y-130926082D01*
X129500500Y-130926079D01*
X129471659Y-130781092D01*
X129471658Y-130781091D01*
X129471658Y-130781087D01*
X129415084Y-130644505D01*
X129371396Y-130579121D01*
X129350520Y-130512444D01*
X129350500Y-130510232D01*
X129350500Y-127073920D01*
X156249499Y-127073920D01*
X156278340Y-127218907D01*
X156278343Y-127218917D01*
X156334912Y-127355488D01*
X156334919Y-127355501D01*
X156417048Y-127478415D01*
X156417051Y-127478419D01*
X156521580Y-127582948D01*
X156521584Y-127582951D01*
X156644498Y-127665080D01*
X156644511Y-127665087D01*
X156781082Y-127721656D01*
X156781087Y-127721658D01*
X156781091Y-127721658D01*
X156781092Y-127721659D01*
X156926079Y-127750500D01*
X156926082Y-127750500D01*
X157073920Y-127750500D01*
X157171462Y-127731096D01*
X157218913Y-127721658D01*
X157355495Y-127665084D01*
X157420876Y-127621398D01*
X157487553Y-127600520D01*
X157489767Y-127600500D01*
X158903024Y-127600500D01*
X158970063Y-127620185D01*
X159015818Y-127672989D01*
X159024641Y-127700309D01*
X159028340Y-127718905D01*
X159028343Y-127718917D01*
X159084912Y-127855488D01*
X159084919Y-127855501D01*
X159167048Y-127978415D01*
X159167051Y-127978419D01*
X159271580Y-128082948D01*
X159271584Y-128082951D01*
X159394498Y-128165080D01*
X159394511Y-128165087D01*
X159513065Y-128214193D01*
X159531087Y-128221658D01*
X159531091Y-128221658D01*
X159531092Y-128221659D01*
X159676079Y-128250500D01*
X159676082Y-128250500D01*
X159823920Y-128250500D01*
X159921462Y-128231096D01*
X159968913Y-128221658D01*
X160074547Y-128177902D01*
X160105488Y-128165087D01*
X160105488Y-128165086D01*
X160105495Y-128165084D01*
X160228416Y-128082951D01*
X160332951Y-127978416D01*
X160415084Y-127855495D01*
X160418899Y-127846286D01*
X160458574Y-127750500D01*
X160471658Y-127718913D01*
X160488606Y-127633713D01*
X160500500Y-127573920D01*
X160500500Y-127426079D01*
X160471659Y-127281092D01*
X160471658Y-127281091D01*
X160471658Y-127281087D01*
X160447012Y-127221585D01*
X160415087Y-127144511D01*
X160415080Y-127144498D01*
X160332951Y-127021584D01*
X160332948Y-127021580D01*
X160228419Y-126917051D01*
X160228415Y-126917048D01*
X160105501Y-126834919D01*
X160105488Y-126834912D01*
X159968917Y-126778343D01*
X159968907Y-126778340D01*
X159891789Y-126763000D01*
X159829878Y-126730615D01*
X159828300Y-126729064D01*
X159618717Y-126519481D01*
X159618709Y-126519475D01*
X159501070Y-126451557D01*
X159501067Y-126451556D01*
X159481785Y-126440423D01*
X159329057Y-126399499D01*
X159170943Y-126399499D01*
X159163347Y-126399499D01*
X159163331Y-126399500D01*
X157489767Y-126399500D01*
X157422728Y-126379815D01*
X157420876Y-126378602D01*
X157355501Y-126334919D01*
X157355488Y-126334912D01*
X157218917Y-126278343D01*
X157218907Y-126278340D01*
X157073920Y-126249500D01*
X157073918Y-126249500D01*
X156926082Y-126249500D01*
X156926080Y-126249500D01*
X156781092Y-126278340D01*
X156781082Y-126278343D01*
X156644511Y-126334912D01*
X156644498Y-126334919D01*
X156521584Y-126417048D01*
X156521580Y-126417051D01*
X156417051Y-126521580D01*
X156417048Y-126521584D01*
X156334919Y-126644498D01*
X156334912Y-126644511D01*
X156278343Y-126781082D01*
X156278340Y-126781092D01*
X156249500Y-126926079D01*
X156249500Y-126926082D01*
X156249500Y-127073918D01*
X156249500Y-127073920D01*
X156249499Y-127073920D01*
X129350500Y-127073920D01*
X129350500Y-125754733D01*
X129370185Y-125687694D01*
X129371398Y-125685842D01*
X129425080Y-125605501D01*
X129425080Y-125605500D01*
X129425084Y-125605495D01*
X129481658Y-125468913D01*
X129510500Y-125323918D01*
X129510500Y-125176082D01*
X129510500Y-125176079D01*
X129481659Y-125031092D01*
X129481658Y-125031091D01*
X129481658Y-125031087D01*
X129481656Y-125031082D01*
X129425087Y-124894511D01*
X129425080Y-124894498D01*
X129342951Y-124771584D01*
X129342948Y-124771580D01*
X129238419Y-124667051D01*
X129238415Y-124667048D01*
X129115501Y-124584919D01*
X129115488Y-124584912D01*
X128978917Y-124528343D01*
X128978907Y-124528340D01*
X128833920Y-124499500D01*
X128833918Y-124499500D01*
X128686082Y-124499500D01*
X128686080Y-124499500D01*
X128541092Y-124528340D01*
X128541082Y-124528343D01*
X128404511Y-124584912D01*
X128404498Y-124584919D01*
X128281584Y-124667048D01*
X128281580Y-124667051D01*
X128177051Y-124771580D01*
X128177048Y-124771584D01*
X128094919Y-124894498D01*
X128094912Y-124894511D01*
X128038343Y-125031082D01*
X128038340Y-125031092D01*
X128009500Y-125176079D01*
X128009500Y-125176082D01*
X128009500Y-125323918D01*
X128009500Y-125323920D01*
X128009499Y-125323920D01*
X128038340Y-125468907D01*
X128038343Y-125468917D01*
X128094913Y-125605490D01*
X128094914Y-125605492D01*
X128128602Y-125655909D01*
X128149480Y-125722587D01*
X128149500Y-125724800D01*
X128149500Y-130510232D01*
X128129815Y-130577271D01*
X128128603Y-130579122D01*
X128084914Y-130644508D01*
X128028343Y-130781082D01*
X128028340Y-130781092D01*
X127999500Y-130926079D01*
X127999500Y-130926082D01*
X127999500Y-131073918D01*
X127999500Y-131073920D01*
X127999499Y-131073920D01*
X126230178Y-131073920D01*
X126221659Y-131031092D01*
X126221658Y-131031091D01*
X126221658Y-131031087D01*
X126165084Y-130894505D01*
X126118010Y-130824053D01*
X126115132Y-130818666D01*
X126109210Y-130790198D01*
X126100520Y-130762444D01*
X126100500Y-130760232D01*
X126100500Y-126018109D01*
X126120185Y-125951070D01*
X126155606Y-125915009D01*
X126278416Y-125832951D01*
X126382951Y-125728416D01*
X126465084Y-125605495D01*
X126521658Y-125468913D01*
X126550500Y-125323918D01*
X126550500Y-125176082D01*
X126550500Y-125176079D01*
X126521659Y-125031092D01*
X126521658Y-125031091D01*
X126521658Y-125031087D01*
X126521656Y-125031082D01*
X126465087Y-124894511D01*
X126465080Y-124894498D01*
X126382951Y-124771584D01*
X126382948Y-124771580D01*
X126278419Y-124667051D01*
X126278415Y-124667048D01*
X126155501Y-124584919D01*
X126155488Y-124584912D01*
X126018917Y-124528343D01*
X126018907Y-124528340D01*
X125873920Y-124499500D01*
X125873918Y-124499500D01*
X125726082Y-124499500D01*
X125726080Y-124499500D01*
X125581092Y-124528340D01*
X125581082Y-124528343D01*
X125444511Y-124584912D01*
X125444498Y-124584919D01*
X125321584Y-124667048D01*
X125321580Y-124667051D01*
X125217051Y-124771580D01*
X125217048Y-124771584D01*
X125134919Y-124894498D01*
X125134912Y-124894511D01*
X125078342Y-125031084D01*
X125078340Y-125031092D01*
X125063000Y-125108210D01*
X125045327Y-125151632D01*
X125038246Y-125162517D01*
X125019480Y-125181284D01*
X124969360Y-125268095D01*
X124967717Y-125270939D01*
X124967707Y-125270956D01*
X124940425Y-125318209D01*
X124940424Y-125318210D01*
X124940423Y-125318215D01*
X124899499Y-125470943D01*
X124899499Y-125470945D01*
X124899499Y-125639046D01*
X124899500Y-125639059D01*
X124899500Y-130760232D01*
X124879815Y-130827271D01*
X124878603Y-130829122D01*
X124834914Y-130894508D01*
X124778343Y-131031082D01*
X124778340Y-131031092D01*
X124749500Y-131176079D01*
X124749500Y-131176082D01*
X124749500Y-131323918D01*
X124749500Y-131323920D01*
X124749499Y-131323920D01*
X111500500Y-131323920D01*
X111500500Y-127573920D01*
X117749499Y-127573920D01*
X117778340Y-127718907D01*
X117778343Y-127718917D01*
X117834912Y-127855488D01*
X117834919Y-127855501D01*
X117917048Y-127978415D01*
X117917051Y-127978419D01*
X118021580Y-128082948D01*
X118021584Y-128082951D01*
X118144498Y-128165080D01*
X118144511Y-128165087D01*
X118263065Y-128214193D01*
X118281087Y-128221658D01*
X118281091Y-128221658D01*
X118281092Y-128221659D01*
X118426079Y-128250500D01*
X118426082Y-128250500D01*
X118573920Y-128250500D01*
X118671462Y-128231096D01*
X118718913Y-128221658D01*
X118824547Y-128177902D01*
X118855488Y-128165087D01*
X118855488Y-128165086D01*
X118855495Y-128165084D01*
X118978416Y-128082951D01*
X119082951Y-127978416D01*
X119165084Y-127855495D01*
X119168899Y-127846286D01*
X119208574Y-127750500D01*
X119221658Y-127718913D01*
X119238606Y-127633713D01*
X119250500Y-127573920D01*
X119250500Y-127426079D01*
X119221659Y-127281092D01*
X119221658Y-127281091D01*
X119221658Y-127281087D01*
X119165084Y-127144505D01*
X119121396Y-127079121D01*
X119115746Y-127061075D01*
X119105523Y-127045167D01*
X119101071Y-127014204D01*
X119100520Y-127012444D01*
X119100500Y-127010232D01*
X119100500Y-126800096D01*
X119120185Y-126733057D01*
X119136814Y-126712420D01*
X121828080Y-124021153D01*
X154299500Y-124021153D01*
X154299500Y-124178846D01*
X154330261Y-124333489D01*
X154330264Y-124333501D01*
X154390602Y-124479172D01*
X154390609Y-124479185D01*
X154478210Y-124610288D01*
X154478213Y-124610292D01*
X154589707Y-124721786D01*
X154589711Y-124721789D01*
X154720814Y-124809390D01*
X154720827Y-124809397D01*
X154866498Y-124869735D01*
X154866503Y-124869737D01*
X154931147Y-124882595D01*
X155021849Y-124900638D01*
X155083760Y-124933023D01*
X155085339Y-124934574D01*
X155715139Y-125564374D01*
X155715149Y-125564385D01*
X155719479Y-125568715D01*
X155719480Y-125568716D01*
X155831284Y-125680520D01*
X155914243Y-125728416D01*
X155914244Y-125728417D01*
X155968209Y-125759574D01*
X155968210Y-125759575D01*
X155968212Y-125759575D01*
X155968215Y-125759577D01*
X156120943Y-125800501D01*
X156120946Y-125800501D01*
X156286653Y-125800501D01*
X156286669Y-125800500D01*
X159620234Y-125800500D01*
X159687273Y-125820185D01*
X159689125Y-125821398D01*
X159820814Y-125909390D01*
X159820827Y-125909397D01*
X159966498Y-125969735D01*
X159966503Y-125969737D01*
X160121153Y-126000499D01*
X160121156Y-126000500D01*
X160121158Y-126000500D01*
X160278844Y-126000500D01*
X160278845Y-126000499D01*
X160433497Y-125969737D01*
X160579179Y-125909394D01*
X160710289Y-125821789D01*
X160821789Y-125710289D01*
X160909394Y-125579179D01*
X160969737Y-125433497D01*
X161000500Y-125278842D01*
X161000500Y-125121158D01*
X161000500Y-125121155D01*
X161000499Y-125121153D01*
X160995041Y-125093713D01*
X160969737Y-124966503D01*
X160929655Y-124869735D01*
X160909397Y-124820827D01*
X160909390Y-124820814D01*
X160821789Y-124689711D01*
X160821786Y-124689707D01*
X160710292Y-124578213D01*
X160710288Y-124578210D01*
X160579185Y-124490609D01*
X160579172Y-124490602D01*
X160433501Y-124430264D01*
X160433489Y-124430261D01*
X160278845Y-124399500D01*
X160278842Y-124399500D01*
X160121158Y-124399500D01*
X160121155Y-124399500D01*
X159966510Y-124430261D01*
X159966498Y-124430264D01*
X159820827Y-124490602D01*
X159820814Y-124490609D01*
X159689125Y-124578602D01*
X159622447Y-124599480D01*
X159620234Y-124599500D01*
X156500097Y-124599500D01*
X156433058Y-124579815D01*
X156412416Y-124563181D01*
X155934574Y-124085339D01*
X155901089Y-124024016D01*
X155900638Y-124021849D01*
X155870380Y-123869735D01*
X155869737Y-123866503D01*
X155866445Y-123858556D01*
X155809397Y-123720827D01*
X155809390Y-123720814D01*
X155721789Y-123589711D01*
X155721786Y-123589707D01*
X155610292Y-123478213D01*
X155610288Y-123478210D01*
X155479185Y-123390609D01*
X155479172Y-123390602D01*
X155333501Y-123330264D01*
X155333489Y-123330261D01*
X155178845Y-123299500D01*
X155178842Y-123299500D01*
X155021158Y-123299500D01*
X155021155Y-123299500D01*
X154866510Y-123330261D01*
X154866498Y-123330264D01*
X154720827Y-123390602D01*
X154720814Y-123390609D01*
X154589711Y-123478210D01*
X154589707Y-123478213D01*
X154478213Y-123589707D01*
X154478210Y-123589711D01*
X154390609Y-123720814D01*
X154390602Y-123720827D01*
X154330264Y-123866498D01*
X154330261Y-123866510D01*
X154299500Y-124021153D01*
X121828080Y-124021153D01*
X122078301Y-123770932D01*
X122139622Y-123737449D01*
X122141644Y-123737027D01*
X122218913Y-123721658D01*
X122355495Y-123665084D01*
X122478416Y-123582951D01*
X122582951Y-123478416D01*
X122665084Y-123355495D01*
X122721658Y-123218913D01*
X122738510Y-123134193D01*
X122750500Y-123073920D01*
X122750500Y-122926079D01*
X122721659Y-122781092D01*
X122721658Y-122781091D01*
X122721658Y-122781087D01*
X122665084Y-122644505D01*
X122621396Y-122579121D01*
X122600520Y-122512444D01*
X122600500Y-122510232D01*
X122600500Y-120800096D01*
X122620185Y-120733057D01*
X122636814Y-120712420D01*
X124078301Y-119270932D01*
X124139622Y-119237449D01*
X124141644Y-119237027D01*
X124218913Y-119221658D01*
X124355495Y-119165084D01*
X124478416Y-119082951D01*
X124582951Y-118978416D01*
X124665084Y-118855495D01*
X124721658Y-118718913D01*
X124750500Y-118573918D01*
X124750500Y-118426082D01*
X124750500Y-118426079D01*
X124721659Y-118281092D01*
X124721658Y-118281091D01*
X124721658Y-118281087D01*
X124688882Y-118201958D01*
X124665087Y-118144511D01*
X124665080Y-118144498D01*
X124582951Y-118021584D01*
X124582948Y-118021580D01*
X124478419Y-117917051D01*
X124478415Y-117917048D01*
X124355501Y-117834919D01*
X124355488Y-117834912D01*
X124218917Y-117778343D01*
X124218907Y-117778340D01*
X124073920Y-117749500D01*
X124073918Y-117749500D01*
X123926082Y-117749500D01*
X123926080Y-117749500D01*
X123781092Y-117778340D01*
X123781082Y-117778343D01*
X123644511Y-117834912D01*
X123644498Y-117834919D01*
X123521584Y-117917048D01*
X123521580Y-117917051D01*
X123417051Y-118021580D01*
X123417048Y-118021584D01*
X123334919Y-118144498D01*
X123334912Y-118144511D01*
X123278342Y-118281084D01*
X123278340Y-118281092D01*
X123263000Y-118358210D01*
X123230615Y-118420121D01*
X123229064Y-118421699D01*
X121631286Y-120019478D01*
X121519481Y-120131282D01*
X121519479Y-120131285D01*
X121469965Y-120217048D01*
X121469963Y-120217050D01*
X121440425Y-120268209D01*
X121440424Y-120268210D01*
X121440423Y-120268215D01*
X121399499Y-120420943D01*
X121399499Y-120420945D01*
X121399499Y-120589046D01*
X121399500Y-120589059D01*
X121399500Y-122510232D01*
X121379815Y-122577271D01*
X121378603Y-122579122D01*
X121334914Y-122644508D01*
X121278342Y-122781084D01*
X121278340Y-122781092D01*
X121263000Y-122858210D01*
X121230615Y-122920121D01*
X121229064Y-122921699D01*
X118131286Y-126019478D01*
X118019481Y-126131282D01*
X118019479Y-126131285D01*
X117969361Y-126218094D01*
X117969359Y-126218096D01*
X117940425Y-126268209D01*
X117940424Y-126268210D01*
X117940423Y-126268215D01*
X117899499Y-126420943D01*
X117899499Y-126420945D01*
X117899499Y-126589046D01*
X117899500Y-126589059D01*
X117899500Y-127010232D01*
X117879815Y-127077271D01*
X117878603Y-127079122D01*
X117834914Y-127144508D01*
X117778343Y-127281082D01*
X117778340Y-127281092D01*
X117749500Y-127426079D01*
X117749500Y-127426082D01*
X117749500Y-127573918D01*
X117749500Y-127573920D01*
X117749499Y-127573920D01*
X111500500Y-127573920D01*
X111500500Y-119868872D01*
X113749500Y-119868872D01*
X113749500Y-120131127D01*
X113767549Y-120268215D01*
X113783730Y-120391116D01*
X113849993Y-120638414D01*
X113851602Y-120644418D01*
X113851605Y-120644428D01*
X113951953Y-120886690D01*
X113951958Y-120886700D01*
X114083075Y-121113803D01*
X114242718Y-121321851D01*
X114242726Y-121321860D01*
X114428140Y-121507274D01*
X114428148Y-121507281D01*
X114428149Y-121507282D01*
X114476554Y-121544424D01*
X114636196Y-121666924D01*
X114863299Y-121798041D01*
X114863309Y-121798046D01*
X115105571Y-121898394D01*
X115105581Y-121898398D01*
X115358884Y-121966270D01*
X115618880Y-122000500D01*
X115618887Y-122000500D01*
X115881113Y-122000500D01*
X115881120Y-122000500D01*
X116141116Y-121966270D01*
X116394419Y-121898398D01*
X116636697Y-121798043D01*
X116863803Y-121666924D01*
X117071851Y-121507282D01*
X117071855Y-121507277D01*
X117071860Y-121507274D01*
X117257274Y-121321860D01*
X117257277Y-121321855D01*
X117257282Y-121321851D01*
X117416924Y-121113803D01*
X117548043Y-120886697D01*
X117648398Y-120644419D01*
X117716270Y-120391116D01*
X117750500Y-120131120D01*
X117750500Y-119868880D01*
X117716270Y-119608884D01*
X117648398Y-119355581D01*
X117599279Y-119236997D01*
X117548046Y-119113309D01*
X117548041Y-119113299D01*
X117416924Y-118886196D01*
X117257281Y-118678148D01*
X117257274Y-118678140D01*
X117071860Y-118492726D01*
X117071851Y-118492718D01*
X116863803Y-118333075D01*
X116636700Y-118201958D01*
X116636690Y-118201953D01*
X116394428Y-118101605D01*
X116394421Y-118101603D01*
X116394419Y-118101602D01*
X116141116Y-118033730D01*
X116083339Y-118026123D01*
X115881127Y-117999500D01*
X115881120Y-117999500D01*
X115618880Y-117999500D01*
X115618872Y-117999500D01*
X115387772Y-118029926D01*
X115358884Y-118033730D01*
X115282515Y-118054193D01*
X115105581Y-118101602D01*
X115105571Y-118101605D01*
X114863309Y-118201953D01*
X114863299Y-118201958D01*
X114636196Y-118333075D01*
X114428148Y-118492718D01*
X114242718Y-118678148D01*
X114083075Y-118886196D01*
X113951958Y-119113299D01*
X113951953Y-119113309D01*
X113851605Y-119355571D01*
X113851602Y-119355581D01*
X113790995Y-119581773D01*
X113783730Y-119608885D01*
X113749500Y-119868872D01*
X111500500Y-119868872D01*
X111500500Y-114185803D01*
X113750000Y-114185803D01*
X113750000Y-114750000D01*
X114882096Y-114750000D01*
X114850000Y-114911358D01*
X114850000Y-115088642D01*
X114882096Y-115250000D01*
X113750001Y-115250000D01*
X113750001Y-115814197D01*
X113760400Y-115946332D01*
X113815377Y-116164519D01*
X113908428Y-116369374D01*
X113908431Y-116369380D01*
X114036559Y-116554323D01*
X114036569Y-116554335D01*
X114195664Y-116713430D01*
X114195676Y-116713440D01*
X114380619Y-116841568D01*
X114380625Y-116841571D01*
X114585480Y-116934622D01*
X114803667Y-116989599D01*
X114935810Y-116999999D01*
X115499999Y-116999999D01*
X115500000Y-116999998D01*
X115500000Y-115867904D01*
X115661358Y-115900000D01*
X115838642Y-115900000D01*
X116000000Y-115867904D01*
X116000000Y-116999999D01*
X116564182Y-116999999D01*
X116564197Y-116999998D01*
X116696332Y-116989599D01*
X116914519Y-116934622D01*
X117119374Y-116841571D01*
X117119380Y-116841568D01*
X117304323Y-116713440D01*
X117304335Y-116713430D01*
X117463430Y-116554335D01*
X117463440Y-116554323D01*
X117591568Y-116369380D01*
X117591571Y-116369374D01*
X117684622Y-116164519D01*
X117739599Y-115946332D01*
X117749999Y-115814196D01*
X117750000Y-115814184D01*
X117750000Y-115250000D01*
X116617904Y-115250000D01*
X116650000Y-115088642D01*
X116650000Y-114911358D01*
X116617904Y-114750000D01*
X117749999Y-114750000D01*
X117749999Y-114185817D01*
X117749998Y-114185802D01*
X117739599Y-114053667D01*
X117684622Y-113835480D01*
X117591571Y-113630625D01*
X117591568Y-113630619D01*
X117463440Y-113445676D01*
X117463430Y-113445664D01*
X117304335Y-113286569D01*
X117304323Y-113286559D01*
X117119380Y-113158431D01*
X117119374Y-113158428D01*
X116914519Y-113065377D01*
X116696332Y-113010400D01*
X116564196Y-113000000D01*
X116000000Y-113000000D01*
X116000000Y-114132095D01*
X115838642Y-114100000D01*
X115661358Y-114100000D01*
X115500000Y-114132095D01*
X115500000Y-113000000D01*
X114935817Y-113000000D01*
X114935802Y-113000001D01*
X114803667Y-113010400D01*
X114585480Y-113065377D01*
X114380625Y-113158428D01*
X114380619Y-113158431D01*
X114195676Y-113286559D01*
X114195664Y-113286569D01*
X114036569Y-113445664D01*
X114036559Y-113445676D01*
X113908431Y-113630619D01*
X113908428Y-113630625D01*
X113815377Y-113835480D01*
X113760400Y-114053667D01*
X113750000Y-114185803D01*
X111500500Y-114185803D01*
X111500500Y-106430000D01*
X112950138Y-106430000D01*
X113753012Y-106430000D01*
X113735795Y-106439940D01*
X113679940Y-106495795D01*
X113640444Y-106564204D01*
X113620000Y-106640504D01*
X113620000Y-106719496D01*
X113640444Y-106795796D01*
X113679940Y-106864205D01*
X113735795Y-106920060D01*
X113753012Y-106930000D01*
X112950138Y-106930000D01*
X112958430Y-106971690D01*
X112958430Y-106971692D01*
X113033807Y-107153671D01*
X113033814Y-107153684D01*
X113143248Y-107317462D01*
X113143251Y-107317466D01*
X113282533Y-107456748D01*
X113282537Y-107456751D01*
X113446315Y-107566185D01*
X113446328Y-107566192D01*
X113628306Y-107641569D01*
X113628318Y-107641572D01*
X113821504Y-107679999D01*
X113821508Y-107680000D01*
X114070000Y-107680000D01*
X114070000Y-106980000D01*
X114570000Y-106980000D01*
X114570000Y-107680000D01*
X114818492Y-107680000D01*
X114818495Y-107679999D01*
X115011681Y-107641572D01*
X115011693Y-107641569D01*
X115193671Y-107566192D01*
X115193684Y-107566185D01*
X115357462Y-107456751D01*
X115357466Y-107456748D01*
X115496748Y-107317466D01*
X115496751Y-107317462D01*
X115606185Y-107153684D01*
X115606192Y-107153671D01*
X115681569Y-106971692D01*
X115681569Y-106971690D01*
X115689862Y-106930000D01*
X114886988Y-106930000D01*
X114904205Y-106920060D01*
X114960060Y-106864205D01*
X114999556Y-106795796D01*
X115020000Y-106719496D01*
X115020000Y-106640504D01*
X114999556Y-106564204D01*
X114960060Y-106495795D01*
X114904205Y-106439940D01*
X114886988Y-106430000D01*
X115689862Y-106430000D01*
X117000138Y-106430000D01*
X117803012Y-106430000D01*
X117785795Y-106439940D01*
X117729940Y-106495795D01*
X117690444Y-106564204D01*
X117670000Y-106640504D01*
X117670000Y-106719496D01*
X117690444Y-106795796D01*
X117729940Y-106864205D01*
X117785795Y-106920060D01*
X117803012Y-106930000D01*
X117000138Y-106930000D01*
X117008430Y-106971690D01*
X117008430Y-106971692D01*
X117083807Y-107153671D01*
X117083814Y-107153684D01*
X117193248Y-107317462D01*
X117193251Y-107317466D01*
X117332533Y-107456748D01*
X117332537Y-107456751D01*
X117496315Y-107566185D01*
X117496328Y-107566192D01*
X117678306Y-107641569D01*
X117678318Y-107641572D01*
X117871504Y-107679999D01*
X117871508Y-107680000D01*
X118270000Y-107680000D01*
X118270000Y-106980000D01*
X118770000Y-106980000D01*
X118770000Y-107680000D01*
X119168492Y-107680000D01*
X119168495Y-107679999D01*
X119361681Y-107641572D01*
X119361693Y-107641569D01*
X119543671Y-107566192D01*
X119543684Y-107566185D01*
X119707462Y-107456751D01*
X119707466Y-107456748D01*
X119846748Y-107317466D01*
X119846751Y-107317462D01*
X119956185Y-107153684D01*
X119956192Y-107153671D01*
X120031569Y-106971692D01*
X120031569Y-106971690D01*
X120039862Y-106930000D01*
X119236988Y-106930000D01*
X119254205Y-106920060D01*
X119310060Y-106864205D01*
X119349556Y-106795796D01*
X119370000Y-106719496D01*
X119370000Y-106640504D01*
X119349556Y-106564204D01*
X119310060Y-106495795D01*
X119254205Y-106439940D01*
X119236988Y-106430000D01*
X120039862Y-106430000D01*
X120031569Y-106388309D01*
X120031569Y-106388307D01*
X119956192Y-106206328D01*
X119956185Y-106206315D01*
X119846751Y-106042537D01*
X119846748Y-106042533D01*
X119707466Y-105903251D01*
X119707462Y-105903248D01*
X119543684Y-105793814D01*
X119543671Y-105793807D01*
X119361693Y-105718430D01*
X119361681Y-105718427D01*
X119168495Y-105680000D01*
X118770000Y-105680000D01*
X118770000Y-106380000D01*
X118270000Y-106380000D01*
X118270000Y-105830237D01*
X118289685Y-105763198D01*
X118332000Y-105722850D01*
X118353365Y-105710515D01*
X118460515Y-105603365D01*
X118467880Y-105590609D01*
X118481721Y-105566637D01*
X118529521Y-105483843D01*
X118536281Y-105472135D01*
X118575500Y-105325766D01*
X118575500Y-105174234D01*
X118536281Y-105027865D01*
X118460515Y-104896635D01*
X118353365Y-104789485D01*
X118287750Y-104751602D01*
X118222136Y-104713719D01*
X118148950Y-104694109D01*
X118075766Y-104674500D01*
X117924234Y-104674500D01*
X117777863Y-104713719D01*
X117646635Y-104789485D01*
X117646632Y-104789487D01*
X117539487Y-104896632D01*
X117539485Y-104896635D01*
X117463719Y-105027863D01*
X117424500Y-105174234D01*
X117424500Y-105325765D01*
X117463719Y-105472136D01*
X117479518Y-105499500D01*
X117539485Y-105603365D01*
X117539486Y-105603366D01*
X117539489Y-105603371D01*
X117541592Y-105606112D01*
X117542646Y-105608839D01*
X117543549Y-105610403D01*
X117543305Y-105610543D01*
X117566784Y-105671282D01*
X117552744Y-105739726D01*
X117503928Y-105789714D01*
X117501676Y-105790949D01*
X117496321Y-105793811D01*
X117332536Y-105903248D01*
X117193251Y-106042533D01*
X117193248Y-106042537D01*
X117083814Y-106206315D01*
X117083807Y-106206328D01*
X117008430Y-106388307D01*
X117008430Y-106388309D01*
X117000138Y-106430000D01*
X115689862Y-106430000D01*
X115681569Y-106388309D01*
X115681569Y-106388307D01*
X115606192Y-106206328D01*
X115606185Y-106206315D01*
X115496751Y-106042537D01*
X115496748Y-106042533D01*
X115357466Y-105903251D01*
X115357462Y-105903248D01*
X115193684Y-105793814D01*
X115193671Y-105793807D01*
X115011693Y-105718430D01*
X115011681Y-105718427D01*
X114818495Y-105680000D01*
X114570000Y-105680000D01*
X114570000Y-106380000D01*
X114070000Y-106380000D01*
X114070000Y-105680000D01*
X113821504Y-105680000D01*
X113628318Y-105718427D01*
X113628306Y-105718430D01*
X113446328Y-105793807D01*
X113446315Y-105793814D01*
X113282537Y-105903248D01*
X113282533Y-105903251D01*
X113143251Y-106042533D01*
X113143248Y-106042537D01*
X113033814Y-106206315D01*
X113033807Y-106206328D01*
X112958430Y-106388307D01*
X112958430Y-106388309D01*
X112950138Y-106430000D01*
X111500500Y-106430000D01*
X111500500Y-97790000D01*
X112950138Y-97790000D01*
X113753012Y-97790000D01*
X113735795Y-97799940D01*
X113679940Y-97855795D01*
X113640444Y-97924204D01*
X113620000Y-98000504D01*
X113620000Y-98079496D01*
X113640444Y-98155796D01*
X113679940Y-98224205D01*
X113735795Y-98280060D01*
X113753012Y-98290000D01*
X112950138Y-98290000D01*
X112958430Y-98331690D01*
X112958430Y-98331692D01*
X113033807Y-98513671D01*
X113033814Y-98513684D01*
X113143248Y-98677462D01*
X113143251Y-98677466D01*
X113282533Y-98816748D01*
X113282537Y-98816751D01*
X113446315Y-98926185D01*
X113446328Y-98926192D01*
X113628306Y-99001569D01*
X113628318Y-99001572D01*
X113821504Y-99039999D01*
X113821508Y-99040000D01*
X114070000Y-99040000D01*
X114070000Y-98340000D01*
X114570000Y-98340000D01*
X114570000Y-99040000D01*
X114818492Y-99040000D01*
X114818495Y-99039999D01*
X115011681Y-99001572D01*
X115011693Y-99001569D01*
X115193671Y-98926192D01*
X115193684Y-98926185D01*
X115357462Y-98816751D01*
X115357466Y-98816748D01*
X115496748Y-98677466D01*
X115496751Y-98677462D01*
X115606185Y-98513684D01*
X115606192Y-98513671D01*
X115681569Y-98331692D01*
X115681569Y-98331690D01*
X115689862Y-98290000D01*
X114886988Y-98290000D01*
X114904205Y-98280060D01*
X114960060Y-98224205D01*
X114999556Y-98155796D01*
X115020000Y-98079496D01*
X115020000Y-98000504D01*
X114999556Y-97924204D01*
X114960060Y-97855795D01*
X114904205Y-97799940D01*
X114886988Y-97790000D01*
X115689862Y-97790000D01*
X117000138Y-97790000D01*
X117803012Y-97790000D01*
X117785795Y-97799940D01*
X117729940Y-97855795D01*
X117690444Y-97924204D01*
X117670000Y-98000504D01*
X117670000Y-98079496D01*
X117690444Y-98155796D01*
X117729940Y-98224205D01*
X117785795Y-98280060D01*
X117803012Y-98290000D01*
X117000138Y-98290000D01*
X117008430Y-98331690D01*
X117008430Y-98331692D01*
X117083807Y-98513671D01*
X117083814Y-98513684D01*
X117193248Y-98677462D01*
X117193251Y-98677466D01*
X117332533Y-98816748D01*
X117332537Y-98816751D01*
X117496318Y-98926187D01*
X117501660Y-98929042D01*
X117551508Y-98978001D01*
X117566973Y-99046138D01*
X117543145Y-99111819D01*
X117541596Y-99113882D01*
X117539490Y-99116626D01*
X117463719Y-99247863D01*
X117424500Y-99394234D01*
X117424500Y-99545765D01*
X117463719Y-99692136D01*
X117501602Y-99757750D01*
X117539485Y-99823365D01*
X117646635Y-99930515D01*
X117777865Y-100006281D01*
X117924234Y-100045500D01*
X117924236Y-100045500D01*
X118075764Y-100045500D01*
X118075766Y-100045500D01*
X118222135Y-100006281D01*
X118353365Y-99930515D01*
X118460515Y-99823365D01*
X118536281Y-99692135D01*
X118575500Y-99545766D01*
X118575500Y-99394234D01*
X118536281Y-99247865D01*
X118460515Y-99116635D01*
X118353365Y-99009485D01*
X118331997Y-98997148D01*
X118283783Y-98946579D01*
X118270000Y-98889762D01*
X118270000Y-98340000D01*
X118770000Y-98340000D01*
X118770000Y-99040000D01*
X119168492Y-99040000D01*
X119168495Y-99039999D01*
X119361681Y-99001572D01*
X119361693Y-99001569D01*
X119543671Y-98926192D01*
X119543684Y-98926185D01*
X119707462Y-98816751D01*
X119707466Y-98816748D01*
X119846748Y-98677466D01*
X119846751Y-98677462D01*
X119956185Y-98513684D01*
X119956192Y-98513671D01*
X120031569Y-98331692D01*
X120031569Y-98331690D01*
X120039862Y-98290000D01*
X119236988Y-98290000D01*
X119254205Y-98280060D01*
X119310060Y-98224205D01*
X119349556Y-98155796D01*
X119370000Y-98079496D01*
X119370000Y-98000504D01*
X119349556Y-97924204D01*
X119310060Y-97855795D01*
X119254205Y-97799940D01*
X119236988Y-97790000D01*
X120039862Y-97790000D01*
X120031569Y-97748309D01*
X120031569Y-97748307D01*
X119956192Y-97566328D01*
X119956185Y-97566315D01*
X119846751Y-97402537D01*
X119846748Y-97402533D01*
X119707466Y-97263251D01*
X119707462Y-97263248D01*
X119543684Y-97153814D01*
X119543671Y-97153807D01*
X119361693Y-97078430D01*
X119361681Y-97078427D01*
X119168495Y-97040000D01*
X118770000Y-97040000D01*
X118770000Y-97740000D01*
X118270000Y-97740000D01*
X118270000Y-97040000D01*
X117871504Y-97040000D01*
X117678318Y-97078427D01*
X117678306Y-97078430D01*
X117496328Y-97153807D01*
X117496315Y-97153814D01*
X117332537Y-97263248D01*
X117332533Y-97263251D01*
X117193251Y-97402533D01*
X117193248Y-97402537D01*
X117083814Y-97566315D01*
X117083807Y-97566328D01*
X117008430Y-97748307D01*
X117008430Y-97748309D01*
X117000138Y-97790000D01*
X115689862Y-97790000D01*
X115681569Y-97748309D01*
X115681569Y-97748307D01*
X115606192Y-97566328D01*
X115606185Y-97566315D01*
X115496751Y-97402537D01*
X115496748Y-97402533D01*
X115357466Y-97263251D01*
X115357462Y-97263248D01*
X115193684Y-97153814D01*
X115193671Y-97153807D01*
X115011693Y-97078430D01*
X115011681Y-97078427D01*
X114818495Y-97040000D01*
X114570000Y-97040000D01*
X114570000Y-97740000D01*
X114070000Y-97740000D01*
X114070000Y-97040000D01*
X113821504Y-97040000D01*
X113628318Y-97078427D01*
X113628306Y-97078430D01*
X113446328Y-97153807D01*
X113446315Y-97153814D01*
X113282537Y-97263248D01*
X113282533Y-97263251D01*
X113143251Y-97402533D01*
X113143248Y-97402537D01*
X113033814Y-97566315D01*
X113033807Y-97566328D01*
X112958430Y-97748307D01*
X112958430Y-97748309D01*
X112950138Y-97790000D01*
X111500500Y-97790000D01*
X111500500Y-83573920D01*
X125249499Y-83573920D01*
X125278340Y-83718907D01*
X125278343Y-83718917D01*
X125334912Y-83855488D01*
X125334919Y-83855501D01*
X125417048Y-83978415D01*
X125417051Y-83978419D01*
X125521580Y-84082948D01*
X125521584Y-84082951D01*
X125644498Y-84165080D01*
X125644511Y-84165087D01*
X125781082Y-84221656D01*
X125781087Y-84221658D01*
X125781091Y-84221658D01*
X125781092Y-84221659D01*
X125926079Y-84250500D01*
X125926082Y-84250500D01*
X126073920Y-84250500D01*
X126171462Y-84231096D01*
X126218913Y-84221658D01*
X126355495Y-84165084D01*
X126478416Y-84082951D01*
X126582951Y-83978416D01*
X126665084Y-83855495D01*
X126721658Y-83718913D01*
X126736999Y-83641786D01*
X126769381Y-83579879D01*
X126770874Y-83578359D01*
X127476423Y-82872811D01*
X127537744Y-82839328D01*
X127607436Y-82844312D01*
X127632993Y-82857392D01*
X127644505Y-82865084D01*
X127644507Y-82865084D01*
X127644511Y-82865087D01*
X127781082Y-82921656D01*
X127781087Y-82921658D01*
X127781091Y-82921658D01*
X127781092Y-82921659D01*
X127926079Y-82950500D01*
X127926082Y-82950500D01*
X128073920Y-82950500D01*
X128171462Y-82931096D01*
X128218913Y-82921658D01*
X128355495Y-82865084D01*
X128478416Y-82782951D01*
X128582951Y-82678416D01*
X128665084Y-82555495D01*
X128721658Y-82418913D01*
X128750500Y-82273918D01*
X128750500Y-82126082D01*
X128750500Y-82126079D01*
X128721659Y-81981092D01*
X128721658Y-81981091D01*
X128721658Y-81981087D01*
X128710338Y-81953757D01*
X128665087Y-81844511D01*
X128665080Y-81844498D01*
X128582951Y-81721584D01*
X128582948Y-81721580D01*
X128478419Y-81617051D01*
X128478415Y-81617048D01*
X128355501Y-81534919D01*
X128355488Y-81534912D01*
X128218917Y-81478343D01*
X128218907Y-81478340D01*
X128073920Y-81449500D01*
X128073918Y-81449500D01*
X127926082Y-81449500D01*
X127926080Y-81449500D01*
X127781092Y-81478340D01*
X127781082Y-81478343D01*
X127644511Y-81534912D01*
X127644498Y-81534919D01*
X127579124Y-81578602D01*
X127561077Y-81584252D01*
X127545168Y-81594477D01*
X127514208Y-81598928D01*
X127512447Y-81599480D01*
X127510233Y-81599500D01*
X127386670Y-81599500D01*
X127386654Y-81599499D01*
X127379058Y-81599499D01*
X127220943Y-81599499D01*
X127155451Y-81617048D01*
X127068214Y-81640423D01*
X127068209Y-81640426D01*
X126931290Y-81719475D01*
X126931282Y-81719481D01*
X125921699Y-82729064D01*
X125860376Y-82762549D01*
X125858210Y-82763000D01*
X125781092Y-82778340D01*
X125781084Y-82778342D01*
X125644511Y-82834912D01*
X125644498Y-82834919D01*
X125521584Y-82917048D01*
X125521580Y-82917051D01*
X125417051Y-83021580D01*
X125417048Y-83021584D01*
X125334919Y-83144498D01*
X125334912Y-83144511D01*
X125278343Y-83281082D01*
X125278340Y-83281092D01*
X125249500Y-83426079D01*
X125249500Y-83426082D01*
X125249500Y-83573918D01*
X125249500Y-83573920D01*
X125249499Y-83573920D01*
X111500500Y-83573920D01*
X111500500Y-73265000D01*
X120300000Y-73265000D01*
X122200000Y-73265000D01*
X122200000Y-71175000D01*
X120300000Y-71175000D01*
X120300000Y-73265000D01*
X111500500Y-73265000D01*
X111500500Y-63124500D01*
X111520185Y-63057461D01*
X111572989Y-63011706D01*
X111624500Y-63000500D01*
X131810731Y-63000500D01*
X131877770Y-63020185D01*
G37*
G04 #@! TD.AperFunction*
G04 #@! TA.AperFunction,Conductor*
G36*
X162364412Y-63020185D02*
G01*
X162410167Y-63072989D01*
X162420111Y-63142147D01*
X162391086Y-63205703D01*
X162371684Y-63223766D01*
X162292812Y-63282809D01*
X162292809Y-63282812D01*
X162206649Y-63397906D01*
X162206645Y-63397913D01*
X162156403Y-63532620D01*
X162156401Y-63532627D01*
X162150000Y-63592155D01*
X162150000Y-64240000D01*
X163066988Y-64240000D01*
X163034075Y-64297007D01*
X163000000Y-64424174D01*
X163000000Y-64555826D01*
X163034075Y-64682993D01*
X163066988Y-64740000D01*
X162150000Y-64740000D01*
X162150000Y-65387844D01*
X162156401Y-65447372D01*
X162156403Y-65447379D01*
X162206645Y-65582086D01*
X162206649Y-65582093D01*
X162292809Y-65697187D01*
X162292812Y-65697190D01*
X162407906Y-65783350D01*
X162407913Y-65783354D01*
X162539470Y-65832422D01*
X162595404Y-65874293D01*
X162619821Y-65939758D01*
X162604969Y-66008031D01*
X162583819Y-66036285D01*
X162469889Y-66150215D01*
X162344951Y-66322179D01*
X162248444Y-66511585D01*
X162182753Y-66713760D01*
X162149500Y-66923713D01*
X162149500Y-67136287D01*
X162182754Y-67346243D01*
X162186003Y-67356243D01*
X162248444Y-67548414D01*
X162344951Y-67737820D01*
X162469890Y-67909786D01*
X162620213Y-68060109D01*
X162792182Y-68185050D01*
X162800946Y-68189516D01*
X162851742Y-68237491D01*
X162868536Y-68305312D01*
X162845998Y-68371447D01*
X162800946Y-68410484D01*
X162792182Y-68414949D01*
X162620213Y-68539890D01*
X162469890Y-68690213D01*
X162344951Y-68862179D01*
X162248444Y-69051585D01*
X162182753Y-69253760D01*
X162149500Y-69463713D01*
X162149500Y-69676287D01*
X162182754Y-69886243D01*
X162186003Y-69896243D01*
X162248444Y-70088414D01*
X162344951Y-70277820D01*
X162469890Y-70449786D01*
X162620213Y-70600109D01*
X162792182Y-70725050D01*
X162800946Y-70729516D01*
X162851742Y-70777491D01*
X162868536Y-70845312D01*
X162845998Y-70911447D01*
X162800946Y-70950484D01*
X162792182Y-70954949D01*
X162620213Y-71079890D01*
X162469890Y-71230213D01*
X162344951Y-71402179D01*
X162248444Y-71591585D01*
X162182753Y-71793760D01*
X162149500Y-72003713D01*
X162149500Y-72216287D01*
X162182754Y-72426243D01*
X162186003Y-72436243D01*
X162248444Y-72628414D01*
X162344951Y-72817820D01*
X162469890Y-72989786D01*
X162620213Y-73140109D01*
X162792182Y-73265050D01*
X162800946Y-73269516D01*
X162851742Y-73317491D01*
X162868536Y-73385312D01*
X162845998Y-73451447D01*
X162800946Y-73490484D01*
X162792182Y-73494949D01*
X162620213Y-73619890D01*
X162469890Y-73770213D01*
X162344951Y-73942179D01*
X162248444Y-74131585D01*
X162182753Y-74333760D01*
X162149500Y-74543713D01*
X162149500Y-74756287D01*
X162182754Y-74966243D01*
X162186003Y-74976243D01*
X162248444Y-75168414D01*
X162344951Y-75357820D01*
X162469890Y-75529786D01*
X162620213Y-75680109D01*
X162792182Y-75805050D01*
X162800946Y-75809516D01*
X162851742Y-75857491D01*
X162868536Y-75925312D01*
X162845998Y-75991447D01*
X162800946Y-76030484D01*
X162792182Y-76034949D01*
X162620213Y-76159890D01*
X162469890Y-76310213D01*
X162344951Y-76482179D01*
X162248444Y-76671585D01*
X162182753Y-76873760D01*
X162149500Y-77083713D01*
X162149500Y-77296287D01*
X162182754Y-77506243D01*
X162243528Y-77693286D01*
X162248444Y-77708414D01*
X162344951Y-77897820D01*
X162469890Y-78069786D01*
X162620213Y-78220109D01*
X162792182Y-78345050D01*
X162800946Y-78349516D01*
X162851742Y-78397491D01*
X162868536Y-78465312D01*
X162845998Y-78531447D01*
X162800946Y-78570484D01*
X162792182Y-78574949D01*
X162620213Y-78699890D01*
X162469890Y-78850213D01*
X162344951Y-79022179D01*
X162248444Y-79211585D01*
X162182753Y-79413760D01*
X162149500Y-79623713D01*
X162149500Y-79836287D01*
X162182754Y-80046243D01*
X162223222Y-80170791D01*
X162248444Y-80248414D01*
X162344951Y-80437820D01*
X162469890Y-80609786D01*
X162620213Y-80760109D01*
X162792182Y-80885050D01*
X162800946Y-80889516D01*
X162851742Y-80937491D01*
X162868536Y-81005312D01*
X162845998Y-81071447D01*
X162800946Y-81110484D01*
X162792182Y-81114949D01*
X162620213Y-81239890D01*
X162469890Y-81390213D01*
X162344951Y-81562179D01*
X162248444Y-81751585D01*
X162182753Y-81953760D01*
X162149500Y-82163713D01*
X162149500Y-82376286D01*
X162182754Y-82586244D01*
X162182754Y-82586247D01*
X162196491Y-82628523D01*
X162198486Y-82698364D01*
X162166241Y-82754522D01*
X156953746Y-87967017D01*
X156892423Y-88000502D01*
X156822731Y-87995518D01*
X156778383Y-87967016D01*
X156728419Y-87917051D01*
X156728415Y-87917048D01*
X156605501Y-87834919D01*
X156605488Y-87834912D01*
X156468917Y-87778343D01*
X156468907Y-87778340D01*
X156391789Y-87763000D01*
X156329878Y-87730615D01*
X156328300Y-87729064D01*
X156218715Y-87619479D01*
X156131907Y-87569362D01*
X156131904Y-87569360D01*
X156124791Y-87565253D01*
X156114542Y-87559335D01*
X156114540Y-87559333D01*
X156088867Y-87539632D01*
X155547590Y-86998355D01*
X155547588Y-86998352D01*
X155428717Y-86879481D01*
X155428716Y-86879480D01*
X155341904Y-86829360D01*
X155341904Y-86829359D01*
X155341900Y-86829358D01*
X155291785Y-86800423D01*
X155139057Y-86759499D01*
X154980943Y-86759499D01*
X154973347Y-86759499D01*
X154973331Y-86759500D01*
X134285719Y-86759500D01*
X134218680Y-86739815D01*
X134175235Y-86691795D01*
X134155052Y-86652185D01*
X134155051Y-86652184D01*
X134030109Y-86480213D01*
X133879786Y-86329890D01*
X133707820Y-86204951D01*
X133707115Y-86204591D01*
X133699054Y-86200485D01*
X133648259Y-86152512D01*
X133631463Y-86084692D01*
X133653999Y-86018556D01*
X133699054Y-85979515D01*
X133707816Y-85975051D01*
X133729789Y-85959086D01*
X133879786Y-85850109D01*
X133879788Y-85850106D01*
X133879792Y-85850104D01*
X134030104Y-85699792D01*
X134030106Y-85699788D01*
X134030109Y-85699786D01*
X134155048Y-85527820D01*
X134155047Y-85527820D01*
X134155051Y-85527816D01*
X134251557Y-85338412D01*
X134317246Y-85136243D01*
X134350500Y-84926287D01*
X134350500Y-84713713D01*
X134317246Y-84503757D01*
X134251557Y-84301588D01*
X134155051Y-84112184D01*
X134155049Y-84112181D01*
X134155048Y-84112179D01*
X134030109Y-83940213D01*
X133879786Y-83789890D01*
X133707820Y-83664951D01*
X133707115Y-83664591D01*
X133699054Y-83660485D01*
X133648259Y-83612512D01*
X133631463Y-83544692D01*
X133653999Y-83478556D01*
X133699054Y-83439515D01*
X133707816Y-83435051D01*
X133729789Y-83419086D01*
X133879786Y-83310109D01*
X133879788Y-83310106D01*
X133879792Y-83310104D01*
X134030104Y-83159792D01*
X134030106Y-83159788D01*
X134030109Y-83159786D01*
X134155048Y-82987820D01*
X134155047Y-82987820D01*
X134155051Y-82987816D01*
X134251557Y-82798412D01*
X134317246Y-82596243D01*
X134350500Y-82386287D01*
X134350500Y-82173713D01*
X134317246Y-81963757D01*
X134251557Y-81761588D01*
X134155051Y-81572184D01*
X134155049Y-81572181D01*
X134155048Y-81572179D01*
X134030109Y-81400213D01*
X133879786Y-81249890D01*
X133707820Y-81124951D01*
X133707115Y-81124591D01*
X133699054Y-81120485D01*
X133648259Y-81072512D01*
X133631463Y-81004692D01*
X133653999Y-80938556D01*
X133699054Y-80899515D01*
X133707816Y-80895051D01*
X133729789Y-80879086D01*
X133879786Y-80770109D01*
X133879788Y-80770106D01*
X133879792Y-80770104D01*
X134030104Y-80619792D01*
X134030106Y-80619788D01*
X134030109Y-80619786D01*
X134155048Y-80447820D01*
X134155047Y-80447820D01*
X134155051Y-80447816D01*
X134251557Y-80258412D01*
X134317246Y-80056243D01*
X134350500Y-79846287D01*
X134350500Y-79633713D01*
X134317246Y-79423757D01*
X134251557Y-79221588D01*
X134155051Y-79032184D01*
X134155049Y-79032181D01*
X134155048Y-79032179D01*
X134030109Y-78860213D01*
X133879786Y-78709890D01*
X133707820Y-78584951D01*
X133707115Y-78584591D01*
X133699054Y-78580485D01*
X133648259Y-78532512D01*
X133631463Y-78464692D01*
X133653999Y-78398556D01*
X133699054Y-78359515D01*
X133707816Y-78355051D01*
X133729789Y-78339086D01*
X133879786Y-78230109D01*
X133879788Y-78230106D01*
X133879792Y-78230104D01*
X134030104Y-78079792D01*
X134030106Y-78079788D01*
X134030109Y-78079786D01*
X134155048Y-77907820D01*
X134155047Y-77907820D01*
X134155051Y-77907816D01*
X134251557Y-77718412D01*
X134317246Y-77516243D01*
X134350500Y-77306287D01*
X134350500Y-77093713D01*
X134317246Y-76883757D01*
X134251557Y-76681588D01*
X134155051Y-76492184D01*
X134155049Y-76492181D01*
X134155048Y-76492179D01*
X134030109Y-76320213D01*
X133879786Y-76169890D01*
X133707820Y-76044951D01*
X133707115Y-76044591D01*
X133699054Y-76040485D01*
X133648259Y-75992512D01*
X133631463Y-75924692D01*
X133653999Y-75858556D01*
X133699054Y-75819515D01*
X133707816Y-75815051D01*
X133729789Y-75799086D01*
X133879786Y-75690109D01*
X133879788Y-75690106D01*
X133879792Y-75690104D01*
X134030104Y-75539792D01*
X134030106Y-75539788D01*
X134030109Y-75539786D01*
X134155048Y-75367820D01*
X134155047Y-75367820D01*
X134155051Y-75367816D01*
X134251557Y-75178412D01*
X134317246Y-74976243D01*
X134350500Y-74766287D01*
X134350500Y-74553713D01*
X134317246Y-74343757D01*
X134251557Y-74141588D01*
X134155051Y-73952184D01*
X134155049Y-73952181D01*
X134155048Y-73952179D01*
X134030109Y-73780213D01*
X133879786Y-73629890D01*
X133707820Y-73504951D01*
X133707115Y-73504591D01*
X133699054Y-73500485D01*
X133648259Y-73452512D01*
X133631463Y-73384692D01*
X133653999Y-73318556D01*
X133699054Y-73279515D01*
X133707816Y-73275051D01*
X133729789Y-73259086D01*
X133879786Y-73150109D01*
X133879788Y-73150106D01*
X133879792Y-73150104D01*
X134030104Y-72999792D01*
X134030106Y-72999788D01*
X134030109Y-72999786D01*
X134155048Y-72827820D01*
X134155047Y-72827820D01*
X134155051Y-72827816D01*
X134251557Y-72638412D01*
X134317246Y-72436243D01*
X134350500Y-72226287D01*
X134350500Y-72013713D01*
X134317246Y-71803757D01*
X134251557Y-71601588D01*
X134155051Y-71412184D01*
X134155049Y-71412181D01*
X134155048Y-71412179D01*
X134030109Y-71240213D01*
X133879786Y-71089890D01*
X133707820Y-70964951D01*
X133707115Y-70964591D01*
X133699054Y-70960485D01*
X133648259Y-70912512D01*
X133631463Y-70844692D01*
X133653999Y-70778556D01*
X133699054Y-70739515D01*
X133707816Y-70735051D01*
X133729789Y-70719086D01*
X133879786Y-70610109D01*
X133879788Y-70610106D01*
X133879792Y-70610104D01*
X134030104Y-70459792D01*
X134030106Y-70459788D01*
X134030109Y-70459786D01*
X134155048Y-70287820D01*
X134155047Y-70287820D01*
X134155051Y-70287816D01*
X134251557Y-70098412D01*
X134317246Y-69896243D01*
X134350500Y-69686287D01*
X134350500Y-69473713D01*
X134317246Y-69263757D01*
X134251557Y-69061588D01*
X134155051Y-68872184D01*
X134155049Y-68872181D01*
X134155048Y-68872179D01*
X134030109Y-68700213D01*
X133879786Y-68549890D01*
X133707820Y-68424951D01*
X133707115Y-68424591D01*
X133699054Y-68420485D01*
X133648259Y-68372512D01*
X133631463Y-68304692D01*
X133653999Y-68238556D01*
X133699054Y-68199515D01*
X133707816Y-68195051D01*
X133729789Y-68179086D01*
X133879786Y-68070109D01*
X133879788Y-68070106D01*
X133879792Y-68070104D01*
X134030104Y-67919792D01*
X134030106Y-67919788D01*
X134030109Y-67919786D01*
X134155048Y-67747820D01*
X134155047Y-67747820D01*
X134155051Y-67747816D01*
X134251557Y-67558412D01*
X134317246Y-67356243D01*
X134350500Y-67146287D01*
X134350500Y-66933713D01*
X134317246Y-66723757D01*
X134251557Y-66521588D01*
X134155051Y-66332184D01*
X134155049Y-66332181D01*
X134155048Y-66332179D01*
X134030109Y-66160213D01*
X133916181Y-66046285D01*
X133882696Y-65984962D01*
X133887680Y-65915270D01*
X133929552Y-65859337D01*
X133960529Y-65842422D01*
X134092086Y-65793354D01*
X134092093Y-65793350D01*
X134207187Y-65707190D01*
X134207190Y-65707187D01*
X134293350Y-65592093D01*
X134293354Y-65592086D01*
X134343596Y-65457379D01*
X134343598Y-65457372D01*
X134349999Y-65397844D01*
X134350000Y-65397827D01*
X134350000Y-64750000D01*
X133433012Y-64750000D01*
X133465925Y-64692993D01*
X133500000Y-64565826D01*
X133500000Y-64434174D01*
X133465925Y-64307007D01*
X133433012Y-64250000D01*
X134350000Y-64250000D01*
X134350000Y-63602172D01*
X134349999Y-63602155D01*
X134343598Y-63542627D01*
X134343596Y-63542620D01*
X134293354Y-63407913D01*
X134293350Y-63407906D01*
X134207190Y-63292812D01*
X134207187Y-63292809D01*
X134114958Y-63223766D01*
X134073087Y-63167832D01*
X134068103Y-63098141D01*
X134101589Y-63036818D01*
X134162912Y-63003334D01*
X134189269Y-63000500D01*
X162297373Y-63000500D01*
X162364412Y-63020185D01*
G37*
G04 #@! TD.AperFunction*
M02*
