G04 #@! TF.GenerationSoftware,KiCad,Pcbnew,9.0.7*
G04 #@! TF.CreationDate,2026-02-25T10:02:27-05:00*
G04 #@! TF.ProjectId,remigochi-pcb,72656d69-676f-4636-9869-2d7063622e6b,rev?*
G04 #@! TF.SameCoordinates,Original*
G04 #@! TF.FileFunction,Soldermask,Top*
G04 #@! TF.FilePolarity,Negative*
%FSLAX46Y46*%
G04 Gerber Fmt 4.6, Leading zero omitted, Abs format (unit mm)*
G04 Created by KiCad (PCBNEW 9.0.7) date 2026-02-25 10:02:27*
%MOMM*%
%LPD*%
G01*
G04 APERTURE LIST*
G04 Aperture macros list*
%AMRoundRect*
0 Rectangle with rounded corners*
0 $1 Rounding radius*
0 $2 $3 $4 $5 $6 $7 $8 $9 X,Y pos of 4 corners*
0 Add a 4 corners polygon primitive as box body*
4,1,4,$2,$3,$4,$5,$6,$7,$8,$9,$2,$3,0*
0 Add four circle primitives for the rounded corners*
1,1,$1+$1,$2,$3*
1,1,$1+$1,$4,$5*
1,1,$1+$1,$6,$7*
1,1,$1+$1,$8,$9*
0 Add four rect primitives between the rounded corners*
20,1,$1+$1,$2,$3,$4,$5,0*
20,1,$1+$1,$4,$5,$6,$7,0*
20,1,$1+$1,$6,$7,$8,$9,0*
20,1,$1+$1,$8,$9,$2,$3,0*%
%AMFreePoly0*
4,1,23,0.500000,-0.750000,0.000000,-0.750000,0.000000,-0.745722,-0.065263,-0.745722,-0.191342,-0.711940,-0.304381,-0.646677,-0.396677,-0.554381,-0.461940,-0.441342,-0.495722,-0.315263,-0.495722,-0.250000,-0.500000,-0.250000,-0.500000,0.250000,-0.495722,0.250000,-0.495722,0.315263,-0.461940,0.441342,-0.396677,0.554381,-0.304381,0.646677,-0.191342,0.711940,-0.065263,0.745722,0.000000,0.745722,
0.000000,0.750000,0.500000,0.750000,0.500000,-0.750000,0.500000,-0.750000,$1*%
%AMFreePoly1*
4,1,23,0.000000,0.745722,0.065263,0.745722,0.191342,0.711940,0.304381,0.646677,0.396677,0.554381,0.461940,0.441342,0.495722,0.315263,0.495722,0.250000,0.500000,0.250000,0.500000,-0.250000,0.495722,-0.250000,0.495722,-0.315263,0.461940,-0.441342,0.396677,-0.554381,0.304381,-0.646677,0.191342,-0.711940,0.065263,-0.745722,0.000000,-0.745722,0.000000,-0.750000,-0.500000,-0.750000,
-0.500000,0.750000,0.000000,0.750000,0.000000,0.745722,0.000000,0.745722,$1*%
G04 Aperture macros list end*
%ADD10FreePoly0,0.000000*%
%ADD11FreePoly1,0.000000*%
%ADD12RoundRect,0.135000X-0.135000X-0.185000X0.135000X-0.185000X0.135000X0.185000X-0.135000X0.185000X0*%
%ADD13C,1.000000*%
%ADD14C,0.650000*%
%ADD15R,1.240000X0.600000*%
%ADD16R,1.240000X0.300000*%
%ADD17O,2.100000X1.000000*%
%ADD18O,1.800000X1.000000*%
%ADD19R,1.700000X1.700000*%
%ADD20C,1.700000*%
%ADD21RoundRect,0.250000X-0.500000X-0.250000X0.500000X-0.250000X0.500000X0.250000X-0.500000X0.250000X0*%
%ADD22RoundRect,0.147500X-0.147500X-0.172500X0.147500X-0.172500X0.147500X0.172500X-0.147500X0.172500X0*%
%ADD23FreePoly0,180.000000*%
%ADD24FreePoly1,180.000000*%
%ADD25RoundRect,0.150000X-0.512500X-0.150000X0.512500X-0.150000X0.512500X0.150000X-0.512500X0.150000X0*%
%ADD26RoundRect,0.135000X0.185000X-0.135000X0.185000X0.135000X-0.185000X0.135000X-0.185000X-0.135000X0*%
%ADD27RoundRect,0.135000X-0.185000X0.135000X-0.185000X-0.135000X0.185000X-0.135000X0.185000X0.135000X0*%
%ADD28RoundRect,0.225000X-0.250000X0.225000X-0.250000X-0.225000X0.250000X-0.225000X0.250000X0.225000X0*%
%ADD29FreePoly0,270.000000*%
%ADD30FreePoly1,270.000000*%
%ADD31RoundRect,0.225000X0.250000X-0.225000X0.250000X0.225000X-0.250000X0.225000X-0.250000X-0.225000X0*%
%ADD32RoundRect,0.225000X0.225000X0.250000X-0.225000X0.250000X-0.225000X-0.250000X0.225000X-0.250000X0*%
%ADD33RoundRect,0.087500X0.087500X-0.725000X0.087500X0.725000X-0.087500X0.725000X-0.087500X-0.725000X0*%
%ADD34RoundRect,0.225000X-0.225000X-0.250000X0.225000X-0.250000X0.225000X0.250000X-0.225000X0.250000X0*%
%ADD35RoundRect,0.250000X0.250000X-0.275000X0.250000X0.275000X-0.250000X0.275000X-0.250000X-0.275000X0*%
%ADD36RoundRect,0.250000X0.275000X-0.850000X0.275000X0.850000X-0.275000X0.850000X-0.275000X-0.850000X0*%
%ADD37R,1.500000X0.900000*%
%ADD38R,0.900000X1.500000*%
%ADD39C,0.600000*%
%ADD40R,3.900000X3.900000*%
%ADD41RoundRect,0.250000X-0.625000X0.375000X-0.625000X-0.375000X0.625000X-0.375000X0.625000X0.375000X0*%
%ADD42RoundRect,0.150000X-0.587500X-0.150000X0.587500X-0.150000X0.587500X0.150000X-0.587500X0.150000X0*%
%ADD43RoundRect,0.135000X0.135000X0.185000X-0.135000X0.185000X-0.135000X-0.185000X0.135000X-0.185000X0*%
%ADD44RoundRect,0.175000X0.175000X-0.725000X0.175000X0.725000X-0.175000X0.725000X-0.175000X-0.725000X0*%
%ADD45RoundRect,0.200000X0.200000X-0.700000X0.200000X0.700000X-0.200000X0.700000X-0.200000X-0.700000X0*%
%ADD46RoundRect,0.750000X-0.750000X0.750000X-0.750000X-0.750000X0.750000X-0.750000X0.750000X0.750000X0*%
%ADD47C,3.000000*%
%ADD48RoundRect,0.150000X-0.150000X0.587500X-0.150000X-0.587500X0.150000X-0.587500X0.150000X0.587500X0*%
%ADD49RoundRect,0.225000X-0.375000X0.225000X-0.375000X-0.225000X0.375000X-0.225000X0.375000X0.225000X0*%
%ADD50RoundRect,0.250000X0.500000X0.250000X-0.500000X0.250000X-0.500000X-0.250000X0.500000X-0.250000X0*%
%ADD51C,0.999997*%
%ADD52RoundRect,0.102000X0.650000X-0.350000X0.650000X0.350000X-0.650000X0.350000X-0.650000X-0.350000X0*%
%ADD53RoundRect,0.102000X0.825500X-0.723900X0.825500X0.723900X-0.825500X0.723900X-0.825500X-0.723900X0*%
%ADD54RoundRect,0.102000X1.219200X-0.723900X1.219200X0.723900X-1.219200X0.723900X-1.219200X-0.723900X0*%
%ADD55RoundRect,0.102000X0.825500X-0.927100X0.825500X0.927100X-0.825500X0.927100X-0.825500X-0.927100X0*%
%ADD56RoundRect,0.150000X0.587500X0.150000X-0.587500X0.150000X-0.587500X-0.150000X0.587500X-0.150000X0*%
%ADD57RoundRect,0.172500X-0.717500X-0.402500X0.717500X-0.402500X0.717500X0.402500X-0.717500X0.402500X0*%
G04 APERTURE END LIST*
G36*
X180637500Y-122780000D02*
G01*
X180937500Y-122780000D01*
X180937500Y-124280000D01*
X180637500Y-124280000D01*
X180637500Y-122780000D01*
G37*
G36*
X180637500Y-119780000D02*
G01*
X180937500Y-119780000D01*
X180937500Y-121280000D01*
X180637500Y-121280000D01*
X180637500Y-119780000D01*
G37*
G36*
X170000000Y-84320000D02*
G01*
X169700000Y-84320000D01*
X169700000Y-82820000D01*
X170000000Y-82820000D01*
X170000000Y-84320000D01*
G37*
G36*
X180637500Y-116780000D02*
G01*
X180937500Y-116780000D01*
X180937500Y-118280000D01*
X180637500Y-118280000D01*
X180637500Y-116780000D01*
G37*
G36*
X157670000Y-132850000D02*
G01*
X156170000Y-132850000D01*
X156170000Y-133150000D01*
X157670000Y-133150000D01*
X157670000Y-132850000D01*
G37*
G36*
X170000000Y-87320000D02*
G01*
X169700000Y-87320000D01*
X169700000Y-85820000D01*
X170000000Y-85820000D01*
X170000000Y-87320000D01*
G37*
G36*
X154420000Y-132750000D02*
G01*
X152920000Y-132750000D01*
X152920000Y-133050000D01*
X154420000Y-133050000D01*
X154420000Y-132750000D01*
G37*
G36*
X180637500Y-104530000D02*
G01*
X180937500Y-104530000D01*
X180937500Y-106030000D01*
X180637500Y-106030000D01*
X180637500Y-104530000D01*
G37*
G36*
X170000000Y-81320000D02*
G01*
X169700000Y-81320000D01*
X169700000Y-79820000D01*
X170000000Y-79820000D01*
X170000000Y-81320000D01*
G37*
G36*
X180637500Y-125780000D02*
G01*
X180937500Y-125780000D01*
X180937500Y-127280000D01*
X180637500Y-127280000D01*
X180637500Y-125780000D01*
G37*
G36*
X180637500Y-101530000D02*
G01*
X180937500Y-101530000D01*
X180937500Y-103030000D01*
X180637500Y-103030000D01*
X180637500Y-101530000D01*
G37*
G36*
X120310000Y-73265000D02*
G01*
X122190000Y-73265000D01*
X122190000Y-71175000D01*
X120310000Y-71175000D01*
X120310000Y-73265000D01*
G37*
G36*
X180637500Y-113780000D02*
G01*
X180937500Y-113780000D01*
X180937500Y-115280000D01*
X180637500Y-115280000D01*
X180637500Y-113780000D01*
G37*
G36*
X151420000Y-132750000D02*
G01*
X149920000Y-132750000D01*
X149920000Y-133050000D01*
X151420000Y-133050000D01*
X151420000Y-132750000D01*
G37*
G36*
X115250000Y-91850000D02*
G01*
X113750000Y-91850000D01*
X113750000Y-92150000D01*
X115250000Y-92150000D01*
X115250000Y-91850000D01*
G37*
G36*
X180637500Y-110530000D02*
G01*
X180937500Y-110530000D01*
X180937500Y-112030000D01*
X180637500Y-112030000D01*
X180637500Y-110530000D01*
G37*
G36*
X180637500Y-107530000D02*
G01*
X180937500Y-107530000D01*
X180937500Y-109030000D01*
X180637500Y-109030000D01*
X180637500Y-107530000D01*
G37*
G36*
X170000000Y-78320000D02*
G01*
X169700000Y-78320000D01*
X169700000Y-76820000D01*
X170000000Y-76820000D01*
X170000000Y-78320000D01*
G37*
G36*
X118250000Y-91850000D02*
G01*
X116750000Y-91850000D01*
X116750000Y-92150000D01*
X118250000Y-92150000D01*
X118250000Y-91850000D01*
G37*
D10*
X180137500Y-123530000D03*
D11*
X181437500Y-123530000D03*
D12*
X122030000Y-125250000D03*
X123050000Y-125250000D03*
D13*
X117600000Y-88750000D03*
D10*
X180137500Y-120530000D03*
D11*
X181437500Y-120530000D03*
D14*
X118000000Y-99470000D03*
X118000000Y-105250000D03*
D15*
X119120000Y-99160000D03*
X119120000Y-99960000D03*
D16*
X119120000Y-101110000D03*
X119120000Y-102110000D03*
X119120000Y-102610000D03*
X119120000Y-103610000D03*
D15*
X119120000Y-104760000D03*
X119120000Y-105560000D03*
X119120000Y-105560000D03*
X119120000Y-104760000D03*
D16*
X119120000Y-104110000D03*
X119120000Y-103110000D03*
X119120000Y-101610000D03*
X119120000Y-100610000D03*
D15*
X119120000Y-99960000D03*
X119120000Y-99160000D03*
D17*
X118520000Y-98040000D03*
D18*
X114320000Y-98040000D03*
D17*
X118520000Y-106680000D03*
D18*
X114320000Y-106680000D03*
D19*
X163500000Y-64490000D03*
D20*
X163500000Y-67030000D03*
X163500000Y-69570000D03*
X163500000Y-72110000D03*
X163500000Y-74650000D03*
X163500000Y-77190000D03*
X163500000Y-79730000D03*
X163500000Y-82270000D03*
X163500000Y-84810000D03*
X163500000Y-87350000D03*
X163500000Y-89890000D03*
X163500000Y-92430000D03*
X163500000Y-94970000D03*
X163500000Y-97510000D03*
D21*
X155750000Y-122750000D03*
X163750000Y-122750000D03*
X155750000Y-127250000D03*
X163750000Y-127250000D03*
D22*
X117790000Y-74525000D03*
X118760000Y-74525000D03*
D23*
X170500000Y-83570000D03*
D24*
X169200000Y-83570000D03*
D10*
X180137500Y-117530000D03*
D11*
X181437500Y-117530000D03*
D19*
X122710000Y-136500000D03*
D20*
X125250000Y-136500000D03*
X127790000Y-136500000D03*
D13*
X167400000Y-111100000D03*
D25*
X133862500Y-111050000D03*
X133862500Y-112000000D03*
X133862500Y-112950000D03*
X136137500Y-112950000D03*
X136137500Y-111050000D03*
D26*
X128000000Y-116710000D03*
X128000000Y-115690000D03*
D27*
X125500000Y-109000000D03*
X125500000Y-110020000D03*
D28*
X124360000Y-88450000D03*
X124360000Y-90000000D03*
D29*
X156920000Y-132350000D03*
D30*
X156920000Y-133650000D03*
D26*
X126000000Y-114960000D03*
X126000000Y-113940000D03*
D28*
X121850000Y-88450000D03*
X121850000Y-90000000D03*
D27*
X120820000Y-105850000D03*
X120820000Y-106870000D03*
D31*
X131705000Y-111750000D03*
X131705000Y-110200000D03*
D23*
X170500000Y-86570000D03*
D24*
X169200000Y-86570000D03*
D12*
X127740000Y-125250000D03*
X128760000Y-125250000D03*
D29*
X153670000Y-132250000D03*
D30*
X153670000Y-133550000D03*
D10*
X180137500Y-105280000D03*
D11*
X181437500Y-105280000D03*
D32*
X123775000Y-116450000D03*
X122225000Y-116450000D03*
D33*
X125000000Y-121112500D03*
X125500000Y-121112500D03*
X126000000Y-121112500D03*
X126500000Y-121112500D03*
X127000000Y-121112500D03*
X127000000Y-116887500D03*
X126500000Y-116887500D03*
X126000000Y-116887500D03*
X125500000Y-116887500D03*
X125000000Y-116887500D03*
D26*
X113850000Y-89250000D03*
X113850000Y-88230000D03*
D23*
X170500000Y-80570000D03*
D24*
X169200000Y-80570000D03*
D19*
X187000000Y-94720000D03*
D20*
X187000000Y-97260000D03*
X187000000Y-99800000D03*
X187000000Y-102340000D03*
X187000000Y-104880000D03*
X187000000Y-107420000D03*
X187000000Y-109960000D03*
X187000000Y-112500000D03*
X187000000Y-115040000D03*
X187000000Y-117580000D03*
X187000000Y-120120000D03*
X187000000Y-122660000D03*
X187000000Y-125200000D03*
X187000000Y-127740000D03*
D27*
X146000000Y-106490000D03*
X146000000Y-107510000D03*
D26*
X115100000Y-89260000D03*
X115100000Y-88240000D03*
D19*
X133000000Y-64500000D03*
D20*
X133000000Y-67040000D03*
X133000000Y-69580000D03*
X133000000Y-72120000D03*
X133000000Y-74660000D03*
X133000000Y-77200000D03*
X133000000Y-79740000D03*
X133000000Y-82280000D03*
X133000000Y-84820000D03*
X133000000Y-87360000D03*
X133000000Y-89900000D03*
X133000000Y-92440000D03*
X133000000Y-94980000D03*
X133000000Y-97520000D03*
D21*
X134750000Y-122750000D03*
X142750000Y-122750000D03*
X134750000Y-127250000D03*
X142750000Y-127250000D03*
D10*
X180137500Y-126530000D03*
D11*
X181437500Y-126530000D03*
D10*
X180137500Y-102280000D03*
D11*
X181437500Y-102280000D03*
D21*
X145250000Y-122750000D03*
X153250000Y-122750000D03*
X145250000Y-127250000D03*
X153250000Y-127250000D03*
D34*
X135180000Y-109225000D03*
X136730000Y-109225000D03*
D35*
X121250000Y-73800000D03*
D36*
X119775000Y-72275000D03*
X122725000Y-72275000D03*
D26*
X120820000Y-100370000D03*
X120820000Y-99350000D03*
D19*
X133840000Y-102000000D03*
D20*
X136380000Y-102000000D03*
X138920000Y-102000000D03*
X141460000Y-102000000D03*
X144000000Y-102000000D03*
X146540000Y-102000000D03*
X149080000Y-102000000D03*
X151620000Y-102000000D03*
X154160000Y-102000000D03*
X156700000Y-102000000D03*
X159240000Y-102000000D03*
X161780000Y-102000000D03*
D37*
X139500000Y-64030000D03*
X139500000Y-65300000D03*
X139500000Y-66570000D03*
X139500000Y-67840000D03*
X139500000Y-69110000D03*
X139500000Y-70380000D03*
X139500000Y-71650000D03*
X139500000Y-72920000D03*
X139500000Y-74190000D03*
X139500000Y-75460000D03*
X139500000Y-76730000D03*
X139500000Y-78000000D03*
X139500000Y-79270000D03*
X139500000Y-80540000D03*
D38*
X141265000Y-81790000D03*
X142535000Y-81790000D03*
X143805000Y-81790000D03*
X145075000Y-81790000D03*
X146345000Y-81790000D03*
X147615000Y-81790000D03*
X148885000Y-81790000D03*
X150155000Y-81790000D03*
X151425000Y-81790000D03*
X152695000Y-81790000D03*
X153965000Y-81790000D03*
X155235000Y-81790000D03*
D37*
X157000000Y-80540000D03*
X157000000Y-79270000D03*
X157000000Y-78000000D03*
X157000000Y-76730000D03*
X157000000Y-75460000D03*
X157000000Y-74190000D03*
X157000000Y-72920000D03*
X157000000Y-71650000D03*
X157000000Y-70380000D03*
X157000000Y-69110000D03*
X157000000Y-67840000D03*
X157000000Y-66570000D03*
X157000000Y-65300000D03*
X157000000Y-64030000D03*
D39*
X145350000Y-71050000D03*
X145350000Y-72450000D03*
X146050000Y-70350000D03*
X146050000Y-71750000D03*
X146050000Y-73150000D03*
X146750000Y-71050000D03*
D40*
X146750000Y-71750000D03*
D39*
X146750000Y-72450000D03*
X147450000Y-70350000D03*
X147450000Y-71750000D03*
X147450000Y-73150000D03*
X148150000Y-71050000D03*
X148150000Y-72450000D03*
D13*
X119850000Y-88750000D03*
D27*
X130500000Y-67500000D03*
X130500000Y-68520000D03*
D10*
X180137500Y-114530000D03*
D11*
X181437500Y-114530000D03*
D26*
X124250000Y-110020000D03*
X124250000Y-109000000D03*
D41*
X122510000Y-126900000D03*
X122510000Y-129700000D03*
D29*
X150670000Y-132250000D03*
D30*
X150670000Y-133550000D03*
D13*
X147540000Y-133500000D03*
D42*
X174287500Y-104280000D03*
X174287500Y-106180000D03*
X176162500Y-105230000D03*
D29*
X114500000Y-91350000D03*
D30*
X114500000Y-92650000D03*
D13*
X163900000Y-111100000D03*
D43*
X125800000Y-125250000D03*
X124780000Y-125250000D03*
D10*
X180137500Y-111280000D03*
D11*
X181437500Y-111280000D03*
D41*
X125290000Y-126850000D03*
X125290000Y-129650000D03*
D44*
X114350000Y-86000000D03*
D45*
X115450000Y-86000000D03*
X116550000Y-86000000D03*
X117650000Y-86000000D03*
X118750000Y-86000000D03*
X119850000Y-86000000D03*
X120950000Y-86000000D03*
X122050000Y-86000000D03*
D44*
X123150000Y-86000000D03*
X123150000Y-76500000D03*
D45*
X122050000Y-76500000D03*
X120950000Y-76500000D03*
X119850000Y-76500000D03*
X118750000Y-76500000D03*
X117650000Y-76500000D03*
X116550000Y-76500000D03*
X115450000Y-76500000D03*
D44*
X114350000Y-76500000D03*
D46*
X115750000Y-115000000D03*
D47*
X115750000Y-120000000D03*
D10*
X180137500Y-108280000D03*
D11*
X181437500Y-108280000D03*
D26*
X125100000Y-86520000D03*
X125100000Y-85500000D03*
D41*
X128040000Y-126850000D03*
X128040000Y-129650000D03*
D13*
X143290000Y-133750000D03*
D48*
X149600000Y-107167500D03*
X147700000Y-107167500D03*
X148650000Y-109042500D03*
D49*
X148700000Y-111317500D03*
X148700000Y-114617500D03*
D50*
X128250000Y-68500000D03*
X120250000Y-68500000D03*
X128250000Y-64000000D03*
X120250000Y-64000000D03*
D23*
X170500000Y-77570000D03*
D24*
X169200000Y-77570000D03*
D51*
X185030600Y-85003800D03*
X185030600Y-77028200D03*
D52*
X174326200Y-77770200D03*
X174326200Y-78870200D03*
X174326200Y-79970200D03*
X174326200Y-81070200D03*
X174326200Y-82170200D03*
X174326200Y-83270200D03*
X174326200Y-84370200D03*
X174326200Y-85470200D03*
D53*
X175100000Y-87988600D03*
D54*
X184800000Y-87988600D03*
D55*
X175100000Y-72938800D03*
D54*
X184800000Y-72163800D03*
D52*
X174326200Y-86570200D03*
D56*
X163737500Y-108550000D03*
X163737500Y-106650000D03*
X161862500Y-107600000D03*
D57*
X158640000Y-110242500D03*
X158640000Y-116202500D03*
X151050000Y-110242500D03*
X151050000Y-116202500D03*
D19*
X141510000Y-137750000D03*
D20*
X144050000Y-137750000D03*
X146590000Y-137750000D03*
X149130000Y-137750000D03*
X151670000Y-137750000D03*
X154210000Y-137750000D03*
X156750000Y-137750000D03*
X159290000Y-137750000D03*
D29*
X117500000Y-91350000D03*
D30*
X117500000Y-92650000D03*
M02*
