M48
; DRILL file KiCad 10.0.0 date 2026-04-06T11:01:03
; FORMAT={-:-/ absolute / metric / decimal}
; #@! TF.CreationDate,2026-04-06T11:01:03-04:00
; #@! TF.GenerationSoftware,Kicad,Pcbnew,10.0.0
; #@! TF.FileFunction,Plated,1,2,PTH
FMAT,2
METRIC
; #@! TA.AperFunction,Plated,PTH,ComponentDrill
T1C0.200
; #@! TA.AperFunction,Plated,PTH,ViaDrill
T2C0.300
; #@! TA.AperFunction,Plated,PTH,ComponentDrill
T3C0.600
; #@! TA.AperFunction,Plated,PTH,ComponentDrill
T4C1.000
; #@! TA.AperFunction,Plated,PTH,ComponentDrill
T5C1.500
%
G90
G05
T1
X148.12Y-116.15
X148.12Y-117.55
X148.82Y-115.45
X148.82Y-116.85
X148.82Y-118.25
X149.52Y-116.15
X149.52Y-117.55
X150.22Y-115.45
X150.22Y-116.85
X150.22Y-118.25
X150.92Y-116.15
X150.92Y-117.55
T2
X141.39Y-127.6
X141.8Y-106.6
X141.8Y-124.1
X141.8Y-133.8
X141.8Y-136.89
X141.8Y-144.15
X142.4Y-122.5
X142.41Y-127.6
X143.2Y-138.4
X143.7Y-129.9
X143.8Y-128.7
X144.5Y-131.7
X145.4Y-75.175
X145.4Y-91.0
X145.61Y-124.1
X146.88Y-124.1
X147.4Y-104.7
X148.15Y-124.1
X148.82Y-91.4
X149.8Y-133.8
X149.8Y-144.15
X150.69Y-124.1
X151.3Y-87.6
X151.3Y-98.9
X151.8Y-136.7
X152.4Y-114.3
X152.8Y-97.3
X154.025Y-136.175
X154.5Y-113.4
X155.0Y-140.0
X155.1Y-75.175
X155.1Y-90.225
X155.726Y-111.926
X155.8Y-117.8
X155.874Y-79.894
X155.874Y-83.194
X155.874Y-84.294
X155.935Y-98.05
X155.935Y-102.55
X156.1Y-110.2
X156.8Y-108.4
X157.6Y-83.6
X158.0Y-140.0
X159.5Y-106.1
X159.56Y-114.715
X159.56Y-115.985
X159.56Y-117.255
X159.56Y-118.525
X159.56Y-119.795
X159.56Y-121.065
X159.56Y-122.335
X160.1Y-75.4
X161.2Y-106.9
X162.5Y-75.4
X162.6Y-143.3
X163.0Y-106.3
X163.935Y-98.05
X163.935Y-102.55
X167.1Y-131.9
X167.1Y-134.9
X167.885Y-98.05
X167.885Y-102.55
X168.0Y-131.9
X168.0Y-134.9
X168.7Y-141.1
X170.52Y-128.3
X171.105Y-135.595
X174.6Y-86.9
X174.6Y-119.8
X175.2Y-141.1
X175.885Y-98.05
X175.885Y-102.55
X176.185Y-76.96
X176.185Y-84.55
X177.7Y-117.1
X177.9Y-119.8
X179.82Y-127.775
X179.835Y-98.05
X180.524Y-117.024
X180.576Y-114.376
X181.615Y-77.8
X182.3Y-113.5
X182.3Y-116.9
X182.413Y-114.292
X183.5Y-124.3
X183.6Y-114.7
X184.41Y-77.8
X184.6Y-96.4
X184.9Y-134.8
X186.0Y-96.5
X186.6Y-109.3
X187.2Y-96.6
X187.205Y-77.8
X187.7Y-109.7
X188.5Y-134.3
X189.224Y-109.024
X191.4Y-90.6
X191.8Y-123.0
X192.0Y-124.0
X192.1Y-85.85
X193.115Y-88.61
X194.1Y-112.9
X194.257Y-113.684
X194.324Y-114.482
X194.5Y-115.3
X194.632Y-116.089
X195.15Y-118.225
X195.15Y-119.775
X195.54Y-74.375
X195.91Y-124.0
X196.725Y-109.38
X196.9Y-104.7
X197.51Y-122.0
X198.5Y-89.85
X198.7Y-76.35
X200.2Y-89.85
X200.9Y-76.35
T4
X143.36Y-71.9
X145.9Y-71.9
X148.44Y-71.9
X150.98Y-71.9
X153.52Y-71.9
X156.06Y-71.9
X158.6Y-71.9
X159.1Y-134.26
X159.1Y-136.8
X161.14Y-71.9
X201.5Y-93.19
X201.5Y-95.73
X201.5Y-98.27
X201.5Y-100.81
X201.5Y-103.35
X201.5Y-105.89
X201.5Y-108.43
X201.5Y-110.97
X201.5Y-113.51
X201.5Y-116.05
X201.5Y-118.59
X201.5Y-121.13
X201.5Y-123.67
X201.5Y-126.21
T5
X183.215Y-137.6
X183.215Y-143.6
T3
X167.565Y-138.103G85X167.565Y-139.203
G05
X167.565Y-142.453G85X167.565Y-143.253
G05
X176.205Y-138.103G85X176.205Y-139.203
G05
X176.205Y-142.453G85X176.205Y-143.253
G05
M30
