G04 #@! TF.GenerationSoftware,KiCad,Pcbnew,10.0.0*
G04 #@! TF.CreationDate,2026-04-06T10:59:59-04:00*
G04 #@! TF.ProjectId,remigochi-pcb,72656d69-676f-4636-9869-2d7063622e6b,rev?*
G04 #@! TF.SameCoordinates,Original*
G04 #@! TF.FileFunction,Soldermask,Top*
G04 #@! TF.FilePolarity,Negative*
%FSLAX46Y46*%
G04 Gerber Fmt 4.6, Leading zero omitted, Abs format (unit mm)*
G04 Created by KiCad (PCBNEW 10.0.0) date 2026-04-06 10:59:59*
%MOMM*%
%LPD*%
G01*
G04 APERTURE LIST*
G04 Aperture macros list*
%AMRoundRect*
0 Rectangle with rounded corners*
0 $1 Rounding radius*
0 $2 $3 $4 $5 $6 $7 $8 $9 X,Y pos of 4 corners*
0 Add a 4 corners polygon primitive as box body*
4,1,4,$2,$3,$4,$5,$6,$7,$8,$9,$2,$3,0*
0 Add four circle primitives for the rounded corners*
1,1,$1+$1,$2,$3*
1,1,$1+$1,$4,$5*
1,1,$1+$1,$6,$7*
1,1,$1+$1,$8,$9*
0 Add four rect primitives between the rounded corners*
20,1,$1+$1,$2,$3,$4,$5,0*
20,1,$1+$1,$4,$5,$6,$7,0*
20,1,$1+$1,$6,$7,$8,$9,0*
20,1,$1+$1,$8,$9,$2,$3,0*%
%AMFreePoly0*
4,1,23,0.500000,-0.750000,0.000000,-0.750000,0.000000,-0.745722,-0.065263,-0.745722,-0.191342,-0.711940,-0.304381,-0.646677,-0.396677,-0.554381,-0.461940,-0.441342,-0.495722,-0.315263,-0.495722,-0.250000,-0.500000,-0.250000,-0.500000,0.250000,-0.495722,0.250000,-0.495722,0.315263,-0.461940,0.441342,-0.396677,0.554381,-0.304381,0.646677,-0.191342,0.711940,-0.065263,0.745722,0.000000,0.745722,
0.000000,0.750000,0.500000,0.750000,0.500000,-0.750000,0.500000,-0.750000,$1*%
%AMFreePoly1*
4,1,23,0.000000,0.745722,0.065263,0.745722,0.191342,0.711940,0.304381,0.646677,0.396677,0.554381,0.461940,0.441342,0.495722,0.315263,0.495722,0.250000,0.500000,0.250000,0.500000,-0.250000,0.495722,-0.250000,0.495722,-0.315263,0.461940,-0.441342,0.396677,-0.554381,0.304381,-0.646677,0.191342,-0.711940,0.065263,-0.745722,0.000000,-0.745722,0.000000,-0.750000,-0.500000,-0.750000,
-0.500000,0.750000,0.000000,0.750000,0.000000,0.745722,0.000000,0.745722,$1*%
G04 Aperture macros list end*
%ADD10C,0.010000*%
%ADD11RoundRect,0.135000X-0.135000X-0.185000X0.135000X-0.185000X0.135000X0.185000X-0.135000X0.185000X0*%
%ADD12RoundRect,0.150000X-0.587500X-0.150000X0.587500X-0.150000X0.587500X0.150000X-0.587500X0.150000X0*%
%ADD13C,1.000000*%
%ADD14C,0.650000*%
%ADD15R,0.600000X1.240000*%
%ADD16R,0.300000X1.240000*%
%ADD17O,1.000000X2.100000*%
%ADD18O,1.000000X1.800000*%
%ADD19RoundRect,0.250000X-0.500000X-0.250000X0.500000X-0.250000X0.500000X0.250000X-0.500000X0.250000X0*%
%ADD20RoundRect,0.147500X-0.147500X-0.172500X0.147500X-0.172500X0.147500X0.172500X-0.147500X0.172500X0*%
%ADD21RoundRect,0.135000X0.135000X0.185000X-0.135000X0.185000X-0.135000X-0.185000X0.135000X-0.185000X0*%
%ADD22RoundRect,0.150000X0.512500X0.150000X-0.512500X0.150000X-0.512500X-0.150000X0.512500X-0.150000X0*%
%ADD23RoundRect,0.135000X-0.185000X0.135000X-0.185000X-0.135000X0.185000X-0.135000X0.185000X0.135000X0*%
%ADD24RoundRect,0.250000X0.625000X-0.375000X0.625000X0.375000X-0.625000X0.375000X-0.625000X-0.375000X0*%
%ADD25FreePoly0,90.000000*%
%ADD26FreePoly1,90.000000*%
%ADD27RoundRect,0.225000X-0.250000X0.225000X-0.250000X-0.225000X0.250000X-0.225000X0.250000X0.225000X0*%
%ADD28RoundRect,0.225000X0.250000X-0.225000X0.250000X0.225000X-0.250000X0.225000X-0.250000X-0.225000X0*%
%ADD29RoundRect,0.087500X-0.725000X-0.087500X0.725000X-0.087500X0.725000X0.087500X-0.725000X0.087500X0*%
%ADD30RoundRect,0.135000X0.185000X-0.135000X0.185000X0.135000X-0.185000X0.135000X-0.185000X-0.135000X0*%
%ADD31R,1.700000X1.700000*%
%ADD32C,1.700000*%
%ADD33FreePoly0,180.000000*%
%ADD34FreePoly1,180.000000*%
%ADD35RoundRect,0.225000X0.225000X0.250000X-0.225000X0.250000X-0.225000X-0.250000X0.225000X-0.250000X0*%
%ADD36RoundRect,0.250000X0.250000X-0.275000X0.250000X0.275000X-0.250000X0.275000X-0.250000X-0.275000X0*%
%ADD37RoundRect,0.250000X0.275000X-0.850000X0.275000X0.850000X-0.275000X0.850000X-0.275000X-0.850000X0*%
%ADD38R,0.900000X1.500000*%
%ADD39R,1.500000X0.900000*%
%ADD40C,0.600000*%
%ADD41R,3.900000X3.900000*%
%ADD42RoundRect,0.250000X-0.375000X-0.625000X0.375000X-0.625000X0.375000X0.625000X-0.375000X0.625000X0*%
%ADD43RoundRect,0.250000X-0.625000X0.375000X-0.625000X-0.375000X0.625000X-0.375000X0.625000X0.375000X0*%
%ADD44RoundRect,0.175000X0.175000X-0.725000X0.175000X0.725000X-0.175000X0.725000X-0.175000X-0.725000X0*%
%ADD45RoundRect,0.200000X0.200000X-0.700000X0.200000X0.700000X-0.200000X0.700000X-0.200000X-0.700000X0*%
%ADD46RoundRect,0.150000X0.150000X-0.587500X0.150000X0.587500X-0.150000X0.587500X-0.150000X-0.587500X0*%
%ADD47C,2.250000*%
%ADD48RoundRect,0.198413X1.051587X-1.051587X1.051587X1.051587X-1.051587X1.051587X-1.051587X-1.051587X0*%
%ADD49C,2.500000*%
%ADD50RoundRect,0.225000X-0.225000X-0.375000X0.225000X-0.375000X0.225000X0.375000X-0.225000X0.375000X0*%
%ADD51C,0.999997*%
%ADD52RoundRect,0.102000X-0.650000X0.350000X-0.650000X-0.350000X0.650000X-0.350000X0.650000X0.350000X0*%
%ADD53RoundRect,0.102000X-0.825500X0.723900X-0.825500X-0.723900X0.825500X-0.723900X0.825500X0.723900X0*%
%ADD54RoundRect,0.102000X-1.219200X0.723900X-1.219200X-0.723900X1.219200X-0.723900X1.219200X0.723900X0*%
%ADD55RoundRect,0.102000X-0.825500X0.927100X-0.825500X-0.927100X0.825500X-0.927100X0.825500X0.927100X0*%
%ADD56RoundRect,0.172500X0.402500X-0.717500X0.402500X0.717500X-0.402500X0.717500X-0.402500X-0.717500X0*%
G04 APERTURE END LIST*
D10*
X171213139Y-136294404D02*
X171215139Y-136294404D01*
X171218139Y-136295404D01*
X171220139Y-136295404D01*
X171223139Y-136296404D01*
X171225139Y-136297404D01*
X171228139Y-136298404D01*
X171230139Y-136300404D01*
X171232139Y-136301404D01*
X171234139Y-136303404D01*
X171236139Y-136304404D01*
X171238139Y-136306404D01*
X171240139Y-136308404D01*
X171242139Y-136310404D01*
X171244139Y-136312404D01*
X171245139Y-136314404D01*
X171247139Y-136316404D01*
X171248139Y-136318404D01*
X171250139Y-136320404D01*
X171251139Y-136323404D01*
X171252139Y-136325404D01*
X171253139Y-136328404D01*
X171253139Y-136330404D01*
X171254139Y-136333404D01*
X171254139Y-136335404D01*
X171255139Y-136338404D01*
X171255139Y-136340404D01*
X171255139Y-136343404D01*
X171255139Y-136543404D01*
X171255139Y-136546404D01*
X171255139Y-136548404D01*
X171254139Y-136551404D01*
X171254139Y-136553404D01*
X171253139Y-136556404D01*
X171253139Y-136558404D01*
X171252139Y-136561404D01*
X171251139Y-136563404D01*
X171250139Y-136566404D01*
X171248139Y-136568404D01*
X171247139Y-136570404D01*
X171245139Y-136572404D01*
X171244139Y-136574404D01*
X171242139Y-136576404D01*
X171240139Y-136578404D01*
X171238139Y-136580404D01*
X171236139Y-136582404D01*
X171234139Y-136583404D01*
X171232139Y-136585404D01*
X171230139Y-136586404D01*
X171228139Y-136588404D01*
X171225139Y-136589404D01*
X171223139Y-136590404D01*
X171220139Y-136591404D01*
X171218139Y-136591404D01*
X171215139Y-136592404D01*
X171213139Y-136592404D01*
X171210139Y-136593404D01*
X171208139Y-136593404D01*
X171205139Y-136593404D01*
X171005139Y-136593404D01*
X171002139Y-136593404D01*
X171000139Y-136593404D01*
X170997139Y-136592404D01*
X170995139Y-136592404D01*
X170992139Y-136591404D01*
X170990139Y-136591404D01*
X170987139Y-136590404D01*
X170985139Y-136589404D01*
X170982139Y-136588404D01*
X170980139Y-136586404D01*
X170978139Y-136585404D01*
X170976139Y-136583404D01*
X170974139Y-136582404D01*
X170972139Y-136580404D01*
X170970139Y-136578404D01*
X170968139Y-136576404D01*
X170966139Y-136574404D01*
X170965139Y-136572404D01*
X170963139Y-136570404D01*
X170962139Y-136568404D01*
X170960139Y-136566404D01*
X170959139Y-136563404D01*
X170958139Y-136561404D01*
X170957139Y-136558404D01*
X170957139Y-136556404D01*
X170956139Y-136553404D01*
X170956139Y-136551404D01*
X170955139Y-136548404D01*
X170955139Y-136546404D01*
X170955139Y-136543404D01*
X170955139Y-136343404D01*
X170955139Y-136340404D01*
X170955139Y-136338404D01*
X170956139Y-136335404D01*
X170956139Y-136333404D01*
X170957139Y-136330404D01*
X170957139Y-136328404D01*
X170958139Y-136325404D01*
X170959139Y-136323404D01*
X170960139Y-136320404D01*
X170962139Y-136318404D01*
X170963139Y-136316404D01*
X170965139Y-136314404D01*
X170966139Y-136312404D01*
X170968139Y-136310404D01*
X170970139Y-136308404D01*
X170972139Y-136306404D01*
X170974139Y-136304404D01*
X170976139Y-136303404D01*
X170978139Y-136301404D01*
X170980139Y-136300404D01*
X170982139Y-136298404D01*
X170985139Y-136297404D01*
X170987139Y-136296404D01*
X170990139Y-136295404D01*
X170992139Y-136295404D01*
X170995139Y-136294404D01*
X170997139Y-136294404D01*
X171000139Y-136293404D01*
X171002139Y-136293404D01*
X171005139Y-136293404D01*
X171205139Y-136293404D01*
X171208139Y-136293404D01*
X171210139Y-136293404D01*
X171213139Y-136294404D01*
G36*
X171213139Y-136294404D02*
G01*
X171215139Y-136294404D01*
X171218139Y-136295404D01*
X171220139Y-136295404D01*
X171223139Y-136296404D01*
X171225139Y-136297404D01*
X171228139Y-136298404D01*
X171230139Y-136300404D01*
X171232139Y-136301404D01*
X171234139Y-136303404D01*
X171236139Y-136304404D01*
X171238139Y-136306404D01*
X171240139Y-136308404D01*
X171242139Y-136310404D01*
X171244139Y-136312404D01*
X171245139Y-136314404D01*
X171247139Y-136316404D01*
X171248139Y-136318404D01*
X171250139Y-136320404D01*
X171251139Y-136323404D01*
X171252139Y-136325404D01*
X171253139Y-136328404D01*
X171253139Y-136330404D01*
X171254139Y-136333404D01*
X171254139Y-136335404D01*
X171255139Y-136338404D01*
X171255139Y-136340404D01*
X171255139Y-136343404D01*
X171255139Y-136543404D01*
X171255139Y-136546404D01*
X171255139Y-136548404D01*
X171254139Y-136551404D01*
X171254139Y-136553404D01*
X171253139Y-136556404D01*
X171253139Y-136558404D01*
X171252139Y-136561404D01*
X171251139Y-136563404D01*
X171250139Y-136566404D01*
X171248139Y-136568404D01*
X171247139Y-136570404D01*
X171245139Y-136572404D01*
X171244139Y-136574404D01*
X171242139Y-136576404D01*
X171240139Y-136578404D01*
X171238139Y-136580404D01*
X171236139Y-136582404D01*
X171234139Y-136583404D01*
X171232139Y-136585404D01*
X171230139Y-136586404D01*
X171228139Y-136588404D01*
X171225139Y-136589404D01*
X171223139Y-136590404D01*
X171220139Y-136591404D01*
X171218139Y-136591404D01*
X171215139Y-136592404D01*
X171213139Y-136592404D01*
X171210139Y-136593404D01*
X171208139Y-136593404D01*
X171205139Y-136593404D01*
X171005139Y-136593404D01*
X171002139Y-136593404D01*
X171000139Y-136593404D01*
X170997139Y-136592404D01*
X170995139Y-136592404D01*
X170992139Y-136591404D01*
X170990139Y-136591404D01*
X170987139Y-136590404D01*
X170985139Y-136589404D01*
X170982139Y-136588404D01*
X170980139Y-136586404D01*
X170978139Y-136585404D01*
X170976139Y-136583404D01*
X170974139Y-136582404D01*
X170972139Y-136580404D01*
X170970139Y-136578404D01*
X170968139Y-136576404D01*
X170966139Y-136574404D01*
X170965139Y-136572404D01*
X170963139Y-136570404D01*
X170962139Y-136568404D01*
X170960139Y-136566404D01*
X170959139Y-136563404D01*
X170958139Y-136561404D01*
X170957139Y-136558404D01*
X170957139Y-136556404D01*
X170956139Y-136553404D01*
X170956139Y-136551404D01*
X170955139Y-136548404D01*
X170955139Y-136546404D01*
X170955139Y-136543404D01*
X170955139Y-136343404D01*
X170955139Y-136340404D01*
X170955139Y-136338404D01*
X170956139Y-136335404D01*
X170956139Y-136333404D01*
X170957139Y-136330404D01*
X170957139Y-136328404D01*
X170958139Y-136325404D01*
X170959139Y-136323404D01*
X170960139Y-136320404D01*
X170962139Y-136318404D01*
X170963139Y-136316404D01*
X170965139Y-136314404D01*
X170966139Y-136312404D01*
X170968139Y-136310404D01*
X170970139Y-136308404D01*
X170972139Y-136306404D01*
X170974139Y-136304404D01*
X170976139Y-136303404D01*
X170978139Y-136301404D01*
X170980139Y-136300404D01*
X170982139Y-136298404D01*
X170985139Y-136297404D01*
X170987139Y-136296404D01*
X170990139Y-136295404D01*
X170992139Y-136295404D01*
X170995139Y-136294404D01*
X170997139Y-136294404D01*
X171000139Y-136293404D01*
X171002139Y-136293404D01*
X171005139Y-136293404D01*
X171205139Y-136293404D01*
X171208139Y-136293404D01*
X171210139Y-136293404D01*
X171213139Y-136294404D01*
G37*
X171553139Y-135994404D02*
X171555139Y-135994404D01*
X171558139Y-135995404D01*
X171560139Y-135995404D01*
X171563139Y-135996404D01*
X171565139Y-135997404D01*
X171568139Y-135998404D01*
X171570139Y-136000404D01*
X171572139Y-136001404D01*
X171574139Y-136003404D01*
X171576139Y-136004404D01*
X171578139Y-136006404D01*
X171580139Y-136008404D01*
X171582139Y-136010404D01*
X171584139Y-136012404D01*
X171585139Y-136014404D01*
X171587139Y-136016404D01*
X171588139Y-136018404D01*
X171590139Y-136020404D01*
X171591139Y-136023404D01*
X171592139Y-136025404D01*
X171593139Y-136028404D01*
X171593139Y-136030404D01*
X171594139Y-136033404D01*
X171594139Y-136035404D01*
X171595139Y-136038404D01*
X171595139Y-136040404D01*
X171595139Y-136043404D01*
X171595139Y-136243404D01*
X171595139Y-136246404D01*
X171595139Y-136248404D01*
X171594139Y-136251404D01*
X171594139Y-136253404D01*
X171593139Y-136256404D01*
X171593139Y-136258404D01*
X171592139Y-136261404D01*
X171591139Y-136263404D01*
X171590139Y-136266404D01*
X171588139Y-136268404D01*
X171587139Y-136270404D01*
X171585139Y-136272404D01*
X171584139Y-136274404D01*
X171582139Y-136276404D01*
X171580139Y-136278404D01*
X171578139Y-136280404D01*
X171576139Y-136282404D01*
X171574139Y-136283404D01*
X171572139Y-136285404D01*
X171570139Y-136286404D01*
X171568139Y-136288404D01*
X171565139Y-136289404D01*
X171563139Y-136290404D01*
X171560139Y-136291404D01*
X171558139Y-136291404D01*
X171555139Y-136292404D01*
X171553139Y-136292404D01*
X171550139Y-136293404D01*
X171548139Y-136293404D01*
X171545139Y-136293404D01*
X171345139Y-136293404D01*
X171342139Y-136293404D01*
X171340139Y-136293404D01*
X171337139Y-136292404D01*
X171335139Y-136292404D01*
X171332139Y-136291404D01*
X171330139Y-136291404D01*
X171327139Y-136290404D01*
X171325139Y-136289404D01*
X171322139Y-136288404D01*
X171320139Y-136286404D01*
X171318139Y-136285404D01*
X171316139Y-136283404D01*
X171314139Y-136282404D01*
X171312139Y-136280404D01*
X171310139Y-136278404D01*
X171308139Y-136276404D01*
X171306139Y-136274404D01*
X171305139Y-136272404D01*
X171303139Y-136270404D01*
X171302139Y-136268404D01*
X171300139Y-136266404D01*
X171299139Y-136263404D01*
X171298139Y-136261404D01*
X171297139Y-136258404D01*
X171297139Y-136256404D01*
X171296139Y-136253404D01*
X171296139Y-136251404D01*
X171295139Y-136248404D01*
X171295139Y-136246404D01*
X171295139Y-136243404D01*
X171295139Y-136043404D01*
X171295139Y-136040404D01*
X171295139Y-136038404D01*
X171296139Y-136035404D01*
X171296139Y-136033404D01*
X171297139Y-136030404D01*
X171297139Y-136028404D01*
X171298139Y-136025404D01*
X171299139Y-136023404D01*
X171300139Y-136020404D01*
X171302139Y-136018404D01*
X171303139Y-136016404D01*
X171305139Y-136014404D01*
X171306139Y-136012404D01*
X171308139Y-136010404D01*
X171310139Y-136008404D01*
X171312139Y-136006404D01*
X171314139Y-136004404D01*
X171316139Y-136003404D01*
X171318139Y-136001404D01*
X171320139Y-136000404D01*
X171322139Y-135998404D01*
X171325139Y-135997404D01*
X171327139Y-135996404D01*
X171330139Y-135995404D01*
X171332139Y-135995404D01*
X171335139Y-135994404D01*
X171337139Y-135994404D01*
X171340139Y-135993404D01*
X171342139Y-135993404D01*
X171345139Y-135993404D01*
X171545139Y-135993404D01*
X171548139Y-135993404D01*
X171550139Y-135993404D01*
X171553139Y-135994404D01*
G36*
X171553139Y-135994404D02*
G01*
X171555139Y-135994404D01*
X171558139Y-135995404D01*
X171560139Y-135995404D01*
X171563139Y-135996404D01*
X171565139Y-135997404D01*
X171568139Y-135998404D01*
X171570139Y-136000404D01*
X171572139Y-136001404D01*
X171574139Y-136003404D01*
X171576139Y-136004404D01*
X171578139Y-136006404D01*
X171580139Y-136008404D01*
X171582139Y-136010404D01*
X171584139Y-136012404D01*
X171585139Y-136014404D01*
X171587139Y-136016404D01*
X171588139Y-136018404D01*
X171590139Y-136020404D01*
X171591139Y-136023404D01*
X171592139Y-136025404D01*
X171593139Y-136028404D01*
X171593139Y-136030404D01*
X171594139Y-136033404D01*
X171594139Y-136035404D01*
X171595139Y-136038404D01*
X171595139Y-136040404D01*
X171595139Y-136043404D01*
X171595139Y-136243404D01*
X171595139Y-136246404D01*
X171595139Y-136248404D01*
X171594139Y-136251404D01*
X171594139Y-136253404D01*
X171593139Y-136256404D01*
X171593139Y-136258404D01*
X171592139Y-136261404D01*
X171591139Y-136263404D01*
X171590139Y-136266404D01*
X171588139Y-136268404D01*
X171587139Y-136270404D01*
X171585139Y-136272404D01*
X171584139Y-136274404D01*
X171582139Y-136276404D01*
X171580139Y-136278404D01*
X171578139Y-136280404D01*
X171576139Y-136282404D01*
X171574139Y-136283404D01*
X171572139Y-136285404D01*
X171570139Y-136286404D01*
X171568139Y-136288404D01*
X171565139Y-136289404D01*
X171563139Y-136290404D01*
X171560139Y-136291404D01*
X171558139Y-136291404D01*
X171555139Y-136292404D01*
X171553139Y-136292404D01*
X171550139Y-136293404D01*
X171548139Y-136293404D01*
X171545139Y-136293404D01*
X171345139Y-136293404D01*
X171342139Y-136293404D01*
X171340139Y-136293404D01*
X171337139Y-136292404D01*
X171335139Y-136292404D01*
X171332139Y-136291404D01*
X171330139Y-136291404D01*
X171327139Y-136290404D01*
X171325139Y-136289404D01*
X171322139Y-136288404D01*
X171320139Y-136286404D01*
X171318139Y-136285404D01*
X171316139Y-136283404D01*
X171314139Y-136282404D01*
X171312139Y-136280404D01*
X171310139Y-136278404D01*
X171308139Y-136276404D01*
X171306139Y-136274404D01*
X171305139Y-136272404D01*
X171303139Y-136270404D01*
X171302139Y-136268404D01*
X171300139Y-136266404D01*
X171299139Y-136263404D01*
X171298139Y-136261404D01*
X171297139Y-136258404D01*
X171297139Y-136256404D01*
X171296139Y-136253404D01*
X171296139Y-136251404D01*
X171295139Y-136248404D01*
X171295139Y-136246404D01*
X171295139Y-136243404D01*
X171295139Y-136043404D01*
X171295139Y-136040404D01*
X171295139Y-136038404D01*
X171296139Y-136035404D01*
X171296139Y-136033404D01*
X171297139Y-136030404D01*
X171297139Y-136028404D01*
X171298139Y-136025404D01*
X171299139Y-136023404D01*
X171300139Y-136020404D01*
X171302139Y-136018404D01*
X171303139Y-136016404D01*
X171305139Y-136014404D01*
X171306139Y-136012404D01*
X171308139Y-136010404D01*
X171310139Y-136008404D01*
X171312139Y-136006404D01*
X171314139Y-136004404D01*
X171316139Y-136003404D01*
X171318139Y-136001404D01*
X171320139Y-136000404D01*
X171322139Y-135998404D01*
X171325139Y-135997404D01*
X171327139Y-135996404D01*
X171330139Y-135995404D01*
X171332139Y-135995404D01*
X171335139Y-135994404D01*
X171337139Y-135994404D01*
X171340139Y-135993404D01*
X171342139Y-135993404D01*
X171345139Y-135993404D01*
X171545139Y-135993404D01*
X171548139Y-135993404D01*
X171550139Y-135993404D01*
X171553139Y-135994404D01*
G37*
X171893139Y-136294404D02*
X171895139Y-136294404D01*
X171898139Y-136295404D01*
X171900139Y-136295404D01*
X171903139Y-136296404D01*
X171905139Y-136297404D01*
X171908139Y-136298404D01*
X171910139Y-136300404D01*
X171912139Y-136301404D01*
X171914139Y-136303404D01*
X171916139Y-136304404D01*
X171918139Y-136306404D01*
X171920139Y-136308404D01*
X171922139Y-136310404D01*
X171924139Y-136312404D01*
X171925139Y-136314404D01*
X171927139Y-136316404D01*
X171928139Y-136318404D01*
X171930139Y-136320404D01*
X171931139Y-136323404D01*
X171932139Y-136325404D01*
X171933139Y-136328404D01*
X171933139Y-136330404D01*
X171934139Y-136333404D01*
X171934139Y-136335404D01*
X171935139Y-136338404D01*
X171935139Y-136340404D01*
X171935139Y-136343404D01*
X171935139Y-136543404D01*
X171935139Y-136546404D01*
X171935139Y-136548404D01*
X171934139Y-136551404D01*
X171934139Y-136553404D01*
X171933139Y-136556404D01*
X171933139Y-136558404D01*
X171932139Y-136561404D01*
X171931139Y-136563404D01*
X171930139Y-136566404D01*
X171928139Y-136568404D01*
X171927139Y-136570404D01*
X171925139Y-136572404D01*
X171924139Y-136574404D01*
X171922139Y-136576404D01*
X171920139Y-136578404D01*
X171918139Y-136580404D01*
X171916139Y-136582404D01*
X171914139Y-136583404D01*
X171912139Y-136585404D01*
X171910139Y-136586404D01*
X171908139Y-136588404D01*
X171905139Y-136589404D01*
X171903139Y-136590404D01*
X171900139Y-136591404D01*
X171898139Y-136591404D01*
X171895139Y-136592404D01*
X171893139Y-136592404D01*
X171890139Y-136593404D01*
X171888139Y-136593404D01*
X171885139Y-136593404D01*
X171685139Y-136593404D01*
X171682139Y-136593404D01*
X171680139Y-136593404D01*
X171677139Y-136592404D01*
X171675139Y-136592404D01*
X171672139Y-136591404D01*
X171670139Y-136591404D01*
X171667139Y-136590404D01*
X171665139Y-136589404D01*
X171662139Y-136588404D01*
X171660139Y-136586404D01*
X171658139Y-136585404D01*
X171656139Y-136583404D01*
X171654139Y-136582404D01*
X171652139Y-136580404D01*
X171650139Y-136578404D01*
X171648139Y-136576404D01*
X171646139Y-136574404D01*
X171645139Y-136572404D01*
X171643139Y-136570404D01*
X171642139Y-136568404D01*
X171640139Y-136566404D01*
X171639139Y-136563404D01*
X171638139Y-136561404D01*
X171637139Y-136558404D01*
X171637139Y-136556404D01*
X171636139Y-136553404D01*
X171636139Y-136551404D01*
X171635139Y-136548404D01*
X171635139Y-136546404D01*
X171635139Y-136543404D01*
X171635139Y-136343404D01*
X171635139Y-136340404D01*
X171635139Y-136338404D01*
X171636139Y-136335404D01*
X171636139Y-136333404D01*
X171637139Y-136330404D01*
X171637139Y-136328404D01*
X171638139Y-136325404D01*
X171639139Y-136323404D01*
X171640139Y-136320404D01*
X171642139Y-136318404D01*
X171643139Y-136316404D01*
X171645139Y-136314404D01*
X171646139Y-136312404D01*
X171648139Y-136310404D01*
X171650139Y-136308404D01*
X171652139Y-136306404D01*
X171654139Y-136304404D01*
X171656139Y-136303404D01*
X171658139Y-136301404D01*
X171660139Y-136300404D01*
X171662139Y-136298404D01*
X171665139Y-136297404D01*
X171667139Y-136296404D01*
X171670139Y-136295404D01*
X171672139Y-136295404D01*
X171675139Y-136294404D01*
X171677139Y-136294404D01*
X171680139Y-136293404D01*
X171682139Y-136293404D01*
X171685139Y-136293404D01*
X171885139Y-136293404D01*
X171888139Y-136293404D01*
X171890139Y-136293404D01*
X171893139Y-136294404D01*
G36*
X171893139Y-136294404D02*
G01*
X171895139Y-136294404D01*
X171898139Y-136295404D01*
X171900139Y-136295404D01*
X171903139Y-136296404D01*
X171905139Y-136297404D01*
X171908139Y-136298404D01*
X171910139Y-136300404D01*
X171912139Y-136301404D01*
X171914139Y-136303404D01*
X171916139Y-136304404D01*
X171918139Y-136306404D01*
X171920139Y-136308404D01*
X171922139Y-136310404D01*
X171924139Y-136312404D01*
X171925139Y-136314404D01*
X171927139Y-136316404D01*
X171928139Y-136318404D01*
X171930139Y-136320404D01*
X171931139Y-136323404D01*
X171932139Y-136325404D01*
X171933139Y-136328404D01*
X171933139Y-136330404D01*
X171934139Y-136333404D01*
X171934139Y-136335404D01*
X171935139Y-136338404D01*
X171935139Y-136340404D01*
X171935139Y-136343404D01*
X171935139Y-136543404D01*
X171935139Y-136546404D01*
X171935139Y-136548404D01*
X171934139Y-136551404D01*
X171934139Y-136553404D01*
X171933139Y-136556404D01*
X171933139Y-136558404D01*
X171932139Y-136561404D01*
X171931139Y-136563404D01*
X171930139Y-136566404D01*
X171928139Y-136568404D01*
X171927139Y-136570404D01*
X171925139Y-136572404D01*
X171924139Y-136574404D01*
X171922139Y-136576404D01*
X171920139Y-136578404D01*
X171918139Y-136580404D01*
X171916139Y-136582404D01*
X171914139Y-136583404D01*
X171912139Y-136585404D01*
X171910139Y-136586404D01*
X171908139Y-136588404D01*
X171905139Y-136589404D01*
X171903139Y-136590404D01*
X171900139Y-136591404D01*
X171898139Y-136591404D01*
X171895139Y-136592404D01*
X171893139Y-136592404D01*
X171890139Y-136593404D01*
X171888139Y-136593404D01*
X171885139Y-136593404D01*
X171685139Y-136593404D01*
X171682139Y-136593404D01*
X171680139Y-136593404D01*
X171677139Y-136592404D01*
X171675139Y-136592404D01*
X171672139Y-136591404D01*
X171670139Y-136591404D01*
X171667139Y-136590404D01*
X171665139Y-136589404D01*
X171662139Y-136588404D01*
X171660139Y-136586404D01*
X171658139Y-136585404D01*
X171656139Y-136583404D01*
X171654139Y-136582404D01*
X171652139Y-136580404D01*
X171650139Y-136578404D01*
X171648139Y-136576404D01*
X171646139Y-136574404D01*
X171645139Y-136572404D01*
X171643139Y-136570404D01*
X171642139Y-136568404D01*
X171640139Y-136566404D01*
X171639139Y-136563404D01*
X171638139Y-136561404D01*
X171637139Y-136558404D01*
X171637139Y-136556404D01*
X171636139Y-136553404D01*
X171636139Y-136551404D01*
X171635139Y-136548404D01*
X171635139Y-136546404D01*
X171635139Y-136543404D01*
X171635139Y-136343404D01*
X171635139Y-136340404D01*
X171635139Y-136338404D01*
X171636139Y-136335404D01*
X171636139Y-136333404D01*
X171637139Y-136330404D01*
X171637139Y-136328404D01*
X171638139Y-136325404D01*
X171639139Y-136323404D01*
X171640139Y-136320404D01*
X171642139Y-136318404D01*
X171643139Y-136316404D01*
X171645139Y-136314404D01*
X171646139Y-136312404D01*
X171648139Y-136310404D01*
X171650139Y-136308404D01*
X171652139Y-136306404D01*
X171654139Y-136304404D01*
X171656139Y-136303404D01*
X171658139Y-136301404D01*
X171660139Y-136300404D01*
X171662139Y-136298404D01*
X171665139Y-136297404D01*
X171667139Y-136296404D01*
X171670139Y-136295404D01*
X171672139Y-136295404D01*
X171675139Y-136294404D01*
X171677139Y-136294404D01*
X171680139Y-136293404D01*
X171682139Y-136293404D01*
X171685139Y-136293404D01*
X171885139Y-136293404D01*
X171888139Y-136293404D01*
X171890139Y-136293404D01*
X171893139Y-136294404D01*
G37*
G36*
X163650000Y-143200000D02*
G01*
X165150000Y-143200000D01*
X165150000Y-143500000D01*
X163650000Y-143500000D01*
X163650000Y-143200000D01*
G37*
G36*
X200950000Y-130550000D02*
G01*
X202450000Y-130550000D01*
X202450000Y-130850000D01*
X200950000Y-130850000D01*
X200950000Y-130550000D01*
G37*
G36*
X183250000Y-131650000D02*
G01*
X183550000Y-131650000D01*
X183550000Y-133150000D01*
X183250000Y-133150000D01*
X183250000Y-131650000D01*
G37*
G36*
X198060000Y-71025000D02*
G01*
X199940000Y-71025000D01*
X199940000Y-73115000D01*
X198060000Y-73115000D01*
X198060000Y-71025000D01*
G37*
D11*
X191340000Y-113800000D03*
X192360000Y-113800000D03*
D12*
X154025000Y-134275000D03*
X154025000Y-136175000D03*
X155900000Y-135225000D03*
D13*
X193100000Y-91300000D03*
D14*
X168995139Y-139173404D03*
X174775139Y-139173404D03*
D15*
X168685139Y-138053404D03*
X169485139Y-138053404D03*
D16*
X170635139Y-138053404D03*
X171635139Y-138053404D03*
X172135139Y-138053404D03*
X173135139Y-138053404D03*
D15*
X174285139Y-138053404D03*
X175085139Y-138053404D03*
X175085139Y-138053404D03*
X174285139Y-138053404D03*
D16*
X173635139Y-138053404D03*
X172635139Y-138053404D03*
X171135139Y-138053404D03*
X170135139Y-138053404D03*
D15*
X169485139Y-138053404D03*
X168685139Y-138053404D03*
D17*
X167565139Y-138653404D03*
D18*
X167565139Y-142853404D03*
D17*
X176205139Y-138653404D03*
D18*
X176205139Y-142853404D03*
D19*
X179835139Y-98050000D03*
X187835139Y-98050000D03*
X179835139Y-102550000D03*
X187835139Y-102550000D03*
D11*
X186185000Y-77800000D03*
X187205000Y-77800000D03*
D20*
X195540000Y-74375000D03*
X196510000Y-74375000D03*
D21*
X142410000Y-127600000D03*
X141390000Y-127600000D03*
D12*
X196725000Y-107480000D03*
X196725000Y-109380000D03*
X198600000Y-108430000D03*
D22*
X181137500Y-125950000D03*
X181137500Y-125000000D03*
X181137500Y-124050000D03*
X178862500Y-124050000D03*
X178862500Y-125950000D03*
D11*
X194890000Y-124000000D03*
X195910000Y-124000000D03*
D23*
X188500000Y-133280000D03*
X188500000Y-134300000D03*
D24*
X183900000Y-76000000D03*
X183900000Y-73200000D03*
D25*
X164400000Y-144000000D03*
D26*
X164400000Y-142700000D03*
D13*
X192000000Y-111300000D03*
D27*
X200200000Y-88300000D03*
X200200000Y-89850000D03*
D11*
X196490000Y-122000000D03*
X197510000Y-122000000D03*
D27*
X198500000Y-88300000D03*
X198500000Y-89850000D03*
D13*
X189500000Y-111300000D03*
D25*
X201700000Y-131350000D03*
D26*
X201700000Y-130050000D03*
D11*
X175375139Y-136353404D03*
X176395139Y-136353404D03*
D27*
X183295000Y-125250000D03*
X183295000Y-126800000D03*
D11*
X186700000Y-113700000D03*
X187720000Y-113700000D03*
D28*
X195150000Y-119775000D03*
X195150000Y-118225000D03*
D29*
X190487500Y-121000000D03*
X190487500Y-121500000D03*
X190487500Y-122000000D03*
X190487500Y-122500000D03*
X190487500Y-123000000D03*
X194712500Y-123000000D03*
X194712500Y-122500000D03*
X194712500Y-122000000D03*
X194712500Y-121500000D03*
X194712500Y-121000000D03*
D30*
X193115361Y-88610000D03*
X193115361Y-87590000D03*
D31*
X201500000Y-93190000D03*
D32*
X201500000Y-95730000D03*
X201500000Y-98270000D03*
X201500000Y-100810000D03*
X201500000Y-103350000D03*
X201500000Y-105890000D03*
X201500000Y-108430000D03*
X201500000Y-110970000D03*
X201500000Y-113510000D03*
X201500000Y-116050000D03*
X201500000Y-118590000D03*
X201500000Y-121130000D03*
X201500000Y-123670000D03*
X201500000Y-126210000D03*
D11*
X183390000Y-77800000D03*
X184410000Y-77800000D03*
D30*
X166450000Y-89020000D03*
X166450000Y-88000000D03*
X194215361Y-88620000D03*
X194215361Y-87600000D03*
D11*
X180595000Y-77800000D03*
X181615000Y-77800000D03*
D33*
X184050000Y-132400000D03*
D34*
X182750000Y-132400000D03*
D19*
X155935139Y-98050000D03*
X163935139Y-98050000D03*
X155935139Y-102550000D03*
X163935139Y-102550000D03*
D11*
X169500000Y-128300000D03*
X170520000Y-128300000D03*
D19*
X141800000Y-129300000D03*
X149800000Y-129300000D03*
X141800000Y-133800000D03*
X149800000Y-133800000D03*
X167885139Y-98050000D03*
X175885139Y-98050000D03*
X167885139Y-102550000D03*
X175885139Y-102550000D03*
D24*
X181200000Y-76000000D03*
X181200000Y-73200000D03*
D35*
X179820000Y-127775000D03*
X178270000Y-127775000D03*
D36*
X199000000Y-73650000D03*
D37*
X197525000Y-72125000D03*
X200475000Y-72125000D03*
D21*
X169895139Y-136353404D03*
X168875139Y-136353404D03*
D24*
X186700000Y-76000000D03*
X186700000Y-73200000D03*
D38*
X141800000Y-124100000D03*
X143070000Y-124100000D03*
X144340000Y-124100000D03*
X145610000Y-124100000D03*
X146880000Y-124100000D03*
X148150000Y-124100000D03*
X149420000Y-124100000D03*
X150690000Y-124100000D03*
X151960000Y-124100000D03*
X153230000Y-124100000D03*
X154500000Y-124100000D03*
X155770000Y-124100000D03*
X157040000Y-124100000D03*
X158310000Y-124100000D03*
D39*
X159560000Y-122335000D03*
X159560000Y-121065000D03*
X159560000Y-119795000D03*
X159560000Y-118525000D03*
X159560000Y-117255000D03*
X159560000Y-115985000D03*
X159560000Y-114715000D03*
X159560000Y-113445000D03*
X159560000Y-112175000D03*
X159560000Y-110905000D03*
X159560000Y-109635000D03*
X159560000Y-108365000D03*
D38*
X158310000Y-106600000D03*
X157040000Y-106600000D03*
X155770000Y-106600000D03*
X154500000Y-106600000D03*
X153230000Y-106600000D03*
X151960000Y-106600000D03*
X150690000Y-106600000D03*
X149420000Y-106600000D03*
X148150000Y-106600000D03*
X146880000Y-106600000D03*
X145610000Y-106600000D03*
X144340000Y-106600000D03*
X143070000Y-106600000D03*
X141800000Y-106600000D03*
D40*
X148820000Y-118250000D03*
X150220000Y-118250000D03*
X148120000Y-117550000D03*
X149520000Y-117550000D03*
X150920000Y-117550000D03*
X148820000Y-116850000D03*
D41*
X149520000Y-116850000D03*
D40*
X150220000Y-116850000D03*
X148120000Y-116150000D03*
X149520000Y-116150000D03*
X150920000Y-116150000D03*
X148820000Y-115450000D03*
X150220000Y-115450000D03*
D13*
X195500000Y-91300000D03*
D42*
X170000000Y-126500000D03*
X172800000Y-126500000D03*
D23*
X141800000Y-136890000D03*
X141800000Y-137910000D03*
D30*
X187250000Y-134300000D03*
X187250000Y-133280000D03*
D43*
X192050000Y-115400000D03*
X192050000Y-118200000D03*
D21*
X190065000Y-113800000D03*
X189045000Y-113800000D03*
D43*
X189550000Y-115400000D03*
X189550000Y-118200000D03*
D44*
X192100000Y-85850000D03*
D45*
X193200000Y-85850000D03*
X194300000Y-85850000D03*
X195400000Y-85850000D03*
X196500000Y-85850000D03*
X197600000Y-85850000D03*
X198700000Y-85850000D03*
X199800000Y-85850000D03*
D44*
X200900000Y-85850000D03*
X200900000Y-76350000D03*
D45*
X199800000Y-76350000D03*
X198700000Y-76350000D03*
X197600000Y-76350000D03*
X196500000Y-76350000D03*
X195400000Y-76350000D03*
X194300000Y-76350000D03*
X193200000Y-76350000D03*
D44*
X192100000Y-76350000D03*
D46*
X167850000Y-87587500D03*
X169750000Y-87587500D03*
X168800000Y-85712500D03*
D47*
X201215000Y-143600000D03*
X201215000Y-137600000D03*
D48*
X183215000Y-143600000D03*
D49*
X183215000Y-137600000D03*
D13*
X186950000Y-111300000D03*
D30*
X202400000Y-86370000D03*
X202400000Y-85350000D03*
D43*
X187000000Y-115300000D03*
X187000000Y-118100000D03*
D19*
X167885139Y-113700000D03*
X175885139Y-113700000D03*
X167885139Y-118200000D03*
X175885139Y-118200000D03*
D50*
X171300000Y-86900000D03*
X174600000Y-86900000D03*
D31*
X159100000Y-136800000D03*
D32*
X159100000Y-134260000D03*
D19*
X141800000Y-139650000D03*
X149800000Y-139650000D03*
X141800000Y-144150000D03*
X149800000Y-144150000D03*
D51*
X145169400Y-78160000D03*
X145169400Y-86135600D03*
D52*
X155873800Y-85393600D03*
X155873800Y-84293600D03*
X155873800Y-83193600D03*
X155873800Y-82093600D03*
X155873800Y-80993600D03*
X155873800Y-79893600D03*
X155873800Y-78793600D03*
X155873800Y-77693600D03*
D53*
X155100000Y-75175200D03*
D54*
X145400000Y-75175200D03*
D55*
X155100000Y-90225000D03*
D54*
X145400000Y-91000000D03*
D52*
X155873800Y-76593600D03*
D56*
X170225000Y-84550000D03*
X170225000Y-76960000D03*
X176185000Y-84550000D03*
X176185000Y-76960000D03*
D31*
X143360000Y-71900000D03*
D32*
X145900000Y-71900000D03*
X148440000Y-71900000D03*
X150980000Y-71900000D03*
X153520000Y-71900000D03*
X156060000Y-71900000D03*
X158600000Y-71900000D03*
X161140000Y-71900000D03*
M02*
