M48
; DRILL file {KiCad 9.0.7} date 2026-02-25T10:13:00-0500
; FORMAT={-:-/ absolute / metric / decimal}
; #@! TF.CreationDate,2026-02-25T10:13:00-05:00
; #@! TF.GenerationSoftware,Kicad,Pcbnew,9.0.7
; #@! TF.FileFunction,Plated,1,2,PTH
FMAT,2
METRIC
; #@! TA.AperFunction,Plated,PTH,ComponentDrill
T1C0.200
; #@! TA.AperFunction,Plated,PTH,ViaDrill
T2C0.300
; #@! TA.AperFunction,Plated,PTH,ComponentDrill
T3C0.600
; #@! TA.AperFunction,Plated,PTH,ComponentDrill
T4C1.000
; #@! TA.AperFunction,Plated,PTH,ComponentDrill
T5C1.800
%
G90
G05
T1
X145.35Y-71.05
X145.35Y-72.45
X146.05Y-70.35
X146.05Y-71.75
X146.05Y-73.15
X146.75Y-71.05
X146.75Y-72.45
X147.45Y-70.35
X147.45Y-71.75
X147.45Y-73.15
X148.15Y-71.05
X148.15Y-72.45
T2
X113.0Y-86.0
X117.25Y-73.75
X118.25Y-72.25
X118.5Y-127.5
X120.5Y-90.5
X121.25Y-117.25
X121.9Y-64.0
X122.0Y-123.0
X123.0Y-115.25
X124.0Y-72.25
X124.0Y-118.5
X125.5Y-110.75
X125.5Y-131.25
X125.75Y-103.0
X125.8Y-125.25
X126.0Y-83.5
X127.0Y-113.5
X127.0Y-119.75
X128.0Y-82.2
X128.3Y-65.4
X128.75Y-131.0
X128.76Y-125.25
X131.5Y-112.75
X134.25Y-108.75
X134.676Y-104.924
X134.7Y-104.1
X135.25Y-108.25
X140.75Y-64.0
X142.5Y-104.0
X143.0Y-105.25
X143.04Y-106.16
X144.7Y-116.7
X145.0Y-99.6
X146.25Y-105.25
X148.7Y-114.617
X150.75Y-105.25
X150.8Y-108.6
X152.5Y-106.3
X155.1Y-124.1
X155.75Y-64.0
X156.25Y-88.5
X157.0Y-127.0
X157.5Y-118.25
X157.8Y-123.6
X157.822Y-120.8
X158.5Y-119.25
X159.75Y-127.5
X160.2Y-125.2
X161.5Y-99.5
X163.8Y-105.5
X166.5Y-111.8
X166.6Y-110.3
X167.5Y-81.0
X168.1Y-110.4
X168.3Y-111.8
X171.3Y-111.0
X171.3Y-123.1
X173.75Y-73.0
X174.75Y-74.75
X175.25Y-71.25
X175.75Y-83.25
X176.5Y-73.0
X176.5Y-101.9
X176.75Y-88.5
X177.1Y-104.2
X177.4Y-106.4
X179.0Y-122.75
X182.75Y-72.25
X182.75Y-88.25
X184.75Y-70.75
X185.0Y-89.5
X186.75Y-71.75
X187.0Y-88.5
T4
X122.71Y-136.5
X125.25Y-136.5
X127.79Y-136.5
X133.0Y-64.5
X133.0Y-67.04
X133.0Y-69.58
X133.0Y-72.12
X133.0Y-74.66
X133.0Y-77.2
X133.0Y-79.74
X133.0Y-82.28
X133.0Y-84.82
X133.0Y-87.36
X133.0Y-89.9
X133.0Y-92.44
X133.0Y-94.98
X133.0Y-97.52
X133.84Y-102.0
X136.38Y-102.0
X138.92Y-102.0
X141.46Y-102.0
X141.51Y-137.75
X144.0Y-102.0
X144.05Y-137.75
X146.54Y-102.0
X146.59Y-137.75
X149.08Y-102.0
X149.13Y-137.75
X151.62Y-102.0
X151.67Y-137.75
X154.16Y-102.0
X154.21Y-137.75
X156.7Y-102.0
X156.75Y-137.75
X159.24Y-102.0
X159.29Y-137.75
X161.78Y-102.0
X163.5Y-64.49
X163.5Y-67.03
X163.5Y-69.57
X163.5Y-72.11
X163.5Y-74.65
X163.5Y-77.19
X163.5Y-79.73
X163.5Y-82.27
X163.5Y-84.81
X163.5Y-87.35
X163.5Y-89.89
X163.5Y-92.43
X163.5Y-94.97
X163.5Y-97.51
X187.0Y-94.72
X187.0Y-97.26
X187.0Y-99.8
X187.0Y-102.34
X187.0Y-104.88
X187.0Y-107.42
X187.0Y-109.96
X187.0Y-112.5
X187.0Y-115.04
X187.0Y-117.58
X187.0Y-120.12
X187.0Y-122.66
X187.0Y-125.2
X187.0Y-127.74
T5
X115.75Y-115.0
X115.75Y-120.0
T3
X114.72Y-98.04G85X113.92Y-98.04
G05
X114.72Y-106.68G85X113.92Y-106.68
G05
X119.07Y-98.04G85X117.97Y-98.04
G05
X119.07Y-106.68G85X117.97Y-106.68
G05
M30
