%TF.GenerationSoftware,KiCad,Pcbnew,9.0.7*%
%TF.CreationDate,2026-02-25T10:13:12-05:00*%
%TF.ProjectId,remigochi-pcb,72656d69-676f-4636-9869-2d7063622e6b,rev?*%
%TF.SameCoordinates,Original*%
%TF.FileFunction,Legend,Top*%
%TF.FilePolarity,Positive*%
%FSLAX46Y46*%
G04 Gerber Fmt 4.6, Leading zero omitted, Abs format (unit mm)*
G04 Created by KiCad (PCBNEW 9.0.7) date 2026-02-25 10:13:12*
%MOMM*%
%LPD*%
G01*
G04 APERTURE LIST*
%ADD10C,0.150000*%
%ADD11C,0.120000*%
%ADD12C,0.100000*%
%ADD13C,0.203200*%
%ADD14C,0.254000*%
G04 APERTURE END LIST*
D10*
X167000000Y-69000000D02*
X167000000Y-80600000D01*
X119900000Y-92000000D02*
X119850000Y-89450000D01*
X168300000Y-67200000D02*
X167600000Y-67200000D01*
X121300000Y-92000000D02*
X119900000Y-92000000D01*
X145600000Y-132100000D02*
X147100000Y-132900000D01*
X119500000Y-90200000D02*
X118200000Y-90200000D01*
X153670000Y-131500000D02*
X154600000Y-130800000D01*
X178300000Y-107200000D02*
X172900000Y-107600000D01*
X121400000Y-93700000D02*
X119500000Y-93700000D01*
X168450000Y-86570000D02*
X166250000Y-86570000D01*
X163300000Y-138698250D02*
X162600000Y-138098250D01*
X163300000Y-137498250D01*
X163300000Y-138698250D01*
G36*
X163300000Y-138698250D02*
G01*
X162600000Y-138098250D01*
X163300000Y-137498250D01*
X163300000Y-138698250D01*
G37*
X167800000Y-91280179D02*
X169480000Y-91280179D01*
X167000000Y-80600000D02*
X168450000Y-80570000D01*
X166250000Y-90470000D02*
X166250000Y-93580000D01*
X166250000Y-93580000D02*
X169500000Y-93580000D01*
X142590000Y-133750000D02*
X141100000Y-133750000D01*
X168450000Y-83570000D02*
X167800000Y-83570000D01*
X149875025Y-131705026D02*
X147900000Y-131100000D01*
X167800000Y-83570000D02*
X167800000Y-91280179D01*
X119500000Y-93700000D02*
X119500000Y-90200000D01*
X179387500Y-105280000D02*
X178300000Y-107200000D01*
X187750000Y-131550000D02*
X186550000Y-131550000D01*
X187150000Y-130850000D01*
X187750000Y-131550000D01*
G36*
X187750000Y-131550000D02*
G01*
X186550000Y-131550000D01*
X187150000Y-130850000D01*
X187750000Y-131550000D01*
G37*
X167650000Y-77600000D02*
X168450000Y-77570000D01*
X167600000Y-67200000D02*
X167650000Y-77600000D01*
X118200000Y-90200000D02*
X117900000Y-89500000D01*
X172900000Y-107600000D02*
X172700000Y-107000000D01*
X157920000Y-133000000D02*
X159800000Y-133000000D01*
X168300000Y-69000000D02*
X167000000Y-69000000D01*
X166250000Y-86570000D02*
X166250000Y-90470000D01*
X122546847Y-131586779D02*
X121880180Y-131586779D01*
X122451609Y-131586779D02*
X122499228Y-131634398D01*
X122499228Y-131634398D02*
X122546847Y-131729636D01*
X122546847Y-131729636D02*
X122546847Y-131872493D01*
X122546847Y-131872493D02*
X122499228Y-131967731D01*
X122499228Y-131967731D02*
X122403990Y-132015350D01*
X122403990Y-132015350D02*
X121880180Y-132015350D01*
X121880180Y-132491541D02*
X122880180Y-132491541D01*
X122880180Y-132491541D02*
X122880180Y-132872493D01*
X122880180Y-132872493D02*
X122832561Y-132967731D01*
X122832561Y-132967731D02*
X122784942Y-133015350D01*
X122784942Y-133015350D02*
X122689704Y-133062969D01*
X122689704Y-133062969D02*
X122546847Y-133062969D01*
X122546847Y-133062969D02*
X122451609Y-133015350D01*
X122451609Y-133015350D02*
X122403990Y-132967731D01*
X122403990Y-132967731D02*
X122356371Y-132872493D01*
X122356371Y-132872493D02*
X122356371Y-132491541D01*
X122832561Y-134015350D02*
X122880180Y-133920112D01*
X122880180Y-133920112D02*
X122880180Y-133777255D01*
X122880180Y-133777255D02*
X122832561Y-133634398D01*
X122832561Y-133634398D02*
X122737323Y-133539160D01*
X122737323Y-133539160D02*
X122642085Y-133491541D01*
X122642085Y-133491541D02*
X122451609Y-133443922D01*
X122451609Y-133443922D02*
X122308752Y-133443922D01*
X122308752Y-133443922D02*
X122118276Y-133491541D01*
X122118276Y-133491541D02*
X122023038Y-133539160D01*
X122023038Y-133539160D02*
X121927800Y-133634398D01*
X121927800Y-133634398D02*
X121880180Y-133777255D01*
X121880180Y-133777255D02*
X121880180Y-133872493D01*
X121880180Y-133872493D02*
X121927800Y-134015350D01*
X121927800Y-134015350D02*
X121975419Y-134062969D01*
X121975419Y-134062969D02*
X122308752Y-134062969D01*
X122308752Y-134062969D02*
X122308752Y-133872493D01*
X142249999Y-87114916D02*
X142202380Y-87162536D01*
X142202380Y-87162536D02*
X142059523Y-87210155D01*
X142059523Y-87210155D02*
X141964285Y-87210155D01*
X141964285Y-87210155D02*
X141821428Y-87162536D01*
X141821428Y-87162536D02*
X141726190Y-87067297D01*
X141726190Y-87067297D02*
X141678571Y-86972059D01*
X141678571Y-86972059D02*
X141630952Y-86781583D01*
X141630952Y-86781583D02*
X141630952Y-86638726D01*
X141630952Y-86638726D02*
X141678571Y-86448250D01*
X141678571Y-86448250D02*
X141726190Y-86353012D01*
X141726190Y-86353012D02*
X141821428Y-86257774D01*
X141821428Y-86257774D02*
X141964285Y-86210155D01*
X141964285Y-86210155D02*
X142059523Y-86210155D01*
X142059523Y-86210155D02*
X142202380Y-86257774D01*
X142202380Y-86257774D02*
X142249999Y-86305393D01*
X143107142Y-87210155D02*
X143107142Y-86686345D01*
X143107142Y-86686345D02*
X143059523Y-86591107D01*
X143059523Y-86591107D02*
X142964285Y-86543488D01*
X142964285Y-86543488D02*
X142773809Y-86543488D01*
X142773809Y-86543488D02*
X142678571Y-86591107D01*
X143107142Y-87162536D02*
X143011904Y-87210155D01*
X143011904Y-87210155D02*
X142773809Y-87210155D01*
X142773809Y-87210155D02*
X142678571Y-87162536D01*
X142678571Y-87162536D02*
X142630952Y-87067297D01*
X142630952Y-87067297D02*
X142630952Y-86972059D01*
X142630952Y-86972059D02*
X142678571Y-86876821D01*
X142678571Y-86876821D02*
X142773809Y-86829202D01*
X142773809Y-86829202D02*
X143011904Y-86829202D01*
X143011904Y-86829202D02*
X143107142Y-86781583D01*
X143583333Y-86543488D02*
X143583333Y-87543488D01*
X143583333Y-86591107D02*
X143678571Y-86543488D01*
X143678571Y-86543488D02*
X143869047Y-86543488D01*
X143869047Y-86543488D02*
X143964285Y-86591107D01*
X143964285Y-86591107D02*
X144011904Y-86638726D01*
X144011904Y-86638726D02*
X144059523Y-86733964D01*
X144059523Y-86733964D02*
X144059523Y-87019678D01*
X144059523Y-87019678D02*
X144011904Y-87114916D01*
X144011904Y-87114916D02*
X143964285Y-87162536D01*
X143964285Y-87162536D02*
X143869047Y-87210155D01*
X143869047Y-87210155D02*
X143678571Y-87210155D01*
X143678571Y-87210155D02*
X143583333Y-87162536D01*
X144440476Y-87162536D02*
X144535714Y-87210155D01*
X144535714Y-87210155D02*
X144726190Y-87210155D01*
X144726190Y-87210155D02*
X144821428Y-87162536D01*
X144821428Y-87162536D02*
X144869047Y-87067297D01*
X144869047Y-87067297D02*
X144869047Y-87019678D01*
X144869047Y-87019678D02*
X144821428Y-86924440D01*
X144821428Y-86924440D02*
X144726190Y-86876821D01*
X144726190Y-86876821D02*
X144583333Y-86876821D01*
X144583333Y-86876821D02*
X144488095Y-86829202D01*
X144488095Y-86829202D02*
X144440476Y-86733964D01*
X144440476Y-86733964D02*
X144440476Y-86686345D01*
X144440476Y-86686345D02*
X144488095Y-86591107D01*
X144488095Y-86591107D02*
X144583333Y-86543488D01*
X144583333Y-86543488D02*
X144726190Y-86543488D01*
X144726190Y-86543488D02*
X144821428Y-86591107D01*
X145154762Y-86543488D02*
X145535714Y-86543488D01*
X145297619Y-86210155D02*
X145297619Y-87067297D01*
X145297619Y-87067297D02*
X145345238Y-87162536D01*
X145345238Y-87162536D02*
X145440476Y-87210155D01*
X145440476Y-87210155D02*
X145535714Y-87210155D01*
X146011905Y-87210155D02*
X145916667Y-87162536D01*
X145916667Y-87162536D02*
X145869048Y-87114916D01*
X145869048Y-87114916D02*
X145821429Y-87019678D01*
X145821429Y-87019678D02*
X145821429Y-86733964D01*
X145821429Y-86733964D02*
X145869048Y-86638726D01*
X145869048Y-86638726D02*
X145916667Y-86591107D01*
X145916667Y-86591107D02*
X146011905Y-86543488D01*
X146011905Y-86543488D02*
X146154762Y-86543488D01*
X146154762Y-86543488D02*
X146250000Y-86591107D01*
X146250000Y-86591107D02*
X146297619Y-86638726D01*
X146297619Y-86638726D02*
X146345238Y-86733964D01*
X146345238Y-86733964D02*
X146345238Y-87019678D01*
X146345238Y-87019678D02*
X146297619Y-87114916D01*
X146297619Y-87114916D02*
X146250000Y-87162536D01*
X146250000Y-87162536D02*
X146154762Y-87210155D01*
X146154762Y-87210155D02*
X146011905Y-87210155D01*
X146773810Y-86543488D02*
X146773810Y-87210155D01*
X146773810Y-86638726D02*
X146821429Y-86591107D01*
X146821429Y-86591107D02*
X146916667Y-86543488D01*
X146916667Y-86543488D02*
X147059524Y-86543488D01*
X147059524Y-86543488D02*
X147154762Y-86591107D01*
X147154762Y-86591107D02*
X147202381Y-86686345D01*
X147202381Y-86686345D02*
X147202381Y-87210155D01*
X148059524Y-87162536D02*
X147964286Y-87210155D01*
X147964286Y-87210155D02*
X147773810Y-87210155D01*
X147773810Y-87210155D02*
X147678572Y-87162536D01*
X147678572Y-87162536D02*
X147630953Y-87067297D01*
X147630953Y-87067297D02*
X147630953Y-86686345D01*
X147630953Y-86686345D02*
X147678572Y-86591107D01*
X147678572Y-86591107D02*
X147773810Y-86543488D01*
X147773810Y-86543488D02*
X147964286Y-86543488D01*
X147964286Y-86543488D02*
X148059524Y-86591107D01*
X148059524Y-86591107D02*
X148107143Y-86686345D01*
X148107143Y-86686345D02*
X148107143Y-86781583D01*
X148107143Y-86781583D02*
X147630953Y-86876821D01*
X149821429Y-87210155D02*
X149250001Y-87210155D01*
X149535715Y-87210155D02*
X149535715Y-86210155D01*
X149535715Y-86210155D02*
X149440477Y-86353012D01*
X149440477Y-86353012D02*
X149345239Y-86448250D01*
X149345239Y-86448250D02*
X149250001Y-86495869D01*
X150392858Y-86638726D02*
X150297620Y-86591107D01*
X150297620Y-86591107D02*
X150250001Y-86543488D01*
X150250001Y-86543488D02*
X150202382Y-86448250D01*
X150202382Y-86448250D02*
X150202382Y-86400631D01*
X150202382Y-86400631D02*
X150250001Y-86305393D01*
X150250001Y-86305393D02*
X150297620Y-86257774D01*
X150297620Y-86257774D02*
X150392858Y-86210155D01*
X150392858Y-86210155D02*
X150583334Y-86210155D01*
X150583334Y-86210155D02*
X150678572Y-86257774D01*
X150678572Y-86257774D02*
X150726191Y-86305393D01*
X150726191Y-86305393D02*
X150773810Y-86400631D01*
X150773810Y-86400631D02*
X150773810Y-86448250D01*
X150773810Y-86448250D02*
X150726191Y-86543488D01*
X150726191Y-86543488D02*
X150678572Y-86591107D01*
X150678572Y-86591107D02*
X150583334Y-86638726D01*
X150583334Y-86638726D02*
X150392858Y-86638726D01*
X150392858Y-86638726D02*
X150297620Y-86686345D01*
X150297620Y-86686345D02*
X150250001Y-86733964D01*
X150250001Y-86733964D02*
X150202382Y-86829202D01*
X150202382Y-86829202D02*
X150202382Y-87019678D01*
X150202382Y-87019678D02*
X150250001Y-87114916D01*
X150250001Y-87114916D02*
X150297620Y-87162536D01*
X150297620Y-87162536D02*
X150392858Y-87210155D01*
X150392858Y-87210155D02*
X150583334Y-87210155D01*
X150583334Y-87210155D02*
X150678572Y-87162536D01*
X150678572Y-87162536D02*
X150726191Y-87114916D01*
X150726191Y-87114916D02*
X150773810Y-87019678D01*
X150773810Y-87019678D02*
X150773810Y-86829202D01*
X150773810Y-86829202D02*
X150726191Y-86733964D01*
X150726191Y-86733964D02*
X150678572Y-86686345D01*
X150678572Y-86686345D02*
X150583334Y-86638726D01*
X151202382Y-86829202D02*
X151964287Y-86829202D01*
X152916667Y-86210155D02*
X152440477Y-86210155D01*
X152440477Y-86210155D02*
X152392858Y-86686345D01*
X152392858Y-86686345D02*
X152440477Y-86638726D01*
X152440477Y-86638726D02*
X152535715Y-86591107D01*
X152535715Y-86591107D02*
X152773810Y-86591107D01*
X152773810Y-86591107D02*
X152869048Y-86638726D01*
X152869048Y-86638726D02*
X152916667Y-86686345D01*
X152916667Y-86686345D02*
X152964286Y-86781583D01*
X152964286Y-86781583D02*
X152964286Y-87019678D01*
X152964286Y-87019678D02*
X152916667Y-87114916D01*
X152916667Y-87114916D02*
X152869048Y-87162536D01*
X152869048Y-87162536D02*
X152773810Y-87210155D01*
X152773810Y-87210155D02*
X152535715Y-87210155D01*
X152535715Y-87210155D02*
X152440477Y-87162536D01*
X152440477Y-87162536D02*
X152392858Y-87114916D01*
X153583334Y-86210155D02*
X153678572Y-86210155D01*
X153678572Y-86210155D02*
X153773810Y-86257774D01*
X153773810Y-86257774D02*
X153821429Y-86305393D01*
X153821429Y-86305393D02*
X153869048Y-86400631D01*
X153869048Y-86400631D02*
X153916667Y-86591107D01*
X153916667Y-86591107D02*
X153916667Y-86829202D01*
X153916667Y-86829202D02*
X153869048Y-87019678D01*
X153869048Y-87019678D02*
X153821429Y-87114916D01*
X153821429Y-87114916D02*
X153773810Y-87162536D01*
X153773810Y-87162536D02*
X153678572Y-87210155D01*
X153678572Y-87210155D02*
X153583334Y-87210155D01*
X153583334Y-87210155D02*
X153488096Y-87162536D01*
X153488096Y-87162536D02*
X153440477Y-87114916D01*
X153440477Y-87114916D02*
X153392858Y-87019678D01*
X153392858Y-87019678D02*
X153345239Y-86829202D01*
X153345239Y-86829202D02*
X153345239Y-86591107D01*
X153345239Y-86591107D02*
X153392858Y-86400631D01*
X153392858Y-86400631D02*
X153440477Y-86305393D01*
X153440477Y-86305393D02*
X153488096Y-86257774D01*
X153488096Y-86257774D02*
X153583334Y-86210155D01*
X154535715Y-86210155D02*
X154630953Y-86210155D01*
X154630953Y-86210155D02*
X154726191Y-86257774D01*
X154726191Y-86257774D02*
X154773810Y-86305393D01*
X154773810Y-86305393D02*
X154821429Y-86400631D01*
X154821429Y-86400631D02*
X154869048Y-86591107D01*
X154869048Y-86591107D02*
X154869048Y-86829202D01*
X154869048Y-86829202D02*
X154821429Y-87019678D01*
X154821429Y-87019678D02*
X154773810Y-87114916D01*
X154773810Y-87114916D02*
X154726191Y-87162536D01*
X154726191Y-87162536D02*
X154630953Y-87210155D01*
X154630953Y-87210155D02*
X154535715Y-87210155D01*
X154535715Y-87210155D02*
X154440477Y-87162536D01*
X154440477Y-87162536D02*
X154392858Y-87114916D01*
X154392858Y-87114916D02*
X154345239Y-87019678D01*
X154345239Y-87019678D02*
X154297620Y-86829202D01*
X154297620Y-86829202D02*
X154297620Y-86591107D01*
X154297620Y-86591107D02*
X154345239Y-86400631D01*
X154345239Y-86400631D02*
X154392858Y-86305393D01*
X154392858Y-86305393D02*
X154440477Y-86257774D01*
X154440477Y-86257774D02*
X154535715Y-86210155D01*
X143321427Y-88296289D02*
X142988094Y-88296289D01*
X142988094Y-88820099D02*
X142988094Y-87820099D01*
X142988094Y-87820099D02*
X143464284Y-87820099D01*
X144226189Y-88772480D02*
X144130951Y-88820099D01*
X144130951Y-88820099D02*
X143940475Y-88820099D01*
X143940475Y-88820099D02*
X143845237Y-88772480D01*
X143845237Y-88772480D02*
X143797618Y-88677241D01*
X143797618Y-88677241D02*
X143797618Y-88296289D01*
X143797618Y-88296289D02*
X143845237Y-88201051D01*
X143845237Y-88201051D02*
X143940475Y-88153432D01*
X143940475Y-88153432D02*
X144130951Y-88153432D01*
X144130951Y-88153432D02*
X144226189Y-88201051D01*
X144226189Y-88201051D02*
X144273808Y-88296289D01*
X144273808Y-88296289D02*
X144273808Y-88391527D01*
X144273808Y-88391527D02*
X143797618Y-88486765D01*
X144702380Y-88820099D02*
X144702380Y-87820099D01*
X144702380Y-88201051D02*
X144797618Y-88153432D01*
X144797618Y-88153432D02*
X144988094Y-88153432D01*
X144988094Y-88153432D02*
X145083332Y-88201051D01*
X145083332Y-88201051D02*
X145130951Y-88248670D01*
X145130951Y-88248670D02*
X145178570Y-88343908D01*
X145178570Y-88343908D02*
X145178570Y-88629622D01*
X145178570Y-88629622D02*
X145130951Y-88724860D01*
X145130951Y-88724860D02*
X145083332Y-88772480D01*
X145083332Y-88772480D02*
X144988094Y-88820099D01*
X144988094Y-88820099D02*
X144797618Y-88820099D01*
X144797618Y-88820099D02*
X144702380Y-88772480D01*
X145607142Y-88820099D02*
X145607142Y-88153432D01*
X145607142Y-88343908D02*
X145654761Y-88248670D01*
X145654761Y-88248670D02*
X145702380Y-88201051D01*
X145702380Y-88201051D02*
X145797618Y-88153432D01*
X145797618Y-88153432D02*
X145892856Y-88153432D01*
X146654761Y-88153432D02*
X146654761Y-88820099D01*
X146226190Y-88153432D02*
X146226190Y-88677241D01*
X146226190Y-88677241D02*
X146273809Y-88772480D01*
X146273809Y-88772480D02*
X146369047Y-88820099D01*
X146369047Y-88820099D02*
X146511904Y-88820099D01*
X146511904Y-88820099D02*
X146607142Y-88772480D01*
X146607142Y-88772480D02*
X146654761Y-88724860D01*
X147559523Y-88820099D02*
X147559523Y-88296289D01*
X147559523Y-88296289D02*
X147511904Y-88201051D01*
X147511904Y-88201051D02*
X147416666Y-88153432D01*
X147416666Y-88153432D02*
X147226190Y-88153432D01*
X147226190Y-88153432D02*
X147130952Y-88201051D01*
X147559523Y-88772480D02*
X147464285Y-88820099D01*
X147464285Y-88820099D02*
X147226190Y-88820099D01*
X147226190Y-88820099D02*
X147130952Y-88772480D01*
X147130952Y-88772480D02*
X147083333Y-88677241D01*
X147083333Y-88677241D02*
X147083333Y-88582003D01*
X147083333Y-88582003D02*
X147130952Y-88486765D01*
X147130952Y-88486765D02*
X147226190Y-88439146D01*
X147226190Y-88439146D02*
X147464285Y-88439146D01*
X147464285Y-88439146D02*
X147559523Y-88391527D01*
X148035714Y-88820099D02*
X148035714Y-88153432D01*
X148035714Y-88343908D02*
X148083333Y-88248670D01*
X148083333Y-88248670D02*
X148130952Y-88201051D01*
X148130952Y-88201051D02*
X148226190Y-88153432D01*
X148226190Y-88153432D02*
X148321428Y-88153432D01*
X148559524Y-88153432D02*
X148797619Y-88820099D01*
X149035714Y-88153432D02*
X148797619Y-88820099D01*
X148797619Y-88820099D02*
X148702381Y-89058194D01*
X148702381Y-89058194D02*
X148654762Y-89105813D01*
X148654762Y-89105813D02*
X148559524Y-89153432D01*
X150130953Y-87915337D02*
X150178572Y-87867718D01*
X150178572Y-87867718D02*
X150273810Y-87820099D01*
X150273810Y-87820099D02*
X150511905Y-87820099D01*
X150511905Y-87820099D02*
X150607143Y-87867718D01*
X150607143Y-87867718D02*
X150654762Y-87915337D01*
X150654762Y-87915337D02*
X150702381Y-88010575D01*
X150702381Y-88010575D02*
X150702381Y-88105813D01*
X150702381Y-88105813D02*
X150654762Y-88248670D01*
X150654762Y-88248670D02*
X150083334Y-88820099D01*
X150083334Y-88820099D02*
X150702381Y-88820099D01*
X151321429Y-87820099D02*
X151416667Y-87820099D01*
X151416667Y-87820099D02*
X151511905Y-87867718D01*
X151511905Y-87867718D02*
X151559524Y-87915337D01*
X151559524Y-87915337D02*
X151607143Y-88010575D01*
X151607143Y-88010575D02*
X151654762Y-88201051D01*
X151654762Y-88201051D02*
X151654762Y-88439146D01*
X151654762Y-88439146D02*
X151607143Y-88629622D01*
X151607143Y-88629622D02*
X151559524Y-88724860D01*
X151559524Y-88724860D02*
X151511905Y-88772480D01*
X151511905Y-88772480D02*
X151416667Y-88820099D01*
X151416667Y-88820099D02*
X151321429Y-88820099D01*
X151321429Y-88820099D02*
X151226191Y-88772480D01*
X151226191Y-88772480D02*
X151178572Y-88724860D01*
X151178572Y-88724860D02*
X151130953Y-88629622D01*
X151130953Y-88629622D02*
X151083334Y-88439146D01*
X151083334Y-88439146D02*
X151083334Y-88201051D01*
X151083334Y-88201051D02*
X151130953Y-88010575D01*
X151130953Y-88010575D02*
X151178572Y-87915337D01*
X151178572Y-87915337D02*
X151226191Y-87867718D01*
X151226191Y-87867718D02*
X151321429Y-87820099D01*
X152035715Y-87915337D02*
X152083334Y-87867718D01*
X152083334Y-87867718D02*
X152178572Y-87820099D01*
X152178572Y-87820099D02*
X152416667Y-87820099D01*
X152416667Y-87820099D02*
X152511905Y-87867718D01*
X152511905Y-87867718D02*
X152559524Y-87915337D01*
X152559524Y-87915337D02*
X152607143Y-88010575D01*
X152607143Y-88010575D02*
X152607143Y-88105813D01*
X152607143Y-88105813D02*
X152559524Y-88248670D01*
X152559524Y-88248670D02*
X151988096Y-88820099D01*
X151988096Y-88820099D02*
X152607143Y-88820099D01*
X153464286Y-87820099D02*
X153273810Y-87820099D01*
X153273810Y-87820099D02*
X153178572Y-87867718D01*
X153178572Y-87867718D02*
X153130953Y-87915337D01*
X153130953Y-87915337D02*
X153035715Y-88058194D01*
X153035715Y-88058194D02*
X152988096Y-88248670D01*
X152988096Y-88248670D02*
X152988096Y-88629622D01*
X152988096Y-88629622D02*
X153035715Y-88724860D01*
X153035715Y-88724860D02*
X153083334Y-88772480D01*
X153083334Y-88772480D02*
X153178572Y-88820099D01*
X153178572Y-88820099D02*
X153369048Y-88820099D01*
X153369048Y-88820099D02*
X153464286Y-88772480D01*
X153464286Y-88772480D02*
X153511905Y-88724860D01*
X153511905Y-88724860D02*
X153559524Y-88629622D01*
X153559524Y-88629622D02*
X153559524Y-88391527D01*
X153559524Y-88391527D02*
X153511905Y-88296289D01*
X153511905Y-88296289D02*
X153464286Y-88248670D01*
X153464286Y-88248670D02*
X153369048Y-88201051D01*
X153369048Y-88201051D02*
X153178572Y-88201051D01*
X153178572Y-88201051D02*
X153083334Y-88248670D01*
X153083334Y-88248670D02*
X153035715Y-88296289D01*
X153035715Y-88296289D02*
X152988096Y-88391527D01*
X141369047Y-90430043D02*
X141035714Y-89953852D01*
X140797619Y-90430043D02*
X140797619Y-89430043D01*
X140797619Y-89430043D02*
X141178571Y-89430043D01*
X141178571Y-89430043D02*
X141273809Y-89477662D01*
X141273809Y-89477662D02*
X141321428Y-89525281D01*
X141321428Y-89525281D02*
X141369047Y-89620519D01*
X141369047Y-89620519D02*
X141369047Y-89763376D01*
X141369047Y-89763376D02*
X141321428Y-89858614D01*
X141321428Y-89858614D02*
X141273809Y-89906233D01*
X141273809Y-89906233D02*
X141178571Y-89953852D01*
X141178571Y-89953852D02*
X140797619Y-89953852D01*
X142178571Y-90382424D02*
X142083333Y-90430043D01*
X142083333Y-90430043D02*
X141892857Y-90430043D01*
X141892857Y-90430043D02*
X141797619Y-90382424D01*
X141797619Y-90382424D02*
X141750000Y-90287185D01*
X141750000Y-90287185D02*
X141750000Y-89906233D01*
X141750000Y-89906233D02*
X141797619Y-89810995D01*
X141797619Y-89810995D02*
X141892857Y-89763376D01*
X141892857Y-89763376D02*
X142083333Y-89763376D01*
X142083333Y-89763376D02*
X142178571Y-89810995D01*
X142178571Y-89810995D02*
X142226190Y-89906233D01*
X142226190Y-89906233D02*
X142226190Y-90001471D01*
X142226190Y-90001471D02*
X141750000Y-90096709D01*
X142654762Y-90430043D02*
X142654762Y-89763376D01*
X142654762Y-89858614D02*
X142702381Y-89810995D01*
X142702381Y-89810995D02*
X142797619Y-89763376D01*
X142797619Y-89763376D02*
X142940476Y-89763376D01*
X142940476Y-89763376D02*
X143035714Y-89810995D01*
X143035714Y-89810995D02*
X143083333Y-89906233D01*
X143083333Y-89906233D02*
X143083333Y-90430043D01*
X143083333Y-89906233D02*
X143130952Y-89810995D01*
X143130952Y-89810995D02*
X143226190Y-89763376D01*
X143226190Y-89763376D02*
X143369047Y-89763376D01*
X143369047Y-89763376D02*
X143464286Y-89810995D01*
X143464286Y-89810995D02*
X143511905Y-89906233D01*
X143511905Y-89906233D02*
X143511905Y-90430043D01*
X143988095Y-90430043D02*
X143988095Y-89763376D01*
X143988095Y-89430043D02*
X143940476Y-89477662D01*
X143940476Y-89477662D02*
X143988095Y-89525281D01*
X143988095Y-89525281D02*
X144035714Y-89477662D01*
X144035714Y-89477662D02*
X143988095Y-89430043D01*
X143988095Y-89430043D02*
X143988095Y-89525281D01*
X144892856Y-89763376D02*
X144892856Y-90572900D01*
X144892856Y-90572900D02*
X144845237Y-90668138D01*
X144845237Y-90668138D02*
X144797618Y-90715757D01*
X144797618Y-90715757D02*
X144702380Y-90763376D01*
X144702380Y-90763376D02*
X144559523Y-90763376D01*
X144559523Y-90763376D02*
X144464285Y-90715757D01*
X144892856Y-90382424D02*
X144797618Y-90430043D01*
X144797618Y-90430043D02*
X144607142Y-90430043D01*
X144607142Y-90430043D02*
X144511904Y-90382424D01*
X144511904Y-90382424D02*
X144464285Y-90334804D01*
X144464285Y-90334804D02*
X144416666Y-90239566D01*
X144416666Y-90239566D02*
X144416666Y-89953852D01*
X144416666Y-89953852D02*
X144464285Y-89858614D01*
X144464285Y-89858614D02*
X144511904Y-89810995D01*
X144511904Y-89810995D02*
X144607142Y-89763376D01*
X144607142Y-89763376D02*
X144797618Y-89763376D01*
X144797618Y-89763376D02*
X144892856Y-89810995D01*
X145511904Y-90430043D02*
X145416666Y-90382424D01*
X145416666Y-90382424D02*
X145369047Y-90334804D01*
X145369047Y-90334804D02*
X145321428Y-90239566D01*
X145321428Y-90239566D02*
X145321428Y-89953852D01*
X145321428Y-89953852D02*
X145369047Y-89858614D01*
X145369047Y-89858614D02*
X145416666Y-89810995D01*
X145416666Y-89810995D02*
X145511904Y-89763376D01*
X145511904Y-89763376D02*
X145654761Y-89763376D01*
X145654761Y-89763376D02*
X145749999Y-89810995D01*
X145749999Y-89810995D02*
X145797618Y-89858614D01*
X145797618Y-89858614D02*
X145845237Y-89953852D01*
X145845237Y-89953852D02*
X145845237Y-90239566D01*
X145845237Y-90239566D02*
X145797618Y-90334804D01*
X145797618Y-90334804D02*
X145749999Y-90382424D01*
X145749999Y-90382424D02*
X145654761Y-90430043D01*
X145654761Y-90430043D02*
X145511904Y-90430043D01*
X146702380Y-90382424D02*
X146607142Y-90430043D01*
X146607142Y-90430043D02*
X146416666Y-90430043D01*
X146416666Y-90430043D02*
X146321428Y-90382424D01*
X146321428Y-90382424D02*
X146273809Y-90334804D01*
X146273809Y-90334804D02*
X146226190Y-90239566D01*
X146226190Y-90239566D02*
X146226190Y-89953852D01*
X146226190Y-89953852D02*
X146273809Y-89858614D01*
X146273809Y-89858614D02*
X146321428Y-89810995D01*
X146321428Y-89810995D02*
X146416666Y-89763376D01*
X146416666Y-89763376D02*
X146607142Y-89763376D01*
X146607142Y-89763376D02*
X146702380Y-89810995D01*
X147130952Y-90430043D02*
X147130952Y-89430043D01*
X147559523Y-90430043D02*
X147559523Y-89906233D01*
X147559523Y-89906233D02*
X147511904Y-89810995D01*
X147511904Y-89810995D02*
X147416666Y-89763376D01*
X147416666Y-89763376D02*
X147273809Y-89763376D01*
X147273809Y-89763376D02*
X147178571Y-89810995D01*
X147178571Y-89810995D02*
X147130952Y-89858614D01*
X148035714Y-90430043D02*
X148035714Y-89763376D01*
X148035714Y-89430043D02*
X147988095Y-89477662D01*
X147988095Y-89477662D02*
X148035714Y-89525281D01*
X148035714Y-89525281D02*
X148083333Y-89477662D01*
X148083333Y-89477662D02*
X148035714Y-89430043D01*
X148035714Y-89430043D02*
X148035714Y-89525281D01*
X149273809Y-90430043D02*
X149273809Y-89430043D01*
X149273809Y-89430043D02*
X149654761Y-89430043D01*
X149654761Y-89430043D02*
X149749999Y-89477662D01*
X149749999Y-89477662D02*
X149797618Y-89525281D01*
X149797618Y-89525281D02*
X149845237Y-89620519D01*
X149845237Y-89620519D02*
X149845237Y-89763376D01*
X149845237Y-89763376D02*
X149797618Y-89858614D01*
X149797618Y-89858614D02*
X149749999Y-89906233D01*
X149749999Y-89906233D02*
X149654761Y-89953852D01*
X149654761Y-89953852D02*
X149273809Y-89953852D01*
X150845237Y-90334804D02*
X150797618Y-90382424D01*
X150797618Y-90382424D02*
X150654761Y-90430043D01*
X150654761Y-90430043D02*
X150559523Y-90430043D01*
X150559523Y-90430043D02*
X150416666Y-90382424D01*
X150416666Y-90382424D02*
X150321428Y-90287185D01*
X150321428Y-90287185D02*
X150273809Y-90191947D01*
X150273809Y-90191947D02*
X150226190Y-90001471D01*
X150226190Y-90001471D02*
X150226190Y-89858614D01*
X150226190Y-89858614D02*
X150273809Y-89668138D01*
X150273809Y-89668138D02*
X150321428Y-89572900D01*
X150321428Y-89572900D02*
X150416666Y-89477662D01*
X150416666Y-89477662D02*
X150559523Y-89430043D01*
X150559523Y-89430043D02*
X150654761Y-89430043D01*
X150654761Y-89430043D02*
X150797618Y-89477662D01*
X150797618Y-89477662D02*
X150845237Y-89525281D01*
X151607142Y-89906233D02*
X151749999Y-89953852D01*
X151749999Y-89953852D02*
X151797618Y-90001471D01*
X151797618Y-90001471D02*
X151845237Y-90096709D01*
X151845237Y-90096709D02*
X151845237Y-90239566D01*
X151845237Y-90239566D02*
X151797618Y-90334804D01*
X151797618Y-90334804D02*
X151749999Y-90382424D01*
X151749999Y-90382424D02*
X151654761Y-90430043D01*
X151654761Y-90430043D02*
X151273809Y-90430043D01*
X151273809Y-90430043D02*
X151273809Y-89430043D01*
X151273809Y-89430043D02*
X151607142Y-89430043D01*
X151607142Y-89430043D02*
X151702380Y-89477662D01*
X151702380Y-89477662D02*
X151749999Y-89525281D01*
X151749999Y-89525281D02*
X151797618Y-89620519D01*
X151797618Y-89620519D02*
X151797618Y-89715757D01*
X151797618Y-89715757D02*
X151749999Y-89810995D01*
X151749999Y-89810995D02*
X151702380Y-89858614D01*
X151702380Y-89858614D02*
X151607142Y-89906233D01*
X151607142Y-89906233D02*
X151273809Y-89906233D01*
X152940476Y-89763376D02*
X153178571Y-90430043D01*
X153178571Y-90430043D02*
X153416666Y-89763376D01*
X154321428Y-90430043D02*
X153750000Y-90430043D01*
X154035714Y-90430043D02*
X154035714Y-89430043D01*
X154035714Y-89430043D02*
X153940476Y-89572900D01*
X153940476Y-89572900D02*
X153845238Y-89668138D01*
X153845238Y-89668138D02*
X153750000Y-89715757D01*
X154750000Y-90334804D02*
X154797619Y-90382424D01*
X154797619Y-90382424D02*
X154750000Y-90430043D01*
X154750000Y-90430043D02*
X154702381Y-90382424D01*
X154702381Y-90382424D02*
X154750000Y-90334804D01*
X154750000Y-90334804D02*
X154750000Y-90430043D01*
X155416666Y-89430043D02*
X155511904Y-89430043D01*
X155511904Y-89430043D02*
X155607142Y-89477662D01*
X155607142Y-89477662D02*
X155654761Y-89525281D01*
X155654761Y-89525281D02*
X155702380Y-89620519D01*
X155702380Y-89620519D02*
X155749999Y-89810995D01*
X155749999Y-89810995D02*
X155749999Y-90049090D01*
X155749999Y-90049090D02*
X155702380Y-90239566D01*
X155702380Y-90239566D02*
X155654761Y-90334804D01*
X155654761Y-90334804D02*
X155607142Y-90382424D01*
X155607142Y-90382424D02*
X155511904Y-90430043D01*
X155511904Y-90430043D02*
X155416666Y-90430043D01*
X155416666Y-90430043D02*
X155321428Y-90382424D01*
X155321428Y-90382424D02*
X155273809Y-90334804D01*
X155273809Y-90334804D02*
X155226190Y-90239566D01*
X155226190Y-90239566D02*
X155178571Y-90049090D01*
X155178571Y-90049090D02*
X155178571Y-89810995D01*
X155178571Y-89810995D02*
X155226190Y-89620519D01*
X155226190Y-89620519D02*
X155273809Y-89525281D01*
X155273809Y-89525281D02*
X155321428Y-89477662D01*
X155321428Y-89477662D02*
X155416666Y-89430043D01*
X145059524Y-91039987D02*
X145630952Y-91039987D01*
X145345238Y-92039987D02*
X145345238Y-91039987D01*
X146345238Y-91992368D02*
X146250000Y-92039987D01*
X146250000Y-92039987D02*
X146059524Y-92039987D01*
X146059524Y-92039987D02*
X145964286Y-91992368D01*
X145964286Y-91992368D02*
X145916667Y-91897129D01*
X145916667Y-91897129D02*
X145916667Y-91516177D01*
X145916667Y-91516177D02*
X145964286Y-91420939D01*
X145964286Y-91420939D02*
X146059524Y-91373320D01*
X146059524Y-91373320D02*
X146250000Y-91373320D01*
X146250000Y-91373320D02*
X146345238Y-91420939D01*
X146345238Y-91420939D02*
X146392857Y-91516177D01*
X146392857Y-91516177D02*
X146392857Y-91611415D01*
X146392857Y-91611415D02*
X145916667Y-91706653D01*
X147250000Y-92039987D02*
X147250000Y-91516177D01*
X147250000Y-91516177D02*
X147202381Y-91420939D01*
X147202381Y-91420939D02*
X147107143Y-91373320D01*
X147107143Y-91373320D02*
X146916667Y-91373320D01*
X146916667Y-91373320D02*
X146821429Y-91420939D01*
X147250000Y-91992368D02*
X147154762Y-92039987D01*
X147154762Y-92039987D02*
X146916667Y-92039987D01*
X146916667Y-92039987D02*
X146821429Y-91992368D01*
X146821429Y-91992368D02*
X146773810Y-91897129D01*
X146773810Y-91897129D02*
X146773810Y-91801891D01*
X146773810Y-91801891D02*
X146821429Y-91706653D01*
X146821429Y-91706653D02*
X146916667Y-91659034D01*
X146916667Y-91659034D02*
X147154762Y-91659034D01*
X147154762Y-91659034D02*
X147250000Y-91611415D01*
X147726191Y-92039987D02*
X147726191Y-91373320D01*
X147726191Y-91468558D02*
X147773810Y-91420939D01*
X147773810Y-91420939D02*
X147869048Y-91373320D01*
X147869048Y-91373320D02*
X148011905Y-91373320D01*
X148011905Y-91373320D02*
X148107143Y-91420939D01*
X148107143Y-91420939D02*
X148154762Y-91516177D01*
X148154762Y-91516177D02*
X148154762Y-92039987D01*
X148154762Y-91516177D02*
X148202381Y-91420939D01*
X148202381Y-91420939D02*
X148297619Y-91373320D01*
X148297619Y-91373320D02*
X148440476Y-91373320D01*
X148440476Y-91373320D02*
X148535715Y-91420939D01*
X148535715Y-91420939D02*
X148583334Y-91516177D01*
X148583334Y-91516177D02*
X148583334Y-92039987D01*
X150154762Y-91516177D02*
X150297619Y-91563796D01*
X150297619Y-91563796D02*
X150345238Y-91611415D01*
X150345238Y-91611415D02*
X150392857Y-91706653D01*
X150392857Y-91706653D02*
X150392857Y-91849510D01*
X150392857Y-91849510D02*
X150345238Y-91944748D01*
X150345238Y-91944748D02*
X150297619Y-91992368D01*
X150297619Y-91992368D02*
X150202381Y-92039987D01*
X150202381Y-92039987D02*
X149821429Y-92039987D01*
X149821429Y-92039987D02*
X149821429Y-91039987D01*
X149821429Y-91039987D02*
X150154762Y-91039987D01*
X150154762Y-91039987D02*
X150250000Y-91087606D01*
X150250000Y-91087606D02*
X150297619Y-91135225D01*
X150297619Y-91135225D02*
X150345238Y-91230463D01*
X150345238Y-91230463D02*
X150345238Y-91325701D01*
X150345238Y-91325701D02*
X150297619Y-91420939D01*
X150297619Y-91420939D02*
X150250000Y-91468558D01*
X150250000Y-91468558D02*
X150154762Y-91516177D01*
X150154762Y-91516177D02*
X149821429Y-91516177D01*
X151297619Y-91039987D02*
X150821429Y-91039987D01*
X150821429Y-91039987D02*
X150773810Y-91516177D01*
X150773810Y-91516177D02*
X150821429Y-91468558D01*
X150821429Y-91468558D02*
X150916667Y-91420939D01*
X150916667Y-91420939D02*
X151154762Y-91420939D01*
X151154762Y-91420939D02*
X151250000Y-91468558D01*
X151250000Y-91468558D02*
X151297619Y-91516177D01*
X151297619Y-91516177D02*
X151345238Y-91611415D01*
X151345238Y-91611415D02*
X151345238Y-91849510D01*
X151345238Y-91849510D02*
X151297619Y-91944748D01*
X151297619Y-91944748D02*
X151250000Y-91992368D01*
X151250000Y-91992368D02*
X151154762Y-92039987D01*
X151154762Y-92039987D02*
X150916667Y-92039987D01*
X150916667Y-92039987D02*
X150821429Y-91992368D01*
X150821429Y-91992368D02*
X150773810Y-91944748D01*
X141488095Y-93649931D02*
X141488095Y-92649931D01*
X141488095Y-92649931D02*
X141726190Y-92649931D01*
X141726190Y-92649931D02*
X141869047Y-92697550D01*
X141869047Y-92697550D02*
X141964285Y-92792788D01*
X141964285Y-92792788D02*
X142011904Y-92888026D01*
X142011904Y-92888026D02*
X142059523Y-93078502D01*
X142059523Y-93078502D02*
X142059523Y-93221359D01*
X142059523Y-93221359D02*
X142011904Y-93411835D01*
X142011904Y-93411835D02*
X141964285Y-93507073D01*
X141964285Y-93507073D02*
X141869047Y-93602312D01*
X141869047Y-93602312D02*
X141726190Y-93649931D01*
X141726190Y-93649931D02*
X141488095Y-93649931D01*
X142869047Y-93602312D02*
X142773809Y-93649931D01*
X142773809Y-93649931D02*
X142583333Y-93649931D01*
X142583333Y-93649931D02*
X142488095Y-93602312D01*
X142488095Y-93602312D02*
X142440476Y-93507073D01*
X142440476Y-93507073D02*
X142440476Y-93126121D01*
X142440476Y-93126121D02*
X142488095Y-93030883D01*
X142488095Y-93030883D02*
X142583333Y-92983264D01*
X142583333Y-92983264D02*
X142773809Y-92983264D01*
X142773809Y-92983264D02*
X142869047Y-93030883D01*
X142869047Y-93030883D02*
X142916666Y-93126121D01*
X142916666Y-93126121D02*
X142916666Y-93221359D01*
X142916666Y-93221359D02*
X142440476Y-93316597D01*
X143488095Y-93649931D02*
X143392857Y-93602312D01*
X143392857Y-93602312D02*
X143345238Y-93507073D01*
X143345238Y-93507073D02*
X143345238Y-92649931D01*
X144297619Y-93649931D02*
X144297619Y-93126121D01*
X144297619Y-93126121D02*
X144250000Y-93030883D01*
X144250000Y-93030883D02*
X144154762Y-92983264D01*
X144154762Y-92983264D02*
X143964286Y-92983264D01*
X143964286Y-92983264D02*
X143869048Y-93030883D01*
X144297619Y-93602312D02*
X144202381Y-93649931D01*
X144202381Y-93649931D02*
X143964286Y-93649931D01*
X143964286Y-93649931D02*
X143869048Y-93602312D01*
X143869048Y-93602312D02*
X143821429Y-93507073D01*
X143821429Y-93507073D02*
X143821429Y-93411835D01*
X143821429Y-93411835D02*
X143869048Y-93316597D01*
X143869048Y-93316597D02*
X143964286Y-93268978D01*
X143964286Y-93268978D02*
X144202381Y-93268978D01*
X144202381Y-93268978D02*
X144297619Y-93221359D01*
X144678572Y-92983264D02*
X144916667Y-93649931D01*
X145154762Y-92983264D02*
X144916667Y-93649931D01*
X144916667Y-93649931D02*
X144821429Y-93888026D01*
X144821429Y-93888026D02*
X144773810Y-93935645D01*
X144773810Y-93935645D02*
X144678572Y-93983264D01*
X145535715Y-92983264D02*
X145535715Y-93649931D01*
X145535715Y-93078502D02*
X145583334Y-93030883D01*
X145583334Y-93030883D02*
X145678572Y-92983264D01*
X145678572Y-92983264D02*
X145821429Y-92983264D01*
X145821429Y-92983264D02*
X145916667Y-93030883D01*
X145916667Y-93030883D02*
X145964286Y-93126121D01*
X145964286Y-93126121D02*
X145964286Y-93649931D01*
X146440477Y-93649931D02*
X146440477Y-92983264D01*
X146440477Y-92649931D02*
X146392858Y-92697550D01*
X146392858Y-92697550D02*
X146440477Y-92745169D01*
X146440477Y-92745169D02*
X146488096Y-92697550D01*
X146488096Y-92697550D02*
X146440477Y-92649931D01*
X146440477Y-92649931D02*
X146440477Y-92745169D01*
X147297619Y-93602312D02*
X147202381Y-93649931D01*
X147202381Y-93649931D02*
X147011905Y-93649931D01*
X147011905Y-93649931D02*
X146916667Y-93602312D01*
X146916667Y-93602312D02*
X146869048Y-93507073D01*
X146869048Y-93507073D02*
X146869048Y-93126121D01*
X146869048Y-93126121D02*
X146916667Y-93030883D01*
X146916667Y-93030883D02*
X147011905Y-92983264D01*
X147011905Y-92983264D02*
X147202381Y-92983264D01*
X147202381Y-92983264D02*
X147297619Y-93030883D01*
X147297619Y-93030883D02*
X147345238Y-93126121D01*
X147345238Y-93126121D02*
X147345238Y-93221359D01*
X147345238Y-93221359D02*
X146869048Y-93316597D01*
X148535715Y-93649931D02*
X148535715Y-92649931D01*
X148535715Y-92649931D02*
X148869048Y-93364216D01*
X148869048Y-93364216D02*
X149202381Y-92649931D01*
X149202381Y-92649931D02*
X149202381Y-93649931D01*
X150107143Y-93602312D02*
X150011905Y-93649931D01*
X150011905Y-93649931D02*
X149821429Y-93649931D01*
X149821429Y-93649931D02*
X149726191Y-93602312D01*
X149726191Y-93602312D02*
X149678572Y-93554692D01*
X149678572Y-93554692D02*
X149630953Y-93459454D01*
X149630953Y-93459454D02*
X149630953Y-93173740D01*
X149630953Y-93173740D02*
X149678572Y-93078502D01*
X149678572Y-93078502D02*
X149726191Y-93030883D01*
X149726191Y-93030883D02*
X149821429Y-92983264D01*
X149821429Y-92983264D02*
X150011905Y-92983264D01*
X150011905Y-92983264D02*
X150107143Y-93030883D01*
X150535715Y-93649931D02*
X150535715Y-92649931D01*
X150535715Y-92649931D02*
X150869048Y-93364216D01*
X150869048Y-93364216D02*
X151202381Y-92649931D01*
X151202381Y-92649931D02*
X151202381Y-93649931D01*
X151678572Y-93649931D02*
X151678572Y-92983264D01*
X151678572Y-92649931D02*
X151630953Y-92697550D01*
X151630953Y-92697550D02*
X151678572Y-92745169D01*
X151678572Y-92745169D02*
X151726191Y-92697550D01*
X151726191Y-92697550D02*
X151678572Y-92649931D01*
X151678572Y-92649931D02*
X151678572Y-92745169D01*
X152297619Y-93649931D02*
X152202381Y-93602312D01*
X152202381Y-93602312D02*
X152154762Y-93507073D01*
X152154762Y-93507073D02*
X152154762Y-92649931D01*
X152821429Y-93649931D02*
X152726191Y-93602312D01*
X152726191Y-93602312D02*
X152678572Y-93507073D01*
X152678572Y-93507073D02*
X152678572Y-92649931D01*
X153630953Y-93649931D02*
X153630953Y-93126121D01*
X153630953Y-93126121D02*
X153583334Y-93030883D01*
X153583334Y-93030883D02*
X153488096Y-92983264D01*
X153488096Y-92983264D02*
X153297620Y-92983264D01*
X153297620Y-92983264D02*
X153202382Y-93030883D01*
X153630953Y-93602312D02*
X153535715Y-93649931D01*
X153535715Y-93649931D02*
X153297620Y-93649931D01*
X153297620Y-93649931D02*
X153202382Y-93602312D01*
X153202382Y-93602312D02*
X153154763Y-93507073D01*
X153154763Y-93507073D02*
X153154763Y-93411835D01*
X153154763Y-93411835D02*
X153202382Y-93316597D01*
X153202382Y-93316597D02*
X153297620Y-93268978D01*
X153297620Y-93268978D02*
X153535715Y-93268978D01*
X153535715Y-93268978D02*
X153630953Y-93221359D01*
X154107144Y-92983264D02*
X154107144Y-93649931D01*
X154107144Y-93078502D02*
X154154763Y-93030883D01*
X154154763Y-93030883D02*
X154250001Y-92983264D01*
X154250001Y-92983264D02*
X154392858Y-92983264D01*
X154392858Y-92983264D02*
X154488096Y-93030883D01*
X154488096Y-93030883D02*
X154535715Y-93126121D01*
X154535715Y-93126121D02*
X154535715Y-93649931D01*
X155059525Y-93602312D02*
X155059525Y-93649931D01*
X155059525Y-93649931D02*
X155011906Y-93745169D01*
X155011906Y-93745169D02*
X154964287Y-93792788D01*
X143940476Y-95259875D02*
X143940476Y-94259875D01*
X144273809Y-94593208D02*
X144654761Y-94593208D01*
X144416666Y-94259875D02*
X144416666Y-95117017D01*
X144416666Y-95117017D02*
X144464285Y-95212256D01*
X144464285Y-95212256D02*
X144559523Y-95259875D01*
X144559523Y-95259875D02*
X144654761Y-95259875D01*
X145416666Y-95259875D02*
X145416666Y-94736065D01*
X145416666Y-94736065D02*
X145369047Y-94640827D01*
X145369047Y-94640827D02*
X145273809Y-94593208D01*
X145273809Y-94593208D02*
X145083333Y-94593208D01*
X145083333Y-94593208D02*
X144988095Y-94640827D01*
X145416666Y-95212256D02*
X145321428Y-95259875D01*
X145321428Y-95259875D02*
X145083333Y-95259875D01*
X145083333Y-95259875D02*
X144988095Y-95212256D01*
X144988095Y-95212256D02*
X144940476Y-95117017D01*
X144940476Y-95117017D02*
X144940476Y-95021779D01*
X144940476Y-95021779D02*
X144988095Y-94926541D01*
X144988095Y-94926541D02*
X145083333Y-94878922D01*
X145083333Y-94878922D02*
X145321428Y-94878922D01*
X145321428Y-94878922D02*
X145416666Y-94831303D01*
X146035714Y-95259875D02*
X145940476Y-95212256D01*
X145940476Y-95212256D02*
X145892857Y-95117017D01*
X145892857Y-95117017D02*
X145892857Y-94259875D01*
X146416667Y-95259875D02*
X146416667Y-94593208D01*
X146416667Y-94259875D02*
X146369048Y-94307494D01*
X146369048Y-94307494D02*
X146416667Y-94355113D01*
X146416667Y-94355113D02*
X146464286Y-94307494D01*
X146464286Y-94307494D02*
X146416667Y-94259875D01*
X146416667Y-94259875D02*
X146416667Y-94355113D01*
X147321428Y-95259875D02*
X147321428Y-94736065D01*
X147321428Y-94736065D02*
X147273809Y-94640827D01*
X147273809Y-94640827D02*
X147178571Y-94593208D01*
X147178571Y-94593208D02*
X146988095Y-94593208D01*
X146988095Y-94593208D02*
X146892857Y-94640827D01*
X147321428Y-95212256D02*
X147226190Y-95259875D01*
X147226190Y-95259875D02*
X146988095Y-95259875D01*
X146988095Y-95259875D02*
X146892857Y-95212256D01*
X146892857Y-95212256D02*
X146845238Y-95117017D01*
X146845238Y-95117017D02*
X146845238Y-95021779D01*
X146845238Y-95021779D02*
X146892857Y-94926541D01*
X146892857Y-94926541D02*
X146988095Y-94878922D01*
X146988095Y-94878922D02*
X147226190Y-94878922D01*
X147226190Y-94878922D02*
X147321428Y-94831303D01*
X149083333Y-94307494D02*
X148988095Y-94259875D01*
X148988095Y-94259875D02*
X148845238Y-94259875D01*
X148845238Y-94259875D02*
X148702381Y-94307494D01*
X148702381Y-94307494D02*
X148607143Y-94402732D01*
X148607143Y-94402732D02*
X148559524Y-94497970D01*
X148559524Y-94497970D02*
X148511905Y-94688446D01*
X148511905Y-94688446D02*
X148511905Y-94831303D01*
X148511905Y-94831303D02*
X148559524Y-95021779D01*
X148559524Y-95021779D02*
X148607143Y-95117017D01*
X148607143Y-95117017D02*
X148702381Y-95212256D01*
X148702381Y-95212256D02*
X148845238Y-95259875D01*
X148845238Y-95259875D02*
X148940476Y-95259875D01*
X148940476Y-95259875D02*
X149083333Y-95212256D01*
X149083333Y-95212256D02*
X149130952Y-95164636D01*
X149130952Y-95164636D02*
X149130952Y-94831303D01*
X149130952Y-94831303D02*
X148940476Y-94831303D01*
X149559524Y-95259875D02*
X149559524Y-94593208D01*
X149559524Y-94783684D02*
X149607143Y-94688446D01*
X149607143Y-94688446D02*
X149654762Y-94640827D01*
X149654762Y-94640827D02*
X149750000Y-94593208D01*
X149750000Y-94593208D02*
X149845238Y-94593208D01*
X150607143Y-95259875D02*
X150607143Y-94736065D01*
X150607143Y-94736065D02*
X150559524Y-94640827D01*
X150559524Y-94640827D02*
X150464286Y-94593208D01*
X150464286Y-94593208D02*
X150273810Y-94593208D01*
X150273810Y-94593208D02*
X150178572Y-94640827D01*
X150607143Y-95212256D02*
X150511905Y-95259875D01*
X150511905Y-95259875D02*
X150273810Y-95259875D01*
X150273810Y-95259875D02*
X150178572Y-95212256D01*
X150178572Y-95212256D02*
X150130953Y-95117017D01*
X150130953Y-95117017D02*
X150130953Y-95021779D01*
X150130953Y-95021779D02*
X150178572Y-94926541D01*
X150178572Y-94926541D02*
X150273810Y-94878922D01*
X150273810Y-94878922D02*
X150511905Y-94878922D01*
X150511905Y-94878922D02*
X150607143Y-94831303D01*
X151083334Y-94593208D02*
X151083334Y-95259875D01*
X151083334Y-94688446D02*
X151130953Y-94640827D01*
X151130953Y-94640827D02*
X151226191Y-94593208D01*
X151226191Y-94593208D02*
X151369048Y-94593208D01*
X151369048Y-94593208D02*
X151464286Y-94640827D01*
X151464286Y-94640827D02*
X151511905Y-94736065D01*
X151511905Y-94736065D02*
X151511905Y-95259875D01*
X151845239Y-94593208D02*
X152226191Y-94593208D01*
X151988096Y-94259875D02*
X151988096Y-95117017D01*
X151988096Y-95117017D02*
X152035715Y-95212256D01*
X152035715Y-95212256D02*
X152130953Y-95259875D01*
X152130953Y-95259875D02*
X152226191Y-95259875D01*
X152607144Y-95212256D02*
X152607144Y-95259875D01*
X152607144Y-95259875D02*
X152559525Y-95355113D01*
X152559525Y-95355113D02*
X152511906Y-95402732D01*
X139249998Y-96346009D02*
X138916665Y-96346009D01*
X138916665Y-96869819D02*
X138916665Y-95869819D01*
X138916665Y-95869819D02*
X139392855Y-95869819D01*
X140154760Y-96822200D02*
X140059522Y-96869819D01*
X140059522Y-96869819D02*
X139869046Y-96869819D01*
X139869046Y-96869819D02*
X139773808Y-96822200D01*
X139773808Y-96822200D02*
X139726189Y-96726961D01*
X139726189Y-96726961D02*
X139726189Y-96346009D01*
X139726189Y-96346009D02*
X139773808Y-96250771D01*
X139773808Y-96250771D02*
X139869046Y-96203152D01*
X139869046Y-96203152D02*
X140059522Y-96203152D01*
X140059522Y-96203152D02*
X140154760Y-96250771D01*
X140154760Y-96250771D02*
X140202379Y-96346009D01*
X140202379Y-96346009D02*
X140202379Y-96441247D01*
X140202379Y-96441247D02*
X139726189Y-96536485D01*
X140773808Y-96869819D02*
X140678570Y-96822200D01*
X140678570Y-96822200D02*
X140630951Y-96726961D01*
X140630951Y-96726961D02*
X140630951Y-95869819D01*
X141154761Y-96869819D02*
X141154761Y-96203152D01*
X141154761Y-95869819D02*
X141107142Y-95917438D01*
X141107142Y-95917438D02*
X141154761Y-95965057D01*
X141154761Y-95965057D02*
X141202380Y-95917438D01*
X141202380Y-95917438D02*
X141154761Y-95869819D01*
X141154761Y-95869819D02*
X141154761Y-95965057D01*
X141630951Y-96203152D02*
X141630951Y-97203152D01*
X141630951Y-96250771D02*
X141726189Y-96203152D01*
X141726189Y-96203152D02*
X141916665Y-96203152D01*
X141916665Y-96203152D02*
X142011903Y-96250771D01*
X142011903Y-96250771D02*
X142059522Y-96298390D01*
X142059522Y-96298390D02*
X142107141Y-96393628D01*
X142107141Y-96393628D02*
X142107141Y-96679342D01*
X142107141Y-96679342D02*
X142059522Y-96774580D01*
X142059522Y-96774580D02*
X142011903Y-96822200D01*
X142011903Y-96822200D02*
X141916665Y-96869819D01*
X141916665Y-96869819D02*
X141726189Y-96869819D01*
X141726189Y-96869819D02*
X141630951Y-96822200D01*
X142916665Y-96822200D02*
X142821427Y-96869819D01*
X142821427Y-96869819D02*
X142630951Y-96869819D01*
X142630951Y-96869819D02*
X142535713Y-96822200D01*
X142535713Y-96822200D02*
X142488094Y-96726961D01*
X142488094Y-96726961D02*
X142488094Y-96346009D01*
X142488094Y-96346009D02*
X142535713Y-96250771D01*
X142535713Y-96250771D02*
X142630951Y-96203152D01*
X142630951Y-96203152D02*
X142821427Y-96203152D01*
X142821427Y-96203152D02*
X142916665Y-96250771D01*
X142916665Y-96250771D02*
X142964284Y-96346009D01*
X142964284Y-96346009D02*
X142964284Y-96441247D01*
X142964284Y-96441247D02*
X142488094Y-96536485D01*
X144154761Y-96869819D02*
X144154761Y-95869819D01*
X144154761Y-95869819D02*
X144488094Y-96584104D01*
X144488094Y-96584104D02*
X144821427Y-95869819D01*
X144821427Y-95869819D02*
X144821427Y-96869819D01*
X145726189Y-96869819D02*
X145726189Y-96346009D01*
X145726189Y-96346009D02*
X145678570Y-96250771D01*
X145678570Y-96250771D02*
X145583332Y-96203152D01*
X145583332Y-96203152D02*
X145392856Y-96203152D01*
X145392856Y-96203152D02*
X145297618Y-96250771D01*
X145726189Y-96822200D02*
X145630951Y-96869819D01*
X145630951Y-96869819D02*
X145392856Y-96869819D01*
X145392856Y-96869819D02*
X145297618Y-96822200D01*
X145297618Y-96822200D02*
X145249999Y-96726961D01*
X145249999Y-96726961D02*
X145249999Y-96631723D01*
X145249999Y-96631723D02*
X145297618Y-96536485D01*
X145297618Y-96536485D02*
X145392856Y-96488866D01*
X145392856Y-96488866D02*
X145630951Y-96488866D01*
X145630951Y-96488866D02*
X145726189Y-96441247D01*
X146202380Y-96869819D02*
X146202380Y-96203152D01*
X146202380Y-96393628D02*
X146249999Y-96298390D01*
X146249999Y-96298390D02*
X146297618Y-96250771D01*
X146297618Y-96250771D02*
X146392856Y-96203152D01*
X146392856Y-96203152D02*
X146488094Y-96203152D01*
X146821428Y-96203152D02*
X146821428Y-97203152D01*
X146821428Y-96250771D02*
X146916666Y-96203152D01*
X146916666Y-96203152D02*
X147107142Y-96203152D01*
X147107142Y-96203152D02*
X147202380Y-96250771D01*
X147202380Y-96250771D02*
X147249999Y-96298390D01*
X147249999Y-96298390D02*
X147297618Y-96393628D01*
X147297618Y-96393628D02*
X147297618Y-96679342D01*
X147297618Y-96679342D02*
X147249999Y-96774580D01*
X147249999Y-96774580D02*
X147202380Y-96822200D01*
X147202380Y-96822200D02*
X147107142Y-96869819D01*
X147107142Y-96869819D02*
X146916666Y-96869819D01*
X146916666Y-96869819D02*
X146821428Y-96822200D01*
X147869047Y-96869819D02*
X147773809Y-96822200D01*
X147773809Y-96822200D02*
X147726190Y-96726961D01*
X147726190Y-96726961D02*
X147726190Y-95869819D01*
X148630952Y-96822200D02*
X148535714Y-96869819D01*
X148535714Y-96869819D02*
X148345238Y-96869819D01*
X148345238Y-96869819D02*
X148250000Y-96822200D01*
X148250000Y-96822200D02*
X148202381Y-96726961D01*
X148202381Y-96726961D02*
X148202381Y-96346009D01*
X148202381Y-96346009D02*
X148250000Y-96250771D01*
X148250000Y-96250771D02*
X148345238Y-96203152D01*
X148345238Y-96203152D02*
X148535714Y-96203152D01*
X148535714Y-96203152D02*
X148630952Y-96250771D01*
X148630952Y-96250771D02*
X148678571Y-96346009D01*
X148678571Y-96346009D02*
X148678571Y-96441247D01*
X148678571Y-96441247D02*
X148202381Y-96536485D01*
X149059524Y-96822200D02*
X149154762Y-96869819D01*
X149154762Y-96869819D02*
X149345238Y-96869819D01*
X149345238Y-96869819D02*
X149440476Y-96822200D01*
X149440476Y-96822200D02*
X149488095Y-96726961D01*
X149488095Y-96726961D02*
X149488095Y-96679342D01*
X149488095Y-96679342D02*
X149440476Y-96584104D01*
X149440476Y-96584104D02*
X149345238Y-96536485D01*
X149345238Y-96536485D02*
X149202381Y-96536485D01*
X149202381Y-96536485D02*
X149107143Y-96488866D01*
X149107143Y-96488866D02*
X149059524Y-96393628D01*
X149059524Y-96393628D02*
X149059524Y-96346009D01*
X149059524Y-96346009D02*
X149107143Y-96250771D01*
X149107143Y-96250771D02*
X149202381Y-96203152D01*
X149202381Y-96203152D02*
X149345238Y-96203152D01*
X149345238Y-96203152D02*
X149440476Y-96250771D01*
X151250000Y-96869819D02*
X150916667Y-96393628D01*
X150678572Y-96869819D02*
X150678572Y-95869819D01*
X150678572Y-95869819D02*
X151059524Y-95869819D01*
X151059524Y-95869819D02*
X151154762Y-95917438D01*
X151154762Y-95917438D02*
X151202381Y-95965057D01*
X151202381Y-95965057D02*
X151250000Y-96060295D01*
X151250000Y-96060295D02*
X151250000Y-96203152D01*
X151250000Y-96203152D02*
X151202381Y-96298390D01*
X151202381Y-96298390D02*
X151154762Y-96346009D01*
X151154762Y-96346009D02*
X151059524Y-96393628D01*
X151059524Y-96393628D02*
X150678572Y-96393628D01*
X151821429Y-96869819D02*
X151726191Y-96822200D01*
X151726191Y-96822200D02*
X151678572Y-96774580D01*
X151678572Y-96774580D02*
X151630953Y-96679342D01*
X151630953Y-96679342D02*
X151630953Y-96393628D01*
X151630953Y-96393628D02*
X151678572Y-96298390D01*
X151678572Y-96298390D02*
X151726191Y-96250771D01*
X151726191Y-96250771D02*
X151821429Y-96203152D01*
X151821429Y-96203152D02*
X151964286Y-96203152D01*
X151964286Y-96203152D02*
X152059524Y-96250771D01*
X152059524Y-96250771D02*
X152107143Y-96298390D01*
X152107143Y-96298390D02*
X152154762Y-96393628D01*
X152154762Y-96393628D02*
X152154762Y-96679342D01*
X152154762Y-96679342D02*
X152107143Y-96774580D01*
X152107143Y-96774580D02*
X152059524Y-96822200D01*
X152059524Y-96822200D02*
X151964286Y-96869819D01*
X151964286Y-96869819D02*
X151821429Y-96869819D01*
X153011905Y-96869819D02*
X153011905Y-95869819D01*
X153011905Y-96822200D02*
X152916667Y-96869819D01*
X152916667Y-96869819D02*
X152726191Y-96869819D01*
X152726191Y-96869819D02*
X152630953Y-96822200D01*
X152630953Y-96822200D02*
X152583334Y-96774580D01*
X152583334Y-96774580D02*
X152535715Y-96679342D01*
X152535715Y-96679342D02*
X152535715Y-96393628D01*
X152535715Y-96393628D02*
X152583334Y-96298390D01*
X152583334Y-96298390D02*
X152630953Y-96250771D01*
X152630953Y-96250771D02*
X152726191Y-96203152D01*
X152726191Y-96203152D02*
X152916667Y-96203152D01*
X152916667Y-96203152D02*
X153011905Y-96250771D01*
X153488096Y-96869819D02*
X153488096Y-96203152D01*
X153488096Y-96393628D02*
X153535715Y-96298390D01*
X153535715Y-96298390D02*
X153583334Y-96250771D01*
X153583334Y-96250771D02*
X153678572Y-96203152D01*
X153678572Y-96203152D02*
X153773810Y-96203152D01*
X154107144Y-96869819D02*
X154107144Y-96203152D01*
X154107144Y-95869819D02*
X154059525Y-95917438D01*
X154059525Y-95917438D02*
X154107144Y-95965057D01*
X154107144Y-95965057D02*
X154154763Y-95917438D01*
X154154763Y-95917438D02*
X154107144Y-95869819D01*
X154107144Y-95869819D02*
X154107144Y-95965057D01*
X155011905Y-96203152D02*
X155011905Y-97012676D01*
X155011905Y-97012676D02*
X154964286Y-97107914D01*
X154964286Y-97107914D02*
X154916667Y-97155533D01*
X154916667Y-97155533D02*
X154821429Y-97203152D01*
X154821429Y-97203152D02*
X154678572Y-97203152D01*
X154678572Y-97203152D02*
X154583334Y-97155533D01*
X155011905Y-96822200D02*
X154916667Y-96869819D01*
X154916667Y-96869819D02*
X154726191Y-96869819D01*
X154726191Y-96869819D02*
X154630953Y-96822200D01*
X154630953Y-96822200D02*
X154583334Y-96774580D01*
X154583334Y-96774580D02*
X154535715Y-96679342D01*
X154535715Y-96679342D02*
X154535715Y-96393628D01*
X154535715Y-96393628D02*
X154583334Y-96298390D01*
X154583334Y-96298390D02*
X154630953Y-96250771D01*
X154630953Y-96250771D02*
X154726191Y-96203152D01*
X154726191Y-96203152D02*
X154916667Y-96203152D01*
X154916667Y-96203152D02*
X155011905Y-96250771D01*
X155916667Y-96203152D02*
X155916667Y-96869819D01*
X155488096Y-96203152D02*
X155488096Y-96726961D01*
X155488096Y-96726961D02*
X155535715Y-96822200D01*
X155535715Y-96822200D02*
X155630953Y-96869819D01*
X155630953Y-96869819D02*
X155773810Y-96869819D01*
X155773810Y-96869819D02*
X155869048Y-96822200D01*
X155869048Y-96822200D02*
X155916667Y-96774580D01*
X156773810Y-96822200D02*
X156678572Y-96869819D01*
X156678572Y-96869819D02*
X156488096Y-96869819D01*
X156488096Y-96869819D02*
X156392858Y-96822200D01*
X156392858Y-96822200D02*
X156345239Y-96726961D01*
X156345239Y-96726961D02*
X156345239Y-96346009D01*
X156345239Y-96346009D02*
X156392858Y-96250771D01*
X156392858Y-96250771D02*
X156488096Y-96203152D01*
X156488096Y-96203152D02*
X156678572Y-96203152D01*
X156678572Y-96203152D02*
X156773810Y-96250771D01*
X156773810Y-96250771D02*
X156821429Y-96346009D01*
X156821429Y-96346009D02*
X156821429Y-96441247D01*
X156821429Y-96441247D02*
X156345239Y-96536485D01*
X157154763Y-96203152D02*
X157678572Y-96203152D01*
X157678572Y-96203152D02*
X157154763Y-96869819D01*
X157154763Y-96869819D02*
X157678572Y-96869819D01*
X165008207Y-138569819D02*
X164674874Y-138093628D01*
X164436779Y-138569819D02*
X164436779Y-137569819D01*
X164436779Y-137569819D02*
X164817731Y-137569819D01*
X164817731Y-137569819D02*
X164912969Y-137617438D01*
X164912969Y-137617438D02*
X164960588Y-137665057D01*
X164960588Y-137665057D02*
X165008207Y-137760295D01*
X165008207Y-137760295D02*
X165008207Y-137903152D01*
X165008207Y-137903152D02*
X164960588Y-137998390D01*
X164960588Y-137998390D02*
X164912969Y-138046009D01*
X164912969Y-138046009D02*
X164817731Y-138093628D01*
X164817731Y-138093628D02*
X164436779Y-138093628D01*
X165770112Y-138046009D02*
X165436779Y-138046009D01*
X165436779Y-138569819D02*
X165436779Y-137569819D01*
X165436779Y-137569819D02*
X165912969Y-137569819D01*
X166293922Y-138569819D02*
X166293922Y-137569819D01*
X166770112Y-138569819D02*
X166770112Y-137569819D01*
X166770112Y-137569819D02*
X167008207Y-137569819D01*
X167008207Y-137569819D02*
X167151064Y-137617438D01*
X167151064Y-137617438D02*
X167246302Y-137712676D01*
X167246302Y-137712676D02*
X167293921Y-137807914D01*
X167293921Y-137807914D02*
X167341540Y-137998390D01*
X167341540Y-137998390D02*
X167341540Y-138141247D01*
X167341540Y-138141247D02*
X167293921Y-138331723D01*
X167293921Y-138331723D02*
X167246302Y-138426961D01*
X167246302Y-138426961D02*
X167151064Y-138522200D01*
X167151064Y-138522200D02*
X167008207Y-138569819D01*
X167008207Y-138569819D02*
X166770112Y-138569819D01*
X168484398Y-138522200D02*
X168627255Y-138569819D01*
X168627255Y-138569819D02*
X168865350Y-138569819D01*
X168865350Y-138569819D02*
X168960588Y-138522200D01*
X168960588Y-138522200D02*
X169008207Y-138474580D01*
X169008207Y-138474580D02*
X169055826Y-138379342D01*
X169055826Y-138379342D02*
X169055826Y-138284104D01*
X169055826Y-138284104D02*
X169008207Y-138188866D01*
X169008207Y-138188866D02*
X168960588Y-138141247D01*
X168960588Y-138141247D02*
X168865350Y-138093628D01*
X168865350Y-138093628D02*
X168674874Y-138046009D01*
X168674874Y-138046009D02*
X168579636Y-137998390D01*
X168579636Y-137998390D02*
X168532017Y-137950771D01*
X168532017Y-137950771D02*
X168484398Y-137855533D01*
X168484398Y-137855533D02*
X168484398Y-137760295D01*
X168484398Y-137760295D02*
X168532017Y-137665057D01*
X168532017Y-137665057D02*
X168579636Y-137617438D01*
X168579636Y-137617438D02*
X168674874Y-137569819D01*
X168674874Y-137569819D02*
X168912969Y-137569819D01*
X168912969Y-137569819D02*
X169055826Y-137617438D01*
X169912969Y-138522200D02*
X169817731Y-138569819D01*
X169817731Y-138569819D02*
X169627255Y-138569819D01*
X169627255Y-138569819D02*
X169532017Y-138522200D01*
X169532017Y-138522200D02*
X169484398Y-138474580D01*
X169484398Y-138474580D02*
X169436779Y-138379342D01*
X169436779Y-138379342D02*
X169436779Y-138093628D01*
X169436779Y-138093628D02*
X169484398Y-137998390D01*
X169484398Y-137998390D02*
X169532017Y-137950771D01*
X169532017Y-137950771D02*
X169627255Y-137903152D01*
X169627255Y-137903152D02*
X169817731Y-137903152D01*
X169817731Y-137903152D02*
X169912969Y-137950771D01*
X170770112Y-138569819D02*
X170770112Y-138046009D01*
X170770112Y-138046009D02*
X170722493Y-137950771D01*
X170722493Y-137950771D02*
X170627255Y-137903152D01*
X170627255Y-137903152D02*
X170436779Y-137903152D01*
X170436779Y-137903152D02*
X170341541Y-137950771D01*
X170770112Y-138522200D02*
X170674874Y-138569819D01*
X170674874Y-138569819D02*
X170436779Y-138569819D01*
X170436779Y-138569819D02*
X170341541Y-138522200D01*
X170341541Y-138522200D02*
X170293922Y-138426961D01*
X170293922Y-138426961D02*
X170293922Y-138331723D01*
X170293922Y-138331723D02*
X170341541Y-138236485D01*
X170341541Y-138236485D02*
X170436779Y-138188866D01*
X170436779Y-138188866D02*
X170674874Y-138188866D01*
X170674874Y-138188866D02*
X170770112Y-138141247D01*
X171246303Y-137903152D02*
X171246303Y-138569819D01*
X171246303Y-137998390D02*
X171293922Y-137950771D01*
X171293922Y-137950771D02*
X171389160Y-137903152D01*
X171389160Y-137903152D02*
X171532017Y-137903152D01*
X171532017Y-137903152D02*
X171627255Y-137950771D01*
X171627255Y-137950771D02*
X171674874Y-138046009D01*
X171674874Y-138046009D02*
X171674874Y-138569819D01*
X172151065Y-137903152D02*
X172151065Y-138569819D01*
X172151065Y-137998390D02*
X172198684Y-137950771D01*
X172198684Y-137950771D02*
X172293922Y-137903152D01*
X172293922Y-137903152D02*
X172436779Y-137903152D01*
X172436779Y-137903152D02*
X172532017Y-137950771D01*
X172532017Y-137950771D02*
X172579636Y-138046009D01*
X172579636Y-138046009D02*
X172579636Y-138569819D01*
X173436779Y-138522200D02*
X173341541Y-138569819D01*
X173341541Y-138569819D02*
X173151065Y-138569819D01*
X173151065Y-138569819D02*
X173055827Y-138522200D01*
X173055827Y-138522200D02*
X173008208Y-138426961D01*
X173008208Y-138426961D02*
X173008208Y-138046009D01*
X173008208Y-138046009D02*
X173055827Y-137950771D01*
X173055827Y-137950771D02*
X173151065Y-137903152D01*
X173151065Y-137903152D02*
X173341541Y-137903152D01*
X173341541Y-137903152D02*
X173436779Y-137950771D01*
X173436779Y-137950771D02*
X173484398Y-138046009D01*
X173484398Y-138046009D02*
X173484398Y-138141247D01*
X173484398Y-138141247D02*
X173008208Y-138236485D01*
X173912970Y-138569819D02*
X173912970Y-137903152D01*
X173912970Y-138093628D02*
X173960589Y-137998390D01*
X173960589Y-137998390D02*
X174008208Y-137950771D01*
X174008208Y-137950771D02*
X174103446Y-137903152D01*
X174103446Y-137903152D02*
X174198684Y-137903152D01*
X184341541Y-99369819D02*
X185008207Y-100369819D01*
X185008207Y-99369819D02*
X184341541Y-100369819D01*
X163536779Y-112688866D02*
X164298684Y-112688866D01*
X163917731Y-113069819D02*
X163917731Y-112307914D01*
X119882561Y-113860588D02*
X119930180Y-113765350D01*
X119930180Y-113765350D02*
X119930180Y-113622493D01*
X119930180Y-113622493D02*
X119882561Y-113479636D01*
X119882561Y-113479636D02*
X119787323Y-113384398D01*
X119787323Y-113384398D02*
X119692085Y-113336779D01*
X119692085Y-113336779D02*
X119501609Y-113289160D01*
X119501609Y-113289160D02*
X119358752Y-113289160D01*
X119358752Y-113289160D02*
X119168276Y-113336779D01*
X119168276Y-113336779D02*
X119073038Y-113384398D01*
X119073038Y-113384398D02*
X118977800Y-113479636D01*
X118977800Y-113479636D02*
X118930180Y-113622493D01*
X118930180Y-113622493D02*
X118930180Y-113717731D01*
X118930180Y-113717731D02*
X118977800Y-113860588D01*
X118977800Y-113860588D02*
X119025419Y-113908207D01*
X119025419Y-113908207D02*
X119358752Y-113908207D01*
X119358752Y-113908207D02*
X119358752Y-113717731D01*
X118930180Y-114336779D02*
X119930180Y-114336779D01*
X119930180Y-114336779D02*
X118930180Y-114908207D01*
X118930180Y-114908207D02*
X119930180Y-114908207D01*
X118930180Y-115384398D02*
X119930180Y-115384398D01*
X119930180Y-115384398D02*
X119930180Y-115622493D01*
X119930180Y-115622493D02*
X119882561Y-115765350D01*
X119882561Y-115765350D02*
X119787323Y-115860588D01*
X119787323Y-115860588D02*
X119692085Y-115908207D01*
X119692085Y-115908207D02*
X119501609Y-115955826D01*
X119501609Y-115955826D02*
X119358752Y-115955826D01*
X119358752Y-115955826D02*
X119168276Y-115908207D01*
X119168276Y-115908207D02*
X119073038Y-115860588D01*
X119073038Y-115860588D02*
X118977800Y-115765350D01*
X118977800Y-115765350D02*
X118930180Y-115622493D01*
X118930180Y-115622493D02*
X118930180Y-115384398D01*
X121593922Y-93169819D02*
X122165350Y-93169819D01*
X121879636Y-94169819D02*
X121879636Y-93169819D01*
X122498684Y-94169819D02*
X122498684Y-93503152D01*
X122498684Y-93169819D02*
X122451065Y-93217438D01*
X122451065Y-93217438D02*
X122498684Y-93265057D01*
X122498684Y-93265057D02*
X122546303Y-93217438D01*
X122546303Y-93217438D02*
X122498684Y-93169819D01*
X122498684Y-93169819D02*
X122498684Y-93265057D01*
X122974874Y-94169819D02*
X122974874Y-93503152D01*
X122974874Y-93598390D02*
X123022493Y-93550771D01*
X123022493Y-93550771D02*
X123117731Y-93503152D01*
X123117731Y-93503152D02*
X123260588Y-93503152D01*
X123260588Y-93503152D02*
X123355826Y-93550771D01*
X123355826Y-93550771D02*
X123403445Y-93646009D01*
X123403445Y-93646009D02*
X123403445Y-94169819D01*
X123403445Y-93646009D02*
X123451064Y-93550771D01*
X123451064Y-93550771D02*
X123546302Y-93503152D01*
X123546302Y-93503152D02*
X123689159Y-93503152D01*
X123689159Y-93503152D02*
X123784398Y-93550771D01*
X123784398Y-93550771D02*
X123832017Y-93646009D01*
X123832017Y-93646009D02*
X123832017Y-94169819D01*
X124689159Y-94122200D02*
X124593921Y-94169819D01*
X124593921Y-94169819D02*
X124403445Y-94169819D01*
X124403445Y-94169819D02*
X124308207Y-94122200D01*
X124308207Y-94122200D02*
X124260588Y-94026961D01*
X124260588Y-94026961D02*
X124260588Y-93646009D01*
X124260588Y-93646009D02*
X124308207Y-93550771D01*
X124308207Y-93550771D02*
X124403445Y-93503152D01*
X124403445Y-93503152D02*
X124593921Y-93503152D01*
X124593921Y-93503152D02*
X124689159Y-93550771D01*
X124689159Y-93550771D02*
X124736778Y-93646009D01*
X124736778Y-93646009D02*
X124736778Y-93741247D01*
X124736778Y-93741247D02*
X124260588Y-93836485D01*
X125165350Y-93503152D02*
X125165350Y-94503152D01*
X125165350Y-93550771D02*
X125260588Y-93503152D01*
X125260588Y-93503152D02*
X125451064Y-93503152D01*
X125451064Y-93503152D02*
X125546302Y-93550771D01*
X125546302Y-93550771D02*
X125593921Y-93598390D01*
X125593921Y-93598390D02*
X125641540Y-93693628D01*
X125641540Y-93693628D02*
X125641540Y-93979342D01*
X125641540Y-93979342D02*
X125593921Y-94074580D01*
X125593921Y-94074580D02*
X125546302Y-94122200D01*
X125546302Y-94122200D02*
X125451064Y-94169819D01*
X125451064Y-94169819D02*
X125260588Y-94169819D01*
X125260588Y-94169819D02*
X125165350Y-94122200D01*
X126498683Y-93503152D02*
X126498683Y-94169819D01*
X126070112Y-93503152D02*
X126070112Y-94026961D01*
X126070112Y-94026961D02*
X126117731Y-94122200D01*
X126117731Y-94122200D02*
X126212969Y-94169819D01*
X126212969Y-94169819D02*
X126355826Y-94169819D01*
X126355826Y-94169819D02*
X126451064Y-94122200D01*
X126451064Y-94122200D02*
X126498683Y-94074580D01*
X127117731Y-94169819D02*
X127022493Y-94122200D01*
X127022493Y-94122200D02*
X126974874Y-94026961D01*
X126974874Y-94026961D02*
X126974874Y-93169819D01*
X127451065Y-94122200D02*
X127546303Y-94169819D01*
X127546303Y-94169819D02*
X127736779Y-94169819D01*
X127736779Y-94169819D02*
X127832017Y-94122200D01*
X127832017Y-94122200D02*
X127879636Y-94026961D01*
X127879636Y-94026961D02*
X127879636Y-93979342D01*
X127879636Y-93979342D02*
X127832017Y-93884104D01*
X127832017Y-93884104D02*
X127736779Y-93836485D01*
X127736779Y-93836485D02*
X127593922Y-93836485D01*
X127593922Y-93836485D02*
X127498684Y-93788866D01*
X127498684Y-93788866D02*
X127451065Y-93693628D01*
X127451065Y-93693628D02*
X127451065Y-93646009D01*
X127451065Y-93646009D02*
X127498684Y-93550771D01*
X127498684Y-93550771D02*
X127593922Y-93503152D01*
X127593922Y-93503152D02*
X127736779Y-93503152D01*
X127736779Y-93503152D02*
X127832017Y-93550771D01*
X128689160Y-94122200D02*
X128593922Y-94169819D01*
X128593922Y-94169819D02*
X128403446Y-94169819D01*
X128403446Y-94169819D02*
X128308208Y-94122200D01*
X128308208Y-94122200D02*
X128260589Y-94026961D01*
X128260589Y-94026961D02*
X128260589Y-93646009D01*
X128260589Y-93646009D02*
X128308208Y-93550771D01*
X128308208Y-93550771D02*
X128403446Y-93503152D01*
X128403446Y-93503152D02*
X128593922Y-93503152D01*
X128593922Y-93503152D02*
X128689160Y-93550771D01*
X128689160Y-93550771D02*
X128736779Y-93646009D01*
X128736779Y-93646009D02*
X128736779Y-93741247D01*
X128736779Y-93741247D02*
X128260589Y-93836485D01*
X169165350Y-66703152D02*
X169165350Y-67369819D01*
X168736779Y-66703152D02*
X168736779Y-67226961D01*
X168736779Y-67226961D02*
X168784398Y-67322200D01*
X168784398Y-67322200D02*
X168879636Y-67369819D01*
X168879636Y-67369819D02*
X169022493Y-67369819D01*
X169022493Y-67369819D02*
X169117731Y-67322200D01*
X169117731Y-67322200D02*
X169165350Y-67274580D01*
X169593922Y-67322200D02*
X169736779Y-67369819D01*
X169736779Y-67369819D02*
X169974874Y-67369819D01*
X169974874Y-67369819D02*
X170070112Y-67322200D01*
X170070112Y-67322200D02*
X170117731Y-67274580D01*
X170117731Y-67274580D02*
X170165350Y-67179342D01*
X170165350Y-67179342D02*
X170165350Y-67084104D01*
X170165350Y-67084104D02*
X170117731Y-66988866D01*
X170117731Y-66988866D02*
X170070112Y-66941247D01*
X170070112Y-66941247D02*
X169974874Y-66893628D01*
X169974874Y-66893628D02*
X169784398Y-66846009D01*
X169784398Y-66846009D02*
X169689160Y-66798390D01*
X169689160Y-66798390D02*
X169641541Y-66750771D01*
X169641541Y-66750771D02*
X169593922Y-66655533D01*
X169593922Y-66655533D02*
X169593922Y-66560295D01*
X169593922Y-66560295D02*
X169641541Y-66465057D01*
X169641541Y-66465057D02*
X169689160Y-66417438D01*
X169689160Y-66417438D02*
X169784398Y-66369819D01*
X169784398Y-66369819D02*
X170022493Y-66369819D01*
X170022493Y-66369819D02*
X170165350Y-66417438D01*
X170593922Y-67369819D02*
X170593922Y-66369819D01*
X170593922Y-66369819D02*
X170832017Y-66369819D01*
X170832017Y-66369819D02*
X170974874Y-66417438D01*
X170974874Y-66417438D02*
X171070112Y-66512676D01*
X171070112Y-66512676D02*
X171117731Y-66607914D01*
X171117731Y-66607914D02*
X171165350Y-66798390D01*
X171165350Y-66798390D02*
X171165350Y-66941247D01*
X171165350Y-66941247D02*
X171117731Y-67131723D01*
X171117731Y-67131723D02*
X171070112Y-67226961D01*
X171070112Y-67226961D02*
X170974874Y-67322200D01*
X170974874Y-67322200D02*
X170832017Y-67369819D01*
X170832017Y-67369819D02*
X170593922Y-67369819D01*
X172927255Y-67274580D02*
X172879636Y-67322200D01*
X172879636Y-67322200D02*
X172736779Y-67369819D01*
X172736779Y-67369819D02*
X172641541Y-67369819D01*
X172641541Y-67369819D02*
X172498684Y-67322200D01*
X172498684Y-67322200D02*
X172403446Y-67226961D01*
X172403446Y-67226961D02*
X172355827Y-67131723D01*
X172355827Y-67131723D02*
X172308208Y-66941247D01*
X172308208Y-66941247D02*
X172308208Y-66798390D01*
X172308208Y-66798390D02*
X172355827Y-66607914D01*
X172355827Y-66607914D02*
X172403446Y-66512676D01*
X172403446Y-66512676D02*
X172498684Y-66417438D01*
X172498684Y-66417438D02*
X172641541Y-66369819D01*
X172641541Y-66369819D02*
X172736779Y-66369819D01*
X172736779Y-66369819D02*
X172879636Y-66417438D01*
X172879636Y-66417438D02*
X172927255Y-66465057D01*
X173308208Y-67322200D02*
X173451065Y-67369819D01*
X173451065Y-67369819D02*
X173689160Y-67369819D01*
X173689160Y-67369819D02*
X173784398Y-67322200D01*
X173784398Y-67322200D02*
X173832017Y-67274580D01*
X173832017Y-67274580D02*
X173879636Y-67179342D01*
X173879636Y-67179342D02*
X173879636Y-67084104D01*
X173879636Y-67084104D02*
X173832017Y-66988866D01*
X173832017Y-66988866D02*
X173784398Y-66941247D01*
X173784398Y-66941247D02*
X173689160Y-66893628D01*
X173689160Y-66893628D02*
X173498684Y-66846009D01*
X173498684Y-66846009D02*
X173403446Y-66798390D01*
X173403446Y-66798390D02*
X173355827Y-66750771D01*
X173355827Y-66750771D02*
X173308208Y-66655533D01*
X173308208Y-66655533D02*
X173308208Y-66560295D01*
X173308208Y-66560295D02*
X173355827Y-66465057D01*
X173355827Y-66465057D02*
X173403446Y-66417438D01*
X173403446Y-66417438D02*
X173498684Y-66369819D01*
X173498684Y-66369819D02*
X173736779Y-66369819D01*
X173736779Y-66369819D02*
X173879636Y-66417438D01*
X158941541Y-134769819D02*
X159608207Y-135769819D01*
X159608207Y-134769819D02*
X158941541Y-135769819D01*
X142889160Y-130522200D02*
X143032017Y-130569819D01*
X143032017Y-130569819D02*
X143270112Y-130569819D01*
X143270112Y-130569819D02*
X143365350Y-130522200D01*
X143365350Y-130522200D02*
X143412969Y-130474580D01*
X143412969Y-130474580D02*
X143460588Y-130379342D01*
X143460588Y-130379342D02*
X143460588Y-130284104D01*
X143460588Y-130284104D02*
X143412969Y-130188866D01*
X143412969Y-130188866D02*
X143365350Y-130141247D01*
X143365350Y-130141247D02*
X143270112Y-130093628D01*
X143270112Y-130093628D02*
X143079636Y-130046009D01*
X143079636Y-130046009D02*
X142984398Y-129998390D01*
X142984398Y-129998390D02*
X142936779Y-129950771D01*
X142936779Y-129950771D02*
X142889160Y-129855533D01*
X142889160Y-129855533D02*
X142889160Y-129760295D01*
X142889160Y-129760295D02*
X142936779Y-129665057D01*
X142936779Y-129665057D02*
X142984398Y-129617438D01*
X142984398Y-129617438D02*
X143079636Y-129569819D01*
X143079636Y-129569819D02*
X143317731Y-129569819D01*
X143317731Y-129569819D02*
X143460588Y-129617438D01*
X143889160Y-130569819D02*
X143889160Y-129569819D01*
X143889160Y-129569819D02*
X144270112Y-129569819D01*
X144270112Y-129569819D02*
X144365350Y-129617438D01*
X144365350Y-129617438D02*
X144412969Y-129665057D01*
X144412969Y-129665057D02*
X144460588Y-129760295D01*
X144460588Y-129760295D02*
X144460588Y-129903152D01*
X144460588Y-129903152D02*
X144412969Y-129998390D01*
X144412969Y-129998390D02*
X144365350Y-130046009D01*
X144365350Y-130046009D02*
X144270112Y-130093628D01*
X144270112Y-130093628D02*
X143889160Y-130093628D01*
X144889160Y-130569819D02*
X144889160Y-129569819D01*
X145270112Y-129569819D02*
X145889159Y-129569819D01*
X145889159Y-129569819D02*
X145555826Y-129950771D01*
X145555826Y-129950771D02*
X145698683Y-129950771D01*
X145698683Y-129950771D02*
X145793921Y-129998390D01*
X145793921Y-129998390D02*
X145841540Y-130046009D01*
X145841540Y-130046009D02*
X145889159Y-130141247D01*
X145889159Y-130141247D02*
X145889159Y-130379342D01*
X145889159Y-130379342D02*
X145841540Y-130474580D01*
X145841540Y-130474580D02*
X145793921Y-130522200D01*
X145793921Y-130522200D02*
X145698683Y-130569819D01*
X145698683Y-130569819D02*
X145412969Y-130569819D01*
X145412969Y-130569819D02*
X145317731Y-130522200D01*
X145317731Y-130522200D02*
X145270112Y-130474580D01*
X147651064Y-130474580D02*
X147603445Y-130522200D01*
X147603445Y-130522200D02*
X147460588Y-130569819D01*
X147460588Y-130569819D02*
X147365350Y-130569819D01*
X147365350Y-130569819D02*
X147222493Y-130522200D01*
X147222493Y-130522200D02*
X147127255Y-130426961D01*
X147127255Y-130426961D02*
X147079636Y-130331723D01*
X147079636Y-130331723D02*
X147032017Y-130141247D01*
X147032017Y-130141247D02*
X147032017Y-129998390D01*
X147032017Y-129998390D02*
X147079636Y-129807914D01*
X147079636Y-129807914D02*
X147127255Y-129712676D01*
X147127255Y-129712676D02*
X147222493Y-129617438D01*
X147222493Y-129617438D02*
X147365350Y-129569819D01*
X147365350Y-129569819D02*
X147460588Y-129569819D01*
X147460588Y-129569819D02*
X147603445Y-129617438D01*
X147603445Y-129617438D02*
X147651064Y-129665057D01*
X148079636Y-130569819D02*
X148079636Y-129569819D01*
X148555826Y-130569819D02*
X148555826Y-129569819D01*
X148555826Y-129569819D02*
X148936778Y-129569819D01*
X148936778Y-129569819D02*
X149032016Y-129617438D01*
X149032016Y-129617438D02*
X149079635Y-129665057D01*
X149079635Y-129665057D02*
X149127254Y-129760295D01*
X149127254Y-129760295D02*
X149127254Y-129903152D01*
X149127254Y-129903152D02*
X149079635Y-129998390D01*
X149079635Y-129998390D02*
X149032016Y-130046009D01*
X149032016Y-130046009D02*
X148936778Y-130093628D01*
X148936778Y-130093628D02*
X148555826Y-130093628D01*
X149746302Y-129569819D02*
X149936778Y-129569819D01*
X149936778Y-129569819D02*
X150032016Y-129617438D01*
X150032016Y-129617438D02*
X150127254Y-129712676D01*
X150127254Y-129712676D02*
X150174873Y-129903152D01*
X150174873Y-129903152D02*
X150174873Y-130236485D01*
X150174873Y-130236485D02*
X150127254Y-130426961D01*
X150127254Y-130426961D02*
X150032016Y-130522200D01*
X150032016Y-130522200D02*
X149936778Y-130569819D01*
X149936778Y-130569819D02*
X149746302Y-130569819D01*
X149746302Y-130569819D02*
X149651064Y-130522200D01*
X149651064Y-130522200D02*
X149555826Y-130426961D01*
X149555826Y-130426961D02*
X149508207Y-130236485D01*
X149508207Y-130236485D02*
X149508207Y-129903152D01*
X149508207Y-129903152D02*
X149555826Y-129712676D01*
X149555826Y-129712676D02*
X149651064Y-129617438D01*
X149651064Y-129617438D02*
X149746302Y-129569819D01*
X184341541Y-101769819D02*
X185008207Y-102769819D01*
X185008207Y-101769819D02*
X184341541Y-102769819D01*
X133508207Y-134169819D02*
X133174874Y-133693628D01*
X132936779Y-134169819D02*
X132936779Y-133169819D01*
X132936779Y-133169819D02*
X133317731Y-133169819D01*
X133317731Y-133169819D02*
X133412969Y-133217438D01*
X133412969Y-133217438D02*
X133460588Y-133265057D01*
X133460588Y-133265057D02*
X133508207Y-133360295D01*
X133508207Y-133360295D02*
X133508207Y-133503152D01*
X133508207Y-133503152D02*
X133460588Y-133598390D01*
X133460588Y-133598390D02*
X133412969Y-133646009D01*
X133412969Y-133646009D02*
X133317731Y-133693628D01*
X133317731Y-133693628D02*
X132936779Y-133693628D01*
X134270112Y-133646009D02*
X133936779Y-133646009D01*
X133936779Y-134169819D02*
X133936779Y-133169819D01*
X133936779Y-133169819D02*
X134412969Y-133169819D01*
X134793922Y-134169819D02*
X134793922Y-133169819D01*
X135270112Y-134169819D02*
X135270112Y-133169819D01*
X135270112Y-133169819D02*
X135508207Y-133169819D01*
X135508207Y-133169819D02*
X135651064Y-133217438D01*
X135651064Y-133217438D02*
X135746302Y-133312676D01*
X135746302Y-133312676D02*
X135793921Y-133407914D01*
X135793921Y-133407914D02*
X135841540Y-133598390D01*
X135841540Y-133598390D02*
X135841540Y-133741247D01*
X135841540Y-133741247D02*
X135793921Y-133931723D01*
X135793921Y-133931723D02*
X135746302Y-134026961D01*
X135746302Y-134026961D02*
X135651064Y-134122200D01*
X135651064Y-134122200D02*
X135508207Y-134169819D01*
X135508207Y-134169819D02*
X135270112Y-134169819D01*
X137603445Y-134169819D02*
X137270112Y-133693628D01*
X137032017Y-134169819D02*
X137032017Y-133169819D01*
X137032017Y-133169819D02*
X137412969Y-133169819D01*
X137412969Y-133169819D02*
X137508207Y-133217438D01*
X137508207Y-133217438D02*
X137555826Y-133265057D01*
X137555826Y-133265057D02*
X137603445Y-133360295D01*
X137603445Y-133360295D02*
X137603445Y-133503152D01*
X137603445Y-133503152D02*
X137555826Y-133598390D01*
X137555826Y-133598390D02*
X137508207Y-133646009D01*
X137508207Y-133646009D02*
X137412969Y-133693628D01*
X137412969Y-133693628D02*
X137032017Y-133693628D01*
X138412969Y-134122200D02*
X138317731Y-134169819D01*
X138317731Y-134169819D02*
X138127255Y-134169819D01*
X138127255Y-134169819D02*
X138032017Y-134122200D01*
X138032017Y-134122200D02*
X137984398Y-134026961D01*
X137984398Y-134026961D02*
X137984398Y-133646009D01*
X137984398Y-133646009D02*
X138032017Y-133550771D01*
X138032017Y-133550771D02*
X138127255Y-133503152D01*
X138127255Y-133503152D02*
X138317731Y-133503152D01*
X138317731Y-133503152D02*
X138412969Y-133550771D01*
X138412969Y-133550771D02*
X138460588Y-133646009D01*
X138460588Y-133646009D02*
X138460588Y-133741247D01*
X138460588Y-133741247D02*
X137984398Y-133836485D01*
X138841541Y-134122200D02*
X138936779Y-134169819D01*
X138936779Y-134169819D02*
X139127255Y-134169819D01*
X139127255Y-134169819D02*
X139222493Y-134122200D01*
X139222493Y-134122200D02*
X139270112Y-134026961D01*
X139270112Y-134026961D02*
X139270112Y-133979342D01*
X139270112Y-133979342D02*
X139222493Y-133884104D01*
X139222493Y-133884104D02*
X139127255Y-133836485D01*
X139127255Y-133836485D02*
X138984398Y-133836485D01*
X138984398Y-133836485D02*
X138889160Y-133788866D01*
X138889160Y-133788866D02*
X138841541Y-133693628D01*
X138841541Y-133693628D02*
X138841541Y-133646009D01*
X138841541Y-133646009D02*
X138889160Y-133550771D01*
X138889160Y-133550771D02*
X138984398Y-133503152D01*
X138984398Y-133503152D02*
X139127255Y-133503152D01*
X139127255Y-133503152D02*
X139222493Y-133550771D01*
X140079636Y-134122200D02*
X139984398Y-134169819D01*
X139984398Y-134169819D02*
X139793922Y-134169819D01*
X139793922Y-134169819D02*
X139698684Y-134122200D01*
X139698684Y-134122200D02*
X139651065Y-134026961D01*
X139651065Y-134026961D02*
X139651065Y-133646009D01*
X139651065Y-133646009D02*
X139698684Y-133550771D01*
X139698684Y-133550771D02*
X139793922Y-133503152D01*
X139793922Y-133503152D02*
X139984398Y-133503152D01*
X139984398Y-133503152D02*
X140079636Y-133550771D01*
X140079636Y-133550771D02*
X140127255Y-133646009D01*
X140127255Y-133646009D02*
X140127255Y-133741247D01*
X140127255Y-133741247D02*
X139651065Y-133836485D01*
X140412970Y-133503152D02*
X140793922Y-133503152D01*
X140555827Y-133169819D02*
X140555827Y-134026961D01*
X140555827Y-134026961D02*
X140603446Y-134122200D01*
X140603446Y-134122200D02*
X140698684Y-134169819D01*
X140698684Y-134169819D02*
X140793922Y-134169819D01*
X124927800Y-131539160D02*
X124880180Y-131682017D01*
X124880180Y-131682017D02*
X124880180Y-131920112D01*
X124880180Y-131920112D02*
X124927800Y-132015350D01*
X124927800Y-132015350D02*
X124975419Y-132062969D01*
X124975419Y-132062969D02*
X125070657Y-132110588D01*
X125070657Y-132110588D02*
X125165895Y-132110588D01*
X125165895Y-132110588D02*
X125261133Y-132062969D01*
X125261133Y-132062969D02*
X125308752Y-132015350D01*
X125308752Y-132015350D02*
X125356371Y-131920112D01*
X125356371Y-131920112D02*
X125403990Y-131729636D01*
X125403990Y-131729636D02*
X125451609Y-131634398D01*
X125451609Y-131634398D02*
X125499228Y-131586779D01*
X125499228Y-131586779D02*
X125594466Y-131539160D01*
X125594466Y-131539160D02*
X125689704Y-131539160D01*
X125689704Y-131539160D02*
X125784942Y-131586779D01*
X125784942Y-131586779D02*
X125832561Y-131634398D01*
X125832561Y-131634398D02*
X125880180Y-131729636D01*
X125880180Y-131729636D02*
X125880180Y-131967731D01*
X125880180Y-131967731D02*
X125832561Y-132110588D01*
X125880180Y-132396303D02*
X125880180Y-132967731D01*
X124880180Y-132682017D02*
X125880180Y-132682017D01*
X125165895Y-133253446D02*
X125165895Y-133729636D01*
X124880180Y-133158208D02*
X125880180Y-133491541D01*
X125880180Y-133491541D02*
X124880180Y-133824874D01*
X124880180Y-134682017D02*
X124880180Y-134110589D01*
X124880180Y-134396303D02*
X125880180Y-134396303D01*
X125880180Y-134396303D02*
X125737323Y-134301065D01*
X125737323Y-134301065D02*
X125642085Y-134205827D01*
X125642085Y-134205827D02*
X125594466Y-134110589D01*
X129669819Y-122387030D02*
X129669819Y-122863220D01*
X129669819Y-122863220D02*
X128669819Y-122863220D01*
X129669819Y-122053696D02*
X129003152Y-122053696D01*
X128669819Y-122053696D02*
X128717438Y-122101315D01*
X128717438Y-122101315D02*
X128765057Y-122053696D01*
X128765057Y-122053696D02*
X128717438Y-122006077D01*
X128717438Y-122006077D02*
X128669819Y-122053696D01*
X128669819Y-122053696D02*
X128765057Y-122053696D01*
X129669819Y-121577506D02*
X128669819Y-121577506D01*
X128669819Y-121577506D02*
X128669819Y-121196554D01*
X128669819Y-121196554D02*
X128717438Y-121101316D01*
X128717438Y-121101316D02*
X128765057Y-121053697D01*
X128765057Y-121053697D02*
X128860295Y-121006078D01*
X128860295Y-121006078D02*
X129003152Y-121006078D01*
X129003152Y-121006078D02*
X129098390Y-121053697D01*
X129098390Y-121053697D02*
X129146009Y-121101316D01*
X129146009Y-121101316D02*
X129193628Y-121196554D01*
X129193628Y-121196554D02*
X129193628Y-121577506D01*
X129669819Y-120434649D02*
X129622200Y-120529887D01*
X129622200Y-120529887D02*
X129574580Y-120577506D01*
X129574580Y-120577506D02*
X129479342Y-120625125D01*
X129479342Y-120625125D02*
X129193628Y-120625125D01*
X129193628Y-120625125D02*
X129098390Y-120577506D01*
X129098390Y-120577506D02*
X129050771Y-120529887D01*
X129050771Y-120529887D02*
X129003152Y-120434649D01*
X129003152Y-120434649D02*
X129003152Y-120291792D01*
X129003152Y-120291792D02*
X129050771Y-120196554D01*
X129050771Y-120196554D02*
X129098390Y-120148935D01*
X129098390Y-120148935D02*
X129193628Y-120101316D01*
X129193628Y-120101316D02*
X129479342Y-120101316D01*
X129479342Y-120101316D02*
X129574580Y-120148935D01*
X129574580Y-120148935D02*
X129622200Y-120196554D01*
X129622200Y-120196554D02*
X129669819Y-120291792D01*
X129669819Y-120291792D02*
X129669819Y-120434649D01*
X129574580Y-118339411D02*
X129622200Y-118387030D01*
X129622200Y-118387030D02*
X129669819Y-118529887D01*
X129669819Y-118529887D02*
X129669819Y-118625125D01*
X129669819Y-118625125D02*
X129622200Y-118767982D01*
X129622200Y-118767982D02*
X129526961Y-118863220D01*
X129526961Y-118863220D02*
X129431723Y-118910839D01*
X129431723Y-118910839D02*
X129241247Y-118958458D01*
X129241247Y-118958458D02*
X129098390Y-118958458D01*
X129098390Y-118958458D02*
X128907914Y-118910839D01*
X128907914Y-118910839D02*
X128812676Y-118863220D01*
X128812676Y-118863220D02*
X128717438Y-118767982D01*
X128717438Y-118767982D02*
X128669819Y-118625125D01*
X128669819Y-118625125D02*
X128669819Y-118529887D01*
X128669819Y-118529887D02*
X128717438Y-118387030D01*
X128717438Y-118387030D02*
X128765057Y-118339411D01*
X129669819Y-117910839D02*
X128669819Y-117910839D01*
X129669819Y-117482268D02*
X129146009Y-117482268D01*
X129146009Y-117482268D02*
X129050771Y-117529887D01*
X129050771Y-117529887D02*
X129003152Y-117625125D01*
X129003152Y-117625125D02*
X129003152Y-117767982D01*
X129003152Y-117767982D02*
X129050771Y-117863220D01*
X129050771Y-117863220D02*
X129098390Y-117910839D01*
X129669819Y-116577506D02*
X129146009Y-116577506D01*
X129146009Y-116577506D02*
X129050771Y-116625125D01*
X129050771Y-116625125D02*
X129003152Y-116720363D01*
X129003152Y-116720363D02*
X129003152Y-116910839D01*
X129003152Y-116910839D02*
X129050771Y-117006077D01*
X129622200Y-116577506D02*
X129669819Y-116672744D01*
X129669819Y-116672744D02*
X129669819Y-116910839D01*
X129669819Y-116910839D02*
X129622200Y-117006077D01*
X129622200Y-117006077D02*
X129526961Y-117053696D01*
X129526961Y-117053696D02*
X129431723Y-117053696D01*
X129431723Y-117053696D02*
X129336485Y-117006077D01*
X129336485Y-117006077D02*
X129288866Y-116910839D01*
X129288866Y-116910839D02*
X129288866Y-116672744D01*
X129288866Y-116672744D02*
X129241247Y-116577506D01*
X129669819Y-116101315D02*
X129003152Y-116101315D01*
X129193628Y-116101315D02*
X129098390Y-116053696D01*
X129098390Y-116053696D02*
X129050771Y-116006077D01*
X129050771Y-116006077D02*
X129003152Y-115910839D01*
X129003152Y-115910839D02*
X129003152Y-115815601D01*
X129003152Y-115053696D02*
X129812676Y-115053696D01*
X129812676Y-115053696D02*
X129907914Y-115101315D01*
X129907914Y-115101315D02*
X129955533Y-115148934D01*
X129955533Y-115148934D02*
X130003152Y-115244172D01*
X130003152Y-115244172D02*
X130003152Y-115387029D01*
X130003152Y-115387029D02*
X129955533Y-115482267D01*
X129622200Y-115053696D02*
X129669819Y-115148934D01*
X129669819Y-115148934D02*
X129669819Y-115339410D01*
X129669819Y-115339410D02*
X129622200Y-115434648D01*
X129622200Y-115434648D02*
X129574580Y-115482267D01*
X129574580Y-115482267D02*
X129479342Y-115529886D01*
X129479342Y-115529886D02*
X129193628Y-115529886D01*
X129193628Y-115529886D02*
X129098390Y-115482267D01*
X129098390Y-115482267D02*
X129050771Y-115434648D01*
X129050771Y-115434648D02*
X129003152Y-115339410D01*
X129003152Y-115339410D02*
X129003152Y-115148934D01*
X129003152Y-115148934D02*
X129050771Y-115053696D01*
X129622200Y-114196553D02*
X129669819Y-114291791D01*
X129669819Y-114291791D02*
X129669819Y-114482267D01*
X129669819Y-114482267D02*
X129622200Y-114577505D01*
X129622200Y-114577505D02*
X129526961Y-114625124D01*
X129526961Y-114625124D02*
X129146009Y-114625124D01*
X129146009Y-114625124D02*
X129050771Y-114577505D01*
X129050771Y-114577505D02*
X129003152Y-114482267D01*
X129003152Y-114482267D02*
X129003152Y-114291791D01*
X129003152Y-114291791D02*
X129050771Y-114196553D01*
X129050771Y-114196553D02*
X129146009Y-114148934D01*
X129146009Y-114148934D02*
X129241247Y-114148934D01*
X129241247Y-114148934D02*
X129336485Y-114625124D01*
X129669819Y-113720362D02*
X129003152Y-113720362D01*
X129193628Y-113720362D02*
X129098390Y-113672743D01*
X129098390Y-113672743D02*
X129050771Y-113625124D01*
X129050771Y-113625124D02*
X129003152Y-113529886D01*
X129003152Y-113529886D02*
X129003152Y-113434648D01*
X184341541Y-94069819D02*
X185008207Y-95069819D01*
X185008207Y-94069819D02*
X184341541Y-95069819D01*
X121636779Y-92046009D02*
X121970112Y-92046009D01*
X122112969Y-92569819D02*
X121636779Y-92569819D01*
X121636779Y-92569819D02*
X121636779Y-91569819D01*
X121636779Y-91569819D02*
X122112969Y-91569819D01*
X122446303Y-92569819D02*
X122970112Y-91903152D01*
X122446303Y-91903152D02*
X122970112Y-92569819D01*
X123208208Y-91903152D02*
X123589160Y-91903152D01*
X123351065Y-91569819D02*
X123351065Y-92426961D01*
X123351065Y-92426961D02*
X123398684Y-92522200D01*
X123398684Y-92522200D02*
X123493922Y-92569819D01*
X123493922Y-92569819D02*
X123589160Y-92569819D01*
X123922494Y-92569819D02*
X123922494Y-91903152D01*
X123922494Y-91569819D02*
X123874875Y-91617438D01*
X123874875Y-91617438D02*
X123922494Y-91665057D01*
X123922494Y-91665057D02*
X123970113Y-91617438D01*
X123970113Y-91617438D02*
X123922494Y-91569819D01*
X123922494Y-91569819D02*
X123922494Y-91665057D01*
X124398684Y-91903152D02*
X124398684Y-92569819D01*
X124398684Y-91998390D02*
X124446303Y-91950771D01*
X124446303Y-91950771D02*
X124541541Y-91903152D01*
X124541541Y-91903152D02*
X124684398Y-91903152D01*
X124684398Y-91903152D02*
X124779636Y-91950771D01*
X124779636Y-91950771D02*
X124827255Y-92046009D01*
X124827255Y-92046009D02*
X124827255Y-92569819D01*
X125160589Y-91903152D02*
X125541541Y-91903152D01*
X125303446Y-91569819D02*
X125303446Y-92426961D01*
X125303446Y-92426961D02*
X125351065Y-92522200D01*
X125351065Y-92522200D02*
X125446303Y-92569819D01*
X125446303Y-92569819D02*
X125541541Y-92569819D01*
X152920112Y-108096009D02*
X153062969Y-108143628D01*
X153062969Y-108143628D02*
X153110588Y-108191247D01*
X153110588Y-108191247D02*
X153158207Y-108286485D01*
X153158207Y-108286485D02*
X153158207Y-108429342D01*
X153158207Y-108429342D02*
X153110588Y-108524580D01*
X153110588Y-108524580D02*
X153062969Y-108572200D01*
X153062969Y-108572200D02*
X152967731Y-108619819D01*
X152967731Y-108619819D02*
X152586779Y-108619819D01*
X152586779Y-108619819D02*
X152586779Y-107619819D01*
X152586779Y-107619819D02*
X152920112Y-107619819D01*
X152920112Y-107619819D02*
X153015350Y-107667438D01*
X153015350Y-107667438D02*
X153062969Y-107715057D01*
X153062969Y-107715057D02*
X153110588Y-107810295D01*
X153110588Y-107810295D02*
X153110588Y-107905533D01*
X153110588Y-107905533D02*
X153062969Y-108000771D01*
X153062969Y-108000771D02*
X153015350Y-108048390D01*
X153015350Y-108048390D02*
X152920112Y-108096009D01*
X152920112Y-108096009D02*
X152586779Y-108096009D01*
X154015350Y-107953152D02*
X154015350Y-108619819D01*
X153586779Y-107953152D02*
X153586779Y-108476961D01*
X153586779Y-108476961D02*
X153634398Y-108572200D01*
X153634398Y-108572200D02*
X153729636Y-108619819D01*
X153729636Y-108619819D02*
X153872493Y-108619819D01*
X153872493Y-108619819D02*
X153967731Y-108572200D01*
X153967731Y-108572200D02*
X154015350Y-108524580D01*
X154396303Y-107953152D02*
X154920112Y-107953152D01*
X154920112Y-107953152D02*
X154396303Y-108619819D01*
X154396303Y-108619819D02*
X154920112Y-108619819D01*
X155205827Y-107953152D02*
X155729636Y-107953152D01*
X155729636Y-107953152D02*
X155205827Y-108619819D01*
X155205827Y-108619819D02*
X155729636Y-108619819D01*
X156491541Y-108572200D02*
X156396303Y-108619819D01*
X156396303Y-108619819D02*
X156205827Y-108619819D01*
X156205827Y-108619819D02*
X156110589Y-108572200D01*
X156110589Y-108572200D02*
X156062970Y-108476961D01*
X156062970Y-108476961D02*
X156062970Y-108096009D01*
X156062970Y-108096009D02*
X156110589Y-108000771D01*
X156110589Y-108000771D02*
X156205827Y-107953152D01*
X156205827Y-107953152D02*
X156396303Y-107953152D01*
X156396303Y-107953152D02*
X156491541Y-108000771D01*
X156491541Y-108000771D02*
X156539160Y-108096009D01*
X156539160Y-108096009D02*
X156539160Y-108191247D01*
X156539160Y-108191247D02*
X156062970Y-108286485D01*
X156967732Y-108619819D02*
X156967732Y-107953152D01*
X156967732Y-108143628D02*
X157015351Y-108048390D01*
X157015351Y-108048390D02*
X157062970Y-108000771D01*
X157062970Y-108000771D02*
X157158208Y-107953152D01*
X157158208Y-107953152D02*
X157253446Y-107953152D01*
X176260588Y-122917438D02*
X176165350Y-122869819D01*
X176165350Y-122869819D02*
X176022493Y-122869819D01*
X176022493Y-122869819D02*
X175879636Y-122917438D01*
X175879636Y-122917438D02*
X175784398Y-123012676D01*
X175784398Y-123012676D02*
X175736779Y-123107914D01*
X175736779Y-123107914D02*
X175689160Y-123298390D01*
X175689160Y-123298390D02*
X175689160Y-123441247D01*
X175689160Y-123441247D02*
X175736779Y-123631723D01*
X175736779Y-123631723D02*
X175784398Y-123726961D01*
X175784398Y-123726961D02*
X175879636Y-123822200D01*
X175879636Y-123822200D02*
X176022493Y-123869819D01*
X176022493Y-123869819D02*
X176117731Y-123869819D01*
X176117731Y-123869819D02*
X176260588Y-123822200D01*
X176260588Y-123822200D02*
X176308207Y-123774580D01*
X176308207Y-123774580D02*
X176308207Y-123441247D01*
X176308207Y-123441247D02*
X176117731Y-123441247D01*
X176736779Y-123869819D02*
X176736779Y-122869819D01*
X176736779Y-122869819D02*
X177308207Y-123869819D01*
X177308207Y-123869819D02*
X177308207Y-122869819D01*
X177784398Y-123869819D02*
X177784398Y-122869819D01*
X177784398Y-122869819D02*
X178022493Y-122869819D01*
X178022493Y-122869819D02*
X178165350Y-122917438D01*
X178165350Y-122917438D02*
X178260588Y-123012676D01*
X178260588Y-123012676D02*
X178308207Y-123107914D01*
X178308207Y-123107914D02*
X178355826Y-123298390D01*
X178355826Y-123298390D02*
X178355826Y-123441247D01*
X178355826Y-123441247D02*
X178308207Y-123631723D01*
X178308207Y-123631723D02*
X178260588Y-123726961D01*
X178260588Y-123726961D02*
X178165350Y-123822200D01*
X178165350Y-123822200D02*
X178022493Y-123869819D01*
X178022493Y-123869819D02*
X177784398Y-123869819D01*
X160389160Y-133322200D02*
X160532017Y-133369819D01*
X160532017Y-133369819D02*
X160770112Y-133369819D01*
X160770112Y-133369819D02*
X160865350Y-133322200D01*
X160865350Y-133322200D02*
X160912969Y-133274580D01*
X160912969Y-133274580D02*
X160960588Y-133179342D01*
X160960588Y-133179342D02*
X160960588Y-133084104D01*
X160960588Y-133084104D02*
X160912969Y-132988866D01*
X160912969Y-132988866D02*
X160865350Y-132941247D01*
X160865350Y-132941247D02*
X160770112Y-132893628D01*
X160770112Y-132893628D02*
X160579636Y-132846009D01*
X160579636Y-132846009D02*
X160484398Y-132798390D01*
X160484398Y-132798390D02*
X160436779Y-132750771D01*
X160436779Y-132750771D02*
X160389160Y-132655533D01*
X160389160Y-132655533D02*
X160389160Y-132560295D01*
X160389160Y-132560295D02*
X160436779Y-132465057D01*
X160436779Y-132465057D02*
X160484398Y-132417438D01*
X160484398Y-132417438D02*
X160579636Y-132369819D01*
X160579636Y-132369819D02*
X160817731Y-132369819D01*
X160817731Y-132369819D02*
X160960588Y-132417438D01*
X161389160Y-133369819D02*
X161389160Y-132369819D01*
X161389160Y-132369819D02*
X161770112Y-132369819D01*
X161770112Y-132369819D02*
X161865350Y-132417438D01*
X161865350Y-132417438D02*
X161912969Y-132465057D01*
X161912969Y-132465057D02*
X161960588Y-132560295D01*
X161960588Y-132560295D02*
X161960588Y-132703152D01*
X161960588Y-132703152D02*
X161912969Y-132798390D01*
X161912969Y-132798390D02*
X161865350Y-132846009D01*
X161865350Y-132846009D02*
X161770112Y-132893628D01*
X161770112Y-132893628D02*
X161389160Y-132893628D01*
X162389160Y-133369819D02*
X162389160Y-132369819D01*
X162770112Y-132369819D02*
X163389159Y-132369819D01*
X163389159Y-132369819D02*
X163055826Y-132750771D01*
X163055826Y-132750771D02*
X163198683Y-132750771D01*
X163198683Y-132750771D02*
X163293921Y-132798390D01*
X163293921Y-132798390D02*
X163341540Y-132846009D01*
X163341540Y-132846009D02*
X163389159Y-132941247D01*
X163389159Y-132941247D02*
X163389159Y-133179342D01*
X163389159Y-133179342D02*
X163341540Y-133274580D01*
X163341540Y-133274580D02*
X163293921Y-133322200D01*
X163293921Y-133322200D02*
X163198683Y-133369819D01*
X163198683Y-133369819D02*
X162912969Y-133369819D01*
X162912969Y-133369819D02*
X162817731Y-133322200D01*
X162817731Y-133322200D02*
X162770112Y-133274580D01*
X164532017Y-133322200D02*
X164674874Y-133369819D01*
X164674874Y-133369819D02*
X164912969Y-133369819D01*
X164912969Y-133369819D02*
X165008207Y-133322200D01*
X165008207Y-133322200D02*
X165055826Y-133274580D01*
X165055826Y-133274580D02*
X165103445Y-133179342D01*
X165103445Y-133179342D02*
X165103445Y-133084104D01*
X165103445Y-133084104D02*
X165055826Y-132988866D01*
X165055826Y-132988866D02*
X165008207Y-132941247D01*
X165008207Y-132941247D02*
X164912969Y-132893628D01*
X164912969Y-132893628D02*
X164722493Y-132846009D01*
X164722493Y-132846009D02*
X164627255Y-132798390D01*
X164627255Y-132798390D02*
X164579636Y-132750771D01*
X164579636Y-132750771D02*
X164532017Y-132655533D01*
X164532017Y-132655533D02*
X164532017Y-132560295D01*
X164532017Y-132560295D02*
X164579636Y-132465057D01*
X164579636Y-132465057D02*
X164627255Y-132417438D01*
X164627255Y-132417438D02*
X164722493Y-132369819D01*
X164722493Y-132369819D02*
X164960588Y-132369819D01*
X164960588Y-132369819D02*
X165103445Y-132417438D01*
X166103445Y-133274580D02*
X166055826Y-133322200D01*
X166055826Y-133322200D02*
X165912969Y-133369819D01*
X165912969Y-133369819D02*
X165817731Y-133369819D01*
X165817731Y-133369819D02*
X165674874Y-133322200D01*
X165674874Y-133322200D02*
X165579636Y-133226961D01*
X165579636Y-133226961D02*
X165532017Y-133131723D01*
X165532017Y-133131723D02*
X165484398Y-132941247D01*
X165484398Y-132941247D02*
X165484398Y-132798390D01*
X165484398Y-132798390D02*
X165532017Y-132607914D01*
X165532017Y-132607914D02*
X165579636Y-132512676D01*
X165579636Y-132512676D02*
X165674874Y-132417438D01*
X165674874Y-132417438D02*
X165817731Y-132369819D01*
X165817731Y-132369819D02*
X165912969Y-132369819D01*
X165912969Y-132369819D02*
X166055826Y-132417438D01*
X166055826Y-132417438D02*
X166103445Y-132465057D01*
X167008207Y-133369819D02*
X166532017Y-133369819D01*
X166532017Y-133369819D02*
X166532017Y-132369819D01*
X167341541Y-133369819D02*
X167341541Y-132369819D01*
X167912969Y-133369819D02*
X167484398Y-132798390D01*
X167912969Y-132369819D02*
X167341541Y-132941247D01*
X137059523Y-120596009D02*
X137202380Y-120643628D01*
X137202380Y-120643628D02*
X137249999Y-120691247D01*
X137249999Y-120691247D02*
X137297618Y-120786485D01*
X137297618Y-120786485D02*
X137297618Y-120929342D01*
X137297618Y-120929342D02*
X137249999Y-121024580D01*
X137249999Y-121024580D02*
X137202380Y-121072200D01*
X137202380Y-121072200D02*
X137107142Y-121119819D01*
X137107142Y-121119819D02*
X136726190Y-121119819D01*
X136726190Y-121119819D02*
X136726190Y-120119819D01*
X136726190Y-120119819D02*
X137059523Y-120119819D01*
X137059523Y-120119819D02*
X137154761Y-120167438D01*
X137154761Y-120167438D02*
X137202380Y-120215057D01*
X137202380Y-120215057D02*
X137249999Y-120310295D01*
X137249999Y-120310295D02*
X137249999Y-120405533D01*
X137249999Y-120405533D02*
X137202380Y-120500771D01*
X137202380Y-120500771D02*
X137154761Y-120548390D01*
X137154761Y-120548390D02*
X137059523Y-120596009D01*
X137059523Y-120596009D02*
X136726190Y-120596009D01*
X137583333Y-120119819D02*
X138154761Y-120119819D01*
X137869047Y-121119819D02*
X137869047Y-120119819D01*
X138488095Y-121119819D02*
X138488095Y-120119819D01*
X138488095Y-120119819D02*
X139059523Y-121119819D01*
X139059523Y-121119819D02*
X139059523Y-120119819D01*
X140821428Y-121119819D02*
X140250000Y-121119819D01*
X140535714Y-121119819D02*
X140535714Y-120119819D01*
X140535714Y-120119819D02*
X140440476Y-120262676D01*
X140440476Y-120262676D02*
X140345238Y-120357914D01*
X140345238Y-120357914D02*
X140250000Y-120405533D01*
X184241541Y-104369819D02*
X184908207Y-105369819D01*
X184908207Y-104369819D02*
X184241541Y-105369819D01*
X147559523Y-120596009D02*
X147702380Y-120643628D01*
X147702380Y-120643628D02*
X147749999Y-120691247D01*
X147749999Y-120691247D02*
X147797618Y-120786485D01*
X147797618Y-120786485D02*
X147797618Y-120929342D01*
X147797618Y-120929342D02*
X147749999Y-121024580D01*
X147749999Y-121024580D02*
X147702380Y-121072200D01*
X147702380Y-121072200D02*
X147607142Y-121119819D01*
X147607142Y-121119819D02*
X147226190Y-121119819D01*
X147226190Y-121119819D02*
X147226190Y-120119819D01*
X147226190Y-120119819D02*
X147559523Y-120119819D01*
X147559523Y-120119819D02*
X147654761Y-120167438D01*
X147654761Y-120167438D02*
X147702380Y-120215057D01*
X147702380Y-120215057D02*
X147749999Y-120310295D01*
X147749999Y-120310295D02*
X147749999Y-120405533D01*
X147749999Y-120405533D02*
X147702380Y-120500771D01*
X147702380Y-120500771D02*
X147654761Y-120548390D01*
X147654761Y-120548390D02*
X147559523Y-120596009D01*
X147559523Y-120596009D02*
X147226190Y-120596009D01*
X148083333Y-120119819D02*
X148654761Y-120119819D01*
X148369047Y-121119819D02*
X148369047Y-120119819D01*
X148988095Y-121119819D02*
X148988095Y-120119819D01*
X148988095Y-120119819D02*
X149559523Y-121119819D01*
X149559523Y-121119819D02*
X149559523Y-120119819D01*
X150750000Y-120215057D02*
X150797619Y-120167438D01*
X150797619Y-120167438D02*
X150892857Y-120119819D01*
X150892857Y-120119819D02*
X151130952Y-120119819D01*
X151130952Y-120119819D02*
X151226190Y-120167438D01*
X151226190Y-120167438D02*
X151273809Y-120215057D01*
X151273809Y-120215057D02*
X151321428Y-120310295D01*
X151321428Y-120310295D02*
X151321428Y-120405533D01*
X151321428Y-120405533D02*
X151273809Y-120548390D01*
X151273809Y-120548390D02*
X150702381Y-121119819D01*
X150702381Y-121119819D02*
X151321428Y-121119819D01*
X172189160Y-102722200D02*
X172332017Y-102769819D01*
X172332017Y-102769819D02*
X172570112Y-102769819D01*
X172570112Y-102769819D02*
X172665350Y-102722200D01*
X172665350Y-102722200D02*
X172712969Y-102674580D01*
X172712969Y-102674580D02*
X172760588Y-102579342D01*
X172760588Y-102579342D02*
X172760588Y-102484104D01*
X172760588Y-102484104D02*
X172712969Y-102388866D01*
X172712969Y-102388866D02*
X172665350Y-102341247D01*
X172665350Y-102341247D02*
X172570112Y-102293628D01*
X172570112Y-102293628D02*
X172379636Y-102246009D01*
X172379636Y-102246009D02*
X172284398Y-102198390D01*
X172284398Y-102198390D02*
X172236779Y-102150771D01*
X172236779Y-102150771D02*
X172189160Y-102055533D01*
X172189160Y-102055533D02*
X172189160Y-101960295D01*
X172189160Y-101960295D02*
X172236779Y-101865057D01*
X172236779Y-101865057D02*
X172284398Y-101817438D01*
X172284398Y-101817438D02*
X172379636Y-101769819D01*
X172379636Y-101769819D02*
X172617731Y-101769819D01*
X172617731Y-101769819D02*
X172760588Y-101817438D01*
X173189160Y-102769819D02*
X173189160Y-101769819D01*
X173189160Y-101769819D02*
X173570112Y-101769819D01*
X173570112Y-101769819D02*
X173665350Y-101817438D01*
X173665350Y-101817438D02*
X173712969Y-101865057D01*
X173712969Y-101865057D02*
X173760588Y-101960295D01*
X173760588Y-101960295D02*
X173760588Y-102103152D01*
X173760588Y-102103152D02*
X173712969Y-102198390D01*
X173712969Y-102198390D02*
X173665350Y-102246009D01*
X173665350Y-102246009D02*
X173570112Y-102293628D01*
X173570112Y-102293628D02*
X173189160Y-102293628D01*
X174189160Y-102769819D02*
X174189160Y-101769819D01*
X175998683Y-102674580D02*
X175951064Y-102722200D01*
X175951064Y-102722200D02*
X175808207Y-102769819D01*
X175808207Y-102769819D02*
X175712969Y-102769819D01*
X175712969Y-102769819D02*
X175570112Y-102722200D01*
X175570112Y-102722200D02*
X175474874Y-102626961D01*
X175474874Y-102626961D02*
X175427255Y-102531723D01*
X175427255Y-102531723D02*
X175379636Y-102341247D01*
X175379636Y-102341247D02*
X175379636Y-102198390D01*
X175379636Y-102198390D02*
X175427255Y-102007914D01*
X175427255Y-102007914D02*
X175474874Y-101912676D01*
X175474874Y-101912676D02*
X175570112Y-101817438D01*
X175570112Y-101817438D02*
X175712969Y-101769819D01*
X175712969Y-101769819D02*
X175808207Y-101769819D01*
X175808207Y-101769819D02*
X175951064Y-101817438D01*
X175951064Y-101817438D02*
X175998683Y-101865057D01*
X176427255Y-102769819D02*
X176427255Y-101769819D01*
X176903445Y-102769819D02*
X176903445Y-101769819D01*
X176903445Y-101769819D02*
X177284397Y-101769819D01*
X177284397Y-101769819D02*
X177379635Y-101817438D01*
X177379635Y-101817438D02*
X177427254Y-101865057D01*
X177427254Y-101865057D02*
X177474873Y-101960295D01*
X177474873Y-101960295D02*
X177474873Y-102103152D01*
X177474873Y-102103152D02*
X177427254Y-102198390D01*
X177427254Y-102198390D02*
X177379635Y-102246009D01*
X177379635Y-102246009D02*
X177284397Y-102293628D01*
X177284397Y-102293628D02*
X176903445Y-102293628D01*
X178093921Y-101769819D02*
X178284397Y-101769819D01*
X178284397Y-101769819D02*
X178379635Y-101817438D01*
X178379635Y-101817438D02*
X178474873Y-101912676D01*
X178474873Y-101912676D02*
X178522492Y-102103152D01*
X178522492Y-102103152D02*
X178522492Y-102436485D01*
X178522492Y-102436485D02*
X178474873Y-102626961D01*
X178474873Y-102626961D02*
X178379635Y-102722200D01*
X178379635Y-102722200D02*
X178284397Y-102769819D01*
X178284397Y-102769819D02*
X178093921Y-102769819D01*
X178093921Y-102769819D02*
X177998683Y-102722200D01*
X177998683Y-102722200D02*
X177903445Y-102626961D01*
X177903445Y-102626961D02*
X177855826Y-102436485D01*
X177855826Y-102436485D02*
X177855826Y-102103152D01*
X177855826Y-102103152D02*
X177903445Y-101912676D01*
X177903445Y-101912676D02*
X177998683Y-101817438D01*
X177998683Y-101817438D02*
X178093921Y-101769819D01*
X167036779Y-112688866D02*
X167798684Y-112688866D01*
X127427800Y-131539160D02*
X127380180Y-131682017D01*
X127380180Y-131682017D02*
X127380180Y-131920112D01*
X127380180Y-131920112D02*
X127427800Y-132015350D01*
X127427800Y-132015350D02*
X127475419Y-132062969D01*
X127475419Y-132062969D02*
X127570657Y-132110588D01*
X127570657Y-132110588D02*
X127665895Y-132110588D01*
X127665895Y-132110588D02*
X127761133Y-132062969D01*
X127761133Y-132062969D02*
X127808752Y-132015350D01*
X127808752Y-132015350D02*
X127856371Y-131920112D01*
X127856371Y-131920112D02*
X127903990Y-131729636D01*
X127903990Y-131729636D02*
X127951609Y-131634398D01*
X127951609Y-131634398D02*
X127999228Y-131586779D01*
X127999228Y-131586779D02*
X128094466Y-131539160D01*
X128094466Y-131539160D02*
X128189704Y-131539160D01*
X128189704Y-131539160D02*
X128284942Y-131586779D01*
X128284942Y-131586779D02*
X128332561Y-131634398D01*
X128332561Y-131634398D02*
X128380180Y-131729636D01*
X128380180Y-131729636D02*
X128380180Y-131967731D01*
X128380180Y-131967731D02*
X128332561Y-132110588D01*
X128380180Y-132396303D02*
X128380180Y-132967731D01*
X127380180Y-132682017D02*
X128380180Y-132682017D01*
X127665895Y-133253446D02*
X127665895Y-133729636D01*
X127380180Y-133158208D02*
X128380180Y-133491541D01*
X128380180Y-133491541D02*
X127380180Y-133824874D01*
X128284942Y-134110589D02*
X128332561Y-134158208D01*
X128332561Y-134158208D02*
X128380180Y-134253446D01*
X128380180Y-134253446D02*
X128380180Y-134491541D01*
X128380180Y-134491541D02*
X128332561Y-134586779D01*
X128332561Y-134586779D02*
X128284942Y-134634398D01*
X128284942Y-134634398D02*
X128189704Y-134682017D01*
X128189704Y-134682017D02*
X128094466Y-134682017D01*
X128094466Y-134682017D02*
X127951609Y-134634398D01*
X127951609Y-134634398D02*
X127380180Y-134062970D01*
X127380180Y-134062970D02*
X127380180Y-134682017D01*
X179768920Y-133169819D02*
X179292730Y-133169819D01*
X179292730Y-133169819D02*
X179292730Y-132169819D01*
X180673682Y-133074580D02*
X180626063Y-133122200D01*
X180626063Y-133122200D02*
X180483206Y-133169819D01*
X180483206Y-133169819D02*
X180387968Y-133169819D01*
X180387968Y-133169819D02*
X180245111Y-133122200D01*
X180245111Y-133122200D02*
X180149873Y-133026961D01*
X180149873Y-133026961D02*
X180102254Y-132931723D01*
X180102254Y-132931723D02*
X180054635Y-132741247D01*
X180054635Y-132741247D02*
X180054635Y-132598390D01*
X180054635Y-132598390D02*
X180102254Y-132407914D01*
X180102254Y-132407914D02*
X180149873Y-132312676D01*
X180149873Y-132312676D02*
X180245111Y-132217438D01*
X180245111Y-132217438D02*
X180387968Y-132169819D01*
X180387968Y-132169819D02*
X180483206Y-132169819D01*
X180483206Y-132169819D02*
X180626063Y-132217438D01*
X180626063Y-132217438D02*
X180673682Y-132265057D01*
X181102254Y-133169819D02*
X181102254Y-132169819D01*
X181102254Y-132169819D02*
X181340349Y-132169819D01*
X181340349Y-132169819D02*
X181483206Y-132217438D01*
X181483206Y-132217438D02*
X181578444Y-132312676D01*
X181578444Y-132312676D02*
X181626063Y-132407914D01*
X181626063Y-132407914D02*
X181673682Y-132598390D01*
X181673682Y-132598390D02*
X181673682Y-132741247D01*
X181673682Y-132741247D02*
X181626063Y-132931723D01*
X181626063Y-132931723D02*
X181578444Y-133026961D01*
X181578444Y-133026961D02*
X181483206Y-133122200D01*
X181483206Y-133122200D02*
X181340349Y-133169819D01*
X181340349Y-133169819D02*
X181102254Y-133169819D01*
X182816540Y-133122200D02*
X182959397Y-133169819D01*
X182959397Y-133169819D02*
X183197492Y-133169819D01*
X183197492Y-133169819D02*
X183292730Y-133122200D01*
X183292730Y-133122200D02*
X183340349Y-133074580D01*
X183340349Y-133074580D02*
X183387968Y-132979342D01*
X183387968Y-132979342D02*
X183387968Y-132884104D01*
X183387968Y-132884104D02*
X183340349Y-132788866D01*
X183340349Y-132788866D02*
X183292730Y-132741247D01*
X183292730Y-132741247D02*
X183197492Y-132693628D01*
X183197492Y-132693628D02*
X183007016Y-132646009D01*
X183007016Y-132646009D02*
X182911778Y-132598390D01*
X182911778Y-132598390D02*
X182864159Y-132550771D01*
X182864159Y-132550771D02*
X182816540Y-132455533D01*
X182816540Y-132455533D02*
X182816540Y-132360295D01*
X182816540Y-132360295D02*
X182864159Y-132265057D01*
X182864159Y-132265057D02*
X182911778Y-132217438D01*
X182911778Y-132217438D02*
X183007016Y-132169819D01*
X183007016Y-132169819D02*
X183245111Y-132169819D01*
X183245111Y-132169819D02*
X183387968Y-132217438D01*
X184245111Y-133122200D02*
X184149873Y-133169819D01*
X184149873Y-133169819D02*
X183959397Y-133169819D01*
X183959397Y-133169819D02*
X183864159Y-133122200D01*
X183864159Y-133122200D02*
X183816540Y-133074580D01*
X183816540Y-133074580D02*
X183768921Y-132979342D01*
X183768921Y-132979342D02*
X183768921Y-132693628D01*
X183768921Y-132693628D02*
X183816540Y-132598390D01*
X183816540Y-132598390D02*
X183864159Y-132550771D01*
X183864159Y-132550771D02*
X183959397Y-132503152D01*
X183959397Y-132503152D02*
X184149873Y-132503152D01*
X184149873Y-132503152D02*
X184245111Y-132550771D01*
X184673683Y-133169819D02*
X184673683Y-132503152D01*
X184673683Y-132693628D02*
X184721302Y-132598390D01*
X184721302Y-132598390D02*
X184768921Y-132550771D01*
X184768921Y-132550771D02*
X184864159Y-132503152D01*
X184864159Y-132503152D02*
X184959397Y-132503152D01*
X185673683Y-133122200D02*
X185578445Y-133169819D01*
X185578445Y-133169819D02*
X185387969Y-133169819D01*
X185387969Y-133169819D02*
X185292731Y-133122200D01*
X185292731Y-133122200D02*
X185245112Y-133026961D01*
X185245112Y-133026961D02*
X185245112Y-132646009D01*
X185245112Y-132646009D02*
X185292731Y-132550771D01*
X185292731Y-132550771D02*
X185387969Y-132503152D01*
X185387969Y-132503152D02*
X185578445Y-132503152D01*
X185578445Y-132503152D02*
X185673683Y-132550771D01*
X185673683Y-132550771D02*
X185721302Y-132646009D01*
X185721302Y-132646009D02*
X185721302Y-132741247D01*
X185721302Y-132741247D02*
X185245112Y-132836485D01*
X186530826Y-133122200D02*
X186435588Y-133169819D01*
X186435588Y-133169819D02*
X186245112Y-133169819D01*
X186245112Y-133169819D02*
X186149874Y-133122200D01*
X186149874Y-133122200D02*
X186102255Y-133026961D01*
X186102255Y-133026961D02*
X186102255Y-132646009D01*
X186102255Y-132646009D02*
X186149874Y-132550771D01*
X186149874Y-132550771D02*
X186245112Y-132503152D01*
X186245112Y-132503152D02*
X186435588Y-132503152D01*
X186435588Y-132503152D02*
X186530826Y-132550771D01*
X186530826Y-132550771D02*
X186578445Y-132646009D01*
X186578445Y-132646009D02*
X186578445Y-132741247D01*
X186578445Y-132741247D02*
X186102255Y-132836485D01*
X187007017Y-132503152D02*
X187007017Y-133169819D01*
X187007017Y-132598390D02*
X187054636Y-132550771D01*
X187054636Y-132550771D02*
X187149874Y-132503152D01*
X187149874Y-132503152D02*
X187292731Y-132503152D01*
X187292731Y-132503152D02*
X187387969Y-132550771D01*
X187387969Y-132550771D02*
X187435588Y-132646009D01*
X187435588Y-132646009D02*
X187435588Y-133169819D01*
X163836779Y-114769819D02*
X163836779Y-113769819D01*
X163836779Y-113769819D02*
X164170112Y-114484104D01*
X164170112Y-114484104D02*
X164503445Y-113769819D01*
X164503445Y-113769819D02*
X164503445Y-114769819D01*
X165122493Y-114769819D02*
X165027255Y-114722200D01*
X165027255Y-114722200D02*
X164979636Y-114674580D01*
X164979636Y-114674580D02*
X164932017Y-114579342D01*
X164932017Y-114579342D02*
X164932017Y-114293628D01*
X164932017Y-114293628D02*
X164979636Y-114198390D01*
X164979636Y-114198390D02*
X165027255Y-114150771D01*
X165027255Y-114150771D02*
X165122493Y-114103152D01*
X165122493Y-114103152D02*
X165265350Y-114103152D01*
X165265350Y-114103152D02*
X165360588Y-114150771D01*
X165360588Y-114150771D02*
X165408207Y-114198390D01*
X165408207Y-114198390D02*
X165455826Y-114293628D01*
X165455826Y-114293628D02*
X165455826Y-114579342D01*
X165455826Y-114579342D02*
X165408207Y-114674580D01*
X165408207Y-114674580D02*
X165360588Y-114722200D01*
X165360588Y-114722200D02*
X165265350Y-114769819D01*
X165265350Y-114769819D02*
X165122493Y-114769819D01*
X165741541Y-114103152D02*
X166122493Y-114103152D01*
X165884398Y-113769819D02*
X165884398Y-114626961D01*
X165884398Y-114626961D02*
X165932017Y-114722200D01*
X165932017Y-114722200D02*
X166027255Y-114769819D01*
X166027255Y-114769819D02*
X166122493Y-114769819D01*
X166598684Y-114769819D02*
X166503446Y-114722200D01*
X166503446Y-114722200D02*
X166455827Y-114674580D01*
X166455827Y-114674580D02*
X166408208Y-114579342D01*
X166408208Y-114579342D02*
X166408208Y-114293628D01*
X166408208Y-114293628D02*
X166455827Y-114198390D01*
X166455827Y-114198390D02*
X166503446Y-114150771D01*
X166503446Y-114150771D02*
X166598684Y-114103152D01*
X166598684Y-114103152D02*
X166741541Y-114103152D01*
X166741541Y-114103152D02*
X166836779Y-114150771D01*
X166836779Y-114150771D02*
X166884398Y-114198390D01*
X166884398Y-114198390D02*
X166932017Y-114293628D01*
X166932017Y-114293628D02*
X166932017Y-114579342D01*
X166932017Y-114579342D02*
X166884398Y-114674580D01*
X166884398Y-114674580D02*
X166836779Y-114722200D01*
X166836779Y-114722200D02*
X166741541Y-114769819D01*
X166741541Y-114769819D02*
X166598684Y-114769819D01*
X167360589Y-114769819D02*
X167360589Y-114103152D01*
X167360589Y-114293628D02*
X167408208Y-114198390D01*
X167408208Y-114198390D02*
X167455827Y-114150771D01*
X167455827Y-114150771D02*
X167551065Y-114103152D01*
X167551065Y-114103152D02*
X167646303Y-114103152D01*
X132456541Y-114119819D02*
X133075588Y-114119819D01*
X133075588Y-114119819D02*
X132742255Y-114500771D01*
X132742255Y-114500771D02*
X132885112Y-114500771D01*
X132885112Y-114500771D02*
X132980350Y-114548390D01*
X132980350Y-114548390D02*
X133027969Y-114596009D01*
X133027969Y-114596009D02*
X133075588Y-114691247D01*
X133075588Y-114691247D02*
X133075588Y-114929342D01*
X133075588Y-114929342D02*
X133027969Y-115024580D01*
X133027969Y-115024580D02*
X132980350Y-115072200D01*
X132980350Y-115072200D02*
X132885112Y-115119819D01*
X132885112Y-115119819D02*
X132599398Y-115119819D01*
X132599398Y-115119819D02*
X132504160Y-115072200D01*
X132504160Y-115072200D02*
X132456541Y-115024580D01*
X133361303Y-114119819D02*
X133694636Y-115119819D01*
X133694636Y-115119819D02*
X134027969Y-114119819D01*
X134266065Y-114119819D02*
X134885112Y-114119819D01*
X134885112Y-114119819D02*
X134551779Y-114500771D01*
X134551779Y-114500771D02*
X134694636Y-114500771D01*
X134694636Y-114500771D02*
X134789874Y-114548390D01*
X134789874Y-114548390D02*
X134837493Y-114596009D01*
X134837493Y-114596009D02*
X134885112Y-114691247D01*
X134885112Y-114691247D02*
X134885112Y-114929342D01*
X134885112Y-114929342D02*
X134837493Y-115024580D01*
X134837493Y-115024580D02*
X134789874Y-115072200D01*
X134789874Y-115072200D02*
X134694636Y-115119819D01*
X134694636Y-115119819D02*
X134408922Y-115119819D01*
X134408922Y-115119819D02*
X134313684Y-115072200D01*
X134313684Y-115072200D02*
X134266065Y-115024580D01*
X136647017Y-115119819D02*
X136313684Y-114643628D01*
X136075589Y-115119819D02*
X136075589Y-114119819D01*
X136075589Y-114119819D02*
X136456541Y-114119819D01*
X136456541Y-114119819D02*
X136551779Y-114167438D01*
X136551779Y-114167438D02*
X136599398Y-114215057D01*
X136599398Y-114215057D02*
X136647017Y-114310295D01*
X136647017Y-114310295D02*
X136647017Y-114453152D01*
X136647017Y-114453152D02*
X136599398Y-114548390D01*
X136599398Y-114548390D02*
X136551779Y-114596009D01*
X136551779Y-114596009D02*
X136456541Y-114643628D01*
X136456541Y-114643628D02*
X136075589Y-114643628D01*
X137456541Y-115072200D02*
X137361303Y-115119819D01*
X137361303Y-115119819D02*
X137170827Y-115119819D01*
X137170827Y-115119819D02*
X137075589Y-115072200D01*
X137075589Y-115072200D02*
X137027970Y-114976961D01*
X137027970Y-114976961D02*
X137027970Y-114596009D01*
X137027970Y-114596009D02*
X137075589Y-114500771D01*
X137075589Y-114500771D02*
X137170827Y-114453152D01*
X137170827Y-114453152D02*
X137361303Y-114453152D01*
X137361303Y-114453152D02*
X137456541Y-114500771D01*
X137456541Y-114500771D02*
X137504160Y-114596009D01*
X137504160Y-114596009D02*
X137504160Y-114691247D01*
X137504160Y-114691247D02*
X137027970Y-114786485D01*
X138361303Y-114453152D02*
X138361303Y-115262676D01*
X138361303Y-115262676D02*
X138313684Y-115357914D01*
X138313684Y-115357914D02*
X138266065Y-115405533D01*
X138266065Y-115405533D02*
X138170827Y-115453152D01*
X138170827Y-115453152D02*
X138027970Y-115453152D01*
X138027970Y-115453152D02*
X137932732Y-115405533D01*
X138361303Y-115072200D02*
X138266065Y-115119819D01*
X138266065Y-115119819D02*
X138075589Y-115119819D01*
X138075589Y-115119819D02*
X137980351Y-115072200D01*
X137980351Y-115072200D02*
X137932732Y-115024580D01*
X137932732Y-115024580D02*
X137885113Y-114929342D01*
X137885113Y-114929342D02*
X137885113Y-114643628D01*
X137885113Y-114643628D02*
X137932732Y-114548390D01*
X137932732Y-114548390D02*
X137980351Y-114500771D01*
X137980351Y-114500771D02*
X138075589Y-114453152D01*
X138075589Y-114453152D02*
X138266065Y-114453152D01*
X138266065Y-114453152D02*
X138361303Y-114500771D01*
X172089160Y-109022200D02*
X172232017Y-109069819D01*
X172232017Y-109069819D02*
X172470112Y-109069819D01*
X172470112Y-109069819D02*
X172565350Y-109022200D01*
X172565350Y-109022200D02*
X172612969Y-108974580D01*
X172612969Y-108974580D02*
X172660588Y-108879342D01*
X172660588Y-108879342D02*
X172660588Y-108784104D01*
X172660588Y-108784104D02*
X172612969Y-108688866D01*
X172612969Y-108688866D02*
X172565350Y-108641247D01*
X172565350Y-108641247D02*
X172470112Y-108593628D01*
X172470112Y-108593628D02*
X172279636Y-108546009D01*
X172279636Y-108546009D02*
X172184398Y-108498390D01*
X172184398Y-108498390D02*
X172136779Y-108450771D01*
X172136779Y-108450771D02*
X172089160Y-108355533D01*
X172089160Y-108355533D02*
X172089160Y-108260295D01*
X172089160Y-108260295D02*
X172136779Y-108165057D01*
X172136779Y-108165057D02*
X172184398Y-108117438D01*
X172184398Y-108117438D02*
X172279636Y-108069819D01*
X172279636Y-108069819D02*
X172517731Y-108069819D01*
X172517731Y-108069819D02*
X172660588Y-108117438D01*
X173089160Y-109069819D02*
X173089160Y-108069819D01*
X173089160Y-108069819D02*
X173470112Y-108069819D01*
X173470112Y-108069819D02*
X173565350Y-108117438D01*
X173565350Y-108117438D02*
X173612969Y-108165057D01*
X173612969Y-108165057D02*
X173660588Y-108260295D01*
X173660588Y-108260295D02*
X173660588Y-108403152D01*
X173660588Y-108403152D02*
X173612969Y-108498390D01*
X173612969Y-108498390D02*
X173565350Y-108546009D01*
X173565350Y-108546009D02*
X173470112Y-108593628D01*
X173470112Y-108593628D02*
X173089160Y-108593628D01*
X174089160Y-109069819D02*
X174089160Y-108069819D01*
X175279636Y-109022200D02*
X175422493Y-109069819D01*
X175422493Y-109069819D02*
X175660588Y-109069819D01*
X175660588Y-109069819D02*
X175755826Y-109022200D01*
X175755826Y-109022200D02*
X175803445Y-108974580D01*
X175803445Y-108974580D02*
X175851064Y-108879342D01*
X175851064Y-108879342D02*
X175851064Y-108784104D01*
X175851064Y-108784104D02*
X175803445Y-108688866D01*
X175803445Y-108688866D02*
X175755826Y-108641247D01*
X175755826Y-108641247D02*
X175660588Y-108593628D01*
X175660588Y-108593628D02*
X175470112Y-108546009D01*
X175470112Y-108546009D02*
X175374874Y-108498390D01*
X175374874Y-108498390D02*
X175327255Y-108450771D01*
X175327255Y-108450771D02*
X175279636Y-108355533D01*
X175279636Y-108355533D02*
X175279636Y-108260295D01*
X175279636Y-108260295D02*
X175327255Y-108165057D01*
X175327255Y-108165057D02*
X175374874Y-108117438D01*
X175374874Y-108117438D02*
X175470112Y-108069819D01*
X175470112Y-108069819D02*
X175708207Y-108069819D01*
X175708207Y-108069819D02*
X175851064Y-108117438D01*
X176851064Y-108974580D02*
X176803445Y-109022200D01*
X176803445Y-109022200D02*
X176660588Y-109069819D01*
X176660588Y-109069819D02*
X176565350Y-109069819D01*
X176565350Y-109069819D02*
X176422493Y-109022200D01*
X176422493Y-109022200D02*
X176327255Y-108926961D01*
X176327255Y-108926961D02*
X176279636Y-108831723D01*
X176279636Y-108831723D02*
X176232017Y-108641247D01*
X176232017Y-108641247D02*
X176232017Y-108498390D01*
X176232017Y-108498390D02*
X176279636Y-108307914D01*
X176279636Y-108307914D02*
X176327255Y-108212676D01*
X176327255Y-108212676D02*
X176422493Y-108117438D01*
X176422493Y-108117438D02*
X176565350Y-108069819D01*
X176565350Y-108069819D02*
X176660588Y-108069819D01*
X176660588Y-108069819D02*
X176803445Y-108117438D01*
X176803445Y-108117438D02*
X176851064Y-108165057D01*
X177755826Y-109069819D02*
X177279636Y-109069819D01*
X177279636Y-109069819D02*
X177279636Y-108069819D01*
X178089160Y-109069819D02*
X178089160Y-108069819D01*
X178660588Y-109069819D02*
X178232017Y-108498390D01*
X178660588Y-108069819D02*
X178089160Y-108641247D01*
X137041541Y-137469819D02*
X137660588Y-137469819D01*
X137660588Y-137469819D02*
X137327255Y-137850771D01*
X137327255Y-137850771D02*
X137470112Y-137850771D01*
X137470112Y-137850771D02*
X137565350Y-137898390D01*
X137565350Y-137898390D02*
X137612969Y-137946009D01*
X137612969Y-137946009D02*
X137660588Y-138041247D01*
X137660588Y-138041247D02*
X137660588Y-138279342D01*
X137660588Y-138279342D02*
X137612969Y-138374580D01*
X137612969Y-138374580D02*
X137565350Y-138422200D01*
X137565350Y-138422200D02*
X137470112Y-138469819D01*
X137470112Y-138469819D02*
X137184398Y-138469819D01*
X137184398Y-138469819D02*
X137089160Y-138422200D01*
X137089160Y-138422200D02*
X137041541Y-138374580D01*
X137946303Y-137469819D02*
X138279636Y-138469819D01*
X138279636Y-138469819D02*
X138612969Y-137469819D01*
X138851065Y-137469819D02*
X139470112Y-137469819D01*
X139470112Y-137469819D02*
X139136779Y-137850771D01*
X139136779Y-137850771D02*
X139279636Y-137850771D01*
X139279636Y-137850771D02*
X139374874Y-137898390D01*
X139374874Y-137898390D02*
X139422493Y-137946009D01*
X139422493Y-137946009D02*
X139470112Y-138041247D01*
X139470112Y-138041247D02*
X139470112Y-138279342D01*
X139470112Y-138279342D02*
X139422493Y-138374580D01*
X139422493Y-138374580D02*
X139374874Y-138422200D01*
X139374874Y-138422200D02*
X139279636Y-138469819D01*
X139279636Y-138469819D02*
X138993922Y-138469819D01*
X138993922Y-138469819D02*
X138898684Y-138422200D01*
X138898684Y-138422200D02*
X138851065Y-138374580D01*
X158309523Y-120596009D02*
X158452380Y-120643628D01*
X158452380Y-120643628D02*
X158499999Y-120691247D01*
X158499999Y-120691247D02*
X158547618Y-120786485D01*
X158547618Y-120786485D02*
X158547618Y-120929342D01*
X158547618Y-120929342D02*
X158499999Y-121024580D01*
X158499999Y-121024580D02*
X158452380Y-121072200D01*
X158452380Y-121072200D02*
X158357142Y-121119819D01*
X158357142Y-121119819D02*
X157976190Y-121119819D01*
X157976190Y-121119819D02*
X157976190Y-120119819D01*
X157976190Y-120119819D02*
X158309523Y-120119819D01*
X158309523Y-120119819D02*
X158404761Y-120167438D01*
X158404761Y-120167438D02*
X158452380Y-120215057D01*
X158452380Y-120215057D02*
X158499999Y-120310295D01*
X158499999Y-120310295D02*
X158499999Y-120405533D01*
X158499999Y-120405533D02*
X158452380Y-120500771D01*
X158452380Y-120500771D02*
X158404761Y-120548390D01*
X158404761Y-120548390D02*
X158309523Y-120596009D01*
X158309523Y-120596009D02*
X157976190Y-120596009D01*
X158833333Y-120119819D02*
X159404761Y-120119819D01*
X159119047Y-121119819D02*
X159119047Y-120119819D01*
X159738095Y-121119819D02*
X159738095Y-120119819D01*
X159738095Y-120119819D02*
X160309523Y-121119819D01*
X160309523Y-121119819D02*
X160309523Y-120119819D01*
X161452381Y-120119819D02*
X162071428Y-120119819D01*
X162071428Y-120119819D02*
X161738095Y-120500771D01*
X161738095Y-120500771D02*
X161880952Y-120500771D01*
X161880952Y-120500771D02*
X161976190Y-120548390D01*
X161976190Y-120548390D02*
X162023809Y-120596009D01*
X162023809Y-120596009D02*
X162071428Y-120691247D01*
X162071428Y-120691247D02*
X162071428Y-120929342D01*
X162071428Y-120929342D02*
X162023809Y-121024580D01*
X162023809Y-121024580D02*
X161976190Y-121072200D01*
X161976190Y-121072200D02*
X161880952Y-121119819D01*
X161880952Y-121119819D02*
X161595238Y-121119819D01*
X161595238Y-121119819D02*
X161500000Y-121072200D01*
X161500000Y-121072200D02*
X161452381Y-121024580D01*
X173812969Y-114969819D02*
X173336779Y-114969819D01*
X173336779Y-114969819D02*
X173336779Y-113969819D01*
X174717731Y-114874580D02*
X174670112Y-114922200D01*
X174670112Y-114922200D02*
X174527255Y-114969819D01*
X174527255Y-114969819D02*
X174432017Y-114969819D01*
X174432017Y-114969819D02*
X174289160Y-114922200D01*
X174289160Y-114922200D02*
X174193922Y-114826961D01*
X174193922Y-114826961D02*
X174146303Y-114731723D01*
X174146303Y-114731723D02*
X174098684Y-114541247D01*
X174098684Y-114541247D02*
X174098684Y-114398390D01*
X174098684Y-114398390D02*
X174146303Y-114207914D01*
X174146303Y-114207914D02*
X174193922Y-114112676D01*
X174193922Y-114112676D02*
X174289160Y-114017438D01*
X174289160Y-114017438D02*
X174432017Y-113969819D01*
X174432017Y-113969819D02*
X174527255Y-113969819D01*
X174527255Y-113969819D02*
X174670112Y-114017438D01*
X174670112Y-114017438D02*
X174717731Y-114065057D01*
X175146303Y-114969819D02*
X175146303Y-113969819D01*
X175146303Y-113969819D02*
X175384398Y-113969819D01*
X175384398Y-113969819D02*
X175527255Y-114017438D01*
X175527255Y-114017438D02*
X175622493Y-114112676D01*
X175622493Y-114112676D02*
X175670112Y-114207914D01*
X175670112Y-114207914D02*
X175717731Y-114398390D01*
X175717731Y-114398390D02*
X175717731Y-114541247D01*
X175717731Y-114541247D02*
X175670112Y-114731723D01*
X175670112Y-114731723D02*
X175622493Y-114826961D01*
X175622493Y-114826961D02*
X175527255Y-114922200D01*
X175527255Y-114922200D02*
X175384398Y-114969819D01*
X175384398Y-114969819D02*
X175146303Y-114969819D01*
X176908208Y-114969819D02*
X176908208Y-113969819D01*
X176908208Y-113969819D02*
X177146303Y-113969819D01*
X177146303Y-113969819D02*
X177289160Y-114017438D01*
X177289160Y-114017438D02*
X177384398Y-114112676D01*
X177384398Y-114112676D02*
X177432017Y-114207914D01*
X177432017Y-114207914D02*
X177479636Y-114398390D01*
X177479636Y-114398390D02*
X177479636Y-114541247D01*
X177479636Y-114541247D02*
X177432017Y-114731723D01*
X177432017Y-114731723D02*
X177384398Y-114826961D01*
X177384398Y-114826961D02*
X177289160Y-114922200D01*
X177289160Y-114922200D02*
X177146303Y-114969819D01*
X177146303Y-114969819D02*
X176908208Y-114969819D01*
X178479636Y-114874580D02*
X178432017Y-114922200D01*
X178432017Y-114922200D02*
X178289160Y-114969819D01*
X178289160Y-114969819D02*
X178193922Y-114969819D01*
X178193922Y-114969819D02*
X178051065Y-114922200D01*
X178051065Y-114922200D02*
X177955827Y-114826961D01*
X177955827Y-114826961D02*
X177908208Y-114731723D01*
X177908208Y-114731723D02*
X177860589Y-114541247D01*
X177860589Y-114541247D02*
X177860589Y-114398390D01*
X177860589Y-114398390D02*
X177908208Y-114207914D01*
X177908208Y-114207914D02*
X177955827Y-114112676D01*
X177955827Y-114112676D02*
X178051065Y-114017438D01*
X178051065Y-114017438D02*
X178193922Y-113969819D01*
X178193922Y-113969819D02*
X178289160Y-113969819D01*
X178289160Y-113969819D02*
X178432017Y-114017438D01*
X178432017Y-114017438D02*
X178479636Y-114065057D01*
X171712969Y-118069819D02*
X171236779Y-118069819D01*
X171236779Y-118069819D02*
X171236779Y-117069819D01*
X172617731Y-117974580D02*
X172570112Y-118022200D01*
X172570112Y-118022200D02*
X172427255Y-118069819D01*
X172427255Y-118069819D02*
X172332017Y-118069819D01*
X172332017Y-118069819D02*
X172189160Y-118022200D01*
X172189160Y-118022200D02*
X172093922Y-117926961D01*
X172093922Y-117926961D02*
X172046303Y-117831723D01*
X172046303Y-117831723D02*
X171998684Y-117641247D01*
X171998684Y-117641247D02*
X171998684Y-117498390D01*
X171998684Y-117498390D02*
X172046303Y-117307914D01*
X172046303Y-117307914D02*
X172093922Y-117212676D01*
X172093922Y-117212676D02*
X172189160Y-117117438D01*
X172189160Y-117117438D02*
X172332017Y-117069819D01*
X172332017Y-117069819D02*
X172427255Y-117069819D01*
X172427255Y-117069819D02*
X172570112Y-117117438D01*
X172570112Y-117117438D02*
X172617731Y-117165057D01*
X173046303Y-118069819D02*
X173046303Y-117069819D01*
X173046303Y-117069819D02*
X173284398Y-117069819D01*
X173284398Y-117069819D02*
X173427255Y-117117438D01*
X173427255Y-117117438D02*
X173522493Y-117212676D01*
X173522493Y-117212676D02*
X173570112Y-117307914D01*
X173570112Y-117307914D02*
X173617731Y-117498390D01*
X173617731Y-117498390D02*
X173617731Y-117641247D01*
X173617731Y-117641247D02*
X173570112Y-117831723D01*
X173570112Y-117831723D02*
X173522493Y-117926961D01*
X173522493Y-117926961D02*
X173427255Y-118022200D01*
X173427255Y-118022200D02*
X173284398Y-118069819D01*
X173284398Y-118069819D02*
X173046303Y-118069819D01*
X175379636Y-118069819D02*
X175046303Y-117593628D01*
X174808208Y-118069819D02*
X174808208Y-117069819D01*
X174808208Y-117069819D02*
X175189160Y-117069819D01*
X175189160Y-117069819D02*
X175284398Y-117117438D01*
X175284398Y-117117438D02*
X175332017Y-117165057D01*
X175332017Y-117165057D02*
X175379636Y-117260295D01*
X175379636Y-117260295D02*
X175379636Y-117403152D01*
X175379636Y-117403152D02*
X175332017Y-117498390D01*
X175332017Y-117498390D02*
X175284398Y-117546009D01*
X175284398Y-117546009D02*
X175189160Y-117593628D01*
X175189160Y-117593628D02*
X174808208Y-117593628D01*
X176189160Y-118022200D02*
X176093922Y-118069819D01*
X176093922Y-118069819D02*
X175903446Y-118069819D01*
X175903446Y-118069819D02*
X175808208Y-118022200D01*
X175808208Y-118022200D02*
X175760589Y-117926961D01*
X175760589Y-117926961D02*
X175760589Y-117546009D01*
X175760589Y-117546009D02*
X175808208Y-117450771D01*
X175808208Y-117450771D02*
X175903446Y-117403152D01*
X175903446Y-117403152D02*
X176093922Y-117403152D01*
X176093922Y-117403152D02*
X176189160Y-117450771D01*
X176189160Y-117450771D02*
X176236779Y-117546009D01*
X176236779Y-117546009D02*
X176236779Y-117641247D01*
X176236779Y-117641247D02*
X175760589Y-117736485D01*
X176617732Y-118022200D02*
X176712970Y-118069819D01*
X176712970Y-118069819D02*
X176903446Y-118069819D01*
X176903446Y-118069819D02*
X176998684Y-118022200D01*
X176998684Y-118022200D02*
X177046303Y-117926961D01*
X177046303Y-117926961D02*
X177046303Y-117879342D01*
X177046303Y-117879342D02*
X176998684Y-117784104D01*
X176998684Y-117784104D02*
X176903446Y-117736485D01*
X176903446Y-117736485D02*
X176760589Y-117736485D01*
X176760589Y-117736485D02*
X176665351Y-117688866D01*
X176665351Y-117688866D02*
X176617732Y-117593628D01*
X176617732Y-117593628D02*
X176617732Y-117546009D01*
X176617732Y-117546009D02*
X176665351Y-117450771D01*
X176665351Y-117450771D02*
X176760589Y-117403152D01*
X176760589Y-117403152D02*
X176903446Y-117403152D01*
X176903446Y-117403152D02*
X176998684Y-117450771D01*
X177855827Y-118022200D02*
X177760589Y-118069819D01*
X177760589Y-118069819D02*
X177570113Y-118069819D01*
X177570113Y-118069819D02*
X177474875Y-118022200D01*
X177474875Y-118022200D02*
X177427256Y-117926961D01*
X177427256Y-117926961D02*
X177427256Y-117546009D01*
X177427256Y-117546009D02*
X177474875Y-117450771D01*
X177474875Y-117450771D02*
X177570113Y-117403152D01*
X177570113Y-117403152D02*
X177760589Y-117403152D01*
X177760589Y-117403152D02*
X177855827Y-117450771D01*
X177855827Y-117450771D02*
X177903446Y-117546009D01*
X177903446Y-117546009D02*
X177903446Y-117641247D01*
X177903446Y-117641247D02*
X177427256Y-117736485D01*
X178189161Y-117403152D02*
X178570113Y-117403152D01*
X178332018Y-117069819D02*
X178332018Y-117926961D01*
X178332018Y-117926961D02*
X178379637Y-118022200D01*
X178379637Y-118022200D02*
X178474875Y-118069819D01*
X178474875Y-118069819D02*
X178570113Y-118069819D01*
X175941541Y-125969819D02*
X176560588Y-125969819D01*
X176560588Y-125969819D02*
X176227255Y-126350771D01*
X176227255Y-126350771D02*
X176370112Y-126350771D01*
X176370112Y-126350771D02*
X176465350Y-126398390D01*
X176465350Y-126398390D02*
X176512969Y-126446009D01*
X176512969Y-126446009D02*
X176560588Y-126541247D01*
X176560588Y-126541247D02*
X176560588Y-126779342D01*
X176560588Y-126779342D02*
X176512969Y-126874580D01*
X176512969Y-126874580D02*
X176465350Y-126922200D01*
X176465350Y-126922200D02*
X176370112Y-126969819D01*
X176370112Y-126969819D02*
X176084398Y-126969819D01*
X176084398Y-126969819D02*
X175989160Y-126922200D01*
X175989160Y-126922200D02*
X175941541Y-126874580D01*
X176846303Y-125969819D02*
X177179636Y-126969819D01*
X177179636Y-126969819D02*
X177512969Y-125969819D01*
X177751065Y-125969819D02*
X178370112Y-125969819D01*
X178370112Y-125969819D02*
X178036779Y-126350771D01*
X178036779Y-126350771D02*
X178179636Y-126350771D01*
X178179636Y-126350771D02*
X178274874Y-126398390D01*
X178274874Y-126398390D02*
X178322493Y-126446009D01*
X178322493Y-126446009D02*
X178370112Y-126541247D01*
X178370112Y-126541247D02*
X178370112Y-126779342D01*
X178370112Y-126779342D02*
X178322493Y-126874580D01*
X178322493Y-126874580D02*
X178274874Y-126922200D01*
X178274874Y-126922200D02*
X178179636Y-126969819D01*
X178179636Y-126969819D02*
X177893922Y-126969819D01*
X177893922Y-126969819D02*
X177798684Y-126922200D01*
X177798684Y-126922200D02*
X177751065Y-126874580D01*
X172089160Y-111722200D02*
X172232017Y-111769819D01*
X172232017Y-111769819D02*
X172470112Y-111769819D01*
X172470112Y-111769819D02*
X172565350Y-111722200D01*
X172565350Y-111722200D02*
X172612969Y-111674580D01*
X172612969Y-111674580D02*
X172660588Y-111579342D01*
X172660588Y-111579342D02*
X172660588Y-111484104D01*
X172660588Y-111484104D02*
X172612969Y-111388866D01*
X172612969Y-111388866D02*
X172565350Y-111341247D01*
X172565350Y-111341247D02*
X172470112Y-111293628D01*
X172470112Y-111293628D02*
X172279636Y-111246009D01*
X172279636Y-111246009D02*
X172184398Y-111198390D01*
X172184398Y-111198390D02*
X172136779Y-111150771D01*
X172136779Y-111150771D02*
X172089160Y-111055533D01*
X172089160Y-111055533D02*
X172089160Y-110960295D01*
X172089160Y-110960295D02*
X172136779Y-110865057D01*
X172136779Y-110865057D02*
X172184398Y-110817438D01*
X172184398Y-110817438D02*
X172279636Y-110769819D01*
X172279636Y-110769819D02*
X172517731Y-110769819D01*
X172517731Y-110769819D02*
X172660588Y-110817438D01*
X173089160Y-111769819D02*
X173089160Y-110769819D01*
X173089160Y-110769819D02*
X173470112Y-110769819D01*
X173470112Y-110769819D02*
X173565350Y-110817438D01*
X173565350Y-110817438D02*
X173612969Y-110865057D01*
X173612969Y-110865057D02*
X173660588Y-110960295D01*
X173660588Y-110960295D02*
X173660588Y-111103152D01*
X173660588Y-111103152D02*
X173612969Y-111198390D01*
X173612969Y-111198390D02*
X173565350Y-111246009D01*
X173565350Y-111246009D02*
X173470112Y-111293628D01*
X173470112Y-111293628D02*
X173089160Y-111293628D01*
X174089160Y-111769819D02*
X174089160Y-110769819D01*
X175898683Y-111674580D02*
X175851064Y-111722200D01*
X175851064Y-111722200D02*
X175708207Y-111769819D01*
X175708207Y-111769819D02*
X175612969Y-111769819D01*
X175612969Y-111769819D02*
X175470112Y-111722200D01*
X175470112Y-111722200D02*
X175374874Y-111626961D01*
X175374874Y-111626961D02*
X175327255Y-111531723D01*
X175327255Y-111531723D02*
X175279636Y-111341247D01*
X175279636Y-111341247D02*
X175279636Y-111198390D01*
X175279636Y-111198390D02*
X175327255Y-111007914D01*
X175327255Y-111007914D02*
X175374874Y-110912676D01*
X175374874Y-110912676D02*
X175470112Y-110817438D01*
X175470112Y-110817438D02*
X175612969Y-110769819D01*
X175612969Y-110769819D02*
X175708207Y-110769819D01*
X175708207Y-110769819D02*
X175851064Y-110817438D01*
X175851064Y-110817438D02*
X175898683Y-110865057D01*
X176517731Y-110769819D02*
X176708207Y-110769819D01*
X176708207Y-110769819D02*
X176803445Y-110817438D01*
X176803445Y-110817438D02*
X176898683Y-110912676D01*
X176898683Y-110912676D02*
X176946302Y-111103152D01*
X176946302Y-111103152D02*
X176946302Y-111436485D01*
X176946302Y-111436485D02*
X176898683Y-111626961D01*
X176898683Y-111626961D02*
X176803445Y-111722200D01*
X176803445Y-111722200D02*
X176708207Y-111769819D01*
X176708207Y-111769819D02*
X176517731Y-111769819D01*
X176517731Y-111769819D02*
X176422493Y-111722200D01*
X176422493Y-111722200D02*
X176327255Y-111626961D01*
X176327255Y-111626961D02*
X176279636Y-111436485D01*
X176279636Y-111436485D02*
X176279636Y-111103152D01*
X176279636Y-111103152D02*
X176327255Y-110912676D01*
X176327255Y-110912676D02*
X176422493Y-110817438D01*
X176422493Y-110817438D02*
X176517731Y-110769819D01*
X177374874Y-111769819D02*
X177374874Y-110769819D01*
X177374874Y-110769819D02*
X177755826Y-110769819D01*
X177755826Y-110769819D02*
X177851064Y-110817438D01*
X177851064Y-110817438D02*
X177898683Y-110865057D01*
X177898683Y-110865057D02*
X177946302Y-110960295D01*
X177946302Y-110960295D02*
X177946302Y-111103152D01*
X177946302Y-111103152D02*
X177898683Y-111198390D01*
X177898683Y-111198390D02*
X177851064Y-111246009D01*
X177851064Y-111246009D02*
X177755826Y-111293628D01*
X177755826Y-111293628D02*
X177374874Y-111293628D01*
X178374874Y-111769819D02*
X178374874Y-110769819D01*
X184341541Y-96769819D02*
X185008207Y-97769819D01*
X185008207Y-96769819D02*
X184341541Y-97769819D01*
X153689160Y-130422200D02*
X153832017Y-130469819D01*
X153832017Y-130469819D02*
X154070112Y-130469819D01*
X154070112Y-130469819D02*
X154165350Y-130422200D01*
X154165350Y-130422200D02*
X154212969Y-130374580D01*
X154212969Y-130374580D02*
X154260588Y-130279342D01*
X154260588Y-130279342D02*
X154260588Y-130184104D01*
X154260588Y-130184104D02*
X154212969Y-130088866D01*
X154212969Y-130088866D02*
X154165350Y-130041247D01*
X154165350Y-130041247D02*
X154070112Y-129993628D01*
X154070112Y-129993628D02*
X153879636Y-129946009D01*
X153879636Y-129946009D02*
X153784398Y-129898390D01*
X153784398Y-129898390D02*
X153736779Y-129850771D01*
X153736779Y-129850771D02*
X153689160Y-129755533D01*
X153689160Y-129755533D02*
X153689160Y-129660295D01*
X153689160Y-129660295D02*
X153736779Y-129565057D01*
X153736779Y-129565057D02*
X153784398Y-129517438D01*
X153784398Y-129517438D02*
X153879636Y-129469819D01*
X153879636Y-129469819D02*
X154117731Y-129469819D01*
X154117731Y-129469819D02*
X154260588Y-129517438D01*
X154689160Y-130469819D02*
X154689160Y-129469819D01*
X154689160Y-129469819D02*
X155070112Y-129469819D01*
X155070112Y-129469819D02*
X155165350Y-129517438D01*
X155165350Y-129517438D02*
X155212969Y-129565057D01*
X155212969Y-129565057D02*
X155260588Y-129660295D01*
X155260588Y-129660295D02*
X155260588Y-129803152D01*
X155260588Y-129803152D02*
X155212969Y-129898390D01*
X155212969Y-129898390D02*
X155165350Y-129946009D01*
X155165350Y-129946009D02*
X155070112Y-129993628D01*
X155070112Y-129993628D02*
X154689160Y-129993628D01*
X155689160Y-130469819D02*
X155689160Y-129469819D01*
X156070112Y-129469819D02*
X156689159Y-129469819D01*
X156689159Y-129469819D02*
X156355826Y-129850771D01*
X156355826Y-129850771D02*
X156498683Y-129850771D01*
X156498683Y-129850771D02*
X156593921Y-129898390D01*
X156593921Y-129898390D02*
X156641540Y-129946009D01*
X156641540Y-129946009D02*
X156689159Y-130041247D01*
X156689159Y-130041247D02*
X156689159Y-130279342D01*
X156689159Y-130279342D02*
X156641540Y-130374580D01*
X156641540Y-130374580D02*
X156593921Y-130422200D01*
X156593921Y-130422200D02*
X156498683Y-130469819D01*
X156498683Y-130469819D02*
X156212969Y-130469819D01*
X156212969Y-130469819D02*
X156117731Y-130422200D01*
X156117731Y-130422200D02*
X156070112Y-130374580D01*
X158451064Y-130374580D02*
X158403445Y-130422200D01*
X158403445Y-130422200D02*
X158260588Y-130469819D01*
X158260588Y-130469819D02*
X158165350Y-130469819D01*
X158165350Y-130469819D02*
X158022493Y-130422200D01*
X158022493Y-130422200D02*
X157927255Y-130326961D01*
X157927255Y-130326961D02*
X157879636Y-130231723D01*
X157879636Y-130231723D02*
X157832017Y-130041247D01*
X157832017Y-130041247D02*
X157832017Y-129898390D01*
X157832017Y-129898390D02*
X157879636Y-129707914D01*
X157879636Y-129707914D02*
X157927255Y-129612676D01*
X157927255Y-129612676D02*
X158022493Y-129517438D01*
X158022493Y-129517438D02*
X158165350Y-129469819D01*
X158165350Y-129469819D02*
X158260588Y-129469819D01*
X158260588Y-129469819D02*
X158403445Y-129517438D01*
X158403445Y-129517438D02*
X158451064Y-129565057D01*
X159070112Y-129469819D02*
X159260588Y-129469819D01*
X159260588Y-129469819D02*
X159355826Y-129517438D01*
X159355826Y-129517438D02*
X159451064Y-129612676D01*
X159451064Y-129612676D02*
X159498683Y-129803152D01*
X159498683Y-129803152D02*
X159498683Y-130136485D01*
X159498683Y-130136485D02*
X159451064Y-130326961D01*
X159451064Y-130326961D02*
X159355826Y-130422200D01*
X159355826Y-130422200D02*
X159260588Y-130469819D01*
X159260588Y-130469819D02*
X159070112Y-130469819D01*
X159070112Y-130469819D02*
X158974874Y-130422200D01*
X158974874Y-130422200D02*
X158879636Y-130326961D01*
X158879636Y-130326961D02*
X158832017Y-130136485D01*
X158832017Y-130136485D02*
X158832017Y-129803152D01*
X158832017Y-129803152D02*
X158879636Y-129612676D01*
X158879636Y-129612676D02*
X158974874Y-129517438D01*
X158974874Y-129517438D02*
X159070112Y-129469819D01*
X159927255Y-130469819D02*
X159927255Y-129469819D01*
X159927255Y-129469819D02*
X160308207Y-129469819D01*
X160308207Y-129469819D02*
X160403445Y-129517438D01*
X160403445Y-129517438D02*
X160451064Y-129565057D01*
X160451064Y-129565057D02*
X160498683Y-129660295D01*
X160498683Y-129660295D02*
X160498683Y-129803152D01*
X160498683Y-129803152D02*
X160451064Y-129898390D01*
X160451064Y-129898390D02*
X160403445Y-129946009D01*
X160403445Y-129946009D02*
X160308207Y-129993628D01*
X160308207Y-129993628D02*
X159927255Y-129993628D01*
X160927255Y-130469819D02*
X160927255Y-129469819D01*
X167212969Y-106469819D02*
X166736779Y-106469819D01*
X166736779Y-106469819D02*
X166736779Y-105469819D01*
X168117731Y-106374580D02*
X168070112Y-106422200D01*
X168070112Y-106422200D02*
X167927255Y-106469819D01*
X167927255Y-106469819D02*
X167832017Y-106469819D01*
X167832017Y-106469819D02*
X167689160Y-106422200D01*
X167689160Y-106422200D02*
X167593922Y-106326961D01*
X167593922Y-106326961D02*
X167546303Y-106231723D01*
X167546303Y-106231723D02*
X167498684Y-106041247D01*
X167498684Y-106041247D02*
X167498684Y-105898390D01*
X167498684Y-105898390D02*
X167546303Y-105707914D01*
X167546303Y-105707914D02*
X167593922Y-105612676D01*
X167593922Y-105612676D02*
X167689160Y-105517438D01*
X167689160Y-105517438D02*
X167832017Y-105469819D01*
X167832017Y-105469819D02*
X167927255Y-105469819D01*
X167927255Y-105469819D02*
X168070112Y-105517438D01*
X168070112Y-105517438D02*
X168117731Y-105565057D01*
X168546303Y-106469819D02*
X168546303Y-105469819D01*
X168546303Y-105469819D02*
X168784398Y-105469819D01*
X168784398Y-105469819D02*
X168927255Y-105517438D01*
X168927255Y-105517438D02*
X169022493Y-105612676D01*
X169022493Y-105612676D02*
X169070112Y-105707914D01*
X169070112Y-105707914D02*
X169117731Y-105898390D01*
X169117731Y-105898390D02*
X169117731Y-106041247D01*
X169117731Y-106041247D02*
X169070112Y-106231723D01*
X169070112Y-106231723D02*
X169022493Y-106326961D01*
X169022493Y-106326961D02*
X168927255Y-106422200D01*
X168927255Y-106422200D02*
X168784398Y-106469819D01*
X168784398Y-106469819D02*
X168546303Y-106469819D01*
X170784398Y-106469819D02*
X170308208Y-106469819D01*
X170308208Y-106469819D02*
X170308208Y-105469819D01*
X171117732Y-105946009D02*
X171451065Y-105946009D01*
X171593922Y-106469819D02*
X171117732Y-106469819D01*
X171117732Y-106469819D02*
X171117732Y-105469819D01*
X171117732Y-105469819D02*
X171593922Y-105469819D01*
X172022494Y-106469819D02*
X172022494Y-105469819D01*
X172022494Y-105469819D02*
X172260589Y-105469819D01*
X172260589Y-105469819D02*
X172403446Y-105517438D01*
X172403446Y-105517438D02*
X172498684Y-105612676D01*
X172498684Y-105612676D02*
X172546303Y-105707914D01*
X172546303Y-105707914D02*
X172593922Y-105898390D01*
X172593922Y-105898390D02*
X172593922Y-106041247D01*
X172593922Y-106041247D02*
X172546303Y-106231723D01*
X172546303Y-106231723D02*
X172498684Y-106326961D01*
X172498684Y-106326961D02*
X172403446Y-106422200D01*
X172403446Y-106422200D02*
X172260589Y-106469819D01*
X172260589Y-106469819D02*
X172022494Y-106469819D01*
X145760588Y-134917438D02*
X145665350Y-134869819D01*
X145665350Y-134869819D02*
X145522493Y-134869819D01*
X145522493Y-134869819D02*
X145379636Y-134917438D01*
X145379636Y-134917438D02*
X145284398Y-135012676D01*
X145284398Y-135012676D02*
X145236779Y-135107914D01*
X145236779Y-135107914D02*
X145189160Y-135298390D01*
X145189160Y-135298390D02*
X145189160Y-135441247D01*
X145189160Y-135441247D02*
X145236779Y-135631723D01*
X145236779Y-135631723D02*
X145284398Y-135726961D01*
X145284398Y-135726961D02*
X145379636Y-135822200D01*
X145379636Y-135822200D02*
X145522493Y-135869819D01*
X145522493Y-135869819D02*
X145617731Y-135869819D01*
X145617731Y-135869819D02*
X145760588Y-135822200D01*
X145760588Y-135822200D02*
X145808207Y-135774580D01*
X145808207Y-135774580D02*
X145808207Y-135441247D01*
X145808207Y-135441247D02*
X145617731Y-135441247D01*
X146236779Y-135869819D02*
X146236779Y-134869819D01*
X146236779Y-134869819D02*
X146808207Y-135869819D01*
X146808207Y-135869819D02*
X146808207Y-134869819D01*
X147284398Y-135869819D02*
X147284398Y-134869819D01*
X147284398Y-134869819D02*
X147522493Y-134869819D01*
X147522493Y-134869819D02*
X147665350Y-134917438D01*
X147665350Y-134917438D02*
X147760588Y-135012676D01*
X147760588Y-135012676D02*
X147808207Y-135107914D01*
X147808207Y-135107914D02*
X147855826Y-135298390D01*
X147855826Y-135298390D02*
X147855826Y-135441247D01*
X147855826Y-135441247D02*
X147808207Y-135631723D01*
X147808207Y-135631723D02*
X147760588Y-135726961D01*
X147760588Y-135726961D02*
X147665350Y-135822200D01*
X147665350Y-135822200D02*
X147522493Y-135869819D01*
X147522493Y-135869819D02*
X147284398Y-135869819D01*
X113693922Y-94069819D02*
X114265350Y-94069819D01*
X113979636Y-95069819D02*
X113979636Y-94069819D01*
X114503446Y-94069819D02*
X115170112Y-95069819D01*
X115170112Y-94069819D02*
X114503446Y-95069819D01*
X139508207Y-132369819D02*
X139174874Y-131893628D01*
X138936779Y-132369819D02*
X138936779Y-131369819D01*
X138936779Y-131369819D02*
X139317731Y-131369819D01*
X139317731Y-131369819D02*
X139412969Y-131417438D01*
X139412969Y-131417438D02*
X139460588Y-131465057D01*
X139460588Y-131465057D02*
X139508207Y-131560295D01*
X139508207Y-131560295D02*
X139508207Y-131703152D01*
X139508207Y-131703152D02*
X139460588Y-131798390D01*
X139460588Y-131798390D02*
X139412969Y-131846009D01*
X139412969Y-131846009D02*
X139317731Y-131893628D01*
X139317731Y-131893628D02*
X138936779Y-131893628D01*
X140270112Y-131846009D02*
X139936779Y-131846009D01*
X139936779Y-132369819D02*
X139936779Y-131369819D01*
X139936779Y-131369819D02*
X140412969Y-131369819D01*
X140793922Y-132369819D02*
X140793922Y-131369819D01*
X141270112Y-132369819D02*
X141270112Y-131369819D01*
X141270112Y-131369819D02*
X141508207Y-131369819D01*
X141508207Y-131369819D02*
X141651064Y-131417438D01*
X141651064Y-131417438D02*
X141746302Y-131512676D01*
X141746302Y-131512676D02*
X141793921Y-131607914D01*
X141793921Y-131607914D02*
X141841540Y-131798390D01*
X141841540Y-131798390D02*
X141841540Y-131941247D01*
X141841540Y-131941247D02*
X141793921Y-132131723D01*
X141793921Y-132131723D02*
X141746302Y-132226961D01*
X141746302Y-132226961D02*
X141651064Y-132322200D01*
X141651064Y-132322200D02*
X141508207Y-132369819D01*
X141508207Y-132369819D02*
X141270112Y-132369819D01*
X143032017Y-132369819D02*
X143032017Y-131369819D01*
X144079635Y-132369819D02*
X143746302Y-131893628D01*
X143508207Y-132369819D02*
X143508207Y-131369819D01*
X143508207Y-131369819D02*
X143889159Y-131369819D01*
X143889159Y-131369819D02*
X143984397Y-131417438D01*
X143984397Y-131417438D02*
X144032016Y-131465057D01*
X144032016Y-131465057D02*
X144079635Y-131560295D01*
X144079635Y-131560295D02*
X144079635Y-131703152D01*
X144079635Y-131703152D02*
X144032016Y-131798390D01*
X144032016Y-131798390D02*
X143984397Y-131846009D01*
X143984397Y-131846009D02*
X143889159Y-131893628D01*
X143889159Y-131893628D02*
X143508207Y-131893628D01*
X145174873Y-132465057D02*
X145079635Y-132417438D01*
X145079635Y-132417438D02*
X144984397Y-132322200D01*
X144984397Y-132322200D02*
X144841540Y-132179342D01*
X144841540Y-132179342D02*
X144746302Y-132131723D01*
X144746302Y-132131723D02*
X144651064Y-132131723D01*
X144698683Y-132369819D02*
X144603445Y-132322200D01*
X144603445Y-132322200D02*
X144508207Y-132226961D01*
X144508207Y-132226961D02*
X144460588Y-132036485D01*
X144460588Y-132036485D02*
X144460588Y-131703152D01*
X144460588Y-131703152D02*
X144508207Y-131512676D01*
X144508207Y-131512676D02*
X144603445Y-131417438D01*
X144603445Y-131417438D02*
X144698683Y-131369819D01*
X144698683Y-131369819D02*
X144889159Y-131369819D01*
X144889159Y-131369819D02*
X144984397Y-131417438D01*
X144984397Y-131417438D02*
X145079635Y-131512676D01*
X145079635Y-131512676D02*
X145127254Y-131703152D01*
X145127254Y-131703152D02*
X145127254Y-132036485D01*
X145127254Y-132036485D02*
X145079635Y-132226961D01*
X145079635Y-132226961D02*
X144984397Y-132322200D01*
X144984397Y-132322200D02*
X144889159Y-132369819D01*
X144889159Y-132369819D02*
X144698683Y-132369819D01*
X113936779Y-65436065D02*
X114270112Y-65436065D01*
X114412969Y-65959875D02*
X113936779Y-65959875D01*
X113936779Y-65959875D02*
X113936779Y-64959875D01*
X113936779Y-64959875D02*
X114412969Y-64959875D01*
X114793922Y-65912256D02*
X114936779Y-65959875D01*
X114936779Y-65959875D02*
X115174874Y-65959875D01*
X115174874Y-65959875D02*
X115270112Y-65912256D01*
X115270112Y-65912256D02*
X115317731Y-65864636D01*
X115317731Y-65864636D02*
X115365350Y-65769398D01*
X115365350Y-65769398D02*
X115365350Y-65674160D01*
X115365350Y-65674160D02*
X115317731Y-65578922D01*
X115317731Y-65578922D02*
X115270112Y-65531303D01*
X115270112Y-65531303D02*
X115174874Y-65483684D01*
X115174874Y-65483684D02*
X114984398Y-65436065D01*
X114984398Y-65436065D02*
X114889160Y-65388446D01*
X114889160Y-65388446D02*
X114841541Y-65340827D01*
X114841541Y-65340827D02*
X114793922Y-65245589D01*
X114793922Y-65245589D02*
X114793922Y-65150351D01*
X114793922Y-65150351D02*
X114841541Y-65055113D01*
X114841541Y-65055113D02*
X114889160Y-65007494D01*
X114889160Y-65007494D02*
X114984398Y-64959875D01*
X114984398Y-64959875D02*
X115222493Y-64959875D01*
X115222493Y-64959875D02*
X115365350Y-65007494D01*
X115793922Y-65959875D02*
X115793922Y-64959875D01*
X115793922Y-64959875D02*
X116174874Y-64959875D01*
X116174874Y-64959875D02*
X116270112Y-65007494D01*
X116270112Y-65007494D02*
X116317731Y-65055113D01*
X116317731Y-65055113D02*
X116365350Y-65150351D01*
X116365350Y-65150351D02*
X116365350Y-65293208D01*
X116365350Y-65293208D02*
X116317731Y-65388446D01*
X116317731Y-65388446D02*
X116270112Y-65436065D01*
X116270112Y-65436065D02*
X116174874Y-65483684D01*
X116174874Y-65483684D02*
X115793922Y-65483684D01*
X116698684Y-64959875D02*
X117317731Y-64959875D01*
X117317731Y-64959875D02*
X116984398Y-65340827D01*
X116984398Y-65340827D02*
X117127255Y-65340827D01*
X117127255Y-65340827D02*
X117222493Y-65388446D01*
X117222493Y-65388446D02*
X117270112Y-65436065D01*
X117270112Y-65436065D02*
X117317731Y-65531303D01*
X117317731Y-65531303D02*
X117317731Y-65769398D01*
X117317731Y-65769398D02*
X117270112Y-65864636D01*
X117270112Y-65864636D02*
X117222493Y-65912256D01*
X117222493Y-65912256D02*
X117127255Y-65959875D01*
X117127255Y-65959875D02*
X116841541Y-65959875D01*
X116841541Y-65959875D02*
X116746303Y-65912256D01*
X116746303Y-65912256D02*
X116698684Y-65864636D01*
X117698684Y-65055113D02*
X117746303Y-65007494D01*
X117746303Y-65007494D02*
X117841541Y-64959875D01*
X117841541Y-64959875D02*
X118079636Y-64959875D01*
X118079636Y-64959875D02*
X118174874Y-65007494D01*
X118174874Y-65007494D02*
X118222493Y-65055113D01*
X118222493Y-65055113D02*
X118270112Y-65150351D01*
X118270112Y-65150351D02*
X118270112Y-65245589D01*
X118270112Y-65245589D02*
X118222493Y-65388446D01*
X118222493Y-65388446D02*
X117651065Y-65959875D01*
X117651065Y-65959875D02*
X118270112Y-65959875D01*
X113936779Y-67046009D02*
X114270112Y-67046009D01*
X114412969Y-67569819D02*
X113936779Y-67569819D01*
X113936779Y-67569819D02*
X113936779Y-66569819D01*
X113936779Y-66569819D02*
X114412969Y-66569819D01*
X114841541Y-66903152D02*
X114841541Y-67569819D01*
X114841541Y-66998390D02*
X114889160Y-66950771D01*
X114889160Y-66950771D02*
X114984398Y-66903152D01*
X114984398Y-66903152D02*
X115127255Y-66903152D01*
X115127255Y-66903152D02*
X115222493Y-66950771D01*
X115222493Y-66950771D02*
X115270112Y-67046009D01*
X115270112Y-67046009D02*
X115270112Y-67569819D01*
X116174874Y-67569819D02*
X116174874Y-67046009D01*
X116174874Y-67046009D02*
X116127255Y-66950771D01*
X116127255Y-66950771D02*
X116032017Y-66903152D01*
X116032017Y-66903152D02*
X115841541Y-66903152D01*
X115841541Y-66903152D02*
X115746303Y-66950771D01*
X116174874Y-67522200D02*
X116079636Y-67569819D01*
X116079636Y-67569819D02*
X115841541Y-67569819D01*
X115841541Y-67569819D02*
X115746303Y-67522200D01*
X115746303Y-67522200D02*
X115698684Y-67426961D01*
X115698684Y-67426961D02*
X115698684Y-67331723D01*
X115698684Y-67331723D02*
X115746303Y-67236485D01*
X115746303Y-67236485D02*
X115841541Y-67188866D01*
X115841541Y-67188866D02*
X116079636Y-67188866D01*
X116079636Y-67188866D02*
X116174874Y-67141247D01*
X116651065Y-67569819D02*
X116651065Y-66569819D01*
X116651065Y-66950771D02*
X116746303Y-66903152D01*
X116746303Y-66903152D02*
X116936779Y-66903152D01*
X116936779Y-66903152D02*
X117032017Y-66950771D01*
X117032017Y-66950771D02*
X117079636Y-66998390D01*
X117079636Y-66998390D02*
X117127255Y-67093628D01*
X117127255Y-67093628D02*
X117127255Y-67379342D01*
X117127255Y-67379342D02*
X117079636Y-67474580D01*
X117079636Y-67474580D02*
X117032017Y-67522200D01*
X117032017Y-67522200D02*
X116936779Y-67569819D01*
X116936779Y-67569819D02*
X116746303Y-67569819D01*
X116746303Y-67569819D02*
X116651065Y-67522200D01*
X117698684Y-67569819D02*
X117603446Y-67522200D01*
X117603446Y-67522200D02*
X117555827Y-67426961D01*
X117555827Y-67426961D02*
X117555827Y-66569819D01*
X118460589Y-67522200D02*
X118365351Y-67569819D01*
X118365351Y-67569819D02*
X118174875Y-67569819D01*
X118174875Y-67569819D02*
X118079637Y-67522200D01*
X118079637Y-67522200D02*
X118032018Y-67426961D01*
X118032018Y-67426961D02*
X118032018Y-67046009D01*
X118032018Y-67046009D02*
X118079637Y-66950771D01*
X118079637Y-66950771D02*
X118174875Y-66903152D01*
X118174875Y-66903152D02*
X118365351Y-66903152D01*
X118365351Y-66903152D02*
X118460589Y-66950771D01*
X118460589Y-66950771D02*
X118508208Y-67046009D01*
X118508208Y-67046009D02*
X118508208Y-67141247D01*
X118508208Y-67141247D02*
X118032018Y-67236485D01*
X169889160Y-91722200D02*
X170032017Y-91769819D01*
X170032017Y-91769819D02*
X170270112Y-91769819D01*
X170270112Y-91769819D02*
X170365350Y-91722200D01*
X170365350Y-91722200D02*
X170412969Y-91674580D01*
X170412969Y-91674580D02*
X170460588Y-91579342D01*
X170460588Y-91579342D02*
X170460588Y-91484104D01*
X170460588Y-91484104D02*
X170412969Y-91388866D01*
X170412969Y-91388866D02*
X170365350Y-91341247D01*
X170365350Y-91341247D02*
X170270112Y-91293628D01*
X170270112Y-91293628D02*
X170079636Y-91246009D01*
X170079636Y-91246009D02*
X169984398Y-91198390D01*
X169984398Y-91198390D02*
X169936779Y-91150771D01*
X169936779Y-91150771D02*
X169889160Y-91055533D01*
X169889160Y-91055533D02*
X169889160Y-90960295D01*
X169889160Y-90960295D02*
X169936779Y-90865057D01*
X169936779Y-90865057D02*
X169984398Y-90817438D01*
X169984398Y-90817438D02*
X170079636Y-90769819D01*
X170079636Y-90769819D02*
X170317731Y-90769819D01*
X170317731Y-90769819D02*
X170460588Y-90817438D01*
X170889160Y-91769819D02*
X170889160Y-90769819D01*
X170889160Y-90769819D02*
X171270112Y-90769819D01*
X171270112Y-90769819D02*
X171365350Y-90817438D01*
X171365350Y-90817438D02*
X171412969Y-90865057D01*
X171412969Y-90865057D02*
X171460588Y-90960295D01*
X171460588Y-90960295D02*
X171460588Y-91103152D01*
X171460588Y-91103152D02*
X171412969Y-91198390D01*
X171412969Y-91198390D02*
X171365350Y-91246009D01*
X171365350Y-91246009D02*
X171270112Y-91293628D01*
X171270112Y-91293628D02*
X170889160Y-91293628D01*
X171889160Y-91769819D02*
X171889160Y-90769819D01*
X172270112Y-90769819D02*
X172889159Y-90769819D01*
X172889159Y-90769819D02*
X172555826Y-91150771D01*
X172555826Y-91150771D02*
X172698683Y-91150771D01*
X172698683Y-91150771D02*
X172793921Y-91198390D01*
X172793921Y-91198390D02*
X172841540Y-91246009D01*
X172841540Y-91246009D02*
X172889159Y-91341247D01*
X172889159Y-91341247D02*
X172889159Y-91579342D01*
X172889159Y-91579342D02*
X172841540Y-91674580D01*
X172841540Y-91674580D02*
X172793921Y-91722200D01*
X172793921Y-91722200D02*
X172698683Y-91769819D01*
X172698683Y-91769819D02*
X172412969Y-91769819D01*
X172412969Y-91769819D02*
X172317731Y-91722200D01*
X172317731Y-91722200D02*
X172270112Y-91674580D01*
X174651064Y-91674580D02*
X174603445Y-91722200D01*
X174603445Y-91722200D02*
X174460588Y-91769819D01*
X174460588Y-91769819D02*
X174365350Y-91769819D01*
X174365350Y-91769819D02*
X174222493Y-91722200D01*
X174222493Y-91722200D02*
X174127255Y-91626961D01*
X174127255Y-91626961D02*
X174079636Y-91531723D01*
X174079636Y-91531723D02*
X174032017Y-91341247D01*
X174032017Y-91341247D02*
X174032017Y-91198390D01*
X174032017Y-91198390D02*
X174079636Y-91007914D01*
X174079636Y-91007914D02*
X174127255Y-90912676D01*
X174127255Y-90912676D02*
X174222493Y-90817438D01*
X174222493Y-90817438D02*
X174365350Y-90769819D01*
X174365350Y-90769819D02*
X174460588Y-90769819D01*
X174460588Y-90769819D02*
X174603445Y-90817438D01*
X174603445Y-90817438D02*
X174651064Y-90865057D01*
X175079636Y-91769819D02*
X175079636Y-90769819D01*
X175555826Y-91769819D02*
X175555826Y-90769819D01*
X175555826Y-90769819D02*
X175936778Y-90769819D01*
X175936778Y-90769819D02*
X176032016Y-90817438D01*
X176032016Y-90817438D02*
X176079635Y-90865057D01*
X176079635Y-90865057D02*
X176127254Y-90960295D01*
X176127254Y-90960295D02*
X176127254Y-91103152D01*
X176127254Y-91103152D02*
X176079635Y-91198390D01*
X176079635Y-91198390D02*
X176032016Y-91246009D01*
X176032016Y-91246009D02*
X175936778Y-91293628D01*
X175936778Y-91293628D02*
X175555826Y-91293628D01*
X176746302Y-90769819D02*
X176936778Y-90769819D01*
X176936778Y-90769819D02*
X177032016Y-90817438D01*
X177032016Y-90817438D02*
X177127254Y-90912676D01*
X177127254Y-90912676D02*
X177174873Y-91103152D01*
X177174873Y-91103152D02*
X177174873Y-91436485D01*
X177174873Y-91436485D02*
X177127254Y-91626961D01*
X177127254Y-91626961D02*
X177032016Y-91722200D01*
X177032016Y-91722200D02*
X176936778Y-91769819D01*
X176936778Y-91769819D02*
X176746302Y-91769819D01*
X176746302Y-91769819D02*
X176651064Y-91722200D01*
X176651064Y-91722200D02*
X176555826Y-91626961D01*
X176555826Y-91626961D02*
X176508207Y-91436485D01*
X176508207Y-91436485D02*
X176508207Y-91103152D01*
X176508207Y-91103152D02*
X176555826Y-90912676D01*
X176555826Y-90912676D02*
X176651064Y-90817438D01*
X176651064Y-90817438D02*
X176746302Y-90769819D01*
X174012969Y-120969819D02*
X173536779Y-120969819D01*
X173536779Y-120969819D02*
X173536779Y-119969819D01*
X174917731Y-120874580D02*
X174870112Y-120922200D01*
X174870112Y-120922200D02*
X174727255Y-120969819D01*
X174727255Y-120969819D02*
X174632017Y-120969819D01*
X174632017Y-120969819D02*
X174489160Y-120922200D01*
X174489160Y-120922200D02*
X174393922Y-120826961D01*
X174393922Y-120826961D02*
X174346303Y-120731723D01*
X174346303Y-120731723D02*
X174298684Y-120541247D01*
X174298684Y-120541247D02*
X174298684Y-120398390D01*
X174298684Y-120398390D02*
X174346303Y-120207914D01*
X174346303Y-120207914D02*
X174393922Y-120112676D01*
X174393922Y-120112676D02*
X174489160Y-120017438D01*
X174489160Y-120017438D02*
X174632017Y-119969819D01*
X174632017Y-119969819D02*
X174727255Y-119969819D01*
X174727255Y-119969819D02*
X174870112Y-120017438D01*
X174870112Y-120017438D02*
X174917731Y-120065057D01*
X175346303Y-120969819D02*
X175346303Y-119969819D01*
X175346303Y-119969819D02*
X175584398Y-119969819D01*
X175584398Y-119969819D02*
X175727255Y-120017438D01*
X175727255Y-120017438D02*
X175822493Y-120112676D01*
X175822493Y-120112676D02*
X175870112Y-120207914D01*
X175870112Y-120207914D02*
X175917731Y-120398390D01*
X175917731Y-120398390D02*
X175917731Y-120541247D01*
X175917731Y-120541247D02*
X175870112Y-120731723D01*
X175870112Y-120731723D02*
X175822493Y-120826961D01*
X175822493Y-120826961D02*
X175727255Y-120922200D01*
X175727255Y-120922200D02*
X175584398Y-120969819D01*
X175584398Y-120969819D02*
X175346303Y-120969819D01*
X177679636Y-120874580D02*
X177632017Y-120922200D01*
X177632017Y-120922200D02*
X177489160Y-120969819D01*
X177489160Y-120969819D02*
X177393922Y-120969819D01*
X177393922Y-120969819D02*
X177251065Y-120922200D01*
X177251065Y-120922200D02*
X177155827Y-120826961D01*
X177155827Y-120826961D02*
X177108208Y-120731723D01*
X177108208Y-120731723D02*
X177060589Y-120541247D01*
X177060589Y-120541247D02*
X177060589Y-120398390D01*
X177060589Y-120398390D02*
X177108208Y-120207914D01*
X177108208Y-120207914D02*
X177155827Y-120112676D01*
X177155827Y-120112676D02*
X177251065Y-120017438D01*
X177251065Y-120017438D02*
X177393922Y-119969819D01*
X177393922Y-119969819D02*
X177489160Y-119969819D01*
X177489160Y-119969819D02*
X177632017Y-120017438D01*
X177632017Y-120017438D02*
X177679636Y-120065057D01*
X178060589Y-120922200D02*
X178203446Y-120969819D01*
X178203446Y-120969819D02*
X178441541Y-120969819D01*
X178441541Y-120969819D02*
X178536779Y-120922200D01*
X178536779Y-120922200D02*
X178584398Y-120874580D01*
X178584398Y-120874580D02*
X178632017Y-120779342D01*
X178632017Y-120779342D02*
X178632017Y-120684104D01*
X178632017Y-120684104D02*
X178584398Y-120588866D01*
X178584398Y-120588866D02*
X178536779Y-120541247D01*
X178536779Y-120541247D02*
X178441541Y-120493628D01*
X178441541Y-120493628D02*
X178251065Y-120446009D01*
X178251065Y-120446009D02*
X178155827Y-120398390D01*
X178155827Y-120398390D02*
X178108208Y-120350771D01*
X178108208Y-120350771D02*
X178060589Y-120255533D01*
X178060589Y-120255533D02*
X178060589Y-120160295D01*
X178060589Y-120160295D02*
X178108208Y-120065057D01*
X178108208Y-120065057D02*
X178155827Y-120017438D01*
X178155827Y-120017438D02*
X178251065Y-119969819D01*
X178251065Y-119969819D02*
X178489160Y-119969819D01*
X178489160Y-119969819D02*
X178632017Y-120017438D01*
X117408207Y-95069819D02*
X117074874Y-94593628D01*
X116836779Y-95069819D02*
X116836779Y-94069819D01*
X116836779Y-94069819D02*
X117217731Y-94069819D01*
X117217731Y-94069819D02*
X117312969Y-94117438D01*
X117312969Y-94117438D02*
X117360588Y-94165057D01*
X117360588Y-94165057D02*
X117408207Y-94260295D01*
X117408207Y-94260295D02*
X117408207Y-94403152D01*
X117408207Y-94403152D02*
X117360588Y-94498390D01*
X117360588Y-94498390D02*
X117312969Y-94546009D01*
X117312969Y-94546009D02*
X117217731Y-94593628D01*
X117217731Y-94593628D02*
X116836779Y-94593628D01*
X117741541Y-94069819D02*
X118408207Y-95069819D01*
X118408207Y-94069819D02*
X117741541Y-95069819D01*
X168689160Y-69422200D02*
X168832017Y-69469819D01*
X168832017Y-69469819D02*
X169070112Y-69469819D01*
X169070112Y-69469819D02*
X169165350Y-69422200D01*
X169165350Y-69422200D02*
X169212969Y-69374580D01*
X169212969Y-69374580D02*
X169260588Y-69279342D01*
X169260588Y-69279342D02*
X169260588Y-69184104D01*
X169260588Y-69184104D02*
X169212969Y-69088866D01*
X169212969Y-69088866D02*
X169165350Y-69041247D01*
X169165350Y-69041247D02*
X169070112Y-68993628D01*
X169070112Y-68993628D02*
X168879636Y-68946009D01*
X168879636Y-68946009D02*
X168784398Y-68898390D01*
X168784398Y-68898390D02*
X168736779Y-68850771D01*
X168736779Y-68850771D02*
X168689160Y-68755533D01*
X168689160Y-68755533D02*
X168689160Y-68660295D01*
X168689160Y-68660295D02*
X168736779Y-68565057D01*
X168736779Y-68565057D02*
X168784398Y-68517438D01*
X168784398Y-68517438D02*
X168879636Y-68469819D01*
X168879636Y-68469819D02*
X169117731Y-68469819D01*
X169117731Y-68469819D02*
X169260588Y-68517438D01*
X169689160Y-69469819D02*
X169689160Y-68469819D01*
X169689160Y-68469819D02*
X170070112Y-68469819D01*
X170070112Y-68469819D02*
X170165350Y-68517438D01*
X170165350Y-68517438D02*
X170212969Y-68565057D01*
X170212969Y-68565057D02*
X170260588Y-68660295D01*
X170260588Y-68660295D02*
X170260588Y-68803152D01*
X170260588Y-68803152D02*
X170212969Y-68898390D01*
X170212969Y-68898390D02*
X170165350Y-68946009D01*
X170165350Y-68946009D02*
X170070112Y-68993628D01*
X170070112Y-68993628D02*
X169689160Y-68993628D01*
X170689160Y-69469819D02*
X170689160Y-68469819D01*
X171070112Y-68469819D02*
X171689159Y-68469819D01*
X171689159Y-68469819D02*
X171355826Y-68850771D01*
X171355826Y-68850771D02*
X171498683Y-68850771D01*
X171498683Y-68850771D02*
X171593921Y-68898390D01*
X171593921Y-68898390D02*
X171641540Y-68946009D01*
X171641540Y-68946009D02*
X171689159Y-69041247D01*
X171689159Y-69041247D02*
X171689159Y-69279342D01*
X171689159Y-69279342D02*
X171641540Y-69374580D01*
X171641540Y-69374580D02*
X171593921Y-69422200D01*
X171593921Y-69422200D02*
X171498683Y-69469819D01*
X171498683Y-69469819D02*
X171212969Y-69469819D01*
X171212969Y-69469819D02*
X171117731Y-69422200D01*
X171117731Y-69422200D02*
X171070112Y-69374580D01*
X173451064Y-69374580D02*
X173403445Y-69422200D01*
X173403445Y-69422200D02*
X173260588Y-69469819D01*
X173260588Y-69469819D02*
X173165350Y-69469819D01*
X173165350Y-69469819D02*
X173022493Y-69422200D01*
X173022493Y-69422200D02*
X172927255Y-69326961D01*
X172927255Y-69326961D02*
X172879636Y-69231723D01*
X172879636Y-69231723D02*
X172832017Y-69041247D01*
X172832017Y-69041247D02*
X172832017Y-68898390D01*
X172832017Y-68898390D02*
X172879636Y-68707914D01*
X172879636Y-68707914D02*
X172927255Y-68612676D01*
X172927255Y-68612676D02*
X173022493Y-68517438D01*
X173022493Y-68517438D02*
X173165350Y-68469819D01*
X173165350Y-68469819D02*
X173260588Y-68469819D01*
X173260588Y-68469819D02*
X173403445Y-68517438D01*
X173403445Y-68517438D02*
X173451064Y-68565057D01*
X174070112Y-68469819D02*
X174260588Y-68469819D01*
X174260588Y-68469819D02*
X174355826Y-68517438D01*
X174355826Y-68517438D02*
X174451064Y-68612676D01*
X174451064Y-68612676D02*
X174498683Y-68803152D01*
X174498683Y-68803152D02*
X174498683Y-69136485D01*
X174498683Y-69136485D02*
X174451064Y-69326961D01*
X174451064Y-69326961D02*
X174355826Y-69422200D01*
X174355826Y-69422200D02*
X174260588Y-69469819D01*
X174260588Y-69469819D02*
X174070112Y-69469819D01*
X174070112Y-69469819D02*
X173974874Y-69422200D01*
X173974874Y-69422200D02*
X173879636Y-69326961D01*
X173879636Y-69326961D02*
X173832017Y-69136485D01*
X173832017Y-69136485D02*
X173832017Y-68803152D01*
X173832017Y-68803152D02*
X173879636Y-68612676D01*
X173879636Y-68612676D02*
X173974874Y-68517438D01*
X173974874Y-68517438D02*
X174070112Y-68469819D01*
X174927255Y-69469819D02*
X174927255Y-68469819D01*
X174927255Y-68469819D02*
X175308207Y-68469819D01*
X175308207Y-68469819D02*
X175403445Y-68517438D01*
X175403445Y-68517438D02*
X175451064Y-68565057D01*
X175451064Y-68565057D02*
X175498683Y-68660295D01*
X175498683Y-68660295D02*
X175498683Y-68803152D01*
X175498683Y-68803152D02*
X175451064Y-68898390D01*
X175451064Y-68898390D02*
X175403445Y-68946009D01*
X175403445Y-68946009D02*
X175308207Y-68993628D01*
X175308207Y-68993628D02*
X174927255Y-68993628D01*
X175927255Y-69469819D02*
X175927255Y-68469819D01*
X119211133Y-118736779D02*
X119211133Y-119498684D01*
X118830180Y-119117731D02*
X119592085Y-119117731D01*
X119353990Y-120308207D02*
X119306371Y-120451064D01*
X119306371Y-120451064D02*
X119258752Y-120498683D01*
X119258752Y-120498683D02*
X119163514Y-120546302D01*
X119163514Y-120546302D02*
X119020657Y-120546302D01*
X119020657Y-120546302D02*
X118925419Y-120498683D01*
X118925419Y-120498683D02*
X118877800Y-120451064D01*
X118877800Y-120451064D02*
X118830180Y-120355826D01*
X118830180Y-120355826D02*
X118830180Y-119974874D01*
X118830180Y-119974874D02*
X119830180Y-119974874D01*
X119830180Y-119974874D02*
X119830180Y-120308207D01*
X119830180Y-120308207D02*
X119782561Y-120403445D01*
X119782561Y-120403445D02*
X119734942Y-120451064D01*
X119734942Y-120451064D02*
X119639704Y-120498683D01*
X119639704Y-120498683D02*
X119544466Y-120498683D01*
X119544466Y-120498683D02*
X119449228Y-120451064D01*
X119449228Y-120451064D02*
X119401609Y-120403445D01*
X119401609Y-120403445D02*
X119353990Y-120308207D01*
X119353990Y-120308207D02*
X119353990Y-119974874D01*
X119115895Y-120927255D02*
X119115895Y-121403445D01*
X118830180Y-120832017D02*
X119830180Y-121165350D01*
X119830180Y-121165350D02*
X118830180Y-121498683D01*
X119830180Y-121689160D02*
X119830180Y-122260588D01*
X118830180Y-121974874D02*
X119830180Y-121974874D01*
X119830180Y-122451065D02*
X119830180Y-123022493D01*
X118830180Y-122736779D02*
X119830180Y-122736779D01*
X169889160Y-93922200D02*
X170032017Y-93969819D01*
X170032017Y-93969819D02*
X170270112Y-93969819D01*
X170270112Y-93969819D02*
X170365350Y-93922200D01*
X170365350Y-93922200D02*
X170412969Y-93874580D01*
X170412969Y-93874580D02*
X170460588Y-93779342D01*
X170460588Y-93779342D02*
X170460588Y-93684104D01*
X170460588Y-93684104D02*
X170412969Y-93588866D01*
X170412969Y-93588866D02*
X170365350Y-93541247D01*
X170365350Y-93541247D02*
X170270112Y-93493628D01*
X170270112Y-93493628D02*
X170079636Y-93446009D01*
X170079636Y-93446009D02*
X169984398Y-93398390D01*
X169984398Y-93398390D02*
X169936779Y-93350771D01*
X169936779Y-93350771D02*
X169889160Y-93255533D01*
X169889160Y-93255533D02*
X169889160Y-93160295D01*
X169889160Y-93160295D02*
X169936779Y-93065057D01*
X169936779Y-93065057D02*
X169984398Y-93017438D01*
X169984398Y-93017438D02*
X170079636Y-92969819D01*
X170079636Y-92969819D02*
X170317731Y-92969819D01*
X170317731Y-92969819D02*
X170460588Y-93017438D01*
X170889160Y-93969819D02*
X170889160Y-92969819D01*
X170889160Y-92969819D02*
X171270112Y-92969819D01*
X171270112Y-92969819D02*
X171365350Y-93017438D01*
X171365350Y-93017438D02*
X171412969Y-93065057D01*
X171412969Y-93065057D02*
X171460588Y-93160295D01*
X171460588Y-93160295D02*
X171460588Y-93303152D01*
X171460588Y-93303152D02*
X171412969Y-93398390D01*
X171412969Y-93398390D02*
X171365350Y-93446009D01*
X171365350Y-93446009D02*
X171270112Y-93493628D01*
X171270112Y-93493628D02*
X170889160Y-93493628D01*
X171889160Y-93969819D02*
X171889160Y-92969819D01*
X172270112Y-92969819D02*
X172889159Y-92969819D01*
X172889159Y-92969819D02*
X172555826Y-93350771D01*
X172555826Y-93350771D02*
X172698683Y-93350771D01*
X172698683Y-93350771D02*
X172793921Y-93398390D01*
X172793921Y-93398390D02*
X172841540Y-93446009D01*
X172841540Y-93446009D02*
X172889159Y-93541247D01*
X172889159Y-93541247D02*
X172889159Y-93779342D01*
X172889159Y-93779342D02*
X172841540Y-93874580D01*
X172841540Y-93874580D02*
X172793921Y-93922200D01*
X172793921Y-93922200D02*
X172698683Y-93969819D01*
X172698683Y-93969819D02*
X172412969Y-93969819D01*
X172412969Y-93969819D02*
X172317731Y-93922200D01*
X172317731Y-93922200D02*
X172270112Y-93874580D01*
X174032017Y-93922200D02*
X174174874Y-93969819D01*
X174174874Y-93969819D02*
X174412969Y-93969819D01*
X174412969Y-93969819D02*
X174508207Y-93922200D01*
X174508207Y-93922200D02*
X174555826Y-93874580D01*
X174555826Y-93874580D02*
X174603445Y-93779342D01*
X174603445Y-93779342D02*
X174603445Y-93684104D01*
X174603445Y-93684104D02*
X174555826Y-93588866D01*
X174555826Y-93588866D02*
X174508207Y-93541247D01*
X174508207Y-93541247D02*
X174412969Y-93493628D01*
X174412969Y-93493628D02*
X174222493Y-93446009D01*
X174222493Y-93446009D02*
X174127255Y-93398390D01*
X174127255Y-93398390D02*
X174079636Y-93350771D01*
X174079636Y-93350771D02*
X174032017Y-93255533D01*
X174032017Y-93255533D02*
X174032017Y-93160295D01*
X174032017Y-93160295D02*
X174079636Y-93065057D01*
X174079636Y-93065057D02*
X174127255Y-93017438D01*
X174127255Y-93017438D02*
X174222493Y-92969819D01*
X174222493Y-92969819D02*
X174460588Y-92969819D01*
X174460588Y-92969819D02*
X174603445Y-93017438D01*
X175603445Y-93874580D02*
X175555826Y-93922200D01*
X175555826Y-93922200D02*
X175412969Y-93969819D01*
X175412969Y-93969819D02*
X175317731Y-93969819D01*
X175317731Y-93969819D02*
X175174874Y-93922200D01*
X175174874Y-93922200D02*
X175079636Y-93826961D01*
X175079636Y-93826961D02*
X175032017Y-93731723D01*
X175032017Y-93731723D02*
X174984398Y-93541247D01*
X174984398Y-93541247D02*
X174984398Y-93398390D01*
X174984398Y-93398390D02*
X175032017Y-93207914D01*
X175032017Y-93207914D02*
X175079636Y-93112676D01*
X175079636Y-93112676D02*
X175174874Y-93017438D01*
X175174874Y-93017438D02*
X175317731Y-92969819D01*
X175317731Y-92969819D02*
X175412969Y-92969819D01*
X175412969Y-92969819D02*
X175555826Y-93017438D01*
X175555826Y-93017438D02*
X175603445Y-93065057D01*
X176508207Y-93969819D02*
X176032017Y-93969819D01*
X176032017Y-93969819D02*
X176032017Y-92969819D01*
X176841541Y-93969819D02*
X176841541Y-92969819D01*
X177412969Y-93969819D02*
X176984398Y-93398390D01*
X177412969Y-92969819D02*
X176841541Y-93541247D01*
X163166666Y-61564819D02*
X163166666Y-62279104D01*
X163166666Y-62279104D02*
X163119047Y-62421961D01*
X163119047Y-62421961D02*
X163023809Y-62517200D01*
X163023809Y-62517200D02*
X162880952Y-62564819D01*
X162880952Y-62564819D02*
X162785714Y-62564819D01*
X163547619Y-61564819D02*
X164214285Y-61564819D01*
X164214285Y-61564819D02*
X163785714Y-62564819D01*
D11*
%TO.C,JP18*%
X179387500Y-123830000D02*
X179387500Y-123230000D01*
X180087500Y-122530000D02*
X181487500Y-122530000D01*
X181487500Y-124530000D02*
X180087500Y-124530000D01*
X182187500Y-123230000D02*
X182187500Y-123830000D01*
X179387500Y-123230000D02*
G75*
G02*
X180087500Y-122530000I699999J1D01*
G01*
X180087500Y-124530000D02*
G75*
G02*
X179387500Y-123830000I-1J699999D01*
G01*
X181487500Y-122530000D02*
G75*
G02*
X182187500Y-123230000I0J-700000D01*
G01*
X182187500Y-123830000D02*
G75*
G02*
X181487500Y-124530000I-700000J0D01*
G01*
%TO.C,R5*%
X122386359Y-124870000D02*
X122693641Y-124870000D01*
X122386359Y-125630000D02*
X122693641Y-125630000D01*
%TO.C,TP2*%
X118300000Y-88750000D02*
G75*
G02*
X116900000Y-88750000I-700000J0D01*
G01*
X116900000Y-88750000D02*
G75*
G02*
X118300000Y-88750000I700000J0D01*
G01*
%TO.C,JP17*%
X179387500Y-120830000D02*
X179387500Y-120230000D01*
X180087500Y-119530000D02*
X181487500Y-119530000D01*
X181487500Y-121530000D02*
X180087500Y-121530000D01*
X182187500Y-120230000D02*
X182187500Y-120830000D01*
X179387500Y-120230000D02*
G75*
G02*
X180087500Y-119530000I699999J1D01*
G01*
X180087500Y-121530000D02*
G75*
G02*
X179387500Y-120830000I-1J699999D01*
G01*
X181487500Y-119530000D02*
G75*
G02*
X182187500Y-120230000I0J-700000D01*
G01*
X182187500Y-120830000D02*
G75*
G02*
X181487500Y-121530000I-700000J0D01*
G01*
%TO.C,J1*%
X111610000Y-97780000D02*
X113315000Y-97780000D01*
X111610000Y-106940000D02*
X111610000Y-97780000D01*
X113315000Y-106940000D02*
X111610000Y-106940000D01*
X115325000Y-106940000D02*
X117245000Y-106940000D01*
X117245000Y-97780000D02*
X115325000Y-97780000D01*
%TO.C,J7*%
X162120000Y-63110000D02*
X163500000Y-63110000D01*
X162120000Y-64490000D02*
X162120000Y-63110000D01*
X162120000Y-65760000D02*
X162120000Y-98890000D01*
X162120000Y-65760000D02*
X164880000Y-65760000D01*
X162120000Y-98890000D02*
X164880000Y-98890000D01*
X164880000Y-65760000D02*
X164880000Y-98890000D01*
%TO.C,SW4*%
X156150000Y-123800000D02*
X156150000Y-126200000D01*
X156540000Y-128210000D02*
X162960000Y-128210000D01*
X162960000Y-121790000D02*
X156540000Y-121790000D01*
X163250000Y-126200000D02*
X163250000Y-123800000D01*
D12*
%TO.C,D4*%
X117235000Y-74525000D02*
G75*
G02*
X117135000Y-74525000I-50000J0D01*
G01*
X117135000Y-74525000D02*
G75*
G02*
X117235000Y-74525000I50000J0D01*
G01*
D11*
%TO.C,JP4*%
X168450000Y-83870000D02*
X168450000Y-83270000D01*
X169150000Y-82570000D02*
X170550000Y-82570000D01*
X170550000Y-84570000D02*
X169150000Y-84570000D01*
X171250000Y-83270000D02*
X171250000Y-83870000D01*
X168450000Y-83270000D02*
G75*
G02*
X169150000Y-82570000I700000J0D01*
G01*
X169150000Y-84570000D02*
G75*
G02*
X168450000Y-83870000I0J700000D01*
G01*
X170550000Y-82570000D02*
G75*
G02*
X171250000Y-83270000I1J-699999D01*
G01*
X171250000Y-83870000D02*
G75*
G02*
X170550000Y-84570000I-699999J-1D01*
G01*
%TO.C,JP16*%
X179387500Y-117830000D02*
X179387500Y-117230000D01*
X180087500Y-116530000D02*
X181487500Y-116530000D01*
X181487500Y-118530000D02*
X180087500Y-118530000D01*
X182187500Y-117230000D02*
X182187500Y-117830000D01*
X179387500Y-117230000D02*
G75*
G02*
X180087500Y-116530000I699999J1D01*
G01*
X180087500Y-118530000D02*
G75*
G02*
X179387500Y-117830000I-1J699999D01*
G01*
X181487500Y-116530000D02*
G75*
G02*
X182187500Y-117230000I0J-700000D01*
G01*
X182187500Y-117830000D02*
G75*
G02*
X181487500Y-118530000I-700000J0D01*
G01*
%TO.C,J2*%
X121330000Y-137880000D02*
X121330000Y-136500000D01*
X122710000Y-137880000D02*
X121330000Y-137880000D01*
X123980000Y-135120000D02*
X129170000Y-135120000D01*
X123980000Y-137880000D02*
X123980000Y-135120000D01*
X123980000Y-137880000D02*
X129170000Y-137880000D01*
X129170000Y-137880000D02*
X129170000Y-135120000D01*
%TO.C,TP4*%
X168100000Y-111100000D02*
G75*
G02*
X166700000Y-111100000I-700000J0D01*
G01*
X166700000Y-111100000D02*
G75*
G02*
X168100000Y-111100000I700000J0D01*
G01*
%TO.C,U5*%
X134090000Y-110440000D02*
X135910000Y-110440000D01*
X134090000Y-110490000D02*
X134090000Y-110440000D01*
X134090000Y-113560000D02*
X134090000Y-113510000D01*
X135910000Y-110440000D02*
X135910000Y-110490000D01*
X135910000Y-111610000D02*
X135910000Y-112390000D01*
X135910000Y-113510000D02*
X135910000Y-113560000D01*
X135910000Y-113560000D02*
X134090000Y-113560000D01*
X133550000Y-110490000D02*
X133310000Y-110160000D01*
X133790000Y-110160000D01*
X133550000Y-110490000D01*
G36*
X133550000Y-110490000D02*
G01*
X133310000Y-110160000D01*
X133790000Y-110160000D01*
X133550000Y-110490000D01*
G37*
%TO.C,R4*%
X127620000Y-116353641D02*
X127620000Y-116046359D01*
X128380000Y-116353641D02*
X128380000Y-116046359D01*
%TO.C,R9*%
X125120000Y-109356359D02*
X125120000Y-109663641D01*
X125880000Y-109356359D02*
X125880000Y-109663641D01*
%TO.C,C6*%
X123850000Y-89084420D02*
X123850000Y-89365580D01*
X124870000Y-89084420D02*
X124870000Y-89365580D01*
%TO.C,JP11*%
X155920000Y-133700000D02*
X155920000Y-132300000D01*
X156620000Y-131600000D02*
X157220000Y-131600000D01*
X157220000Y-134400000D02*
X156620000Y-134400000D01*
X157920000Y-132300000D02*
X157920000Y-133700000D01*
X155920000Y-132300000D02*
G75*
G02*
X156620000Y-131600000I699999J1D01*
G01*
X156620000Y-134400000D02*
G75*
G02*
X155920000Y-133700000I0J700000D01*
G01*
X157220000Y-131600000D02*
G75*
G02*
X157920000Y-132300000I1J-699999D01*
G01*
X157920000Y-133700000D02*
G75*
G02*
X157220000Y-134400000I-700000J0D01*
G01*
%TO.C,R3*%
X125620000Y-114603641D02*
X125620000Y-114296359D01*
X126380000Y-114603641D02*
X126380000Y-114296359D01*
%TO.C,C7*%
X121340000Y-89084420D02*
X121340000Y-89365580D01*
X122360000Y-89084420D02*
X122360000Y-89365580D01*
%TO.C,R2*%
X120440000Y-106206359D02*
X120440000Y-106513641D01*
X121200000Y-106206359D02*
X121200000Y-106513641D01*
%TO.C,C2*%
X131195000Y-111115580D02*
X131195000Y-110834420D01*
X132215000Y-111115580D02*
X132215000Y-110834420D01*
%TO.C,JP5*%
X168450000Y-86870000D02*
X168450000Y-86270000D01*
X169150000Y-85570000D02*
X170550000Y-85570000D01*
X170550000Y-87570000D02*
X169150000Y-87570000D01*
X171250000Y-86270000D02*
X171250000Y-86870000D01*
X168450000Y-86270000D02*
G75*
G02*
X169150000Y-85570000I700000J0D01*
G01*
X169150000Y-87570000D02*
G75*
G02*
X168450000Y-86870000I0J700000D01*
G01*
X170550000Y-85570000D02*
G75*
G02*
X171250000Y-86270000I1J-699999D01*
G01*
X171250000Y-86870000D02*
G75*
G02*
X170550000Y-87570000I-699999J-1D01*
G01*
%TO.C,R6*%
X128096359Y-124870000D02*
X128403641Y-124870000D01*
X128096359Y-125630000D02*
X128403641Y-125630000D01*
%TO.C,JP10*%
X152670000Y-133600000D02*
X152670000Y-132200000D01*
X153370000Y-131500000D02*
X153970000Y-131500000D01*
X153970000Y-134300000D02*
X153370000Y-134300000D01*
X154670000Y-132200000D02*
X154670000Y-133600000D01*
X152670000Y-132200000D02*
G75*
G02*
X153370000Y-131500000I699999J1D01*
G01*
X153370000Y-134300000D02*
G75*
G02*
X152670000Y-133600000I0J700000D01*
G01*
X153970000Y-131500000D02*
G75*
G02*
X154670000Y-132200000I1J-699999D01*
G01*
X154670000Y-133600000D02*
G75*
G02*
X153970000Y-134300000I-700000J0D01*
G01*
%TO.C,JP12*%
X179387500Y-105580000D02*
X179387500Y-104980000D01*
X180087500Y-104280000D02*
X181487500Y-104280000D01*
X181487500Y-106280000D02*
X180087500Y-106280000D01*
X182187500Y-104980000D02*
X182187500Y-105580000D01*
X179387500Y-104980000D02*
G75*
G02*
X180087500Y-104280000I699999J1D01*
G01*
X180087500Y-106280000D02*
G75*
G02*
X179387500Y-105580000I-1J699999D01*
G01*
X181487500Y-104280000D02*
G75*
G02*
X182187500Y-104980000I0J-700000D01*
G01*
X182187500Y-105580000D02*
G75*
G02*
X181487500Y-106280000I-700000J0D01*
G01*
%TO.C,C1*%
X123140580Y-115940000D02*
X122859420Y-115940000D01*
X123140580Y-116960000D02*
X122859420Y-116960000D01*
%TO.C,U1*%
X124390000Y-117390000D02*
X124565000Y-117390000D01*
X124390000Y-120610000D02*
X124390000Y-117390000D01*
X124565000Y-120610000D02*
X124390000Y-120610000D01*
X127435000Y-117390000D02*
X127610000Y-117390000D01*
X127610000Y-117390000D02*
X127610000Y-120610000D01*
X127610000Y-120610000D02*
X127435000Y-120610000D01*
X124560000Y-121160000D02*
X124230000Y-121400000D01*
X124230000Y-120920000D01*
X124560000Y-121160000D01*
G36*
X124560000Y-121160000D02*
G01*
X124230000Y-121400000D01*
X124230000Y-120920000D01*
X124560000Y-121160000D01*
G37*
%TO.C,R12*%
X113470000Y-88893641D02*
X113470000Y-88586359D01*
X114230000Y-88893641D02*
X114230000Y-88586359D01*
%TO.C,JP3*%
X168450000Y-80870000D02*
X168450000Y-80270000D01*
X169150000Y-79570000D02*
X170550000Y-79570000D01*
X170550000Y-81570000D02*
X169150000Y-81570000D01*
X171250000Y-80270000D02*
X171250000Y-80870000D01*
X168450000Y-80270000D02*
G75*
G02*
X169150000Y-79570000I700000J0D01*
G01*
X169150000Y-81570000D02*
G75*
G02*
X168450000Y-80870000I0J700000D01*
G01*
X170550000Y-79570000D02*
G75*
G02*
X171250000Y-80270000I1J-699999D01*
G01*
X171250000Y-80870000D02*
G75*
G02*
X170550000Y-81570000I-699999J-1D01*
G01*
%TO.C,J9*%
X185620000Y-93340000D02*
X187000000Y-93340000D01*
X185620000Y-94720000D02*
X185620000Y-93340000D01*
X185620000Y-95990000D02*
X185620000Y-129120000D01*
X185620000Y-95990000D02*
X188380000Y-95990000D01*
X185620000Y-129120000D02*
X188380000Y-129120000D01*
X188380000Y-95990000D02*
X188380000Y-129120000D01*
%TO.C,R15*%
X145620000Y-106846359D02*
X145620000Y-107153641D01*
X146380000Y-106846359D02*
X146380000Y-107153641D01*
%TO.C,R11*%
X114720000Y-88903641D02*
X114720000Y-88596359D01*
X115480000Y-88903641D02*
X115480000Y-88596359D01*
%TO.C,J8*%
X131620000Y-63120000D02*
X133000000Y-63120000D01*
X131620000Y-64500000D02*
X131620000Y-63120000D01*
X131620000Y-65770000D02*
X131620000Y-98900000D01*
X131620000Y-65770000D02*
X134380000Y-65770000D01*
X131620000Y-98900000D02*
X134380000Y-98900000D01*
X134380000Y-65770000D02*
X134380000Y-98900000D01*
%TO.C,SW2*%
X135150000Y-123800000D02*
X135150000Y-126200000D01*
X135540000Y-128210000D02*
X141960000Y-128210000D01*
X141960000Y-121790000D02*
X135540000Y-121790000D01*
X142250000Y-126200000D02*
X142250000Y-123800000D01*
%TO.C,JP19*%
X179387500Y-126830000D02*
X179387500Y-126230000D01*
X180087500Y-125530000D02*
X181487500Y-125530000D01*
X181487500Y-127530000D02*
X180087500Y-127530000D01*
X182187500Y-126230000D02*
X182187500Y-126830000D01*
X179387500Y-126230000D02*
G75*
G02*
X180087500Y-125530000I699999J1D01*
G01*
X180087500Y-127530000D02*
G75*
G02*
X179387500Y-126830000I-1J699999D01*
G01*
X181487500Y-125530000D02*
G75*
G02*
X182187500Y-126230000I0J-700000D01*
G01*
X182187500Y-126830000D02*
G75*
G02*
X181487500Y-127530000I-700000J0D01*
G01*
%TO.C,JP7*%
X179387500Y-102580000D02*
X179387500Y-101980000D01*
X180087500Y-101280000D02*
X181487500Y-101280000D01*
X181487500Y-103280000D02*
X180087500Y-103280000D01*
X182187500Y-101980000D02*
X182187500Y-102580000D01*
X179387500Y-101980000D02*
G75*
G02*
X180087500Y-101280000I699999J1D01*
G01*
X180087500Y-103280000D02*
G75*
G02*
X179387500Y-102580000I-1J699999D01*
G01*
X181487500Y-101280000D02*
G75*
G02*
X182187500Y-101980000I0J-700000D01*
G01*
X182187500Y-102580000D02*
G75*
G02*
X181487500Y-103280000I-700000J0D01*
G01*
%TO.C,SW3*%
X145650000Y-123800000D02*
X145650000Y-126200000D01*
X146040000Y-128210000D02*
X152460000Y-128210000D01*
X152460000Y-121790000D02*
X146040000Y-121790000D01*
X152750000Y-126200000D02*
X152750000Y-123800000D01*
%TO.C,C8*%
X135814420Y-108715000D02*
X136095580Y-108715000D01*
X135814420Y-109735000D02*
X136095580Y-109735000D01*
%TO.C,J5*%
X119850000Y-73635000D02*
X120490000Y-73635000D01*
X119900000Y-70915000D02*
X122600000Y-70915000D01*
X120490000Y-73635000D02*
X120490000Y-74265000D01*
X122650000Y-73635000D02*
X122010000Y-73635000D01*
%TO.C,R1*%
X120440000Y-100013641D02*
X120440000Y-99706359D01*
X121200000Y-100013641D02*
X121200000Y-99706359D01*
%TO.C,J10*%
X132460000Y-103380000D02*
X132460000Y-102000000D01*
X133840000Y-103380000D02*
X132460000Y-103380000D01*
X135110000Y-100620000D02*
X163160000Y-100620000D01*
X135110000Y-103380000D02*
X135110000Y-100620000D01*
X135110000Y-103380000D02*
X163160000Y-103380000D01*
X163160000Y-103380000D02*
X163160000Y-100620000D01*
%TO.C,U3*%
X139050000Y-56390000D02*
X139050000Y-62590000D01*
X139050000Y-56390000D02*
X157450000Y-56390000D01*
X139050000Y-81240000D02*
X139050000Y-82240000D01*
X139050000Y-82240000D02*
X140550000Y-82240000D01*
X157450000Y-56390000D02*
X157450000Y-62590000D01*
X157450000Y-82240000D02*
X155950000Y-82240000D01*
X157450000Y-82240000D02*
X157450000Y-81240000D01*
X139050000Y-63265000D02*
X138550000Y-63265000D01*
X139050000Y-62765000D01*
X139050000Y-63265000D01*
G36*
X139050000Y-63265000D02*
G01*
X138550000Y-63265000D01*
X139050000Y-62765000D01*
X139050000Y-63265000D01*
G37*
%TO.C,TP1*%
X120550000Y-88750000D02*
G75*
G02*
X119150000Y-88750000I-700000J0D01*
G01*
X119150000Y-88750000D02*
G75*
G02*
X120550000Y-88750000I700000J0D01*
G01*
%TO.C,R10*%
X130120000Y-67856359D02*
X130120000Y-68163641D01*
X130880000Y-67856359D02*
X130880000Y-68163641D01*
%TO.C,JP15*%
X179387500Y-114830000D02*
X179387500Y-114230000D01*
X180087500Y-113530000D02*
X181487500Y-113530000D01*
X181487500Y-115530000D02*
X180087500Y-115530000D01*
X182187500Y-114230000D02*
X182187500Y-114830000D01*
X179387500Y-114230000D02*
G75*
G02*
X180087500Y-113530000I699999J1D01*
G01*
X180087500Y-115530000D02*
G75*
G02*
X179387500Y-114830000I-1J699999D01*
G01*
X181487500Y-113530000D02*
G75*
G02*
X182187500Y-114230000I0J-700000D01*
G01*
X182187500Y-114830000D02*
G75*
G02*
X181487500Y-115530000I-700000J0D01*
G01*
%TO.C,R8*%
X123870000Y-109663641D02*
X123870000Y-109356359D01*
X124630000Y-109663641D02*
X124630000Y-109356359D01*
%TO.C,D1*%
X121375000Y-126015000D02*
X121375000Y-129900000D01*
X123645000Y-126015000D02*
X121375000Y-126015000D01*
X123645000Y-129900000D02*
X123645000Y-126015000D01*
%TO.C,JP9*%
X149670000Y-133600000D02*
X149670000Y-132200000D01*
X150370000Y-131500000D02*
X150970000Y-131500000D01*
X150970000Y-134300000D02*
X150370000Y-134300000D01*
X151670000Y-132200000D02*
X151670000Y-133600000D01*
X149670000Y-132200000D02*
G75*
G02*
X150370000Y-131500000I699999J1D01*
G01*
X150370000Y-134300000D02*
G75*
G02*
X149670000Y-133600000I0J700000D01*
G01*
X150970000Y-131500000D02*
G75*
G02*
X151670000Y-132200000I1J-699999D01*
G01*
X151670000Y-133600000D02*
G75*
G02*
X150970000Y-134300000I-700000J0D01*
G01*
%TO.C,TP6*%
X148240000Y-133500000D02*
G75*
G02*
X146840000Y-133500000I-700000J0D01*
G01*
X146840000Y-133500000D02*
G75*
G02*
X148240000Y-133500000I700000J0D01*
G01*
%TO.C,Q3*%
X174465000Y-103670000D02*
X175985000Y-103670000D01*
X174465000Y-103720000D02*
X174465000Y-103670000D01*
X174465000Y-105620000D02*
X174465000Y-104840000D01*
X174465000Y-106790000D02*
X174465000Y-106740000D01*
X175985000Y-103670000D02*
X175985000Y-104670000D01*
X175985000Y-105790000D02*
X175985000Y-106790000D01*
X175985000Y-106790000D02*
X174465000Y-106790000D01*
X174165000Y-105180000D02*
X173685000Y-105180000D01*
X173925000Y-104850000D01*
X174165000Y-105180000D01*
G36*
X174165000Y-105180000D02*
G01*
X173685000Y-105180000D01*
X173925000Y-104850000D01*
X174165000Y-105180000D01*
G37*
%TO.C,JP20*%
X113500000Y-92700000D02*
X113500000Y-91300000D01*
X114200000Y-90600000D02*
X114800000Y-90600000D01*
X114800000Y-93400000D02*
X114200000Y-93400000D01*
X115500000Y-91300000D02*
X115500000Y-92700000D01*
X113500000Y-91300000D02*
G75*
G02*
X114200000Y-90600000I699999J1D01*
G01*
X114200000Y-93400000D02*
G75*
G02*
X113500000Y-92700000I0J700000D01*
G01*
X114800000Y-90600000D02*
G75*
G02*
X115500000Y-91300000I1J-699999D01*
G01*
X115500000Y-92700000D02*
G75*
G02*
X114800000Y-93400000I-700000J0D01*
G01*
%TO.C,TP3*%
X164600000Y-111100000D02*
G75*
G02*
X163200000Y-111100000I-700000J0D01*
G01*
X163200000Y-111100000D02*
G75*
G02*
X164600000Y-111100000I700000J0D01*
G01*
%TO.C,R7*%
X125443641Y-124870000D02*
X125136359Y-124870000D01*
X125443641Y-125630000D02*
X125136359Y-125630000D01*
%TO.C,JP14*%
X179387500Y-111580000D02*
X179387500Y-110980000D01*
X180087500Y-110280000D02*
X181487500Y-110280000D01*
X181487500Y-112280000D02*
X180087500Y-112280000D01*
X182187500Y-110980000D02*
X182187500Y-111580000D01*
X179387500Y-110980000D02*
G75*
G02*
X180087500Y-110280000I699999J1D01*
G01*
X180087500Y-112280000D02*
G75*
G02*
X179387500Y-111580000I-1J699999D01*
G01*
X181487500Y-110280000D02*
G75*
G02*
X182187500Y-110980000I0J-700000D01*
G01*
X182187500Y-111580000D02*
G75*
G02*
X181487500Y-112280000I-700000J0D01*
G01*
%TO.C,D3*%
X124155000Y-125965000D02*
X124155000Y-129850000D01*
X126425000Y-125965000D02*
X124155000Y-125965000D01*
X126425000Y-129850000D02*
X126425000Y-125965000D01*
%TO.C,U4*%
X113590000Y-76290000D02*
X113740000Y-76290000D01*
X113590000Y-86210000D02*
X113590000Y-76290000D01*
X113590000Y-86210000D02*
X113740000Y-86210000D01*
X123760000Y-76290000D02*
X123910000Y-76290000D01*
X123760000Y-86210000D02*
X123910000Y-86210000D01*
X123910000Y-86210000D02*
X123910000Y-76290000D01*
X113740000Y-86680000D02*
X113410000Y-86920000D01*
X113410000Y-86440000D01*
X113740000Y-86680000D01*
G36*
X113740000Y-86680000D02*
G01*
X113410000Y-86920000D01*
X113410000Y-86440000D01*
X113740000Y-86680000D01*
G37*
%TO.C,J3*%
X113040000Y-113990000D02*
X113040000Y-122710000D01*
X114340000Y-112290000D02*
X113040000Y-113990000D01*
X117160000Y-112290000D02*
X114340000Y-112290000D01*
X117160000Y-112290000D02*
X118460000Y-113990000D01*
X118460000Y-113990000D02*
X118460000Y-122710000D01*
X118460000Y-122710000D02*
X113040000Y-122710000D01*
%TO.C,JP13*%
X179387500Y-108580000D02*
X179387500Y-107980000D01*
X180087500Y-107280000D02*
X181487500Y-107280000D01*
X181487500Y-109280000D02*
X180087500Y-109280000D01*
X182187500Y-107980000D02*
X182187500Y-108580000D01*
X179387500Y-107980000D02*
G75*
G02*
X180087500Y-107280000I699999J1D01*
G01*
X180087500Y-109280000D02*
G75*
G02*
X179387500Y-108580000I-1J699999D01*
G01*
X181487500Y-107280000D02*
G75*
G02*
X182187500Y-107980000I0J-700000D01*
G01*
X182187500Y-108580000D02*
G75*
G02*
X181487500Y-109280000I-700000J0D01*
G01*
%TO.C,R13*%
X124720000Y-86163641D02*
X124720000Y-85856359D01*
X125480000Y-86163641D02*
X125480000Y-85856359D01*
%TO.C,D2*%
X126905000Y-125965000D02*
X126905000Y-129850000D01*
X129175000Y-125965000D02*
X126905000Y-125965000D01*
X129175000Y-129850000D02*
X129175000Y-125965000D01*
%TO.C,TP5*%
X143990000Y-133750000D02*
G75*
G02*
X142590000Y-133750000I-700000J0D01*
G01*
X142590000Y-133750000D02*
G75*
G02*
X143990000Y-133750000I700000J0D01*
G01*
%TO.C,Q2*%
X147090000Y-107345000D02*
X147140000Y-107345000D01*
X147090000Y-108865000D02*
X147090000Y-107345000D01*
X148090000Y-108865000D02*
X147090000Y-108865000D01*
X148260000Y-107345000D02*
X149040000Y-107345000D01*
X150160000Y-107345000D02*
X150210000Y-107345000D01*
X150210000Y-107345000D02*
X150210000Y-108865000D01*
X150210000Y-108865000D02*
X149210000Y-108865000D01*
X149030000Y-106805000D02*
X148700000Y-107045000D01*
X148700000Y-106565000D01*
X149030000Y-106805000D01*
G36*
X149030000Y-106805000D02*
G01*
X148700000Y-107045000D01*
X148700000Y-106565000D01*
X149030000Y-106805000D01*
G37*
%TO.C,D5*%
X147700000Y-110607500D02*
X147700000Y-114617500D01*
X149700000Y-110607500D02*
X147700000Y-110607500D01*
X149700000Y-110607500D02*
X149700000Y-114617500D01*
%TO.C,SW1*%
X120750000Y-65050000D02*
X120750000Y-67450000D01*
X121040000Y-69460000D02*
X127460000Y-69460000D01*
X127460000Y-63040000D02*
X121040000Y-63040000D01*
X127850000Y-67450000D02*
X127850000Y-65050000D01*
%TO.C,JP1*%
X168450000Y-77870000D02*
X168450000Y-77270000D01*
X169150000Y-76570000D02*
X170550000Y-76570000D01*
X170550000Y-78570000D02*
X169150000Y-78570000D01*
X171250000Y-77270000D02*
X171250000Y-77870000D01*
X168450000Y-77270000D02*
G75*
G02*
X169150000Y-76570000I700000J0D01*
G01*
X169150000Y-78570000D02*
G75*
G02*
X168450000Y-77870000I0J700000D01*
G01*
X170550000Y-76570000D02*
G75*
G02*
X171250000Y-77270000I1J-699999D01*
G01*
X171250000Y-77870000D02*
G75*
G02*
X170550000Y-78570000I-699999J-1D01*
G01*
D13*
%TO.C,J4*%
X174250000Y-76500000D02*
X174250000Y-74262000D01*
X176500000Y-87400000D02*
X183000000Y-87400000D01*
X183000000Y-72600000D02*
X176500000Y-72600000D01*
X186500000Y-87400000D02*
X188750000Y-87399020D01*
X188750000Y-87399020D02*
X188762700Y-72600980D01*
X188762700Y-72600980D02*
X187000000Y-72600000D01*
D14*
X173642510Y-76704350D02*
G75*
G02*
X173388510Y-76704350I-127000J0D01*
G01*
X173388510Y-76704350D02*
G75*
G02*
X173642510Y-76704350I127000J0D01*
G01*
D11*
%TO.C,Q1*%
X162040000Y-106040000D02*
X163560000Y-106040000D01*
X162040000Y-107040000D02*
X162040000Y-106040000D01*
X162040000Y-109160000D02*
X162040000Y-108160000D01*
X163560000Y-106040000D02*
X163560000Y-106090000D01*
X163560000Y-107210000D02*
X163560000Y-107990000D01*
X163560000Y-109110000D02*
X163560000Y-109160000D01*
X163560000Y-109160000D02*
X162040000Y-109160000D01*
X164100000Y-107980000D02*
X163860000Y-107650000D01*
X164340000Y-107650000D01*
X164100000Y-107980000D01*
G36*
X164100000Y-107980000D02*
G01*
X163860000Y-107650000D01*
X164340000Y-107650000D01*
X164100000Y-107980000D01*
G37*
D12*
%TO.C,BZ1*%
X160550000Y-113317500D02*
X160050000Y-113765924D01*
X160050000Y-112765924D01*
X160550000Y-113317500D01*
G36*
X160550000Y-113317500D02*
G01*
X160050000Y-113765924D01*
X160050000Y-112765924D01*
X160550000Y-113317500D01*
G37*
D11*
%TO.C,J6*%
X140130000Y-139130000D02*
X140130000Y-137750000D01*
X141510000Y-139130000D02*
X140130000Y-139130000D01*
X142780000Y-136370000D02*
X160670000Y-136370000D01*
X142780000Y-139130000D02*
X142780000Y-136370000D01*
X142780000Y-139130000D02*
X160670000Y-139130000D01*
X160670000Y-139130000D02*
X160670000Y-136370000D01*
%TO.C,JP21*%
X116500000Y-92700000D02*
X116500000Y-91300000D01*
X117200000Y-90600000D02*
X117800000Y-90600000D01*
X117800000Y-93400000D02*
X117200000Y-93400000D01*
X118500000Y-91300000D02*
X118500000Y-92700000D01*
X116500000Y-91300000D02*
G75*
G02*
X117200000Y-90600000I699999J1D01*
G01*
X117200000Y-93400000D02*
G75*
G02*
X116500000Y-92700000I0J700000D01*
G01*
X117800000Y-90600000D02*
G75*
G02*
X118500000Y-91300000I1J-699999D01*
G01*
X118500000Y-92700000D02*
G75*
G02*
X117800000Y-93400000I-700000J0D01*
G01*
%TD*%
M02*
