%TF.GenerationSoftware,KiCad,Pcbnew,10.0.0*%
%TF.CreationDate,2026-04-06T11:01:03-04:00*%
%TF.ProjectId,remigochi-pcb,72656d69-676f-4636-9869-2d7063622e6b,rev?*%
%TF.SameCoordinates,Original*%
%TF.FileFunction,Drillmap*%
%TF.FilePolarity,Positive*%
%FSLAX45Y45*%
G04 Gerber Fmt 4.5, Leading zero omitted, Abs format (unit mm)*
G04 Created by KiCad (PCBNEW 10.0.0) date 2026-04-06 11:01:03*
%MOMM*%
%LPD*%
G01*
G04 APERTURE LIST*
%ADD10C,0.050000*%
%ADD11C,0.200000*%
%ADD12C,0.100000*%
%ADD13C,0.225000*%
G04 APERTURE END LIST*
D10*
X14013514Y-7125840D02*
G75*
G02*
X14163514Y-6975844I149996J0D01*
G01*
X14013514Y-14445840D02*
X14013514Y-7125840D01*
X14163514Y-6975840D02*
X20213514Y-6975840D01*
X14163514Y-14595840D02*
G75*
G02*
X14013510Y-14445840I-4J150000D01*
G01*
X19745882Y-14595840D02*
X14163514Y-14595840D01*
X19895882Y-13628971D02*
X19895882Y-14445840D01*
X19895882Y-13628971D02*
G75*
G02*
X20045882Y-13478972I149998J1D01*
G01*
X19895882Y-14445840D02*
G75*
G02*
X19745882Y-14595842I-150002J0D01*
G01*
X20213514Y-6975840D02*
G75*
G02*
X20363510Y-7125840I-4J-150000D01*
G01*
X20213514Y-13478971D02*
X20045882Y-13478971D01*
X20363514Y-7125840D02*
X20363514Y-13328971D01*
X20363514Y-13328971D02*
G75*
G02*
X20213514Y-13478964I-149994J1D01*
G01*
D11*
D12*
X16867014Y-13884840D02*
X16932014Y-13949840D01*
X16932014Y-13884840D02*
X16867014Y-13949840D01*
X17445014Y-13884840D02*
X17510014Y-13949840D01*
X17510014Y-13884840D02*
X17445014Y-13949840D01*
X14566940Y-7816000D02*
G75*
G02*
X14466940Y-7816000I-50000J0D01*
G01*
X14466940Y-7816000D02*
G75*
G02*
X14566940Y-7816000I50000J0D01*
G01*
X14566940Y-8613560D02*
G75*
G02*
X14466940Y-8613560I-50000J0D01*
G01*
X14466940Y-8613560D02*
G75*
G02*
X14566940Y-8613560I50000J0D01*
G01*
D13*
X20121500Y-13647500D02*
X20121500Y-13872500D01*
X20009000Y-13760000D02*
X20234000Y-13760000D01*
X20121500Y-14247500D02*
X20121500Y-14472500D01*
X20009000Y-14360000D02*
X20234000Y-14360000D01*
D11*
X14271791Y-14909824D02*
X14271791Y-14709824D01*
X14271791Y-14709824D02*
X14319410Y-14709824D01*
X14319410Y-14709824D02*
X14347981Y-14719348D01*
X14347981Y-14719348D02*
X14367029Y-14738396D01*
X14367029Y-14738396D02*
X14376553Y-14757443D01*
X14376553Y-14757443D02*
X14386076Y-14795538D01*
X14386076Y-14795538D02*
X14386076Y-14824110D01*
X14386076Y-14824110D02*
X14376553Y-14862205D01*
X14376553Y-14862205D02*
X14367029Y-14881253D01*
X14367029Y-14881253D02*
X14347981Y-14900300D01*
X14347981Y-14900300D02*
X14319410Y-14909824D01*
X14319410Y-14909824D02*
X14271791Y-14909824D01*
X14471791Y-14909824D02*
X14471791Y-14776491D01*
X14471791Y-14814586D02*
X14481314Y-14795538D01*
X14481314Y-14795538D02*
X14490838Y-14786015D01*
X14490838Y-14786015D02*
X14509886Y-14776491D01*
X14509886Y-14776491D02*
X14528934Y-14776491D01*
X14595600Y-14909824D02*
X14595600Y-14776491D01*
X14595600Y-14709824D02*
X14586076Y-14719348D01*
X14586076Y-14719348D02*
X14595600Y-14728872D01*
X14595600Y-14728872D02*
X14605124Y-14719348D01*
X14605124Y-14719348D02*
X14595600Y-14709824D01*
X14595600Y-14709824D02*
X14595600Y-14728872D01*
X14719410Y-14909824D02*
X14700362Y-14900300D01*
X14700362Y-14900300D02*
X14690838Y-14881253D01*
X14690838Y-14881253D02*
X14690838Y-14709824D01*
X14824172Y-14909824D02*
X14805124Y-14900300D01*
X14805124Y-14900300D02*
X14795600Y-14881253D01*
X14795600Y-14881253D02*
X14795600Y-14709824D01*
X15052743Y-14909824D02*
X15052743Y-14709824D01*
X15052743Y-14709824D02*
X15119410Y-14852681D01*
X15119410Y-14852681D02*
X15186076Y-14709824D01*
X15186076Y-14709824D02*
X15186076Y-14909824D01*
X15367029Y-14909824D02*
X15367029Y-14805062D01*
X15367029Y-14805062D02*
X15357505Y-14786015D01*
X15357505Y-14786015D02*
X15338457Y-14776491D01*
X15338457Y-14776491D02*
X15300362Y-14776491D01*
X15300362Y-14776491D02*
X15281314Y-14786015D01*
X15367029Y-14900300D02*
X15347981Y-14909824D01*
X15347981Y-14909824D02*
X15300362Y-14909824D01*
X15300362Y-14909824D02*
X15281314Y-14900300D01*
X15281314Y-14900300D02*
X15271791Y-14881253D01*
X15271791Y-14881253D02*
X15271791Y-14862205D01*
X15271791Y-14862205D02*
X15281314Y-14843157D01*
X15281314Y-14843157D02*
X15300362Y-14833634D01*
X15300362Y-14833634D02*
X15347981Y-14833634D01*
X15347981Y-14833634D02*
X15367029Y-14824110D01*
X15462267Y-14776491D02*
X15462267Y-14976491D01*
X15462267Y-14786015D02*
X15481314Y-14776491D01*
X15481314Y-14776491D02*
X15519410Y-14776491D01*
X15519410Y-14776491D02*
X15538457Y-14786015D01*
X15538457Y-14786015D02*
X15547981Y-14795538D01*
X15547981Y-14795538D02*
X15557505Y-14814586D01*
X15557505Y-14814586D02*
X15557505Y-14871729D01*
X15557505Y-14871729D02*
X15547981Y-14890776D01*
X15547981Y-14890776D02*
X15538457Y-14900300D01*
X15538457Y-14900300D02*
X15519410Y-14909824D01*
X15519410Y-14909824D02*
X15481314Y-14909824D01*
X15481314Y-14909824D02*
X15462267Y-14900300D01*
X15643219Y-14890776D02*
X15652743Y-14900300D01*
X15652743Y-14900300D02*
X15643219Y-14909824D01*
X15643219Y-14909824D02*
X15633695Y-14900300D01*
X15633695Y-14900300D02*
X15643219Y-14890776D01*
X15643219Y-14890776D02*
X15643219Y-14909824D01*
X15643219Y-14786015D02*
X15652743Y-14795538D01*
X15652743Y-14795538D02*
X15643219Y-14805062D01*
X15643219Y-14805062D02*
X15633695Y-14795538D01*
X15633695Y-14795538D02*
X15643219Y-14786015D01*
X15643219Y-14786015D02*
X15643219Y-14805062D01*
D12*
X13946014Y-15205840D02*
X14011014Y-15270840D01*
X14011014Y-15205840D02*
X13946014Y-15270840D01*
D11*
X14309886Y-15129824D02*
X14328934Y-15129824D01*
X14328934Y-15129824D02*
X14347981Y-15139348D01*
X14347981Y-15139348D02*
X14357505Y-15148872D01*
X14357505Y-15148872D02*
X14367029Y-15167919D01*
X14367029Y-15167919D02*
X14376553Y-15206015D01*
X14376553Y-15206015D02*
X14376553Y-15253634D01*
X14376553Y-15253634D02*
X14367029Y-15291729D01*
X14367029Y-15291729D02*
X14357505Y-15310776D01*
X14357505Y-15310776D02*
X14347981Y-15320300D01*
X14347981Y-15320300D02*
X14328934Y-15329824D01*
X14328934Y-15329824D02*
X14309886Y-15329824D01*
X14309886Y-15329824D02*
X14290838Y-15320300D01*
X14290838Y-15320300D02*
X14281314Y-15310776D01*
X14281314Y-15310776D02*
X14271791Y-15291729D01*
X14271791Y-15291729D02*
X14262267Y-15253634D01*
X14262267Y-15253634D02*
X14262267Y-15206015D01*
X14262267Y-15206015D02*
X14271791Y-15167919D01*
X14271791Y-15167919D02*
X14281314Y-15148872D01*
X14281314Y-15148872D02*
X14290838Y-15139348D01*
X14290838Y-15139348D02*
X14309886Y-15129824D01*
X14462267Y-15310776D02*
X14471791Y-15320300D01*
X14471791Y-15320300D02*
X14462267Y-15329824D01*
X14462267Y-15329824D02*
X14452743Y-15320300D01*
X14452743Y-15320300D02*
X14462267Y-15310776D01*
X14462267Y-15310776D02*
X14462267Y-15329824D01*
X14643219Y-15129824D02*
X14605124Y-15129824D01*
X14605124Y-15129824D02*
X14586076Y-15139348D01*
X14586076Y-15139348D02*
X14576553Y-15148872D01*
X14576553Y-15148872D02*
X14557505Y-15177443D01*
X14557505Y-15177443D02*
X14547981Y-15215538D01*
X14547981Y-15215538D02*
X14547981Y-15291729D01*
X14547981Y-15291729D02*
X14557505Y-15310776D01*
X14557505Y-15310776D02*
X14567029Y-15320300D01*
X14567029Y-15320300D02*
X14586076Y-15329824D01*
X14586076Y-15329824D02*
X14624172Y-15329824D01*
X14624172Y-15329824D02*
X14643219Y-15320300D01*
X14643219Y-15320300D02*
X14652743Y-15310776D01*
X14652743Y-15310776D02*
X14662267Y-15291729D01*
X14662267Y-15291729D02*
X14662267Y-15244110D01*
X14662267Y-15244110D02*
X14652743Y-15225062D01*
X14652743Y-15225062D02*
X14643219Y-15215538D01*
X14643219Y-15215538D02*
X14624172Y-15206015D01*
X14624172Y-15206015D02*
X14586076Y-15206015D01*
X14586076Y-15206015D02*
X14567029Y-15215538D01*
X14567029Y-15215538D02*
X14557505Y-15225062D01*
X14557505Y-15225062D02*
X14547981Y-15244110D01*
X14843219Y-15129824D02*
X14747981Y-15129824D01*
X14747981Y-15129824D02*
X14738457Y-15225062D01*
X14738457Y-15225062D02*
X14747981Y-15215538D01*
X14747981Y-15215538D02*
X14767029Y-15206015D01*
X14767029Y-15206015D02*
X14814648Y-15206015D01*
X14814648Y-15206015D02*
X14833695Y-15215538D01*
X14833695Y-15215538D02*
X14843219Y-15225062D01*
X14843219Y-15225062D02*
X14852743Y-15244110D01*
X14852743Y-15244110D02*
X14852743Y-15291729D01*
X14852743Y-15291729D02*
X14843219Y-15310776D01*
X14843219Y-15310776D02*
X14833695Y-15320300D01*
X14833695Y-15320300D02*
X14814648Y-15329824D01*
X14814648Y-15329824D02*
X14767029Y-15329824D01*
X14767029Y-15329824D02*
X14747981Y-15320300D01*
X14747981Y-15320300D02*
X14738457Y-15310776D01*
X14976553Y-15129824D02*
X14995600Y-15129824D01*
X14995600Y-15129824D02*
X15014648Y-15139348D01*
X15014648Y-15139348D02*
X15024172Y-15148872D01*
X15024172Y-15148872D02*
X15033695Y-15167919D01*
X15033695Y-15167919D02*
X15043219Y-15206015D01*
X15043219Y-15206015D02*
X15043219Y-15253634D01*
X15043219Y-15253634D02*
X15033695Y-15291729D01*
X15033695Y-15291729D02*
X15024172Y-15310776D01*
X15024172Y-15310776D02*
X15014648Y-15320300D01*
X15014648Y-15320300D02*
X14995600Y-15329824D01*
X14995600Y-15329824D02*
X14976553Y-15329824D01*
X14976553Y-15329824D02*
X14957505Y-15320300D01*
X14957505Y-15320300D02*
X14947981Y-15310776D01*
X14947981Y-15310776D02*
X14938457Y-15291729D01*
X14938457Y-15291729D02*
X14928934Y-15253634D01*
X14928934Y-15253634D02*
X14928934Y-15206015D01*
X14928934Y-15206015D02*
X14938457Y-15167919D01*
X14938457Y-15167919D02*
X14947981Y-15148872D01*
X14947981Y-15148872D02*
X14957505Y-15139348D01*
X14957505Y-15139348D02*
X14976553Y-15129824D01*
X15128934Y-15329824D02*
X15128934Y-15196491D01*
X15128934Y-15215538D02*
X15138457Y-15206015D01*
X15138457Y-15206015D02*
X15157505Y-15196491D01*
X15157505Y-15196491D02*
X15186076Y-15196491D01*
X15186076Y-15196491D02*
X15205124Y-15206015D01*
X15205124Y-15206015D02*
X15214648Y-15225062D01*
X15214648Y-15225062D02*
X15214648Y-15329824D01*
X15214648Y-15225062D02*
X15224172Y-15206015D01*
X15224172Y-15206015D02*
X15243219Y-15196491D01*
X15243219Y-15196491D02*
X15271791Y-15196491D01*
X15271791Y-15196491D02*
X15290838Y-15206015D01*
X15290838Y-15206015D02*
X15300362Y-15225062D01*
X15300362Y-15225062D02*
X15300362Y-15329824D01*
X15395600Y-15329824D02*
X15395600Y-15196491D01*
X15395600Y-15215538D02*
X15405124Y-15206015D01*
X15405124Y-15206015D02*
X15424172Y-15196491D01*
X15424172Y-15196491D02*
X15452743Y-15196491D01*
X15452743Y-15196491D02*
X15471791Y-15206015D01*
X15471791Y-15206015D02*
X15481315Y-15225062D01*
X15481315Y-15225062D02*
X15481315Y-15329824D01*
X15481315Y-15225062D02*
X15490838Y-15206015D01*
X15490838Y-15206015D02*
X15509886Y-15196491D01*
X15509886Y-15196491D02*
X15538457Y-15196491D01*
X15538457Y-15196491D02*
X15557505Y-15206015D01*
X15557505Y-15206015D02*
X15567029Y-15225062D01*
X15567029Y-15225062D02*
X15567029Y-15329824D01*
X15957505Y-15120300D02*
X15786077Y-15377443D01*
X16214648Y-15129824D02*
X16233696Y-15129824D01*
X16233696Y-15129824D02*
X16252743Y-15139348D01*
X16252743Y-15139348D02*
X16262267Y-15148872D01*
X16262267Y-15148872D02*
X16271791Y-15167919D01*
X16271791Y-15167919D02*
X16281315Y-15206015D01*
X16281315Y-15206015D02*
X16281315Y-15253634D01*
X16281315Y-15253634D02*
X16271791Y-15291729D01*
X16271791Y-15291729D02*
X16262267Y-15310776D01*
X16262267Y-15310776D02*
X16252743Y-15320300D01*
X16252743Y-15320300D02*
X16233696Y-15329824D01*
X16233696Y-15329824D02*
X16214648Y-15329824D01*
X16214648Y-15329824D02*
X16195600Y-15320300D01*
X16195600Y-15320300D02*
X16186077Y-15310776D01*
X16186077Y-15310776D02*
X16176553Y-15291729D01*
X16176553Y-15291729D02*
X16167029Y-15253634D01*
X16167029Y-15253634D02*
X16167029Y-15206015D01*
X16167029Y-15206015D02*
X16176553Y-15167919D01*
X16176553Y-15167919D02*
X16186077Y-15148872D01*
X16186077Y-15148872D02*
X16195600Y-15139348D01*
X16195600Y-15139348D02*
X16214648Y-15129824D01*
X16367029Y-15310776D02*
X16376553Y-15320300D01*
X16376553Y-15320300D02*
X16367029Y-15329824D01*
X16367029Y-15329824D02*
X16357505Y-15320300D01*
X16357505Y-15320300D02*
X16367029Y-15310776D01*
X16367029Y-15310776D02*
X16367029Y-15329824D01*
X16500362Y-15129824D02*
X16519410Y-15129824D01*
X16519410Y-15129824D02*
X16538458Y-15139348D01*
X16538458Y-15139348D02*
X16547981Y-15148872D01*
X16547981Y-15148872D02*
X16557505Y-15167919D01*
X16557505Y-15167919D02*
X16567029Y-15206015D01*
X16567029Y-15206015D02*
X16567029Y-15253634D01*
X16567029Y-15253634D02*
X16557505Y-15291729D01*
X16557505Y-15291729D02*
X16547981Y-15310776D01*
X16547981Y-15310776D02*
X16538458Y-15320300D01*
X16538458Y-15320300D02*
X16519410Y-15329824D01*
X16519410Y-15329824D02*
X16500362Y-15329824D01*
X16500362Y-15329824D02*
X16481315Y-15320300D01*
X16481315Y-15320300D02*
X16471791Y-15310776D01*
X16471791Y-15310776D02*
X16462267Y-15291729D01*
X16462267Y-15291729D02*
X16452743Y-15253634D01*
X16452743Y-15253634D02*
X16452743Y-15206015D01*
X16452743Y-15206015D02*
X16462267Y-15167919D01*
X16462267Y-15167919D02*
X16471791Y-15148872D01*
X16471791Y-15148872D02*
X16481315Y-15139348D01*
X16481315Y-15139348D02*
X16500362Y-15129824D01*
X16643219Y-15148872D02*
X16652743Y-15139348D01*
X16652743Y-15139348D02*
X16671791Y-15129824D01*
X16671791Y-15129824D02*
X16719410Y-15129824D01*
X16719410Y-15129824D02*
X16738458Y-15139348D01*
X16738458Y-15139348D02*
X16747981Y-15148872D01*
X16747981Y-15148872D02*
X16757505Y-15167919D01*
X16757505Y-15167919D02*
X16757505Y-15186967D01*
X16757505Y-15186967D02*
X16747981Y-15215538D01*
X16747981Y-15215538D02*
X16633696Y-15329824D01*
X16633696Y-15329824D02*
X16757505Y-15329824D01*
X16938458Y-15129824D02*
X16843220Y-15129824D01*
X16843220Y-15129824D02*
X16833696Y-15225062D01*
X16833696Y-15225062D02*
X16843220Y-15215538D01*
X16843220Y-15215538D02*
X16862267Y-15206015D01*
X16862267Y-15206015D02*
X16909886Y-15206015D01*
X16909886Y-15206015D02*
X16928934Y-15215538D01*
X16928934Y-15215538D02*
X16938458Y-15225062D01*
X16938458Y-15225062D02*
X16947981Y-15244110D01*
X16947981Y-15244110D02*
X16947981Y-15291729D01*
X16947981Y-15291729D02*
X16938458Y-15310776D01*
X16938458Y-15310776D02*
X16928934Y-15320300D01*
X16928934Y-15320300D02*
X16909886Y-15329824D01*
X16909886Y-15329824D02*
X16862267Y-15329824D01*
X16862267Y-15329824D02*
X16843220Y-15320300D01*
X16843220Y-15320300D02*
X16833696Y-15310776D01*
X17119410Y-15129824D02*
X17081315Y-15129824D01*
X17081315Y-15129824D02*
X17062267Y-15139348D01*
X17062267Y-15139348D02*
X17052743Y-15148872D01*
X17052743Y-15148872D02*
X17033696Y-15177443D01*
X17033696Y-15177443D02*
X17024172Y-15215538D01*
X17024172Y-15215538D02*
X17024172Y-15291729D01*
X17024172Y-15291729D02*
X17033696Y-15310776D01*
X17033696Y-15310776D02*
X17043220Y-15320300D01*
X17043220Y-15320300D02*
X17062267Y-15329824D01*
X17062267Y-15329824D02*
X17100362Y-15329824D01*
X17100362Y-15329824D02*
X17119410Y-15320300D01*
X17119410Y-15320300D02*
X17128934Y-15310776D01*
X17128934Y-15310776D02*
X17138458Y-15291729D01*
X17138458Y-15291729D02*
X17138458Y-15244110D01*
X17138458Y-15244110D02*
X17128934Y-15225062D01*
X17128934Y-15225062D02*
X17119410Y-15215538D01*
X17119410Y-15215538D02*
X17100362Y-15206015D01*
X17100362Y-15206015D02*
X17062267Y-15206015D01*
X17062267Y-15206015D02*
X17043220Y-15215538D01*
X17043220Y-15215538D02*
X17033696Y-15225062D01*
X17033696Y-15225062D02*
X17024172Y-15244110D01*
X17214648Y-15129824D02*
X17214648Y-15167919D01*
X17290839Y-15129824D02*
X17290839Y-15167919D01*
X17586077Y-15406015D02*
X17576553Y-15396491D01*
X17576553Y-15396491D02*
X17557505Y-15367919D01*
X17557505Y-15367919D02*
X17547982Y-15348872D01*
X17547982Y-15348872D02*
X17538458Y-15320300D01*
X17538458Y-15320300D02*
X17528934Y-15272681D01*
X17528934Y-15272681D02*
X17528934Y-15234586D01*
X17528934Y-15234586D02*
X17538458Y-15186967D01*
X17538458Y-15186967D02*
X17547982Y-15158396D01*
X17547982Y-15158396D02*
X17557505Y-15139348D01*
X17557505Y-15139348D02*
X17576553Y-15110776D01*
X17576553Y-15110776D02*
X17586077Y-15101253D01*
X17652743Y-15148872D02*
X17662267Y-15139348D01*
X17662267Y-15139348D02*
X17681315Y-15129824D01*
X17681315Y-15129824D02*
X17728934Y-15129824D01*
X17728934Y-15129824D02*
X17747982Y-15139348D01*
X17747982Y-15139348D02*
X17757505Y-15148872D01*
X17757505Y-15148872D02*
X17767029Y-15167919D01*
X17767029Y-15167919D02*
X17767029Y-15186967D01*
X17767029Y-15186967D02*
X17757505Y-15215538D01*
X17757505Y-15215538D02*
X17643220Y-15329824D01*
X17643220Y-15329824D02*
X17767029Y-15329824D01*
X18005124Y-15329824D02*
X18005124Y-15129824D01*
X18090839Y-15329824D02*
X18090839Y-15225062D01*
X18090839Y-15225062D02*
X18081315Y-15206015D01*
X18081315Y-15206015D02*
X18062267Y-15196491D01*
X18062267Y-15196491D02*
X18033696Y-15196491D01*
X18033696Y-15196491D02*
X18014648Y-15206015D01*
X18014648Y-15206015D02*
X18005124Y-15215538D01*
X18214648Y-15329824D02*
X18195601Y-15320300D01*
X18195601Y-15320300D02*
X18186077Y-15310776D01*
X18186077Y-15310776D02*
X18176553Y-15291729D01*
X18176553Y-15291729D02*
X18176553Y-15234586D01*
X18176553Y-15234586D02*
X18186077Y-15215538D01*
X18186077Y-15215538D02*
X18195601Y-15206015D01*
X18195601Y-15206015D02*
X18214648Y-15196491D01*
X18214648Y-15196491D02*
X18243220Y-15196491D01*
X18243220Y-15196491D02*
X18262267Y-15206015D01*
X18262267Y-15206015D02*
X18271791Y-15215538D01*
X18271791Y-15215538D02*
X18281315Y-15234586D01*
X18281315Y-15234586D02*
X18281315Y-15291729D01*
X18281315Y-15291729D02*
X18271791Y-15310776D01*
X18271791Y-15310776D02*
X18262267Y-15320300D01*
X18262267Y-15320300D02*
X18243220Y-15329824D01*
X18243220Y-15329824D02*
X18214648Y-15329824D01*
X18395601Y-15329824D02*
X18376553Y-15320300D01*
X18376553Y-15320300D02*
X18367029Y-15301253D01*
X18367029Y-15301253D02*
X18367029Y-15129824D01*
X18547982Y-15320300D02*
X18528934Y-15329824D01*
X18528934Y-15329824D02*
X18490839Y-15329824D01*
X18490839Y-15329824D02*
X18471791Y-15320300D01*
X18471791Y-15320300D02*
X18462267Y-15301253D01*
X18462267Y-15301253D02*
X18462267Y-15225062D01*
X18462267Y-15225062D02*
X18471791Y-15206015D01*
X18471791Y-15206015D02*
X18490839Y-15196491D01*
X18490839Y-15196491D02*
X18528934Y-15196491D01*
X18528934Y-15196491D02*
X18547982Y-15206015D01*
X18547982Y-15206015D02*
X18557505Y-15225062D01*
X18557505Y-15225062D02*
X18557505Y-15244110D01*
X18557505Y-15244110D02*
X18462267Y-15263157D01*
X18633696Y-15320300D02*
X18652744Y-15329824D01*
X18652744Y-15329824D02*
X18690839Y-15329824D01*
X18690839Y-15329824D02*
X18709886Y-15320300D01*
X18709886Y-15320300D02*
X18719410Y-15301253D01*
X18719410Y-15301253D02*
X18719410Y-15291729D01*
X18719410Y-15291729D02*
X18709886Y-15272681D01*
X18709886Y-15272681D02*
X18690839Y-15263157D01*
X18690839Y-15263157D02*
X18662267Y-15263157D01*
X18662267Y-15263157D02*
X18643220Y-15253634D01*
X18643220Y-15253634D02*
X18633696Y-15234586D01*
X18633696Y-15234586D02*
X18633696Y-15225062D01*
X18633696Y-15225062D02*
X18643220Y-15206015D01*
X18643220Y-15206015D02*
X18662267Y-15196491D01*
X18662267Y-15196491D02*
X18690839Y-15196491D01*
X18690839Y-15196491D02*
X18709886Y-15206015D01*
X18786077Y-15406015D02*
X18795601Y-15396491D01*
X18795601Y-15396491D02*
X18814648Y-15367919D01*
X18814648Y-15367919D02*
X18824172Y-15348872D01*
X18824172Y-15348872D02*
X18833696Y-15320300D01*
X18833696Y-15320300D02*
X18843220Y-15272681D01*
X18843220Y-15272681D02*
X18843220Y-15234586D01*
X18843220Y-15234586D02*
X18833696Y-15186967D01*
X18833696Y-15186967D02*
X18824172Y-15158396D01*
X18824172Y-15158396D02*
X18814648Y-15139348D01*
X18814648Y-15139348D02*
X18795601Y-15110776D01*
X18795601Y-15110776D02*
X18786077Y-15101253D01*
X19147982Y-15406015D02*
X19138458Y-15396491D01*
X19138458Y-15396491D02*
X19119410Y-15367919D01*
X19119410Y-15367919D02*
X19109886Y-15348872D01*
X19109886Y-15348872D02*
X19100363Y-15320300D01*
X19100363Y-15320300D02*
X19090839Y-15272681D01*
X19090839Y-15272681D02*
X19090839Y-15234586D01*
X19090839Y-15234586D02*
X19100363Y-15186967D01*
X19100363Y-15186967D02*
X19109886Y-15158396D01*
X19109886Y-15158396D02*
X19119410Y-15139348D01*
X19119410Y-15139348D02*
X19138458Y-15110776D01*
X19138458Y-15110776D02*
X19147982Y-15101253D01*
X19224172Y-15196491D02*
X19224172Y-15329824D01*
X19224172Y-15215538D02*
X19233696Y-15206015D01*
X19233696Y-15206015D02*
X19252744Y-15196491D01*
X19252744Y-15196491D02*
X19281315Y-15196491D01*
X19281315Y-15196491D02*
X19300363Y-15206015D01*
X19300363Y-15206015D02*
X19309886Y-15225062D01*
X19309886Y-15225062D02*
X19309886Y-15329824D01*
X19433696Y-15329824D02*
X19414648Y-15320300D01*
X19414648Y-15320300D02*
X19405125Y-15310776D01*
X19405125Y-15310776D02*
X19395601Y-15291729D01*
X19395601Y-15291729D02*
X19395601Y-15234586D01*
X19395601Y-15234586D02*
X19405125Y-15215538D01*
X19405125Y-15215538D02*
X19414648Y-15206015D01*
X19414648Y-15206015D02*
X19433696Y-15196491D01*
X19433696Y-15196491D02*
X19462267Y-15196491D01*
X19462267Y-15196491D02*
X19481315Y-15206015D01*
X19481315Y-15206015D02*
X19490839Y-15215538D01*
X19490839Y-15215538D02*
X19500363Y-15234586D01*
X19500363Y-15234586D02*
X19500363Y-15291729D01*
X19500363Y-15291729D02*
X19490839Y-15310776D01*
X19490839Y-15310776D02*
X19481315Y-15320300D01*
X19481315Y-15320300D02*
X19462267Y-15329824D01*
X19462267Y-15329824D02*
X19433696Y-15329824D01*
X19557506Y-15196491D02*
X19633696Y-15196491D01*
X19586077Y-15129824D02*
X19586077Y-15301253D01*
X19586077Y-15301253D02*
X19595601Y-15320300D01*
X19595601Y-15320300D02*
X19614648Y-15329824D01*
X19614648Y-15329824D02*
X19633696Y-15329824D01*
X19852744Y-15196491D02*
X19852744Y-15396491D01*
X19852744Y-15206015D02*
X19871791Y-15196491D01*
X19871791Y-15196491D02*
X19909887Y-15196491D01*
X19909887Y-15196491D02*
X19928934Y-15206015D01*
X19928934Y-15206015D02*
X19938458Y-15215538D01*
X19938458Y-15215538D02*
X19947982Y-15234586D01*
X19947982Y-15234586D02*
X19947982Y-15291729D01*
X19947982Y-15291729D02*
X19938458Y-15310776D01*
X19938458Y-15310776D02*
X19928934Y-15320300D01*
X19928934Y-15320300D02*
X19909887Y-15329824D01*
X19909887Y-15329824D02*
X19871791Y-15329824D01*
X19871791Y-15329824D02*
X19852744Y-15320300D01*
X20062267Y-15329824D02*
X20043220Y-15320300D01*
X20043220Y-15320300D02*
X20033696Y-15301253D01*
X20033696Y-15301253D02*
X20033696Y-15129824D01*
X20224172Y-15329824D02*
X20224172Y-15225062D01*
X20224172Y-15225062D02*
X20214648Y-15206015D01*
X20214648Y-15206015D02*
X20195601Y-15196491D01*
X20195601Y-15196491D02*
X20157506Y-15196491D01*
X20157506Y-15196491D02*
X20138458Y-15206015D01*
X20224172Y-15320300D02*
X20205125Y-15329824D01*
X20205125Y-15329824D02*
X20157506Y-15329824D01*
X20157506Y-15329824D02*
X20138458Y-15320300D01*
X20138458Y-15320300D02*
X20128934Y-15301253D01*
X20128934Y-15301253D02*
X20128934Y-15282205D01*
X20128934Y-15282205D02*
X20138458Y-15263157D01*
X20138458Y-15263157D02*
X20157506Y-15253634D01*
X20157506Y-15253634D02*
X20205125Y-15253634D01*
X20205125Y-15253634D02*
X20224172Y-15244110D01*
X20290839Y-15196491D02*
X20367029Y-15196491D01*
X20319410Y-15129824D02*
X20319410Y-15301253D01*
X20319410Y-15301253D02*
X20328934Y-15320300D01*
X20328934Y-15320300D02*
X20347982Y-15329824D01*
X20347982Y-15329824D02*
X20367029Y-15329824D01*
X20509887Y-15320300D02*
X20490839Y-15329824D01*
X20490839Y-15329824D02*
X20452744Y-15329824D01*
X20452744Y-15329824D02*
X20433696Y-15320300D01*
X20433696Y-15320300D02*
X20424172Y-15301253D01*
X20424172Y-15301253D02*
X20424172Y-15225062D01*
X20424172Y-15225062D02*
X20433696Y-15206015D01*
X20433696Y-15206015D02*
X20452744Y-15196491D01*
X20452744Y-15196491D02*
X20490839Y-15196491D01*
X20490839Y-15196491D02*
X20509887Y-15206015D01*
X20509887Y-15206015D02*
X20519410Y-15225062D01*
X20519410Y-15225062D02*
X20519410Y-15244110D01*
X20519410Y-15244110D02*
X20424172Y-15263157D01*
X20690839Y-15329824D02*
X20690839Y-15129824D01*
X20690839Y-15320300D02*
X20671791Y-15329824D01*
X20671791Y-15329824D02*
X20633696Y-15329824D01*
X20633696Y-15329824D02*
X20614648Y-15320300D01*
X20614648Y-15320300D02*
X20605125Y-15310776D01*
X20605125Y-15310776D02*
X20595601Y-15291729D01*
X20595601Y-15291729D02*
X20595601Y-15234586D01*
X20595601Y-15234586D02*
X20605125Y-15215538D01*
X20605125Y-15215538D02*
X20614648Y-15206015D01*
X20614648Y-15206015D02*
X20633696Y-15196491D01*
X20633696Y-15196491D02*
X20671791Y-15196491D01*
X20671791Y-15196491D02*
X20690839Y-15206015D01*
X20767029Y-15406015D02*
X20776553Y-15396491D01*
X20776553Y-15396491D02*
X20795601Y-15367919D01*
X20795601Y-15367919D02*
X20805125Y-15348872D01*
X20805125Y-15348872D02*
X20814648Y-15320300D01*
X20814648Y-15320300D02*
X20824172Y-15272681D01*
X20824172Y-15272681D02*
X20824172Y-15234586D01*
X20824172Y-15234586D02*
X20814648Y-15186967D01*
X20814648Y-15186967D02*
X20805125Y-15158396D01*
X20805125Y-15158396D02*
X20795601Y-15139348D01*
X20795601Y-15139348D02*
X20776553Y-15110776D01*
X20776553Y-15110776D02*
X20767029Y-15101253D01*
D12*
X14011014Y-15502340D02*
G75*
G02*
X13911014Y-15502340I-50000J0D01*
G01*
X13911014Y-15502340D02*
G75*
G02*
X14011014Y-15502340I50000J0D01*
G01*
D11*
X14376553Y-15593824D02*
X14262267Y-15593824D01*
X14319410Y-15593824D02*
X14319410Y-15393824D01*
X14319410Y-15393824D02*
X14300362Y-15422396D01*
X14300362Y-15422396D02*
X14281314Y-15441443D01*
X14281314Y-15441443D02*
X14262267Y-15450967D01*
X14462267Y-15574776D02*
X14471791Y-15584300D01*
X14471791Y-15584300D02*
X14462267Y-15593824D01*
X14462267Y-15593824D02*
X14452743Y-15584300D01*
X14452743Y-15584300D02*
X14462267Y-15574776D01*
X14462267Y-15574776D02*
X14462267Y-15593824D01*
X14595600Y-15393824D02*
X14614648Y-15393824D01*
X14614648Y-15393824D02*
X14633695Y-15403348D01*
X14633695Y-15403348D02*
X14643219Y-15412872D01*
X14643219Y-15412872D02*
X14652743Y-15431919D01*
X14652743Y-15431919D02*
X14662267Y-15470015D01*
X14662267Y-15470015D02*
X14662267Y-15517634D01*
X14662267Y-15517634D02*
X14652743Y-15555729D01*
X14652743Y-15555729D02*
X14643219Y-15574776D01*
X14643219Y-15574776D02*
X14633695Y-15584300D01*
X14633695Y-15584300D02*
X14614648Y-15593824D01*
X14614648Y-15593824D02*
X14595600Y-15593824D01*
X14595600Y-15593824D02*
X14576553Y-15584300D01*
X14576553Y-15584300D02*
X14567029Y-15574776D01*
X14567029Y-15574776D02*
X14557505Y-15555729D01*
X14557505Y-15555729D02*
X14547981Y-15517634D01*
X14547981Y-15517634D02*
X14547981Y-15470015D01*
X14547981Y-15470015D02*
X14557505Y-15431919D01*
X14557505Y-15431919D02*
X14567029Y-15412872D01*
X14567029Y-15412872D02*
X14576553Y-15403348D01*
X14576553Y-15403348D02*
X14595600Y-15393824D01*
X14786076Y-15393824D02*
X14805124Y-15393824D01*
X14805124Y-15393824D02*
X14824172Y-15403348D01*
X14824172Y-15403348D02*
X14833695Y-15412872D01*
X14833695Y-15412872D02*
X14843219Y-15431919D01*
X14843219Y-15431919D02*
X14852743Y-15470015D01*
X14852743Y-15470015D02*
X14852743Y-15517634D01*
X14852743Y-15517634D02*
X14843219Y-15555729D01*
X14843219Y-15555729D02*
X14833695Y-15574776D01*
X14833695Y-15574776D02*
X14824172Y-15584300D01*
X14824172Y-15584300D02*
X14805124Y-15593824D01*
X14805124Y-15593824D02*
X14786076Y-15593824D01*
X14786076Y-15593824D02*
X14767029Y-15584300D01*
X14767029Y-15584300D02*
X14757505Y-15574776D01*
X14757505Y-15574776D02*
X14747981Y-15555729D01*
X14747981Y-15555729D02*
X14738457Y-15517634D01*
X14738457Y-15517634D02*
X14738457Y-15470015D01*
X14738457Y-15470015D02*
X14747981Y-15431919D01*
X14747981Y-15431919D02*
X14757505Y-15412872D01*
X14757505Y-15412872D02*
X14767029Y-15403348D01*
X14767029Y-15403348D02*
X14786076Y-15393824D01*
X14976553Y-15393824D02*
X14995600Y-15393824D01*
X14995600Y-15393824D02*
X15014648Y-15403348D01*
X15014648Y-15403348D02*
X15024172Y-15412872D01*
X15024172Y-15412872D02*
X15033695Y-15431919D01*
X15033695Y-15431919D02*
X15043219Y-15470015D01*
X15043219Y-15470015D02*
X15043219Y-15517634D01*
X15043219Y-15517634D02*
X15033695Y-15555729D01*
X15033695Y-15555729D02*
X15024172Y-15574776D01*
X15024172Y-15574776D02*
X15014648Y-15584300D01*
X15014648Y-15584300D02*
X14995600Y-15593824D01*
X14995600Y-15593824D02*
X14976553Y-15593824D01*
X14976553Y-15593824D02*
X14957505Y-15584300D01*
X14957505Y-15584300D02*
X14947981Y-15574776D01*
X14947981Y-15574776D02*
X14938457Y-15555729D01*
X14938457Y-15555729D02*
X14928934Y-15517634D01*
X14928934Y-15517634D02*
X14928934Y-15470015D01*
X14928934Y-15470015D02*
X14938457Y-15431919D01*
X14938457Y-15431919D02*
X14947981Y-15412872D01*
X14947981Y-15412872D02*
X14957505Y-15403348D01*
X14957505Y-15403348D02*
X14976553Y-15393824D01*
X15128934Y-15593824D02*
X15128934Y-15460491D01*
X15128934Y-15479538D02*
X15138457Y-15470015D01*
X15138457Y-15470015D02*
X15157505Y-15460491D01*
X15157505Y-15460491D02*
X15186076Y-15460491D01*
X15186076Y-15460491D02*
X15205124Y-15470015D01*
X15205124Y-15470015D02*
X15214648Y-15489062D01*
X15214648Y-15489062D02*
X15214648Y-15593824D01*
X15214648Y-15489062D02*
X15224172Y-15470015D01*
X15224172Y-15470015D02*
X15243219Y-15460491D01*
X15243219Y-15460491D02*
X15271791Y-15460491D01*
X15271791Y-15460491D02*
X15290838Y-15470015D01*
X15290838Y-15470015D02*
X15300362Y-15489062D01*
X15300362Y-15489062D02*
X15300362Y-15593824D01*
X15395600Y-15593824D02*
X15395600Y-15460491D01*
X15395600Y-15479538D02*
X15405124Y-15470015D01*
X15405124Y-15470015D02*
X15424172Y-15460491D01*
X15424172Y-15460491D02*
X15452743Y-15460491D01*
X15452743Y-15460491D02*
X15471791Y-15470015D01*
X15471791Y-15470015D02*
X15481315Y-15489062D01*
X15481315Y-15489062D02*
X15481315Y-15593824D01*
X15481315Y-15489062D02*
X15490838Y-15470015D01*
X15490838Y-15470015D02*
X15509886Y-15460491D01*
X15509886Y-15460491D02*
X15538457Y-15460491D01*
X15538457Y-15460491D02*
X15557505Y-15470015D01*
X15557505Y-15470015D02*
X15567029Y-15489062D01*
X15567029Y-15489062D02*
X15567029Y-15593824D01*
X15957505Y-15384300D02*
X15786077Y-15641443D01*
X16214648Y-15393824D02*
X16233696Y-15393824D01*
X16233696Y-15393824D02*
X16252743Y-15403348D01*
X16252743Y-15403348D02*
X16262267Y-15412872D01*
X16262267Y-15412872D02*
X16271791Y-15431919D01*
X16271791Y-15431919D02*
X16281315Y-15470015D01*
X16281315Y-15470015D02*
X16281315Y-15517634D01*
X16281315Y-15517634D02*
X16271791Y-15555729D01*
X16271791Y-15555729D02*
X16262267Y-15574776D01*
X16262267Y-15574776D02*
X16252743Y-15584300D01*
X16252743Y-15584300D02*
X16233696Y-15593824D01*
X16233696Y-15593824D02*
X16214648Y-15593824D01*
X16214648Y-15593824D02*
X16195600Y-15584300D01*
X16195600Y-15584300D02*
X16186077Y-15574776D01*
X16186077Y-15574776D02*
X16176553Y-15555729D01*
X16176553Y-15555729D02*
X16167029Y-15517634D01*
X16167029Y-15517634D02*
X16167029Y-15470015D01*
X16167029Y-15470015D02*
X16176553Y-15431919D01*
X16176553Y-15431919D02*
X16186077Y-15412872D01*
X16186077Y-15412872D02*
X16195600Y-15403348D01*
X16195600Y-15403348D02*
X16214648Y-15393824D01*
X16367029Y-15574776D02*
X16376553Y-15584300D01*
X16376553Y-15584300D02*
X16367029Y-15593824D01*
X16367029Y-15593824D02*
X16357505Y-15584300D01*
X16357505Y-15584300D02*
X16367029Y-15574776D01*
X16367029Y-15574776D02*
X16367029Y-15593824D01*
X16500362Y-15393824D02*
X16519410Y-15393824D01*
X16519410Y-15393824D02*
X16538458Y-15403348D01*
X16538458Y-15403348D02*
X16547981Y-15412872D01*
X16547981Y-15412872D02*
X16557505Y-15431919D01*
X16557505Y-15431919D02*
X16567029Y-15470015D01*
X16567029Y-15470015D02*
X16567029Y-15517634D01*
X16567029Y-15517634D02*
X16557505Y-15555729D01*
X16557505Y-15555729D02*
X16547981Y-15574776D01*
X16547981Y-15574776D02*
X16538458Y-15584300D01*
X16538458Y-15584300D02*
X16519410Y-15593824D01*
X16519410Y-15593824D02*
X16500362Y-15593824D01*
X16500362Y-15593824D02*
X16481315Y-15584300D01*
X16481315Y-15584300D02*
X16471791Y-15574776D01*
X16471791Y-15574776D02*
X16462267Y-15555729D01*
X16462267Y-15555729D02*
X16452743Y-15517634D01*
X16452743Y-15517634D02*
X16452743Y-15470015D01*
X16452743Y-15470015D02*
X16462267Y-15431919D01*
X16462267Y-15431919D02*
X16471791Y-15412872D01*
X16471791Y-15412872D02*
X16481315Y-15403348D01*
X16481315Y-15403348D02*
X16500362Y-15393824D01*
X16633696Y-15393824D02*
X16757505Y-15393824D01*
X16757505Y-15393824D02*
X16690838Y-15470015D01*
X16690838Y-15470015D02*
X16719410Y-15470015D01*
X16719410Y-15470015D02*
X16738458Y-15479538D01*
X16738458Y-15479538D02*
X16747981Y-15489062D01*
X16747981Y-15489062D02*
X16757505Y-15508110D01*
X16757505Y-15508110D02*
X16757505Y-15555729D01*
X16757505Y-15555729D02*
X16747981Y-15574776D01*
X16747981Y-15574776D02*
X16738458Y-15584300D01*
X16738458Y-15584300D02*
X16719410Y-15593824D01*
X16719410Y-15593824D02*
X16662267Y-15593824D01*
X16662267Y-15593824D02*
X16643219Y-15584300D01*
X16643219Y-15584300D02*
X16633696Y-15574776D01*
X16852743Y-15593824D02*
X16890839Y-15593824D01*
X16890839Y-15593824D02*
X16909886Y-15584300D01*
X16909886Y-15584300D02*
X16919410Y-15574776D01*
X16919410Y-15574776D02*
X16938458Y-15546205D01*
X16938458Y-15546205D02*
X16947981Y-15508110D01*
X16947981Y-15508110D02*
X16947981Y-15431919D01*
X16947981Y-15431919D02*
X16938458Y-15412872D01*
X16938458Y-15412872D02*
X16928934Y-15403348D01*
X16928934Y-15403348D02*
X16909886Y-15393824D01*
X16909886Y-15393824D02*
X16871791Y-15393824D01*
X16871791Y-15393824D02*
X16852743Y-15403348D01*
X16852743Y-15403348D02*
X16843220Y-15412872D01*
X16843220Y-15412872D02*
X16833696Y-15431919D01*
X16833696Y-15431919D02*
X16833696Y-15479538D01*
X16833696Y-15479538D02*
X16843220Y-15498586D01*
X16843220Y-15498586D02*
X16852743Y-15508110D01*
X16852743Y-15508110D02*
X16871791Y-15517634D01*
X16871791Y-15517634D02*
X16909886Y-15517634D01*
X16909886Y-15517634D02*
X16928934Y-15508110D01*
X16928934Y-15508110D02*
X16938458Y-15498586D01*
X16938458Y-15498586D02*
X16947981Y-15479538D01*
X17119410Y-15460491D02*
X17119410Y-15593824D01*
X17071791Y-15384300D02*
X17024172Y-15527157D01*
X17024172Y-15527157D02*
X17147981Y-15527157D01*
X17214648Y-15393824D02*
X17214648Y-15431919D01*
X17290839Y-15393824D02*
X17290839Y-15431919D01*
X17586077Y-15670015D02*
X17576553Y-15660491D01*
X17576553Y-15660491D02*
X17557505Y-15631919D01*
X17557505Y-15631919D02*
X17547982Y-15612872D01*
X17547982Y-15612872D02*
X17538458Y-15584300D01*
X17538458Y-15584300D02*
X17528934Y-15536681D01*
X17528934Y-15536681D02*
X17528934Y-15498586D01*
X17528934Y-15498586D02*
X17538458Y-15450967D01*
X17538458Y-15450967D02*
X17547982Y-15422396D01*
X17547982Y-15422396D02*
X17557505Y-15403348D01*
X17557505Y-15403348D02*
X17576553Y-15374776D01*
X17576553Y-15374776D02*
X17586077Y-15365253D01*
X17652743Y-15412872D02*
X17662267Y-15403348D01*
X17662267Y-15403348D02*
X17681315Y-15393824D01*
X17681315Y-15393824D02*
X17728934Y-15393824D01*
X17728934Y-15393824D02*
X17747982Y-15403348D01*
X17747982Y-15403348D02*
X17757505Y-15412872D01*
X17757505Y-15412872D02*
X17767029Y-15431919D01*
X17767029Y-15431919D02*
X17767029Y-15450967D01*
X17767029Y-15450967D02*
X17757505Y-15479538D01*
X17757505Y-15479538D02*
X17643220Y-15593824D01*
X17643220Y-15593824D02*
X17767029Y-15593824D01*
X18005124Y-15593824D02*
X18005124Y-15393824D01*
X18090839Y-15593824D02*
X18090839Y-15489062D01*
X18090839Y-15489062D02*
X18081315Y-15470015D01*
X18081315Y-15470015D02*
X18062267Y-15460491D01*
X18062267Y-15460491D02*
X18033696Y-15460491D01*
X18033696Y-15460491D02*
X18014648Y-15470015D01*
X18014648Y-15470015D02*
X18005124Y-15479538D01*
X18214648Y-15593824D02*
X18195601Y-15584300D01*
X18195601Y-15584300D02*
X18186077Y-15574776D01*
X18186077Y-15574776D02*
X18176553Y-15555729D01*
X18176553Y-15555729D02*
X18176553Y-15498586D01*
X18176553Y-15498586D02*
X18186077Y-15479538D01*
X18186077Y-15479538D02*
X18195601Y-15470015D01*
X18195601Y-15470015D02*
X18214648Y-15460491D01*
X18214648Y-15460491D02*
X18243220Y-15460491D01*
X18243220Y-15460491D02*
X18262267Y-15470015D01*
X18262267Y-15470015D02*
X18271791Y-15479538D01*
X18271791Y-15479538D02*
X18281315Y-15498586D01*
X18281315Y-15498586D02*
X18281315Y-15555729D01*
X18281315Y-15555729D02*
X18271791Y-15574776D01*
X18271791Y-15574776D02*
X18262267Y-15584300D01*
X18262267Y-15584300D02*
X18243220Y-15593824D01*
X18243220Y-15593824D02*
X18214648Y-15593824D01*
X18395601Y-15593824D02*
X18376553Y-15584300D01*
X18376553Y-15584300D02*
X18367029Y-15565253D01*
X18367029Y-15565253D02*
X18367029Y-15393824D01*
X18547982Y-15584300D02*
X18528934Y-15593824D01*
X18528934Y-15593824D02*
X18490839Y-15593824D01*
X18490839Y-15593824D02*
X18471791Y-15584300D01*
X18471791Y-15584300D02*
X18462267Y-15565253D01*
X18462267Y-15565253D02*
X18462267Y-15489062D01*
X18462267Y-15489062D02*
X18471791Y-15470015D01*
X18471791Y-15470015D02*
X18490839Y-15460491D01*
X18490839Y-15460491D02*
X18528934Y-15460491D01*
X18528934Y-15460491D02*
X18547982Y-15470015D01*
X18547982Y-15470015D02*
X18557505Y-15489062D01*
X18557505Y-15489062D02*
X18557505Y-15508110D01*
X18557505Y-15508110D02*
X18462267Y-15527157D01*
X18633696Y-15584300D02*
X18652744Y-15593824D01*
X18652744Y-15593824D02*
X18690839Y-15593824D01*
X18690839Y-15593824D02*
X18709886Y-15584300D01*
X18709886Y-15584300D02*
X18719410Y-15565253D01*
X18719410Y-15565253D02*
X18719410Y-15555729D01*
X18719410Y-15555729D02*
X18709886Y-15536681D01*
X18709886Y-15536681D02*
X18690839Y-15527157D01*
X18690839Y-15527157D02*
X18662267Y-15527157D01*
X18662267Y-15527157D02*
X18643220Y-15517634D01*
X18643220Y-15517634D02*
X18633696Y-15498586D01*
X18633696Y-15498586D02*
X18633696Y-15489062D01*
X18633696Y-15489062D02*
X18643220Y-15470015D01*
X18643220Y-15470015D02*
X18662267Y-15460491D01*
X18662267Y-15460491D02*
X18690839Y-15460491D01*
X18690839Y-15460491D02*
X18709886Y-15470015D01*
X18786077Y-15670015D02*
X18795601Y-15660491D01*
X18795601Y-15660491D02*
X18814648Y-15631919D01*
X18814648Y-15631919D02*
X18824172Y-15612872D01*
X18824172Y-15612872D02*
X18833696Y-15584300D01*
X18833696Y-15584300D02*
X18843220Y-15536681D01*
X18843220Y-15536681D02*
X18843220Y-15498586D01*
X18843220Y-15498586D02*
X18833696Y-15450967D01*
X18833696Y-15450967D02*
X18824172Y-15422396D01*
X18824172Y-15422396D02*
X18814648Y-15403348D01*
X18814648Y-15403348D02*
X18795601Y-15374776D01*
X18795601Y-15374776D02*
X18786077Y-15365253D01*
X19147982Y-15670015D02*
X19138458Y-15660491D01*
X19138458Y-15660491D02*
X19119410Y-15631919D01*
X19119410Y-15631919D02*
X19109886Y-15612872D01*
X19109886Y-15612872D02*
X19100363Y-15584300D01*
X19100363Y-15584300D02*
X19090839Y-15536681D01*
X19090839Y-15536681D02*
X19090839Y-15498586D01*
X19090839Y-15498586D02*
X19100363Y-15450967D01*
X19100363Y-15450967D02*
X19109886Y-15422396D01*
X19109886Y-15422396D02*
X19119410Y-15403348D01*
X19119410Y-15403348D02*
X19138458Y-15374776D01*
X19138458Y-15374776D02*
X19147982Y-15365253D01*
X19224172Y-15460491D02*
X19224172Y-15593824D01*
X19224172Y-15479538D02*
X19233696Y-15470015D01*
X19233696Y-15470015D02*
X19252744Y-15460491D01*
X19252744Y-15460491D02*
X19281315Y-15460491D01*
X19281315Y-15460491D02*
X19300363Y-15470015D01*
X19300363Y-15470015D02*
X19309886Y-15489062D01*
X19309886Y-15489062D02*
X19309886Y-15593824D01*
X19433696Y-15593824D02*
X19414648Y-15584300D01*
X19414648Y-15584300D02*
X19405125Y-15574776D01*
X19405125Y-15574776D02*
X19395601Y-15555729D01*
X19395601Y-15555729D02*
X19395601Y-15498586D01*
X19395601Y-15498586D02*
X19405125Y-15479538D01*
X19405125Y-15479538D02*
X19414648Y-15470015D01*
X19414648Y-15470015D02*
X19433696Y-15460491D01*
X19433696Y-15460491D02*
X19462267Y-15460491D01*
X19462267Y-15460491D02*
X19481315Y-15470015D01*
X19481315Y-15470015D02*
X19490839Y-15479538D01*
X19490839Y-15479538D02*
X19500363Y-15498586D01*
X19500363Y-15498586D02*
X19500363Y-15555729D01*
X19500363Y-15555729D02*
X19490839Y-15574776D01*
X19490839Y-15574776D02*
X19481315Y-15584300D01*
X19481315Y-15584300D02*
X19462267Y-15593824D01*
X19462267Y-15593824D02*
X19433696Y-15593824D01*
X19557506Y-15460491D02*
X19633696Y-15460491D01*
X19586077Y-15393824D02*
X19586077Y-15565253D01*
X19586077Y-15565253D02*
X19595601Y-15584300D01*
X19595601Y-15584300D02*
X19614648Y-15593824D01*
X19614648Y-15593824D02*
X19633696Y-15593824D01*
X19852744Y-15460491D02*
X19852744Y-15660491D01*
X19852744Y-15470015D02*
X19871791Y-15460491D01*
X19871791Y-15460491D02*
X19909887Y-15460491D01*
X19909887Y-15460491D02*
X19928934Y-15470015D01*
X19928934Y-15470015D02*
X19938458Y-15479538D01*
X19938458Y-15479538D02*
X19947982Y-15498586D01*
X19947982Y-15498586D02*
X19947982Y-15555729D01*
X19947982Y-15555729D02*
X19938458Y-15574776D01*
X19938458Y-15574776D02*
X19928934Y-15584300D01*
X19928934Y-15584300D02*
X19909887Y-15593824D01*
X19909887Y-15593824D02*
X19871791Y-15593824D01*
X19871791Y-15593824D02*
X19852744Y-15584300D01*
X20062267Y-15593824D02*
X20043220Y-15584300D01*
X20043220Y-15584300D02*
X20033696Y-15565253D01*
X20033696Y-15565253D02*
X20033696Y-15393824D01*
X20224172Y-15593824D02*
X20224172Y-15489062D01*
X20224172Y-15489062D02*
X20214648Y-15470015D01*
X20214648Y-15470015D02*
X20195601Y-15460491D01*
X20195601Y-15460491D02*
X20157506Y-15460491D01*
X20157506Y-15460491D02*
X20138458Y-15470015D01*
X20224172Y-15584300D02*
X20205125Y-15593824D01*
X20205125Y-15593824D02*
X20157506Y-15593824D01*
X20157506Y-15593824D02*
X20138458Y-15584300D01*
X20138458Y-15584300D02*
X20128934Y-15565253D01*
X20128934Y-15565253D02*
X20128934Y-15546205D01*
X20128934Y-15546205D02*
X20138458Y-15527157D01*
X20138458Y-15527157D02*
X20157506Y-15517634D01*
X20157506Y-15517634D02*
X20205125Y-15517634D01*
X20205125Y-15517634D02*
X20224172Y-15508110D01*
X20290839Y-15460491D02*
X20367029Y-15460491D01*
X20319410Y-15393824D02*
X20319410Y-15565253D01*
X20319410Y-15565253D02*
X20328934Y-15584300D01*
X20328934Y-15584300D02*
X20347982Y-15593824D01*
X20347982Y-15593824D02*
X20367029Y-15593824D01*
X20509887Y-15584300D02*
X20490839Y-15593824D01*
X20490839Y-15593824D02*
X20452744Y-15593824D01*
X20452744Y-15593824D02*
X20433696Y-15584300D01*
X20433696Y-15584300D02*
X20424172Y-15565253D01*
X20424172Y-15565253D02*
X20424172Y-15489062D01*
X20424172Y-15489062D02*
X20433696Y-15470015D01*
X20433696Y-15470015D02*
X20452744Y-15460491D01*
X20452744Y-15460491D02*
X20490839Y-15460491D01*
X20490839Y-15460491D02*
X20509887Y-15470015D01*
X20509887Y-15470015D02*
X20519410Y-15489062D01*
X20519410Y-15489062D02*
X20519410Y-15508110D01*
X20519410Y-15508110D02*
X20424172Y-15527157D01*
X20690839Y-15593824D02*
X20690839Y-15393824D01*
X20690839Y-15584300D02*
X20671791Y-15593824D01*
X20671791Y-15593824D02*
X20633696Y-15593824D01*
X20633696Y-15593824D02*
X20614648Y-15584300D01*
X20614648Y-15584300D02*
X20605125Y-15574776D01*
X20605125Y-15574776D02*
X20595601Y-15555729D01*
X20595601Y-15555729D02*
X20595601Y-15498586D01*
X20595601Y-15498586D02*
X20605125Y-15479538D01*
X20605125Y-15479538D02*
X20614648Y-15470015D01*
X20614648Y-15470015D02*
X20633696Y-15460491D01*
X20633696Y-15460491D02*
X20671791Y-15460491D01*
X20671791Y-15460491D02*
X20690839Y-15470015D01*
X20767029Y-15670015D02*
X20776553Y-15660491D01*
X20776553Y-15660491D02*
X20795601Y-15631919D01*
X20795601Y-15631919D02*
X20805125Y-15612872D01*
X20805125Y-15612872D02*
X20814648Y-15584300D01*
X20814648Y-15584300D02*
X20824172Y-15536681D01*
X20824172Y-15536681D02*
X20824172Y-15498586D01*
X20824172Y-15498586D02*
X20814648Y-15450967D01*
X20814648Y-15450967D02*
X20805125Y-15422396D01*
X20805125Y-15422396D02*
X20795601Y-15403348D01*
X20795601Y-15403348D02*
X20776553Y-15374776D01*
X20776553Y-15374776D02*
X20767029Y-15365253D01*
X13911014Y-15666340D02*
X13911014Y-15866340D01*
X13811014Y-15766340D02*
X14011014Y-15766340D01*
X14262267Y-15676872D02*
X14271791Y-15667348D01*
X14271791Y-15667348D02*
X14290838Y-15657824D01*
X14290838Y-15657824D02*
X14338457Y-15657824D01*
X14338457Y-15657824D02*
X14357505Y-15667348D01*
X14357505Y-15667348D02*
X14367029Y-15676872D01*
X14367029Y-15676872D02*
X14376553Y-15695919D01*
X14376553Y-15695919D02*
X14376553Y-15714967D01*
X14376553Y-15714967D02*
X14367029Y-15743538D01*
X14367029Y-15743538D02*
X14252743Y-15857824D01*
X14252743Y-15857824D02*
X14376553Y-15857824D01*
X14462267Y-15838776D02*
X14471791Y-15848300D01*
X14471791Y-15848300D02*
X14462267Y-15857824D01*
X14462267Y-15857824D02*
X14452743Y-15848300D01*
X14452743Y-15848300D02*
X14462267Y-15838776D01*
X14462267Y-15838776D02*
X14462267Y-15857824D01*
X14547981Y-15676872D02*
X14557505Y-15667348D01*
X14557505Y-15667348D02*
X14576553Y-15657824D01*
X14576553Y-15657824D02*
X14624172Y-15657824D01*
X14624172Y-15657824D02*
X14643219Y-15667348D01*
X14643219Y-15667348D02*
X14652743Y-15676872D01*
X14652743Y-15676872D02*
X14662267Y-15695919D01*
X14662267Y-15695919D02*
X14662267Y-15714967D01*
X14662267Y-15714967D02*
X14652743Y-15743538D01*
X14652743Y-15743538D02*
X14538457Y-15857824D01*
X14538457Y-15857824D02*
X14662267Y-15857824D01*
X14843219Y-15657824D02*
X14747981Y-15657824D01*
X14747981Y-15657824D02*
X14738457Y-15753062D01*
X14738457Y-15753062D02*
X14747981Y-15743538D01*
X14747981Y-15743538D02*
X14767029Y-15734015D01*
X14767029Y-15734015D02*
X14814648Y-15734015D01*
X14814648Y-15734015D02*
X14833695Y-15743538D01*
X14833695Y-15743538D02*
X14843219Y-15753062D01*
X14843219Y-15753062D02*
X14852743Y-15772110D01*
X14852743Y-15772110D02*
X14852743Y-15819729D01*
X14852743Y-15819729D02*
X14843219Y-15838776D01*
X14843219Y-15838776D02*
X14833695Y-15848300D01*
X14833695Y-15848300D02*
X14814648Y-15857824D01*
X14814648Y-15857824D02*
X14767029Y-15857824D01*
X14767029Y-15857824D02*
X14747981Y-15848300D01*
X14747981Y-15848300D02*
X14738457Y-15838776D01*
X14976553Y-15657824D02*
X14995600Y-15657824D01*
X14995600Y-15657824D02*
X15014648Y-15667348D01*
X15014648Y-15667348D02*
X15024172Y-15676872D01*
X15024172Y-15676872D02*
X15033695Y-15695919D01*
X15033695Y-15695919D02*
X15043219Y-15734015D01*
X15043219Y-15734015D02*
X15043219Y-15781634D01*
X15043219Y-15781634D02*
X15033695Y-15819729D01*
X15033695Y-15819729D02*
X15024172Y-15838776D01*
X15024172Y-15838776D02*
X15014648Y-15848300D01*
X15014648Y-15848300D02*
X14995600Y-15857824D01*
X14995600Y-15857824D02*
X14976553Y-15857824D01*
X14976553Y-15857824D02*
X14957505Y-15848300D01*
X14957505Y-15848300D02*
X14947981Y-15838776D01*
X14947981Y-15838776D02*
X14938457Y-15819729D01*
X14938457Y-15819729D02*
X14928934Y-15781634D01*
X14928934Y-15781634D02*
X14928934Y-15734015D01*
X14928934Y-15734015D02*
X14938457Y-15695919D01*
X14938457Y-15695919D02*
X14947981Y-15676872D01*
X14947981Y-15676872D02*
X14957505Y-15667348D01*
X14957505Y-15667348D02*
X14976553Y-15657824D01*
X15128934Y-15857824D02*
X15128934Y-15724491D01*
X15128934Y-15743538D02*
X15138457Y-15734015D01*
X15138457Y-15734015D02*
X15157505Y-15724491D01*
X15157505Y-15724491D02*
X15186076Y-15724491D01*
X15186076Y-15724491D02*
X15205124Y-15734015D01*
X15205124Y-15734015D02*
X15214648Y-15753062D01*
X15214648Y-15753062D02*
X15214648Y-15857824D01*
X15214648Y-15753062D02*
X15224172Y-15734015D01*
X15224172Y-15734015D02*
X15243219Y-15724491D01*
X15243219Y-15724491D02*
X15271791Y-15724491D01*
X15271791Y-15724491D02*
X15290838Y-15734015D01*
X15290838Y-15734015D02*
X15300362Y-15753062D01*
X15300362Y-15753062D02*
X15300362Y-15857824D01*
X15395600Y-15857824D02*
X15395600Y-15724491D01*
X15395600Y-15743538D02*
X15405124Y-15734015D01*
X15405124Y-15734015D02*
X15424172Y-15724491D01*
X15424172Y-15724491D02*
X15452743Y-15724491D01*
X15452743Y-15724491D02*
X15471791Y-15734015D01*
X15471791Y-15734015D02*
X15481315Y-15753062D01*
X15481315Y-15753062D02*
X15481315Y-15857824D01*
X15481315Y-15753062D02*
X15490838Y-15734015D01*
X15490838Y-15734015D02*
X15509886Y-15724491D01*
X15509886Y-15724491D02*
X15538457Y-15724491D01*
X15538457Y-15724491D02*
X15557505Y-15734015D01*
X15557505Y-15734015D02*
X15567029Y-15753062D01*
X15567029Y-15753062D02*
X15567029Y-15857824D01*
X15957505Y-15648300D02*
X15786077Y-15905443D01*
X16214648Y-15657824D02*
X16233696Y-15657824D01*
X16233696Y-15657824D02*
X16252743Y-15667348D01*
X16252743Y-15667348D02*
X16262267Y-15676872D01*
X16262267Y-15676872D02*
X16271791Y-15695919D01*
X16271791Y-15695919D02*
X16281315Y-15734015D01*
X16281315Y-15734015D02*
X16281315Y-15781634D01*
X16281315Y-15781634D02*
X16271791Y-15819729D01*
X16271791Y-15819729D02*
X16262267Y-15838776D01*
X16262267Y-15838776D02*
X16252743Y-15848300D01*
X16252743Y-15848300D02*
X16233696Y-15857824D01*
X16233696Y-15857824D02*
X16214648Y-15857824D01*
X16214648Y-15857824D02*
X16195600Y-15848300D01*
X16195600Y-15848300D02*
X16186077Y-15838776D01*
X16186077Y-15838776D02*
X16176553Y-15819729D01*
X16176553Y-15819729D02*
X16167029Y-15781634D01*
X16167029Y-15781634D02*
X16167029Y-15734015D01*
X16167029Y-15734015D02*
X16176553Y-15695919D01*
X16176553Y-15695919D02*
X16186077Y-15676872D01*
X16186077Y-15676872D02*
X16195600Y-15667348D01*
X16195600Y-15667348D02*
X16214648Y-15657824D01*
X16367029Y-15838776D02*
X16376553Y-15848300D01*
X16376553Y-15848300D02*
X16367029Y-15857824D01*
X16367029Y-15857824D02*
X16357505Y-15848300D01*
X16357505Y-15848300D02*
X16367029Y-15838776D01*
X16367029Y-15838776D02*
X16367029Y-15857824D01*
X16500362Y-15657824D02*
X16519410Y-15657824D01*
X16519410Y-15657824D02*
X16538458Y-15667348D01*
X16538458Y-15667348D02*
X16547981Y-15676872D01*
X16547981Y-15676872D02*
X16557505Y-15695919D01*
X16557505Y-15695919D02*
X16567029Y-15734015D01*
X16567029Y-15734015D02*
X16567029Y-15781634D01*
X16567029Y-15781634D02*
X16557505Y-15819729D01*
X16557505Y-15819729D02*
X16547981Y-15838776D01*
X16547981Y-15838776D02*
X16538458Y-15848300D01*
X16538458Y-15848300D02*
X16519410Y-15857824D01*
X16519410Y-15857824D02*
X16500362Y-15857824D01*
X16500362Y-15857824D02*
X16481315Y-15848300D01*
X16481315Y-15848300D02*
X16471791Y-15838776D01*
X16471791Y-15838776D02*
X16462267Y-15819729D01*
X16462267Y-15819729D02*
X16452743Y-15781634D01*
X16452743Y-15781634D02*
X16452743Y-15734015D01*
X16452743Y-15734015D02*
X16462267Y-15695919D01*
X16462267Y-15695919D02*
X16471791Y-15676872D01*
X16471791Y-15676872D02*
X16481315Y-15667348D01*
X16481315Y-15667348D02*
X16500362Y-15657824D01*
X16681315Y-15743538D02*
X16662267Y-15734015D01*
X16662267Y-15734015D02*
X16652743Y-15724491D01*
X16652743Y-15724491D02*
X16643219Y-15705443D01*
X16643219Y-15705443D02*
X16643219Y-15695919D01*
X16643219Y-15695919D02*
X16652743Y-15676872D01*
X16652743Y-15676872D02*
X16662267Y-15667348D01*
X16662267Y-15667348D02*
X16681315Y-15657824D01*
X16681315Y-15657824D02*
X16719410Y-15657824D01*
X16719410Y-15657824D02*
X16738458Y-15667348D01*
X16738458Y-15667348D02*
X16747981Y-15676872D01*
X16747981Y-15676872D02*
X16757505Y-15695919D01*
X16757505Y-15695919D02*
X16757505Y-15705443D01*
X16757505Y-15705443D02*
X16747981Y-15724491D01*
X16747981Y-15724491D02*
X16738458Y-15734015D01*
X16738458Y-15734015D02*
X16719410Y-15743538D01*
X16719410Y-15743538D02*
X16681315Y-15743538D01*
X16681315Y-15743538D02*
X16662267Y-15753062D01*
X16662267Y-15753062D02*
X16652743Y-15762586D01*
X16652743Y-15762586D02*
X16643219Y-15781634D01*
X16643219Y-15781634D02*
X16643219Y-15819729D01*
X16643219Y-15819729D02*
X16652743Y-15838776D01*
X16652743Y-15838776D02*
X16662267Y-15848300D01*
X16662267Y-15848300D02*
X16681315Y-15857824D01*
X16681315Y-15857824D02*
X16719410Y-15857824D01*
X16719410Y-15857824D02*
X16738458Y-15848300D01*
X16738458Y-15848300D02*
X16747981Y-15838776D01*
X16747981Y-15838776D02*
X16757505Y-15819729D01*
X16757505Y-15819729D02*
X16757505Y-15781634D01*
X16757505Y-15781634D02*
X16747981Y-15762586D01*
X16747981Y-15762586D02*
X16738458Y-15753062D01*
X16738458Y-15753062D02*
X16719410Y-15743538D01*
X16871791Y-15743538D02*
X16852743Y-15734015D01*
X16852743Y-15734015D02*
X16843220Y-15724491D01*
X16843220Y-15724491D02*
X16833696Y-15705443D01*
X16833696Y-15705443D02*
X16833696Y-15695919D01*
X16833696Y-15695919D02*
X16843220Y-15676872D01*
X16843220Y-15676872D02*
X16852743Y-15667348D01*
X16852743Y-15667348D02*
X16871791Y-15657824D01*
X16871791Y-15657824D02*
X16909886Y-15657824D01*
X16909886Y-15657824D02*
X16928934Y-15667348D01*
X16928934Y-15667348D02*
X16938458Y-15676872D01*
X16938458Y-15676872D02*
X16947981Y-15695919D01*
X16947981Y-15695919D02*
X16947981Y-15705443D01*
X16947981Y-15705443D02*
X16938458Y-15724491D01*
X16938458Y-15724491D02*
X16928934Y-15734015D01*
X16928934Y-15734015D02*
X16909886Y-15743538D01*
X16909886Y-15743538D02*
X16871791Y-15743538D01*
X16871791Y-15743538D02*
X16852743Y-15753062D01*
X16852743Y-15753062D02*
X16843220Y-15762586D01*
X16843220Y-15762586D02*
X16833696Y-15781634D01*
X16833696Y-15781634D02*
X16833696Y-15819729D01*
X16833696Y-15819729D02*
X16843220Y-15838776D01*
X16843220Y-15838776D02*
X16852743Y-15848300D01*
X16852743Y-15848300D02*
X16871791Y-15857824D01*
X16871791Y-15857824D02*
X16909886Y-15857824D01*
X16909886Y-15857824D02*
X16928934Y-15848300D01*
X16928934Y-15848300D02*
X16938458Y-15838776D01*
X16938458Y-15838776D02*
X16947981Y-15819729D01*
X16947981Y-15819729D02*
X16947981Y-15781634D01*
X16947981Y-15781634D02*
X16938458Y-15762586D01*
X16938458Y-15762586D02*
X16928934Y-15753062D01*
X16928934Y-15753062D02*
X16909886Y-15743538D01*
X17119410Y-15657824D02*
X17081315Y-15657824D01*
X17081315Y-15657824D02*
X17062267Y-15667348D01*
X17062267Y-15667348D02*
X17052743Y-15676872D01*
X17052743Y-15676872D02*
X17033696Y-15705443D01*
X17033696Y-15705443D02*
X17024172Y-15743538D01*
X17024172Y-15743538D02*
X17024172Y-15819729D01*
X17024172Y-15819729D02*
X17033696Y-15838776D01*
X17033696Y-15838776D02*
X17043220Y-15848300D01*
X17043220Y-15848300D02*
X17062267Y-15857824D01*
X17062267Y-15857824D02*
X17100362Y-15857824D01*
X17100362Y-15857824D02*
X17119410Y-15848300D01*
X17119410Y-15848300D02*
X17128934Y-15838776D01*
X17128934Y-15838776D02*
X17138458Y-15819729D01*
X17138458Y-15819729D02*
X17138458Y-15772110D01*
X17138458Y-15772110D02*
X17128934Y-15753062D01*
X17128934Y-15753062D02*
X17119410Y-15743538D01*
X17119410Y-15743538D02*
X17100362Y-15734015D01*
X17100362Y-15734015D02*
X17062267Y-15734015D01*
X17062267Y-15734015D02*
X17043220Y-15743538D01*
X17043220Y-15743538D02*
X17033696Y-15753062D01*
X17033696Y-15753062D02*
X17024172Y-15772110D01*
X17214648Y-15657824D02*
X17214648Y-15695919D01*
X17290839Y-15657824D02*
X17290839Y-15695919D01*
X17586077Y-15934015D02*
X17576553Y-15924491D01*
X17576553Y-15924491D02*
X17557505Y-15895919D01*
X17557505Y-15895919D02*
X17547982Y-15876872D01*
X17547982Y-15876872D02*
X17538458Y-15848300D01*
X17538458Y-15848300D02*
X17528934Y-15800681D01*
X17528934Y-15800681D02*
X17528934Y-15762586D01*
X17528934Y-15762586D02*
X17538458Y-15714967D01*
X17538458Y-15714967D02*
X17547982Y-15686396D01*
X17547982Y-15686396D02*
X17557505Y-15667348D01*
X17557505Y-15667348D02*
X17576553Y-15638776D01*
X17576553Y-15638776D02*
X17586077Y-15629253D01*
X17652743Y-15676872D02*
X17662267Y-15667348D01*
X17662267Y-15667348D02*
X17681315Y-15657824D01*
X17681315Y-15657824D02*
X17728934Y-15657824D01*
X17728934Y-15657824D02*
X17747982Y-15667348D01*
X17747982Y-15667348D02*
X17757505Y-15676872D01*
X17757505Y-15676872D02*
X17767029Y-15695919D01*
X17767029Y-15695919D02*
X17767029Y-15714967D01*
X17767029Y-15714967D02*
X17757505Y-15743538D01*
X17757505Y-15743538D02*
X17643220Y-15857824D01*
X17643220Y-15857824D02*
X17767029Y-15857824D01*
X18005124Y-15857824D02*
X18005124Y-15657824D01*
X18090839Y-15857824D02*
X18090839Y-15753062D01*
X18090839Y-15753062D02*
X18081315Y-15734015D01*
X18081315Y-15734015D02*
X18062267Y-15724491D01*
X18062267Y-15724491D02*
X18033696Y-15724491D01*
X18033696Y-15724491D02*
X18014648Y-15734015D01*
X18014648Y-15734015D02*
X18005124Y-15743538D01*
X18214648Y-15857824D02*
X18195601Y-15848300D01*
X18195601Y-15848300D02*
X18186077Y-15838776D01*
X18186077Y-15838776D02*
X18176553Y-15819729D01*
X18176553Y-15819729D02*
X18176553Y-15762586D01*
X18176553Y-15762586D02*
X18186077Y-15743538D01*
X18186077Y-15743538D02*
X18195601Y-15734015D01*
X18195601Y-15734015D02*
X18214648Y-15724491D01*
X18214648Y-15724491D02*
X18243220Y-15724491D01*
X18243220Y-15724491D02*
X18262267Y-15734015D01*
X18262267Y-15734015D02*
X18271791Y-15743538D01*
X18271791Y-15743538D02*
X18281315Y-15762586D01*
X18281315Y-15762586D02*
X18281315Y-15819729D01*
X18281315Y-15819729D02*
X18271791Y-15838776D01*
X18271791Y-15838776D02*
X18262267Y-15848300D01*
X18262267Y-15848300D02*
X18243220Y-15857824D01*
X18243220Y-15857824D02*
X18214648Y-15857824D01*
X18395601Y-15857824D02*
X18376553Y-15848300D01*
X18376553Y-15848300D02*
X18367029Y-15829253D01*
X18367029Y-15829253D02*
X18367029Y-15657824D01*
X18547982Y-15848300D02*
X18528934Y-15857824D01*
X18528934Y-15857824D02*
X18490839Y-15857824D01*
X18490839Y-15857824D02*
X18471791Y-15848300D01*
X18471791Y-15848300D02*
X18462267Y-15829253D01*
X18462267Y-15829253D02*
X18462267Y-15753062D01*
X18462267Y-15753062D02*
X18471791Y-15734015D01*
X18471791Y-15734015D02*
X18490839Y-15724491D01*
X18490839Y-15724491D02*
X18528934Y-15724491D01*
X18528934Y-15724491D02*
X18547982Y-15734015D01*
X18547982Y-15734015D02*
X18557505Y-15753062D01*
X18557505Y-15753062D02*
X18557505Y-15772110D01*
X18557505Y-15772110D02*
X18462267Y-15791157D01*
X18633696Y-15848300D02*
X18652744Y-15857824D01*
X18652744Y-15857824D02*
X18690839Y-15857824D01*
X18690839Y-15857824D02*
X18709886Y-15848300D01*
X18709886Y-15848300D02*
X18719410Y-15829253D01*
X18719410Y-15829253D02*
X18719410Y-15819729D01*
X18719410Y-15819729D02*
X18709886Y-15800681D01*
X18709886Y-15800681D02*
X18690839Y-15791157D01*
X18690839Y-15791157D02*
X18662267Y-15791157D01*
X18662267Y-15791157D02*
X18643220Y-15781634D01*
X18643220Y-15781634D02*
X18633696Y-15762586D01*
X18633696Y-15762586D02*
X18633696Y-15753062D01*
X18633696Y-15753062D02*
X18643220Y-15734015D01*
X18643220Y-15734015D02*
X18662267Y-15724491D01*
X18662267Y-15724491D02*
X18690839Y-15724491D01*
X18690839Y-15724491D02*
X18709886Y-15734015D01*
X18786077Y-15934015D02*
X18795601Y-15924491D01*
X18795601Y-15924491D02*
X18814648Y-15895919D01*
X18814648Y-15895919D02*
X18824172Y-15876872D01*
X18824172Y-15876872D02*
X18833696Y-15848300D01*
X18833696Y-15848300D02*
X18843220Y-15800681D01*
X18843220Y-15800681D02*
X18843220Y-15762586D01*
X18843220Y-15762586D02*
X18833696Y-15714967D01*
X18833696Y-15714967D02*
X18824172Y-15686396D01*
X18824172Y-15686396D02*
X18814648Y-15667348D01*
X18814648Y-15667348D02*
X18795601Y-15638776D01*
X18795601Y-15638776D02*
X18786077Y-15629253D01*
X19147982Y-15934015D02*
X19138458Y-15924491D01*
X19138458Y-15924491D02*
X19119410Y-15895919D01*
X19119410Y-15895919D02*
X19109886Y-15876872D01*
X19109886Y-15876872D02*
X19100363Y-15848300D01*
X19100363Y-15848300D02*
X19090839Y-15800681D01*
X19090839Y-15800681D02*
X19090839Y-15762586D01*
X19090839Y-15762586D02*
X19100363Y-15714967D01*
X19100363Y-15714967D02*
X19109886Y-15686396D01*
X19109886Y-15686396D02*
X19119410Y-15667348D01*
X19119410Y-15667348D02*
X19138458Y-15638776D01*
X19138458Y-15638776D02*
X19147982Y-15629253D01*
X19224172Y-15724491D02*
X19224172Y-15857824D01*
X19224172Y-15743538D02*
X19233696Y-15734015D01*
X19233696Y-15734015D02*
X19252744Y-15724491D01*
X19252744Y-15724491D02*
X19281315Y-15724491D01*
X19281315Y-15724491D02*
X19300363Y-15734015D01*
X19300363Y-15734015D02*
X19309886Y-15753062D01*
X19309886Y-15753062D02*
X19309886Y-15857824D01*
X19433696Y-15857824D02*
X19414648Y-15848300D01*
X19414648Y-15848300D02*
X19405125Y-15838776D01*
X19405125Y-15838776D02*
X19395601Y-15819729D01*
X19395601Y-15819729D02*
X19395601Y-15762586D01*
X19395601Y-15762586D02*
X19405125Y-15743538D01*
X19405125Y-15743538D02*
X19414648Y-15734015D01*
X19414648Y-15734015D02*
X19433696Y-15724491D01*
X19433696Y-15724491D02*
X19462267Y-15724491D01*
X19462267Y-15724491D02*
X19481315Y-15734015D01*
X19481315Y-15734015D02*
X19490839Y-15743538D01*
X19490839Y-15743538D02*
X19500363Y-15762586D01*
X19500363Y-15762586D02*
X19500363Y-15819729D01*
X19500363Y-15819729D02*
X19490839Y-15838776D01*
X19490839Y-15838776D02*
X19481315Y-15848300D01*
X19481315Y-15848300D02*
X19462267Y-15857824D01*
X19462267Y-15857824D02*
X19433696Y-15857824D01*
X19557506Y-15724491D02*
X19633696Y-15724491D01*
X19586077Y-15657824D02*
X19586077Y-15829253D01*
X19586077Y-15829253D02*
X19595601Y-15848300D01*
X19595601Y-15848300D02*
X19614648Y-15857824D01*
X19614648Y-15857824D02*
X19633696Y-15857824D01*
X19852744Y-15724491D02*
X19852744Y-15924491D01*
X19852744Y-15734015D02*
X19871791Y-15724491D01*
X19871791Y-15724491D02*
X19909887Y-15724491D01*
X19909887Y-15724491D02*
X19928934Y-15734015D01*
X19928934Y-15734015D02*
X19938458Y-15743538D01*
X19938458Y-15743538D02*
X19947982Y-15762586D01*
X19947982Y-15762586D02*
X19947982Y-15819729D01*
X19947982Y-15819729D02*
X19938458Y-15838776D01*
X19938458Y-15838776D02*
X19928934Y-15848300D01*
X19928934Y-15848300D02*
X19909887Y-15857824D01*
X19909887Y-15857824D02*
X19871791Y-15857824D01*
X19871791Y-15857824D02*
X19852744Y-15848300D01*
X20062267Y-15857824D02*
X20043220Y-15848300D01*
X20043220Y-15848300D02*
X20033696Y-15829253D01*
X20033696Y-15829253D02*
X20033696Y-15657824D01*
X20224172Y-15857824D02*
X20224172Y-15753062D01*
X20224172Y-15753062D02*
X20214648Y-15734015D01*
X20214648Y-15734015D02*
X20195601Y-15724491D01*
X20195601Y-15724491D02*
X20157506Y-15724491D01*
X20157506Y-15724491D02*
X20138458Y-15734015D01*
X20224172Y-15848300D02*
X20205125Y-15857824D01*
X20205125Y-15857824D02*
X20157506Y-15857824D01*
X20157506Y-15857824D02*
X20138458Y-15848300D01*
X20138458Y-15848300D02*
X20128934Y-15829253D01*
X20128934Y-15829253D02*
X20128934Y-15810205D01*
X20128934Y-15810205D02*
X20138458Y-15791157D01*
X20138458Y-15791157D02*
X20157506Y-15781634D01*
X20157506Y-15781634D02*
X20205125Y-15781634D01*
X20205125Y-15781634D02*
X20224172Y-15772110D01*
X20290839Y-15724491D02*
X20367029Y-15724491D01*
X20319410Y-15657824D02*
X20319410Y-15829253D01*
X20319410Y-15829253D02*
X20328934Y-15848300D01*
X20328934Y-15848300D02*
X20347982Y-15857824D01*
X20347982Y-15857824D02*
X20367029Y-15857824D01*
X20509887Y-15848300D02*
X20490839Y-15857824D01*
X20490839Y-15857824D02*
X20452744Y-15857824D01*
X20452744Y-15857824D02*
X20433696Y-15848300D01*
X20433696Y-15848300D02*
X20424172Y-15829253D01*
X20424172Y-15829253D02*
X20424172Y-15753062D01*
X20424172Y-15753062D02*
X20433696Y-15734015D01*
X20433696Y-15734015D02*
X20452744Y-15724491D01*
X20452744Y-15724491D02*
X20490839Y-15724491D01*
X20490839Y-15724491D02*
X20509887Y-15734015D01*
X20509887Y-15734015D02*
X20519410Y-15753062D01*
X20519410Y-15753062D02*
X20519410Y-15772110D01*
X20519410Y-15772110D02*
X20424172Y-15791157D01*
X20690839Y-15857824D02*
X20690839Y-15657824D01*
X20690839Y-15848300D02*
X20671791Y-15857824D01*
X20671791Y-15857824D02*
X20633696Y-15857824D01*
X20633696Y-15857824D02*
X20614648Y-15848300D01*
X20614648Y-15848300D02*
X20605125Y-15838776D01*
X20605125Y-15838776D02*
X20595601Y-15819729D01*
X20595601Y-15819729D02*
X20595601Y-15762586D01*
X20595601Y-15762586D02*
X20605125Y-15743538D01*
X20605125Y-15743538D02*
X20614648Y-15734015D01*
X20614648Y-15734015D02*
X20633696Y-15724491D01*
X20633696Y-15724491D02*
X20671791Y-15724491D01*
X20671791Y-15724491D02*
X20690839Y-15734015D01*
X20767029Y-15934015D02*
X20776553Y-15924491D01*
X20776553Y-15924491D02*
X20795601Y-15895919D01*
X20795601Y-15895919D02*
X20805125Y-15876872D01*
X20805125Y-15876872D02*
X20814648Y-15848300D01*
X20814648Y-15848300D02*
X20824172Y-15800681D01*
X20824172Y-15800681D02*
X20824172Y-15762586D01*
X20824172Y-15762586D02*
X20814648Y-15714967D01*
X20814648Y-15714967D02*
X20805125Y-15686396D01*
X20805125Y-15686396D02*
X20795601Y-15667348D01*
X20795601Y-15667348D02*
X20776553Y-15638776D01*
X20776553Y-15638776D02*
X20767029Y-15629253D01*
M02*
